<svg width="453" height="450" viewBox="0 0 453 450" fill="none" xmlns="http://www.w3.org/2000/svg">
<path d="M395.384 383.377C386.309 392.977 377.721 399.167 370.936 404.058C291.182 461.55 196.811 444.791 176.754 440.699C147.137 434.655 89.8879 422.973 48.4976 374.072C-14.1224 300.089 -4.37148 183.53 44.2007 106.587C53.0853 92.5132 100.016 14.3989 195.404 1.87193C253.131 -5.70938 320.423 9.58112 369.154 50.5984C471.444 136.697 464.162 310.633 395.384 383.377Z" fill="#FAFAFA"/>
<path d="M261.745 90.3738C260.538 90.3738 259.56 89.3905 259.56 88.1778V73.904C259.56 72.6912 260.538 71.708 261.745 71.708C262.953 71.708 263.931 72.6912 263.931 73.904V88.1778C263.931 89.3905 262.953 90.3738 261.745 90.3738Z" fill="#009589"/>
<path d="M268.849 79.9428C268.849 80.8524 268.115 81.5898 267.21 81.5898H256.281C255.376 81.5898 254.642 80.8524 254.642 79.9428C254.642 79.0332 255.376 78.2959 256.281 78.2959H267.21C268.115 78.2959 268.849 79.0332 268.849 79.9428Z" fill="#009589"/>
<path d="M268.849 88.1772C268.849 89.0868 268.115 89.8241 267.21 89.8241H256.281C255.376 89.8241 254.642 89.0868 254.642 88.1772C254.642 87.2676 255.376 86.5303 256.281 86.5303H267.21C268.115 86.5301 268.849 87.2675 268.849 88.1772Z" fill="#009589"/>
<path d="M445.35 90.3738C444.143 90.3738 443.164 89.3905 443.164 88.1778V73.904C443.164 72.6912 444.143 71.708 445.35 71.708C446.557 71.708 447.536 72.6912 447.536 73.904V88.1778C447.536 89.3905 446.557 90.3738 445.35 90.3738Z" fill="#009589"/>
<path d="M453 79.9428C453 80.8524 452.266 81.5898 451.361 81.5898H440.432C439.526 81.5898 438.792 80.8524 438.792 79.9428C438.792 79.0332 439.526 78.2959 440.432 78.2959H451.361C452.266 78.2959 453 79.0332 453 79.9428Z" fill="#009589"/>
<path d="M453 88.1772C453 89.0868 452.266 89.8241 451.361 89.8241H440.432C439.526 89.8241 438.792 89.0868 438.792 88.1772C438.792 87.2676 439.526 86.5303 440.432 86.5303H451.361C452.266 86.5301 453 87.2675 453 88.1772Z" fill="#009589"/>
<path d="M443.164 160.095C441.957 160.095 440.978 159.112 440.978 157.899V143.626C440.978 142.413 441.957 141.43 443.164 141.43C444.371 141.43 445.35 142.413 445.35 143.626V157.899C445.349 159.112 444.371 160.095 443.164 160.095Z" fill="#009589"/>
<path d="M450.814 149.664C450.814 150.573 450.08 151.31 449.175 151.31H438.246C437.34 151.31 436.606 150.573 436.606 149.664C436.606 148.754 437.34 148.017 438.246 148.017H449.175C450.08 148.017 450.814 148.754 450.814 149.664Z" fill="#009589"/>
<path d="M450.814 157.898C450.814 158.807 450.08 159.545 449.175 159.545H438.246C437.34 159.545 436.606 158.807 436.606 157.898C436.606 156.988 437.34 156.251 438.246 156.251H449.175C450.08 156.251 450.814 156.988 450.814 157.898Z" fill="#009589"/>
<path d="M261.745 160.095C260.538 160.095 259.56 159.112 259.56 157.899V143.626C259.56 142.413 260.538 141.43 261.745 141.43C262.953 141.43 263.931 142.413 263.931 143.626V157.899C263.931 159.112 262.953 160.095 261.745 160.095Z" fill="#009589"/>
<path d="M268.849 149.664C268.849 150.573 268.115 151.31 267.21 151.31H256.281C255.376 151.31 254.642 150.573 254.642 149.664C254.642 148.754 255.376 148.017 256.281 148.017H267.21C268.115 148.017 268.849 148.754 268.849 149.664Z" fill="#009589"/>
<path d="M268.849 157.898C268.849 158.807 268.115 159.545 267.21 159.545H256.281C255.376 159.545 254.642 158.807 254.642 157.898C254.642 156.988 255.376 156.251 256.281 156.251H267.21C268.115 156.251 268.849 156.988 268.849 157.898Z" fill="#009589"/>
<path d="M415.098 299.932C414.035 299.932 413.103 299.152 412.939 298.064L371.443 22.2022L335.346 26.2185L295.642 298.055C295.467 299.255 294.355 300.084 293.162 299.909C291.968 299.733 291.142 298.617 291.317 297.417L331.265 23.9037C331.41 22.9156 332.199 22.1498 333.187 22.0399L373.05 17.6044C374.212 17.4741 375.276 18.2926 375.452 19.4589L417.262 297.408C417.442 298.607 416.621 299.726 415.427 299.907C415.317 299.924 415.207 299.932 415.098 299.932Z" fill="#009589"/>
<path d="M448.394 76.6472H260.584C259.587 76.6472 258.717 75.9693 258.467 74.9992C258.219 74.029 258.655 73.0126 259.528 72.5288L330.893 32.9628C331.951 32.3764 333.28 32.7626 333.863 33.8243C334.446 34.8861 334.063 36.2219 333.005 36.8079L269.069 72.2552H440.359L373.876 33.0088C372.836 32.3943 372.488 31.0487 373.1 30.0029C373.71 28.9572 375.049 28.6074 376.091 29.2221L449.501 72.5578C450.351 73.0599 450.762 74.0715 450.503 75.0273C450.244 75.9837 449.38 76.6472 448.394 76.6472Z" fill="#009589"/>
<path d="M445.451 145.82H260.585C259.709 145.82 258.919 145.296 258.575 144.487C258.231 143.679 258.4 142.742 259.005 142.107L324.617 73.1594C325.451 72.2834 326.834 72.2513 327.707 73.0898C328.58 73.9279 328.611 75.3179 327.777 76.1946L265.698 141.428H440.431L379.917 76.1059C379.094 75.218 379.144 73.8286 380.027 73.0023C380.911 72.1764 382.294 72.2262 383.117 73.1138L447.051 142.128C447.644 142.768 447.802 143.7 447.455 144.501C447.108 145.302 446.321 145.82 445.451 145.82Z" fill="#009589"/>
<path d="M381.067 73.683C380.512 73.683 379.957 73.472 379.531 73.0496L331.892 25.7859C331.033 24.9338 331.024 23.5433 331.873 22.6803C332.721 21.8172 334.105 21.8088 334.964 22.6607L382.603 69.9244C383.462 70.7765 383.47 72.167 382.622 73.03C382.194 73.4649 381.631 73.683 381.067 73.683Z" fill="#009589"/>
<path d="M326.524 73.6825C326 73.6825 325.473 73.4941 325.055 73.1116C324.161 72.296 324.095 70.9073 324.907 70.0095L371.673 18.3107C372.485 17.4137 373.867 17.3467 374.761 18.1627C375.654 18.9781 375.72 20.367 374.908 21.2647L328.142 72.9636C327.711 73.4402 327.119 73.6825 326.524 73.6825Z" fill="#009589"/>
<path d="M302.91 232.497C302.341 232.497 301.772 232.275 301.343 231.832C300.501 230.963 300.521 229.572 301.386 228.727L388.311 143.791L324.069 76.12C323.236 75.2423 323.268 73.8525 324.142 73.0152C325.016 72.1775 326.4 72.2114 327.232 73.0887L392.969 142.333C393.797 143.204 393.77 144.583 392.911 145.423L304.434 231.875C304.009 232.29 303.459 232.497 302.91 232.497Z" fill="#009589"/>
<path d="M404.142 232.004C403.592 232.004 403.042 231.797 402.618 231.382L314.14 144.93C313.281 144.09 313.255 142.711 314.083 141.84L379.82 72.5955C380.652 71.7176 382.036 71.6849 382.91 72.522C383.784 73.3592 383.816 74.7491 382.983 75.6268L318.741 143.298L405.666 228.234C406.531 229.079 406.551 230.47 405.709 231.339C405.28 231.781 404.711 232.004 404.142 232.004Z" fill="#009589"/>
<path d="M405.459 235.308H302.728C301.521 235.308 300.542 234.325 300.542 233.112C300.542 231.899 301.521 230.916 302.728 230.916H405.459C406.666 230.916 407.645 231.899 407.645 233.112C407.645 234.325 406.666 235.308 405.459 235.308Z" fill="#009589"/>
<path d="M293.89 297.105C293.463 297.105 293.032 296.98 292.653 296.718C291.659 296.031 291.407 294.664 292.091 293.665L334.257 232.056C334.941 231.057 336.302 230.804 337.296 231.491C338.291 232.178 338.543 233.545 337.859 234.545L295.693 296.153C295.269 296.773 294.586 297.105 293.89 297.105Z" fill="#009589"/>
<path d="M415.038 297.105C414.342 297.105 413.659 296.773 413.235 296.153L371.07 234.545C370.386 233.546 370.638 232.178 371.633 231.491C372.628 230.804 373.989 231.057 374.672 232.057L416.837 293.665C417.521 294.664 417.27 296.032 416.275 296.719C415.896 296.98 415.465 297.105 415.038 297.105Z" fill="#009589"/>
<path d="M193.728 225.977L196.827 82.6895H204.915V225.977H193.728Z" fill="#009589"/>
<path d="M242.362 13.9809C240.762 6.07213 214.39 51.8034 205.632 63.0533C196.875 74.3031 203.706 77.8365 203.706 77.8365L204.852 78.9263C204.854 78.9269 204.856 78.9276 204.858 78.9282C208.315 79.6079 211.857 78.2339 213.563 75.1834C221.657 60.7045 243.668 20.4382 242.362 13.9809Z" fill="#009589"/>
<path d="M242.129 152.583C249.805 154.964 222.503 109.786 216.875 96.6714C211.247 83.5565 204.973 87.9869 204.973 87.9869L203.558 88.5764C203.557 88.5777 203.555 88.579 203.554 88.5803C201.081 91.0449 200.718 94.9825 202.565 97.9492C211.331 112.028 235.863 150.639 242.129 152.583Z" fill="#009589"/>
<path d="M122.318 96.3508C115.574 91.9656 167.58 84.0016 181.202 79.9196C194.825 75.8374 195.319 83.5153 195.319 83.5153L195.626 84.9835V84.9892C195.626 88.476 192.711 91.2836 189.261 91.7649C172.889 94.048 127.824 99.9309 122.318 96.3508Z" fill="#009589"/>
<path d="M209.17 86.1105C207.579 90.3575 202.862 92.5042 198.634 90.9053C194.407 89.3063 192.27 84.5672 193.862 80.3201C195.453 76.0729 200.17 73.9263 204.398 75.5253C208.625 77.1243 210.762 81.8634 209.17 86.1105Z" fill="#009589"/>
<path d="M201.537 88.9877C200.859 88.9877 200.18 88.8646 199.527 88.6171C198.102 88.0784 196.971 87.0141 196.342 85.6208C195.714 84.2277 195.664 82.6719 196.201 81.2404C196.737 79.809 197.796 78.6729 199.183 78.0416C200.57 77.4101 202.12 77.3599 203.543 77.8987C204.968 78.4374 206.098 79.5017 206.727 80.895C207.355 82.2884 207.405 83.8442 206.869 85.2757C206.333 86.7072 205.273 87.8432 203.886 88.4742C203.135 88.8161 202.337 88.9877 201.537 88.9877ZM201.532 78.0774C200.809 78.0774 200.087 78.2326 199.408 78.5416C198.154 79.1124 197.197 80.1394 196.712 81.4337C195.711 84.1052 197.059 87.0973 199.719 88.1033C201.008 88.5908 202.408 88.5446 203.661 87.9738C204.915 87.4034 205.873 86.3761 206.358 85.0819C206.843 83.7877 206.797 82.3812 206.229 81.1213C205.661 79.8617 204.639 78.8994 203.351 78.412C202.76 78.1889 202.145 78.0774 201.532 78.0774Z" fill="#009589"/>
<path d="M66.5309 258.25L69.0283 141.979H75.9555V260.83L66.5309 258.25Z" fill="#009589"/>
<path d="M79.1965 260.563C79.1965 262.4 78.3293 263.857 77.2595 263.857H64.9329C63.863 263.857 62.9958 262.401 62.9958 260.563C62.9958 258.725 63.863 257.269 64.9329 257.269H77.2595C78.3293 257.269 79.1965 258.725 79.1965 260.563Z" fill="url(#paint0_linear_515_1023)"/>
<path d="M107.721 83.0009C106.361 76.2806 83.9515 115.14 76.51 124.699C69.0685 134.258 74.8734 137.261 74.8734 137.261L75.8474 138.187C75.8489 138.188 75.8503 138.188 75.8519 138.189C78.79 138.766 81.7993 137.599 83.2488 135.007C90.1272 122.704 108.831 88.488 107.721 83.0009Z" fill="#009589"/>
<path d="M107.523 200.776C114.045 202.799 90.846 164.41 86.0638 153.266C81.2817 142.122 75.9498 145.886 75.9498 145.886L74.7476 146.387C74.7465 146.389 74.7454 146.39 74.7442 146.391C72.643 148.485 72.3342 151.831 73.9035 154.352C81.3524 166.315 102.198 199.124 107.523 200.776Z" fill="#009589"/>
<path d="M5.71551 152.993C-0.0150142 149.267 44.1762 142.5 55.7514 139.031C67.3267 135.562 67.8957 142.086 67.8957 142.086L68.305 143.334C68.305 143.334 68.305 143.337 68.305 143.339C68.305 146.301 65.6793 148.687 62.748 149.096C48.8363 151.036 10.3942 156.035 5.71551 152.993Z" fill="#009589"/>
<path d="M79.5162 144.293C78.1637 147.902 74.1554 149.726 70.5633 148.367C66.9712 147.009 65.1557 142.982 66.5082 139.373C67.8605 135.764 71.8688 133.94 75.4609 135.298C79.0529 136.657 80.8685 140.684 79.5162 144.293Z" fill="#009589"/>
<path d="M73.0222 146.777C72.4516 146.777 71.8716 146.676 71.307 146.462C70.086 146 69.117 145.088 68.5786 143.894C68.0401 142.7 67.9969 141.367 68.4569 140.14C69.4051 137.608 72.227 136.323 74.749 137.277C75.9699 137.739 76.9389 138.651 77.4774 139.845C78.0159 141.039 78.0591 142.372 77.5991 143.599C76.8629 145.563 74.9984 146.777 73.0222 146.777ZM73.0335 137.511C71.2783 137.511 69.6225 138.589 68.9683 140.334C68.56 141.423 68.5985 142.607 69.0766 143.668C69.5546 144.728 70.4149 145.538 71.4992 145.948C73.7379 146.794 76.2448 145.654 77.088 143.405C77.4963 142.316 77.4578 141.132 76.9797 140.071C76.5015 139.011 75.6414 138.201 74.557 137.791C74.0553 137.601 73.5399 137.511 73.0335 137.511Z" fill="#009589"/>
<path d="M390.159 221.035H3.8252V415.379H390.159V221.035Z" fill="url(#paint1_linear_515_1023)"/>
<path d="M395.077 212.691C395.077 211.842 394.487 211.153 393.758 211.153H1.3188C0.590362 211.153 0 211.842 0 212.691V219.81C0 220.66 0.590523 221.584 1.3188 221.584H393.758C394.487 221.584 395.077 220.66 395.077 219.81V212.691Z" fill="#009589"/>
<path d="M395.077 416.704C395.077 415.972 394.487 415.379 393.758 415.379H1.3188C0.590362 415.379 0 415.972 0 416.704V422.838C0 423.57 0.590523 424.163 1.3188 424.163H393.758C394.487 424.163 395.077 423.569 395.077 422.838V416.704Z" fill="#009589"/>
<path d="M71.5835 241.575C71.5835 240.843 70.993 240.25 70.2647 240.25H35.7445C35.016 240.25 34.4257 240.843 34.4257 241.575V397.035C34.4257 397.767 35.0162 398.36 35.7445 398.36H70.2647C70.9932 398.36 71.5835 397.767 71.5835 397.035V241.575Z" fill="#009589"/>
<path d="M68.8514 246.839H37.7042V251.231H68.8514V246.839Z" fill="#009589"/>
<path d="M68.8515 257.818H37.7043V262.21H68.8515V257.818Z" fill="#009589"/>
<path d="M68.8515 270.445H37.7043V274.837H68.8515V270.445Z" fill="#009589"/>
<path d="M68.8515 280.876H37.7043V285.268H68.8515V280.876Z" fill="#009589"/>
<path d="M68.8514 293.503H37.7042V298.444H68.8514V293.503Z" fill="#009589"/>
<path d="M68.8515 305.032H37.7043V309.424H68.8515V305.032Z" fill="#009589"/>
<path d="M68.8515 316.013H37.7043V319.856H68.8515V316.013Z" fill="#009589"/>
<path d="M68.8514 328.639H37.7042V332.482H68.8514V328.639Z" fill="#009589"/>
<path d="M68.8514 339.619H37.7042V344.56H68.8514V339.619Z" fill="#009589"/>
<path d="M68.8515 351.147H37.7043V354.99H68.8515V351.147Z" fill="#009589"/>
<path d="M68.8515 363.225H37.7043V367.068H68.8515V363.225Z" fill="#009589"/>
<path d="M68.8514 374.754H37.7042V378.597H68.8514V374.754Z" fill="#009589"/>
<path d="M68.8514 386.283H37.7042V390.126H68.8514V386.283Z" fill="#009589"/>
<path d="M359.558 397.035C359.558 397.767 358.968 398.36 358.24 398.36H323.719C322.991 398.36 322.4 397.767 322.4 397.035V241.575C322.4 240.843 322.991 240.25 323.719 240.25H358.24C358.968 240.25 359.558 240.843 359.558 241.575V397.035Z" fill="#009589"/>
<path d="M355.187 246.839H325.679V251.231H355.187V246.839Z" fill="#009589"/>
<path d="M355.187 257.818H325.679V262.21H355.187V257.818Z" fill="#009589"/>
<path d="M355.187 270.445H325.679V274.837H355.187V270.445Z" fill="#009589"/>
<path d="M355.187 280.876H325.679V285.268H355.187V280.876Z" fill="#009589"/>
<path d="M355.187 293.503H325.679V298.444H355.187V293.503Z" fill="#009589"/>
<path d="M355.187 305.032H325.679V309.424H355.187V305.032Z" fill="#009589"/>
<path d="M355.187 316.013H325.679V319.856H355.187V316.013Z" fill="#009589"/>
<path d="M355.187 328.639H325.679V332.482H355.187V328.639Z" fill="#009589"/>
<path d="M355.187 339.619H325.679V344.56H355.187V339.619Z" fill="#009589"/>
<path d="M355.187 351.147H325.679V354.99H355.187V351.147Z" fill="#009589"/>
<path d="M355.187 363.225H325.679V367.068H355.187V363.225Z" fill="#009589"/>
<path d="M355.187 374.754H325.679V378.597H355.187V374.754Z" fill="#009589"/>
<path d="M355.187 386.283H325.679V390.126H355.187V386.283Z" fill="#009589"/>
<path d="M278.139 384.087C278.139 387.118 275.692 389.577 272.674 389.577H121.856C118.838 389.577 116.392 387.119 116.392 384.087C116.392 381.055 118.838 378.597 121.856 378.597H272.674C275.692 378.597 278.139 381.054 278.139 384.087Z" fill="#009589"/>
<path d="M132.213 438.318C132.213 438.318 131.519 442.264 131.179 446.17C131.046 447.696 132.218 449.022 133.742 449.085C138.919 449.302 149.993 449.723 153.967 449.545C154.564 449.518 154.955 448.904 154.734 448.345C154.548 447.878 154.191 447.499 153.736 447.289L135.443 438.843L132.213 438.318Z" fill="#009589"/>
<path d="M131.645 435.999L132.202 440.719C132.202 440.719 135.407 442.217 137.595 440.53L136.268 435.271L131.645 435.999Z" fill="url(#paint2_linear_515_1023)"/>
<path d="M132.064 347.271C131.823 348.504 130.771 408.775 137.184 435.784C137.289 436.225 137.066 436.679 136.649 436.85C135.665 437.254 133.737 437.839 131.426 437.917C130.711 437.941 130.069 437.473 129.867 436.783C128.034 430.517 119.251 399.119 118.105 369.126C116.825 335.612 118.105 367.985 118.105 367.985L118.856 347.269L132.064 347.271Z" fill="#009589"/>
<path d="M111.171 440.377C111.171 440.377 110.066 442.369 108.997 447.662C108.804 448.618 109.469 449.533 110.435 449.628C112.144 449.797 114.776 450.014 116.884 450C117.856 449.993 118.614 449.143 118.497 448.173C118.264 446.241 117.536 443.072 115.289 440.601L111.171 440.377Z" fill="#009589"/>
<path d="M110.2 434.306L111.503 441.443C111.503 441.443 112.791 442.405 115.338 441.708L114.716 434.028L110.2 434.306Z" fill="url(#paint3_linear_515_1023)"/>
<path d="M106.682 349.121C101.438 380.92 107.82 427.716 109.973 436.875C110.104 437.435 110.555 437.865 111.12 437.959C112.081 438.119 113.663 438.25 115.223 437.795C115.76 437.638 116.137 437.151 116.159 436.589C116.448 429.185 115.928 383.727 120.815 365.761C121.063 364.851 121.616 364.057 122.382 363.51L131.867 356.735L132.594 345.785L106.682 349.121Z" fill="#009589"/>
<path d="M140.101 288.867C124.384 288.606 107.042 293.014 107.042 293.014C102.357 320.478 106.223 352.156 106.223 352.156C118.391 355.361 132.117 350.196 132.117 350.196C134.139 338.716 143.575 306.409 143.575 306.409C151.254 305.452 157.58 303.226 162.79 300.283C158.816 295.655 156.943 289.767 156.129 286.286C150.572 288.021 144.949 288.948 140.101 288.867Z" fill="#009589"/>
<path d="M186.527 265.609C184.983 263.735 183.029 264.622 183.029 264.622C180.716 274.437 168.589 282.396 156.13 286.286C156.943 289.767 158.817 295.655 162.79 300.283C183.468 288.603 186.527 265.609 186.527 265.609Z" fill="url(#paint4_linear_515_1023)"/>
<path d="M186.152 266.084C186.314 266.6 184.443 267.386 183.342 265.275C183.303 264.264 182.691 259.931 183.292 259.107C186.496 254.719 192.708 249.218 192.708 249.218C193.758 250.258 192.893 251.281 192.893 251.281L189.879 254.435C190.51 255.579 191.278 256.545 191.639 257.929C191.912 258.977 191.745 260.097 191.218 261.051C190.689 262.009 189.967 263.253 189.285 264.227C187.994 266.07 186.152 266.084 186.152 266.084Z" fill="url(#paint5_linear_515_1023)"/>
<path d="M188.561 256.48L185.816 258.819L184.953 261.148L187.402 263.876C187.402 263.876 188.225 259.256 188.837 258.256C189.449 257.256 189.131 256.773 188.561 256.48Z" fill="url(#paint6_linear_515_1023)"/>
<path d="M113.071 308.303L107.043 293.013C107.043 293.013 92.3619 303.034 89.9476 315.74C92.7215 315.946 97.7691 316.67 102.71 319.177C103.795 313.177 113.071 308.303 113.071 308.303Z" fill="#009589"/>
<path d="M125.9 322.69C125.9 322.69 109.417 332.048 103.856 324.057C102.701 322.398 102.425 320.749 102.709 319.177C97.7687 316.67 92.721 315.945 89.9471 315.74C89.2192 319.571 89.6039 323.644 91.8443 327.762C101.586 345.666 128.081 326.773 128.081 326.773L125.9 322.69Z" fill="url(#paint7_linear_515_1023)"/>
<path d="M123.919 334.53L132.915 302.968C133.017 302.61 133.321 302.348 133.69 302.305C135.32 302.114 140.042 301.578 145.495 301.115C152.063 300.556 159.691 300.104 164.248 300.489C164.896 300.544 165.288 301.232 165 301.818C162.408 307.086 151.746 328.516 146.407 335.536C146.23 335.769 145.957 335.905 145.666 335.902L124.794 335.707C124.187 335.702 123.752 335.116 123.919 334.53Z" fill="#48BB86"/>
<path d="M146.428 298.379L152.95 297.287C153.298 297.229 153.582 297.562 153.472 297.898L152.826 299.864C152.77 300.035 152.621 300.159 152.444 300.182L146.167 301.025C145.843 301.068 145.575 300.772 145.65 300.451L146.049 298.736C146.092 298.551 146.242 298.41 146.428 298.379Z" fill="#009589"/>
<path d="M141.545 303.925L142.082 301.114C142.136 300.832 142.368 300.619 142.652 300.59L155.825 299.247C156.269 299.201 156.624 299.61 156.519 300.045L155.682 303.549C155.615 303.829 155.372 304.031 155.085 304.046L142.213 304.697C141.794 304.718 141.466 304.339 141.545 303.925Z" fill="#009589"/>
<path d="M126.092 326.905C126.092 326.905 124.839 321.728 125.345 319.891C125.85 318.055 126.83 315.693 130.094 316.218C133.359 316.743 137.209 318.124 137.209 318.124C137.209 318.124 137.015 320.517 134.534 319.745L136.072 320.941C136.072 320.941 135.852 322.856 133.756 321.833L135.187 323.419C135.187 323.419 134.287 324.992 132.746 323.983C131.204 322.974 130.465 327.528 126.092 326.905Z" fill="url(#paint8_linear_515_1023)"/>
<path d="M124.181 276.047L119.18 290.577C119.097 290.818 119.196 291.084 119.418 291.207C120.781 291.964 125.692 294.153 131.611 290.383C132.227 289.991 132.647 289.35 132.741 288.623L134.36 276.047L124.181 276.047Z" fill="url(#paint9_linear_515_1023)"/>
<path d="M135.063 262.592C135.063 262.592 140.554 272.977 139.85 277.172C139.146 281.368 132.34 281.066 126.397 277.659L122.244 266.445L135.063 262.592Z" fill="url(#paint10_linear_515_1023)"/>
<path d="M126.66 272.152C126.902 272.045 126.991 271.748 126.846 271.526C126.406 270.851 125.581 269.473 125.318 268.267C125.318 268.267 124.331 267.632 127.831 266.79C131.331 265.949 136.55 264.642 137.647 261.649C138.716 258.731 134.36 254.054 131.423 257.24C131.233 257.446 130.918 257.467 130.748 257.245C130.013 256.284 128.08 254.289 125.397 255.498C122.887 256.63 122.604 258.478 122.639 259.41C122.649 259.684 122.405 259.897 122.137 259.845C120.867 259.602 117.821 259.393 116.4 262.533C115.229 265.119 115.99 266.582 116.683 267.298C116.908 267.53 116.809 267.912 116.501 268.007C115.667 268.263 114.59 268.974 114.698 270.938C114.847 273.652 117.868 273.413 118.728 273.289C118.869 273.269 119.011 273.318 119.106 273.424C119.844 274.244 123.166 277.725 126.763 278.145C127.074 278.181 127.315 277.872 127.213 277.574L125.657 273.029C125.585 272.818 125.685 272.587 125.888 272.496L126.66 272.152Z" fill="#009589"/>
<path d="M127.285 272.798C127.285 272.798 123.375 270.102 123.09 272.372C122.804 274.642 126.611 275.66 128.496 274.814L127.285 272.798Z" fill="url(#paint11_linear_515_1023)"/>
<path d="M137.241 257.919C137.241 257.919 131.01 247.11 119.877 253.568C108.744 260.027 114.766 267.961 114.766 267.961L137.241 257.919Z" fill="#009589"/>
<path d="M114.415 258.488C114.415 258.488 127.829 247.73 134.167 259.293C136.758 258.147 137.241 257.919 137.241 257.919C137.241 257.919 131.612 247.563 123.935 251.051C116.258 254.538 114.402 256.211 114.415 258.488Z" fill="#009589"/>
<path d="M129.769 261.597C129.731 261.615 129.686 261.615 129.645 261.594L129.559 261.547C127.562 260.474 124.219 258.677 122.001 259.599C120.931 260.043 119.89 260.713 118.884 261.359C118.173 261.815 117.438 262.288 116.702 262.676C115.699 263.205 114.595 263.772 113.327 264.407L113.324 264.408C113.256 264.44 113.176 264.412 113.142 264.344C113.107 264.276 113.135 264.193 113.204 264.158C114.471 263.524 115.572 262.958 116.573 262.43C117.3 262.048 118.03 261.579 118.734 261.126C119.752 260.472 120.812 259.797 121.895 259.342C124.234 258.37 127.649 260.206 129.689 261.302L129.776 261.348C129.843 261.385 129.868 261.469 129.833 261.537C129.818 261.564 129.796 261.584 129.769 261.597Z" fill="white"/>
<path d="M114.802 269.71L141.255 259.488C141.422 259.424 141.53 259.261 141.525 259.081C141.52 258.902 141.403 258.745 141.233 258.69C139.868 258.248 137.61 257.63 136.707 258.037C133.807 259.341 114.766 267.962 114.766 267.962C114.766 267.962 114.292 268.185 114.802 269.71Z" fill="#009589"/>
<path d="M353.388 444.047C405.622 444.047 447.967 401.505 447.967 349.026C447.967 296.548 405.622 254.006 353.388 254.006C301.153 254.006 258.809 296.548 258.809 349.026C258.809 401.505 301.153 444.047 353.388 444.047Z" fill="#009589"/>
<path d="M353.388 423.771C394.477 423.771 427.786 390.307 427.786 349.026C427.786 307.746 394.477 274.281 353.388 274.281C312.299 274.281 278.99 307.746 278.99 349.026C278.99 390.307 312.299 423.771 353.388 423.771Z" fill="#009589"/>
<g opacity="0.51">
<path d="M435.589 353.108C435.568 353.108 435.546 353.108 435.524 353.107C434.619 353.071 433.915 352.306 433.95 351.397C433.992 350.322 434.014 349.235 434.014 348.167C434.014 347.258 434.747 346.521 435.653 346.521C436.558 346.521 437.292 347.258 437.292 348.167C437.292 349.278 437.27 350.408 437.227 351.526C437.192 352.413 436.465 353.108 435.589 353.108Z" fill="white"/>
<path d="M358.171 431.511C357.301 431.511 356.577 430.824 356.534 429.942C356.492 429.033 357.19 428.262 358.094 428.219C360.278 428.115 362.479 427.919 364.636 427.637C365.53 427.519 366.356 428.155 366.473 429.057C366.59 429.959 365.957 430.786 365.059 430.903C362.813 431.197 360.522 431.4 358.25 431.509C358.223 431.51 358.197 431.511 358.171 431.511ZM371.451 429.774C370.694 429.774 370.015 429.245 369.85 428.473C369.659 427.583 370.222 426.707 371.107 426.516C373.239 426.055 375.377 425.499 377.463 424.862C378.33 424.6 379.246 425.089 379.508 425.959C379.772 426.83 379.283 427.75 378.417 428.014C376.244 428.677 374.017 429.257 371.797 429.737C371.681 429.761 371.565 429.774 371.451 429.774ZM384.264 425.864C383.612 425.864 382.995 425.47 382.74 424.824C382.406 423.979 382.817 423.022 383.659 422.686C385.685 421.877 387.702 420.974 389.655 420C390.466 419.597 391.45 419.929 391.853 420.744C392.255 421.558 391.924 422.547 391.113 422.951C389.079 423.965 386.979 424.906 384.869 425.747C384.67 425.827 384.465 425.864 384.264 425.864ZM396.261 419.884C395.705 419.884 395.164 419.6 394.856 419.088C394.388 418.309 394.637 417.297 395.412 416.827C397.278 415.694 399.122 414.47 400.89 413.187C401.624 412.655 402.649 412.822 403.179 413.558C403.709 414.296 403.543 415.325 402.809 415.858C400.969 417.193 399.05 418.468 397.107 419.647C396.841 419.807 396.549 419.884 396.261 419.884ZM407.119 412.006C406.656 412.006 406.196 411.811 405.872 411.429C405.283 410.738 405.364 409.698 406.053 409.108C407.709 407.685 409.329 406.174 410.867 404.617C411.505 403.972 412.543 403.968 413.185 404.608C413.828 405.249 413.832 406.292 413.194 406.938C411.594 408.558 409.908 410.13 408.183 411.611C407.874 411.877 407.496 412.006 407.119 412.006ZM416.553 402.454C416.18 402.454 415.806 402.327 415.498 402.067C414.806 401.481 414.717 400.442 415.3 399.746C416.706 398.067 418.059 396.311 419.32 394.527C419.844 393.786 420.867 393.611 421.606 394.138C422.344 394.665 422.518 395.693 421.994 396.434C420.68 398.292 419.272 400.119 417.808 401.867C417.484 402.254 417.02 402.454 416.553 402.454ZM424.31 391.482C424.026 391.482 423.738 391.407 423.476 391.251C422.697 390.787 422.44 389.776 422.902 388.994C424.016 387.106 425.064 385.151 426.017 383.184C426.413 382.366 427.393 382.025 428.208 382.424C429.022 382.821 429.362 383.807 428.966 384.625C427.974 386.674 426.882 388.709 425.722 390.674C425.415 391.193 424.87 391.482 424.31 391.482ZM430.172 379.378C429.975 379.378 429.775 379.342 429.58 379.266C428.736 378.938 428.317 377.984 428.644 377.136C429.434 375.087 430.147 372.985 430.763 370.888C431.018 370.016 431.93 369.518 432.799 369.774C433.667 370.032 434.164 370.948 433.907 371.82C433.266 374.004 432.524 376.192 431.702 378.325C431.45 378.978 430.83 379.378 430.172 379.378ZM433.965 366.47C433.855 366.47 433.744 366.458 433.632 366.435C432.745 366.251 432.175 365.379 432.359 364.489C432.799 362.348 433.157 360.158 433.422 357.978C433.531 357.075 434.351 356.431 435.248 356.543C436.146 356.653 436.786 357.475 436.676 358.377C436.401 360.646 436.028 362.927 435.569 365.156C435.409 365.934 434.726 366.47 433.965 366.47Z" fill="white"/>
<path d="M351.435 431.556C351.416 431.556 351.397 431.556 351.378 431.555C350.271 431.518 349.148 431.457 348.039 431.375C347.136 431.308 346.458 430.518 346.525 429.611C346.591 428.704 347.38 428.02 348.28 428.09C349.345 428.169 350.425 428.227 351.489 428.263C352.394 428.294 353.103 429.056 353.072 429.965C353.042 430.855 352.314 431.556 351.435 431.556Z" fill="white"/>
<path d="M272.833 349.814C271.927 349.814 271.194 349.077 271.194 348.167C271.194 347.057 271.216 345.927 271.259 344.809C271.294 343.9 272.068 343.194 272.961 343.228C273.867 343.263 274.571 344.029 274.536 344.938C274.493 346.013 274.472 347.1 274.472 348.167C274.472 349.077 273.739 349.814 272.833 349.814Z" fill="white"/>
<path d="M273.451 339.708C273.384 339.708 273.316 339.703 273.248 339.695C272.35 339.584 271.711 338.762 271.821 337.859C272.103 335.561 272.485 333.248 272.957 330.984C273.143 330.094 274.009 329.523 274.898 329.71C275.783 329.896 276.352 330.769 276.166 331.659C275.713 333.834 275.346 336.055 275.075 338.262C274.973 339.096 274.266 339.708 273.451 339.708ZM276.234 326.348C276.079 326.348 275.921 326.326 275.764 326.279C274.897 326.018 274.404 325.1 274.663 324.229C275.323 322.011 276.085 319.794 276.929 317.639C277.261 316.793 278.212 316.376 279.055 316.709C279.897 317.042 280.312 317.998 279.981 318.845C279.17 320.914 278.438 323.043 277.804 325.173C277.592 325.887 276.94 326.348 276.234 326.348ZM281.207 313.64C280.963 313.64 280.716 313.585 280.482 313.47C279.67 313.067 279.338 312.079 279.739 311.263C280.759 309.188 281.88 307.13 283.07 305.148C283.537 304.369 284.545 304.118 285.32 304.588C286.095 305.058 286.345 306.07 285.878 306.849C284.735 308.753 283.658 310.729 282.678 312.722C282.393 313.304 281.812 313.64 281.207 313.64ZM288.222 301.947C287.89 301.947 287.554 301.845 287.264 301.634C286.53 301.101 286.365 300.072 286.895 299.334C288.245 297.458 289.691 295.617 291.191 293.861C291.782 293.171 292.816 293.092 293.503 293.684C294.189 294.277 294.269 295.316 293.679 296.007C292.237 297.693 290.849 299.462 289.553 301.264C289.232 301.71 288.731 301.947 288.222 301.947ZM297.074 291.585C296.651 291.585 296.228 291.421 295.907 291.095C295.271 290.447 295.278 289.404 295.923 288.765C297.564 287.139 299.292 285.563 301.059 284.081C301.754 283.498 302.788 283.592 303.368 284.291C303.948 284.989 303.855 286.028 303.159 286.61C301.462 288.034 299.802 289.548 298.225 291.11C297.906 291.427 297.49 291.585 297.074 291.585ZM307.508 282.837C306.992 282.837 306.484 282.593 306.165 282.137C305.645 281.392 305.824 280.365 306.564 279.842C308.453 278.51 310.417 277.243 312.403 276.078C313.185 275.619 314.188 275.884 314.645 276.67C315.101 277.455 314.838 278.464 314.056 278.922C312.149 280.042 310.262 281.258 308.449 282.538C308.162 282.74 307.834 282.837 307.508 282.837ZM319.238 275.951C318.626 275.951 318.038 275.605 317.757 275.013C317.368 274.192 317.714 273.209 318.531 272.818C320.612 271.821 322.758 270.901 324.911 270.084C325.758 269.762 326.704 270.193 327.024 271.044C327.343 271.895 326.916 272.845 326.069 273.166C324.002 273.95 321.941 274.833 319.943 275.791C319.715 275.9 319.474 275.951 319.238 275.951ZM378.891 271.841C378.727 271.841 378.559 271.816 378.395 271.763C376.286 271.091 374.122 270.501 371.964 270.009C371.081 269.808 370.528 268.926 370.728 268.039C370.928 267.152 371.807 266.594 372.689 266.797C374.937 267.309 377.19 267.924 379.386 268.624C380.249 268.899 380.727 269.825 380.453 270.692C380.231 271.393 379.586 271.841 378.891 271.841ZM331.946 271.131C331.232 271.131 330.575 270.658 330.37 269.933C330.122 269.058 330.628 268.148 331.499 267.899C333.714 267.267 335.984 266.721 338.245 266.278C339.132 266.102 339.994 266.686 340.168 267.579C340.342 268.472 339.762 269.337 338.873 269.511C336.702 269.937 334.522 270.46 332.395 271.068C332.245 271.11 332.094 271.131 331.946 271.131ZM365.638 268.82C365.562 268.82 365.486 268.815 365.409 268.804C363.219 268.496 360.988 268.277 358.774 268.152C357.87 268.101 357.179 267.324 357.23 266.416C357.28 265.508 358.059 264.811 358.958 264.863C361.262 264.993 363.585 265.221 365.863 265.542C366.76 265.668 367.385 266.5 367.259 267.401C367.144 268.224 366.442 268.82 365.638 268.82ZM345.279 268.515C344.454 268.515 343.743 267.89 343.652 267.047C343.554 266.143 344.203 265.329 345.103 265.23C347.386 264.98 349.713 264.821 352.021 264.76C352.919 264.745 353.68 265.453 353.703 266.363C353.727 267.272 353.013 268.029 352.108 268.053C349.89 268.112 347.653 268.264 345.46 268.505C345.399 268.511 345.339 268.515 345.279 268.515Z" fill="white"/>
<path d="M388.316 275.512C388.086 275.512 387.852 275.463 387.63 275.36C386.666 274.913 385.677 274.478 384.689 274.068C383.852 273.721 383.454 272.758 383.8 271.917C384.146 271.077 385.105 270.676 385.941 271.024C386.97 271.451 388 271.904 389.005 272.369C389.826 272.751 390.185 273.729 389.806 274.555C389.529 275.157 388.936 275.512 388.316 275.512Z" fill="white"/>
</g>
<path d="M337.454 287.856H386.609C388.945 287.856 390.47 290.319 389.438 292.424L370.307 331.447C368.863 334.392 370.996 337.836 374.263 337.836H384.62C387.607 337.836 389.369 341.204 387.675 343.676L333.34 422.958C332.255 424.542 329.783 423.643 329.958 421.729L335.696 358.957C335.854 357.23 334.5 355.739 332.773 355.739H322.72C318.92 355.739 316.149 352.126 317.118 348.434L331.89 292.164C332.556 289.625 334.841 287.856 337.454 287.856Z" fill="url(#paint12_linear_515_1023)"/>
<path d="M331.834 422.055C331.779 422.055 331.712 422.027 331.678 421.99C331.669 421.98 331.654 421.963 331.661 421.886L337.399 359.115C337.518 357.812 337.083 356.51 336.205 355.543C335.327 354.576 334.076 354.021 332.773 354.021H322.719C321.443 354.021 320.264 353.438 319.485 352.423C318.706 351.407 318.446 350.113 318.771 348.873L333.543 292.602C334.011 290.82 335.619 289.575 337.454 289.575H386.609C387.333 289.575 387.707 290.053 387.834 290.259C387.962 290.465 388.223 291.013 387.904 291.665L368.773 330.688C367.832 332.607 367.942 334.837 369.066 336.654C370.191 338.47 372.134 339.555 374.263 339.555H384.619C385.376 339.555 386.037 339.956 386.389 340.629C386.741 341.301 386.695 342.076 386.266 342.702L331.932 421.984C331.884 422.054 331.862 422.055 331.834 422.055Z" fill="url(#paint13_linear_515_1023)"/>
<path d="M335.439 411.913C335.339 411.913 335.239 411.896 335.142 411.861C334.769 411.725 334.534 411.353 334.57 410.956L336.034 394.94C336.068 394.562 336.4 394.284 336.778 394.319C337.154 394.353 337.431 394.688 337.397 395.066L336.106 409.185L360.63 373.401C360.844 373.088 361.269 373.009 361.581 373.225C361.892 373.44 361.971 373.868 361.757 374.181L336.158 411.534C335.991 411.776 335.72 411.913 335.439 411.913Z" fill="#009589"/>
<path d="M328.037 327.739C327.98 327.739 327.921 327.731 327.862 327.716C327.497 327.619 327.279 327.243 327.375 326.876L336.189 293.303C336.34 292.726 336.86 292.324 337.453 292.324H346.317C346.695 292.324 347.001 292.632 347.001 293.012C347.001 293.391 346.695 293.699 346.317 293.699H337.5L328.698 327.227C328.617 327.535 328.34 327.739 328.037 327.739Z" fill="#009589"/>
<defs>
<linearGradient id="paint0_linear_515_1023" x1="281.742" y1="-307.934" x2="225.548" y2="-157.681" gradientUnits="userSpaceOnUse">
<stop stop-color="#09005D"/>
<stop offset="1" stop-color="#1A0F91"/>
</linearGradient>
<linearGradient id="paint1_linear_515_1023" x1="219.909" y1="274.865" x2="199.973" y2="235.989" gradientUnits="userSpaceOnUse">
<stop stop-color="#006E7C"/>
<stop offset="1" stop-color="#00485E"/>
</linearGradient>
<linearGradient id="paint2_linear_515_1023" x1="131.645" y1="438.301" x2="137.595" y2="438.301" gradientUnits="userSpaceOnUse">
<stop stop-color="#FEBBBA"/>
<stop offset="1" stop-color="#FF928E"/>
</linearGradient>
<linearGradient id="paint3_linear_515_1023" x1="110.2" y1="437.995" x2="115.338" y2="437.995" gradientUnits="userSpaceOnUse">
<stop stop-color="#FEBBBA"/>
<stop offset="1" stop-color="#FF928E"/>
</linearGradient>
<linearGradient id="paint4_linear_515_1023" x1="156.129" y1="282.348" x2="186.527" y2="282.348" gradientUnits="userSpaceOnUse">
<stop stop-color="#FEBBBA"/>
<stop offset="1" stop-color="#FF928E"/>
</linearGradient>
<linearGradient id="paint5_linear_515_1023" x1="179.756" y1="277.227" x2="159.198" y2="323.783" gradientUnits="userSpaceOnUse">
<stop stop-color="#FEBBBA"/>
<stop offset="1" stop-color="#FF928E"/>
</linearGradient>
<linearGradient id="paint6_linear_515_1023" x1="186.381" y1="261.699" x2="194.948" y2="248.588" gradientUnits="userSpaceOnUse">
<stop stop-color="#FEBBBA"/>
<stop offset="1" stop-color="#FF928E"/>
</linearGradient>
<linearGradient id="paint7_linear_515_1023" x1="106.552" y1="325.605" x2="145.021" y2="325.605" gradientUnits="userSpaceOnUse">
<stop stop-color="#FEBBBA"/>
<stop offset="1" stop-color="#FF928E"/>
</linearGradient>
<linearGradient id="paint8_linear_515_1023" x1="125.225" y1="321.553" x2="137.209" y2="321.553" gradientUnits="userSpaceOnUse">
<stop stop-color="#FEBBBA"/>
<stop offset="1" stop-color="#FF928E"/>
</linearGradient>
<linearGradient id="paint9_linear_515_1023" x1="119.151" y1="284.288" x2="134.36" y2="284.288" gradientUnits="userSpaceOnUse">
<stop stop-color="#FEBBBA"/>
<stop offset="1" stop-color="#FF928E"/>
</linearGradient>
<linearGradient id="paint10_linear_515_1023" x1="137.978" y1="274.567" x2="121.213" y2="264.389" gradientUnits="userSpaceOnUse">
<stop stop-color="#FEBBBA"/>
<stop offset="1" stop-color="#FF928E"/>
</linearGradient>
<linearGradient id="paint11_linear_515_1023" x1="133.585" y1="278.389" x2="118.502" y2="269.231" gradientUnits="userSpaceOnUse">
<stop stop-color="#FEBBBA"/>
<stop offset="1" stop-color="#FF928E"/>
</linearGradient>
<linearGradient id="paint12_linear_515_1023" x1="303.405" y1="396.182" x2="387.86" y2="284.533" gradientUnits="userSpaceOnUse">
<stop stop-color="#48BB86"/>
<stop offset="1" stop-color="#009589"/>
</linearGradient>
<linearGradient id="paint13_linear_515_1023" x1="494.548" y1="189.277" x2="389.127" y2="297.487" gradientUnits="userSpaceOnUse">
<stop stop-color="#48BB86"/>
<stop offset="1" stop-color="#48BB86"/>
</linearGradient>
</defs>
</svg>
