<svg width="1071" height="199" viewBox="0 0 1071 199" fill="none" xmlns="http://www.w3.org/2000/svg">
<g filter="url(#filter0_d_1395_32913)">
<path d="M0 29H1038L973.531 97.5L1038 162H0V29Z" fill="white"/>
</g>
<path d="M184.904 85.768C184.904 88.0293 184.371 90.1627 183.304 92.168C182.237 94.1733 180.531 95.816 178.184 97.096C175.837 98.3333 172.829 98.952 169.16 98.952H161.096V117H153.8V72.52H169.16C172.573 72.52 175.453 73.1173 177.8 74.312C180.189 75.464 181.96 77.0427 183.112 79.048C184.307 81.0533 184.904 83.2933 184.904 85.768ZM169.16 93C171.933 93 174.003 92.3813 175.368 91.144C176.733 89.864 177.416 88.072 177.416 85.768C177.416 80.904 174.664 78.472 169.16 78.472H161.096V93H169.16ZM199.159 86.856C200.225 85.064 201.633 83.6773 203.383 82.696C205.175 81.672 207.287 81.16 209.719 81.16V88.712H207.863C205.004 88.712 202.828 89.4373 201.335 90.888C199.884 92.3387 199.159 94.856 199.159 98.44V117H191.863V81.736H199.159V86.856ZM231.721 117.576C228.393 117.576 225.385 116.829 222.697 115.336C220.009 113.8 217.897 111.667 216.361 108.936C214.825 106.163 214.057 102.963 214.057 99.336C214.057 95.752 214.846 92.5733 216.425 89.8C218.004 87.0267 220.158 84.8933 222.889 83.4C225.62 81.9067 228.67 81.16 232.041 81.16C235.412 81.16 238.462 81.9067 241.193 83.4C243.924 84.8933 246.078 87.0267 247.657 89.8C249.236 92.5733 250.025 95.752 250.025 99.336C250.025 102.92 249.214 106.099 247.593 108.872C245.972 111.645 243.753 113.8 240.937 115.336C238.164 116.829 235.092 117.576 231.721 117.576ZM231.721 111.24C233.598 111.24 235.348 110.792 236.969 109.896C238.633 109 239.977 107.656 241.001 105.864C242.025 104.072 242.537 101.896 242.537 99.336C242.537 96.776 242.046 94.6213 241.065 92.872C240.084 91.08 238.782 89.736 237.161 88.84C235.54 87.944 233.79 87.496 231.913 87.496C230.036 87.496 228.286 87.944 226.665 88.84C225.086 89.736 223.828 91.08 222.889 92.872C221.95 94.6213 221.481 96.776 221.481 99.336C221.481 103.133 222.441 106.077 224.361 108.168C226.324 110.216 228.777 111.24 231.721 111.24ZM272.022 87.688H265.494V117H258.134V87.688H253.974V81.736H258.134V79.24C258.134 75.1867 259.2 72.2427 261.334 70.408C263.51 68.5307 266.902 67.592 271.51 67.592V73.672C269.291 73.672 267.734 74.0987 266.838 74.952C265.942 75.7627 265.494 77.192 265.494 79.24V81.736H272.022V87.688ZM282.2 77.064C280.877 77.064 279.768 76.616 278.872 75.72C277.976 74.824 277.528 73.7147 277.528 72.392C277.528 71.0693 277.976 69.96 278.872 69.064C279.768 68.168 280.877 67.72 282.2 67.72C283.48 67.72 284.568 68.168 285.464 69.064C286.36 69.96 286.808 71.0693 286.808 72.392C286.808 73.7147 286.36 74.824 285.464 75.72C284.568 76.616 283.48 77.064 282.2 77.064ZM285.784 81.736V117H278.488V81.736H285.784ZM303.875 87.688V107.208C303.875 108.531 304.173 109.491 304.771 110.088C305.411 110.643 306.477 110.92 307.971 110.92H312.451V117H306.691C303.405 117 300.888 116.232 299.139 114.696C297.389 113.16 296.515 110.664 296.515 107.208V87.688H292.355V81.736H296.515V72.968H303.875V81.736H312.451V87.688H303.875ZM331.975 117.576C329.202 117.576 326.706 117.085 324.487 116.104C322.311 115.08 320.583 113.715 319.303 112.008C318.023 110.259 317.34 108.317 317.255 106.184H324.807C324.935 107.677 325.639 108.936 326.919 109.96C328.242 110.941 329.884 111.432 331.847 111.432C333.895 111.432 335.474 111.048 336.583 110.28C337.735 109.469 338.311 108.445 338.311 107.208C338.311 105.885 337.671 104.904 336.391 104.264C335.154 103.624 333.17 102.92 330.439 102.152C327.794 101.427 325.639 100.723 323.975 100.04C322.311 99.3573 320.86 98.312 319.623 96.904C318.428 95.496 317.831 93.64 317.831 91.336C317.831 89.4587 318.386 87.752 319.495 86.216C320.604 84.6373 322.183 83.4 324.231 82.504C326.322 81.608 328.711 81.16 331.399 81.16C335.41 81.16 338.631 82.184 341.063 84.232C343.538 86.2373 344.86 88.9893 345.031 92.488H337.735C337.607 90.9093 336.967 89.6507 335.815 88.712C334.663 87.7733 333.106 87.304 331.143 87.304C329.223 87.304 327.751 87.6667 326.727 88.392C325.703 89.1173 325.191 90.0773 325.191 91.272C325.191 92.2107 325.532 93 326.215 93.64C326.898 94.28 327.73 94.792 328.711 95.176C329.692 95.5173 331.143 95.9653 333.063 96.52C335.623 97.2027 337.714 97.9067 339.335 98.632C340.999 99.3147 342.428 100.339 343.623 101.704C344.818 103.069 345.436 104.883 345.479 107.144C345.479 109.149 344.924 110.941 343.815 112.52C342.706 114.099 341.127 115.336 339.079 116.232C337.074 117.128 334.706 117.576 331.975 117.576ZM396.164 72.52V78.472H377.284V91.592H392.004V97.544H377.284V117H369.988V72.52H396.164ZM410.221 86.856C411.288 85.064 412.696 83.6773 414.445 82.696C416.237 81.672 418.349 81.16 420.781 81.16V88.712H418.925C416.066 88.712 413.89 89.4373 412.397 90.888C410.946 92.3387 410.221 94.856 410.221 98.44V117H402.925V81.736H410.221V86.856ZM442.784 117.576C439.456 117.576 436.448 116.829 433.76 115.336C431.072 113.8 428.96 111.667 427.424 108.936C425.888 106.163 425.12 102.963 425.12 99.336C425.12 95.752 425.909 92.5733 427.488 89.8C429.066 87.0267 431.221 84.8933 433.952 83.4C436.682 81.9067 439.733 81.16 443.104 81.16C446.474 81.16 449.525 81.9067 452.256 83.4C454.986 84.8933 457.141 87.0267 458.72 89.8C460.298 92.5733 461.088 95.752 461.088 99.336C461.088 102.92 460.277 106.099 458.656 108.872C457.034 111.645 454.816 113.8 452 115.336C449.226 116.829 446.154 117.576 442.784 117.576ZM442.784 111.24C444.661 111.24 446.41 110.792 448.032 109.896C449.696 109 451.04 107.656 452.064 105.864C453.088 104.072 453.6 101.896 453.6 99.336C453.6 96.776 453.109 94.6213 452.128 92.872C451.146 91.08 449.845 89.736 448.224 88.84C446.602 87.944 444.853 87.496 442.976 87.496C441.098 87.496 439.349 87.944 437.728 88.84C436.149 89.736 434.89 91.08 433.952 92.872C433.013 94.6213 432.544 96.776 432.544 99.336C432.544 103.133 433.504 106.077 435.424 108.168C437.386 110.216 439.84 111.24 442.784 111.24ZM510.988 81.16C513.761 81.16 516.236 81.736 518.412 82.888C520.631 84.04 522.359 85.7467 523.596 88.008C524.876 90.2693 525.516 93 525.516 96.2V117H518.284V97.288C518.284 94.1307 517.495 91.72 515.916 90.056C514.337 88.3493 512.183 87.496 509.452 87.496C506.721 87.496 504.545 88.3493 502.924 90.056C501.345 91.72 500.556 94.1307 500.556 97.288V117H493.324V97.288C493.324 94.1307 492.535 91.72 490.956 90.056C489.377 88.3493 487.223 87.496 484.492 87.496C481.761 87.496 479.585 88.3493 477.964 90.056C476.385 91.72 475.596 94.1307 475.596 97.288V117H468.3V81.736H475.596V85.768C476.791 84.3173 478.305 83.1867 480.14 82.376C481.975 81.5653 483.937 81.16 486.028 81.16C488.844 81.16 491.361 81.7573 493.58 82.952C495.799 84.1467 497.505 85.8747 498.7 88.136C499.767 86.0027 501.431 84.3173 503.692 83.08C505.953 81.8 508.385 81.16 510.988 81.16ZM575.233 94.152C577.622 94.5787 579.649 95.8373 581.313 97.928C582.977 100.019 583.809 102.387 583.809 105.032C583.809 107.293 583.212 109.341 582.017 111.176C580.865 112.968 579.18 114.397 576.961 115.464C574.742 116.488 572.161 117 569.217 117H551.425V72.52H568.385C571.414 72.52 574.017 73.032 576.193 74.056C578.369 75.08 580.012 76.4667 581.121 78.216C582.23 79.9227 582.785 81.8427 582.785 83.976C582.785 86.536 582.102 88.6693 580.737 90.376C579.372 92.0827 577.537 93.3413 575.233 94.152ZM558.721 91.208H567.745C570.134 91.208 571.99 90.6747 573.313 89.608C574.678 88.4987 575.361 86.92 575.361 84.872C575.361 82.8667 574.678 81.3093 573.313 80.2C571.99 79.048 570.134 78.472 567.745 78.472H558.721V91.208ZM568.577 111.048C571.052 111.048 572.993 110.451 574.401 109.256C575.809 108.061 576.513 106.397 576.513 104.264C576.513 102.088 575.766 100.36 574.273 99.08C572.78 97.8 570.796 97.16 568.321 97.16H558.721V111.048H568.577ZM599.034 72.52V117H591.738V72.52H599.034ZM628.901 117.448C624.762 117.448 620.943 116.488 617.445 114.568C613.989 112.605 611.237 109.896 609.189 106.44C607.183 102.941 606.181 99.016 606.181 94.664C606.181 90.312 607.183 86.408 609.189 82.952C611.237 79.496 613.989 76.808 617.445 74.888C620.943 72.9253 624.762 71.944 628.901 71.944C633.082 71.944 636.901 72.9253 640.357 74.888C643.855 76.808 646.607 79.496 648.613 82.952C650.618 86.408 651.621 90.312 651.621 94.664C651.621 99.016 650.618 102.941 648.613 106.44C646.607 109.896 643.855 112.605 640.357 114.568C636.901 116.488 633.082 117.448 628.901 117.448ZM628.901 111.112C631.845 111.112 634.469 110.451 636.773 109.128C639.077 107.763 640.869 105.843 642.149 103.368C643.471 100.851 644.133 97.9493 644.133 94.664C644.133 91.3787 643.471 88.4987 642.149 86.024C640.869 83.5493 639.077 81.6507 636.773 80.328C634.469 79.0053 631.845 78.344 628.901 78.344C625.957 78.344 623.333 79.0053 621.029 80.328C618.725 81.6507 616.911 83.5493 615.589 86.024C614.309 88.4987 613.669 91.3787 613.669 94.664C613.669 97.9493 614.309 100.851 615.589 103.368C616.911 105.843 618.725 107.763 621.029 109.128C623.333 110.451 625.957 111.112 628.901 111.112ZM697.136 72.52L680.432 117H671.984L655.216 72.52H663.024L676.208 109.512L689.456 72.52H697.136ZM723.526 117.448C719.387 117.448 715.568 116.488 712.07 114.568C708.614 112.605 705.862 109.896 703.814 106.44C701.808 102.941 700.806 99.016 700.806 94.664C700.806 90.312 701.808 86.408 703.814 82.952C705.862 79.496 708.614 76.808 712.07 74.888C715.568 72.9253 719.387 71.944 723.526 71.944C727.707 71.944 731.526 72.9253 734.982 74.888C738.48 76.808 741.232 79.496 743.238 82.952C745.243 86.408 746.246 90.312 746.246 94.664C746.246 99.016 745.243 102.941 743.238 106.44C741.232 109.896 738.48 112.605 734.982 114.568C731.526 116.488 727.707 117.448 723.526 117.448ZM723.526 111.112C726.47 111.112 729.094 110.451 731.398 109.128C733.702 107.763 735.494 105.843 736.774 103.368C738.096 100.851 738.758 97.9493 738.758 94.664C738.758 91.3787 738.096 88.4987 736.774 86.024C735.494 83.5493 733.702 81.6507 731.398 80.328C729.094 79.0053 726.47 78.344 723.526 78.344C720.582 78.344 717.958 79.0053 715.654 80.328C713.35 81.6507 711.536 83.5493 710.214 86.024C708.934 88.4987 708.294 91.3787 708.294 94.664C708.294 97.9493 708.934 100.851 710.214 103.368C711.536 105.843 713.35 107.763 715.654 109.128C717.958 110.451 720.582 111.112 723.526 111.112ZM760.721 111.112H775.761V117H753.425V72.52H760.721V111.112ZM810.599 72.52V78.472H798.759V117H791.463V78.472H779.559V72.52H810.599ZM825.284 78.408V91.464H840.644V97.416H825.284V111.048H842.564V117H817.988V72.456H842.564V78.408H825.284ZM871.966 94.792L885.79 117H877.598L867.55 100.872L858.142 117H850.014L863.838 94.792L849.95 72.52H858.142L868.254 88.776L877.726 72.52H885.854L871.966 94.792Z" fill="#009589"/>
<defs>
<filter id="filter0_d_1395_32913" x="-33" y="0" width="1104" height="199" filterUnits="userSpaceOnUse" color-interpolation-filters="sRGB">
<feFlood flood-opacity="0" result="BackgroundImageFix"/>
<feColorMatrix in="SourceAlpha" type="matrix" values="0 0 0 0 0 0 0 0 0 0 0 0 0 0 0 0 0 0 127 0" result="hardAlpha"/>
<feOffset dy="4"/>
<feGaussianBlur stdDeviation="16.5"/>
<feComposite in2="hardAlpha" operator="out"/>
<feColorMatrix type="matrix" values="0 0 0 0 0 0 0 0 0 0.584314 0 0 0 0 0.537255 0 0 0 1 0"/>
<feBlend mode="normal" in2="BackgroundImageFix" result="effect1_dropShadow_1395_32913"/>
<feBlend mode="normal" in="SourceGraphic" in2="effect1_dropShadow_1395_32913" result="shape"/>
</filter>
</defs>
</svg>
