<svg width="65" height="64" viewBox="0 0 65 64" fill="none" xmlns="http://www.w3.org/2000/svg">
<g id="ava_02">
<path id="Vector" d="M32.285 64C49.9577 64 64.2843 49.6731 64.2843 32C64.2843 14.3269 49.9577 0 32.285 0C14.6122 0 0.285645 14.3269 0.285645 32C0.285645 49.6731 14.6122 64 32.285 64Z" fill="#BBD7DA"/>
<path id="Vector_2" opacity="0.1" d="M64.2562 30.8444L35.2415 1.8291L20.3821 16.6888L26.9047 23.2115L19.8291 30.2876L27.3162 37.7749L25.941 39.1505L47.1336 60.3436C57.3282 54.9924 64.2856 44.3108 64.2856 31.9979C64.2852 31.6113 64.2698 31.2281 64.2562 30.8444Z" fill="black"/>
<g id="Group">
<g id="Group_2">
<g id="Clip path group">
<mask id="mask0_334_1620" style="mask-type:luminance" maskUnits="userSpaceOnUse" x="0" y="0" width="65" height="64">
<g id="SVGID_00000039103097103863699780000011536301642806468484_">
<path id="Vector_3" d="M32.285 64C49.9577 64 64.2843 49.6731 64.2843 32C64.2843 14.3269 49.9577 0 32.285 0C14.6122 0 0.285645 14.3269 0.285645 32C0.285645 49.6731 14.6122 64 32.285 64Z" fill="white"/>
</g>
</mask>
<g mask="url(#mask0_334_1620)">
<g id="Group_3">
<path id="Vector_4" d="M51.4083 48.3408C48.4264 44.7263 37.3734 46.7743 37.3734 42.0963V37.7891H27.1622V41.7672C27.1622 41.8602 27.1622 41.9573 27.1622 42.0612C27.1622 46.7393 16.1439 44.7267 13.162 48.3412C10.8128 51.5942 9.18652 64.002 9.18652 64.002H32.2671H32.3036H55.3842C55.3842 64.0012 53.7578 51.5935 51.4083 48.3408Z" fill="#FEE1B9"/>
<path id="Vector_5" d="M37.3734 42.0963V37.7891H32.2671V64.0016H32.3036H55.3842C55.3842 64.0016 53.7579 51.5939 51.4087 48.3408C48.4264 44.7263 37.3734 46.7739 37.3734 42.0963Z" fill="#FEE1B9"/>
<path id="Vector_6" d="M45.0641 19.6217C45.0641 11.8867 39.0723 5.61621 31.6812 5.61621C24.2901 5.61621 18.2983 11.8867 18.2983 19.6217C18.2983 27.3566 24.2901 33.6268 31.6812 33.6268C39.0723 33.6268 45.0641 27.3566 45.0641 19.6217Z" fill="#482B1B"/>
<path id="Vector_7" d="M18.5262 27.8434C18.3527 26.1388 19.281 24.6122 20.5994 24.4341C21.9182 24.2557 23.127 25.4935 23.3009 27.1981C23.4748 28.9032 22.5453 30.429 21.2281 30.6078C19.909 30.7863 18.7002 29.5481 18.5262 27.8434Z" fill="#FFD9AC"/>
<g id="Group_4">
<g id="Group_5">
<g id="Group_6">
<path id="Vector_8" d="M46.068 27.7798C46.2894 26.0698 45.4032 24.5666 44.0901 24.4205C42.7762 24.2752 41.532 25.5439 41.3114 27.2535C41.0893 28.9619 41.9766 30.4659 43.2905 30.6123C44.6036 30.7576 45.8474 29.4889 46.068 27.7798Z" fill="#FEE1B9"/>
</g>
<g id="Group_7">
<g id="Group_8">
<path id="Vector_9" d="M32.3031 14.0967C32.3031 14.0967 21.4595 15.4527 21.4595 21.2357C21.4595 21.2357 21.4595 29.0603 21.4595 31.3375C21.4595 33.6144 25.1409 40.121 28.4609 40.3916C30.1208 40.5272 32.3031 40.7135 32.3031 40.7135C32.3031 40.7135 34.4851 40.5272 36.1453 40.3916C39.4646 40.121 43.1464 33.6144 43.1464 31.3375C43.1464 29.0603 43.1464 21.2357 43.1464 21.2357C43.1464 15.4523 32.3031 14.0967 32.3031 14.0967Z" fill="#FEE1B9"/>
</g>
<g id="Group_9">
<path id="Vector_10" d="M43.1104 21.2357C43.1104 21.2357 43.1104 29.0603 43.1104 31.3375C43.1104 33.6144 39.4289 40.121 36.1093 40.3916C34.4491 40.5272 32.2671 40.7135 32.2671 40.7135V14.0967C32.2671 14.0967 43.1104 15.4523 43.1104 21.2357Z" fill="#FEE1B9"/>
</g>
</g>
</g>
</g>
<path id="Vector_11" d="M30.8755 8.62598C22.5617 8.62598 20.0341 15.9099 20.0341 19.2643C17.019 23.4552 20.3059 27.2048 22.6329 28.5221C22.6329 27.7424 22.6329 27.457 22.6329 26.4601C22.6329 23.7499 25.2097 21.2404 29.0802 21.6579C32.5489 22.0325 34.7335 20.0722 36.5785 16.7393C38.8569 12.2755 36.0138 8.62598 30.8755 8.62598Z" fill="#482B1B"/>
<path id="Vector_12" d="M36.8701 14.9923C36.8701 14.9923 38.8127 22.8786 44.1328 25.4954C45.0646 22.9712 45.9786 19.2242 44.4724 15.4907C42.9662 11.7572 36.8701 9.65918 36.8701 9.65918V14.9923Z" fill="#482B1B"/>
<path id="Vector_13" d="M36.9896 5.61524C36.9896 3.02738 34.8919 0.929688 32.3041 0.929688C29.7163 0.929688 27.6187 3.02738 27.6187 5.61524C27.6187 8.2031 29.7163 10.3012 32.3041 10.3012C34.8919 10.3012 36.9896 8.2031 36.9896 5.61524Z" fill="#482B1B"/>
<path id="Vector_14" d="M32.2682 46.1776V63.9979H17.7251V46.1859C17.7251 46.1859 23.6073 45.2978 24.6897 44.7802C25.772 44.2625 32.2682 46.1776 32.2682 46.1776Z" fill="#006E7C"/>
<path id="Vector_15" d="M32.3032 46.1776V63.9979H46.8464V46.1859C46.8464 46.1859 40.9641 45.2978 39.8818 44.7802C38.7995 44.2625 32.3032 46.1776 32.3032 46.1776Z" fill="#006E7C"/>
<path id="Vector_16" d="M32.2671 46.1792L37.7977 43.3828L40.6483 45.0449L35.9982 51.6847L32.2671 46.1792Z" fill="#009589"/>
<path id="Vector_17" d="M32.2684 46.1792L26.7375 43.3828L23.8857 45.0449L29.5041 51.6847L32.2684 46.1792Z" fill="#009589"/>
<path id="Vector_18" d="M46.8457 46.2334V63.9983H55.3835C55.3835 63.9983 53.7572 51.5906 51.4081 48.3375C50.4786 47.2111 48.7645 46.6347 46.8457 46.2334Z" fill="#009589"/>
<path id="Vector_19" d="M17.7247 46.2227C15.807 46.6289 14.093 47.209 13.162 48.3373C10.8129 51.5904 9.18652 63.9981 9.18652 63.9981H17.7251L17.7247 46.2227Z" fill="#009589"/>
<g id="Group_10">
<path id="Vector_20" d="M32.2086 37.203C33.7209 37.203 34.9466 36.1244 34.9466 34.7939H29.4702C29.4702 36.124 30.6963 37.203 32.2086 37.203Z" fill="white"/>
<path id="Vector_21" d="M38.666 28.3308C38.666 27.8109 38.2451 27.3896 37.7252 27.3896C37.2053 27.3896 36.7837 27.8109 36.7837 28.3308C36.7837 28.8504 37.2053 29.2716 37.7252 29.2716C38.2451 29.2716 38.666 28.8504 38.666 28.3308Z" fill="#726658"/>
<path id="Vector_22" d="M27.7285 27.9539C27.7285 27.434 27.3069 27.0127 26.787 27.0127C26.2675 27.0127 25.8462 27.434 25.8462 27.9539C25.8462 28.4734 26.2675 28.8947 26.787 28.8947C27.3069 28.8947 27.7285 28.4734 27.7285 27.9539Z" fill="#726658"/>
<g id="Group_11">
<g id="Group_12">
<g id="Group_13">
<path id="Vector_23" d="M28.6963 26.1693C28.6387 26.1693 28.5819 26.1429 28.545 26.0932C28.2092 25.6407 27.5361 25.3599 26.788 25.3599C26.04 25.3599 25.3669 25.6411 25.0311 26.0932C24.9697 26.1768 24.8515 26.1945 24.7679 26.1324C24.6844 26.0706 24.667 25.9524 24.7292 25.8692C25.1342 25.323 25.9233 24.9834 26.788 24.9834C27.6528 24.9834 28.4418 25.3226 28.8469 25.8692C28.909 25.9528 28.8913 26.0706 28.8081 26.1324C28.7746 26.1572 28.7355 26.1693 28.6963 26.1693Z" fill="#482B1B"/>
</g>
</g>
</g>
<g id="Group_14">
<g id="Group_15">
<g id="Group_16">
<path id="Vector_24" d="M39.6537 26.1693C39.5964 26.1693 39.5392 26.1429 39.5027 26.0932C39.1669 25.6407 38.4938 25.3599 37.7457 25.3599C36.9981 25.3599 36.325 25.6411 35.9892 26.0932C35.9278 26.1768 35.8096 26.1945 35.726 26.1324C35.6424 26.0706 35.6251 25.9524 35.6869 25.8692C36.0919 25.323 36.881 24.9834 37.7457 24.9834C38.6109 24.9834 39.3999 25.3226 39.805 25.8692C39.8671 25.9528 39.8494 26.0706 39.7658 26.1324C39.7323 26.1572 39.6924 26.1693 39.6537 26.1693Z" fill="#482B1B"/>
</g>
</g>
</g>
</g>
</g>
</g>
</g>
</g>
</g>
</g>
</svg>
