<svg width="300" height="300" viewBox="0 0 300 300" fill="none" xmlns="http://www.w3.org/2000/svg">
<g clip-path="url(#clip0_1400_34044)">
<path fill-rule="evenodd" clip-rule="evenodd" d="M225.345 157.123C226.128 157.436 226.8 157.976 227.273 158.673C227.746 159.371 227.999 160.195 228 161.038V209.762C227.999 210.605 227.746 211.429 227.273 212.126C226.8 212.824 226.128 213.364 225.345 213.677L184.564 229.989C183.558 230.392 182.436 230.392 181.431 229.989L140.649 213.677C139.867 213.363 139.197 212.823 138.725 212.125C138.253 211.428 138 210.604 138 209.762V161.038C138 160.196 138.253 159.372 138.725 158.675C139.197 157.977 139.867 157.436 140.649 157.123L179.867 141.435L179.923 141.418L181.431 140.811C182.438 140.407 183.562 140.407 184.569 140.811L186.083 141.418L186.139 141.435L225.345 157.123ZM196.523 151.65L161.906 165.493L148.384 160.087L143.625 161.994V164.244L180.188 178.869V223.431L183 224.556L185.812 223.431V178.875L222.375 164.25V162L217.616 160.093L183 173.931L169.478 168.525L204.094 154.682L196.523 151.65Z" fill="#009589"/>
</g>
<path d="M174.753 86.8678L179.466 89.4454L174.753 92.023L172.176 96.736L169.598 92.023L164.885 89.4454L169.598 86.8678L172.176 82.1548L174.753 86.8678Z" fill="#EBEBEB"/>
<path d="M160.375 80.3628L161.98 81.2406L160.375 82.119L159.497 83.724L158.619 82.119L157.014 81.2406L158.619 80.3628L159.497 78.7578L160.375 80.3628Z" fill="#EBEBEB"/>
<path d="M144.713 122.26L146.318 123.138L144.713 124.015L143.836 125.62L142.958 124.015L141.353 123.138L142.958 122.26L143.836 120.655L144.713 122.26Z" fill="#EBEBEB"/>
<path d="M236.448 83.8319L239.345 85.4159L236.448 86.9999L234.864 89.8967L233.28 86.9999L230.383 85.4159L233.28 83.8319L234.864 80.9351L236.448 83.8319Z" fill="#EBEBEB"/>
<path d="M257.553 126.25L260.17 128.263L257.064 129.38L255.052 131.998L253.934 128.891L251.317 126.879L254.423 125.761L256.435 123.144L257.553 126.25Z" fill="#EBEBEB"/>
<path d="M213.36 100.797L215.383 101.903L213.36 103.009L212.254 105.033L211.147 103.009L209.125 101.903L211.147 100.797L212.254 98.7734L213.36 100.797Z" fill="#EBEBEB"/>
<path d="M252.592 256.088C254.018 256.707 255.068 258.026 255.595 259.49C256.121 260.953 256.169 262.552 255.994 264.098C255.655 267.089 253.955 270.108 252.125 272.497C249.607 270.299 249.028 266.465 248.856 264.502C248.585 261.398 249.979 255.625 252.592 256.088Z" fill="#009589"/>
<path d="M255.053 277.433C254.65 275.743 255.353 273.889 256.651 272.732C257.948 271.577 259.762 271.087 261.494 271.22C262.295 271.281 263.161 271.514 263.62 272.174C264.049 272.791 264.001 273.652 263.653 274.318C263.305 274.983 262.702 275.481 262.066 275.88C259.883 277.249 257.521 278.173 255.053 277.433Z" fill="#009589"/>
<path d="M251.824 286.602C251.809 286.599 251.843 286.381 251.914 285.988C251.993 285.556 252.095 284.998 252.218 284.328C252.497 282.94 252.854 280.952 253.933 279.022C254.996 277.097 256.486 275.679 257.74 274.976C258.363 274.615 258.908 274.401 259.293 274.289C259.483 274.225 259.638 274.201 259.74 274.176C259.843 274.154 259.898 274.146 259.9 274.153C259.918 274.202 259.027 274.362 257.82 275.108C256.609 275.832 255.17 277.236 254.123 279.128C253.066 281.018 252.686 282.978 252.37 284.358C252.218 285.054 252.094 285.618 251.998 286.005C251.9 286.393 251.838 286.605 251.824 286.602Z" fill="#263238"/>
<path d="M251.919 260.578C251.926 260.578 251.937 260.67 251.949 260.846C251.961 261.046 251.976 261.301 251.995 261.617C252.031 262.287 252.07 263.257 252.109 264.454C252.186 266.851 252.247 270.163 252.232 273.821C252.215 277.48 252.125 280.792 252.028 283.187C251.978 284.385 251.931 285.354 251.89 286.023C251.868 286.339 251.851 286.594 251.837 286.793C251.823 286.969 251.812 287.062 251.805 287.062C251.797 287.061 251.794 286.969 251.794 286.792C251.797 286.592 251.8 286.336 251.805 286.02C251.822 285.323 251.845 284.36 251.874 283.183C251.933 280.787 251.998 277.477 252.014 273.82C252.029 270.164 251.993 266.854 251.955 264.458C251.936 263.28 251.922 262.317 251.911 261.62C251.909 261.303 251.907 261.047 251.906 260.848C251.907 260.671 251.911 260.578 251.919 260.578Z" fill="#263238"/>
<path d="M250.696 279.253C250.123 275.635 247.685 272.363 244.381 270.781C243.539 270.377 242.44 270.114 241.748 270.74C241.055 271.367 241.211 272.492 241.55 273.363C242.96 276.986 246.749 279.544 250.637 279.499" fill="#009589"/>
<path d="M244.789 273.618C244.795 273.604 244.985 273.688 245.323 273.851C245.493 273.931 245.701 274.031 245.927 274.173C246.153 274.314 246.427 274.452 246.695 274.655C246.97 274.849 247.277 275.055 247.575 275.317C247.888 275.56 248.192 275.855 248.511 276.167C249.131 276.806 249.756 277.57 250.289 278.452C250.814 279.339 251.195 280.25 251.461 281.101C251.581 281.53 251.696 281.938 251.757 282.331C251.842 282.718 251.874 283.087 251.908 283.422C251.954 283.756 251.939 284.062 251.95 284.328C251.962 284.595 251.945 284.825 251.93 285.012C251.902 285.387 251.88 285.593 251.865 285.591C251.816 285.589 251.902 284.76 251.755 283.437C251.711 283.108 251.671 282.746 251.579 282.366C251.512 281.98 251.392 281.581 251.269 281.16C250.997 280.326 250.618 279.435 250.102 278.563C249.578 277.697 248.969 276.943 248.367 276.307C248.057 275.996 247.762 275.701 247.459 275.454C247.17 275.19 246.872 274.98 246.607 274.78C245.525 274.005 244.766 273.66 244.789 273.618Z" fill="#263238"/>
<path d="M111.958 76.7642C112.693 76.7642 120.847 78.7232 123.137 82.7642C125.428 86.8052 126.418 101.596 126.418 101.596C126.418 101.596 127.076 112 125.65 116.995C124.205 122.058 119.557 146.529 117.83 151.509C115.615 157.896 112.474 168.436 112.474 168.436L85.6326 149.376L111.958 76.7642Z" fill="#FF8A8A"/>
<path d="M120.489 53.7033C119.33 56.2101 119.703 59.1465 120.385 61.8225C121.067 64.4985 122.042 67.1541 122.022 69.9153C121.994 73.9731 120.965 79.5159 112.745 76.8975C107.738 75.3027 112.343 90.1611 109.638 94.6653C109.103 95.5563 108.545 96.4737 107.697 97.0761C105.678 98.5125 102.898 97.6791 100.582 96.7977C99.8415 96.5157 98.9991 96.1215 98.8293 95.3475C98.7423 94.9503 98.8605 94.5405 98.9781 94.1511C103.07 80.5719 107.161 66.9933 111.252 53.4141" fill="#263238"/>
<path d="M106.52 85.4158C111.234 84.3034 112.682 81.9598 112.737 77.8144C112.809 72.5416 112.809 72.5416 112.809 72.5416C112.809 72.5416 118.026 72.2704 119.242 64.5004C119.847 60.6364 120.373 54.3904 120.035 49.2142C119.731 44.5552 114.89 36.3382 110.248 36.8398L97.4986 43.0426C96.0886 43.195 95.029 44.401 95.0602 45.8188L96.0502 75.9406" fill="#FFBEA9"/>
<path d="M117.051 54.6017C117.071 55.1279 116.642 55.5779 116.093 55.6091C115.545 55.6397 115.084 55.2395 115.064 54.7133C115.045 54.1871 115.474 53.7365 116.021 53.7053C116.57 53.6747 117.031 54.0761 117.051 54.6017Z" fill="#263238"/>
<path d="M118.66 52.7681C118.571 52.9355 117.695 52.4867 116.648 52.7171C115.598 52.9301 114.965 53.6981 114.819 53.5799C114.749 53.5283 114.814 53.2463 115.087 52.9019C115.355 52.5599 115.857 52.1747 116.51 52.0361C117.164 51.8987 117.774 52.0475 118.152 52.2539C118.537 52.4591 118.705 52.6913 118.66 52.7681Z" fill="#263238"/>
<path d="M106.76 54.4899C106.78 55.0161 106.351 55.4661 105.802 55.4973C105.254 55.5279 104.793 55.1271 104.773 54.6015C104.753 54.0759 105.182 53.6247 105.731 53.5941C106.28 53.5623 106.741 53.9637 106.76 54.4899Z" fill="#263238"/>
<path d="M108.041 53.8726C107.871 53.9764 107.256 53.1382 106.137 52.8154C105.023 52.4764 104.029 52.8388 103.949 52.6606C103.907 52.5796 104.111 52.3618 104.548 52.1944C104.978 52.0258 105.654 51.937 106.35 52.1428C107.046 52.3498 107.555 52.7884 107.814 53.161C108.078 53.5366 108.122 53.827 108.041 53.8726Z" fill="#263238"/>
<path d="M112.041 60.6756C112.035 60.6144 112.701 60.498 113.781 60.3576C114.055 60.3288 114.314 60.2736 114.36 60.087C114.424 59.889 114.309 59.5944 114.176 59.2758C113.916 58.614 113.646 57.9204 113.361 57.1932C112.23 54.228 111.411 51.7896 111.531 51.7452C111.651 51.7008 112.665 54.0678 113.796 57.033C114.068 57.7644 114.328 58.461 114.576 59.1282C114.68 59.439 114.859 59.7912 114.72 60.2022C114.647 60.4068 114.447 60.5556 114.271 60.6036C114.096 60.6576 113.942 60.6606 113.807 60.669C112.719 60.7302 112.045 60.7368 112.041 60.6756Z" fill="#263238"/>
<path d="M112.809 72.6173C112.809 72.6173 107.584 72.9659 102.4 69.8657C102.4 69.8657 105.008 75.4115 112.78 74.6675L112.809 72.6173Z" fill="#E4977C"/>
<path d="M111.869 63.2816C111.337 62.4854 110.534 61.9544 109.809 61.9202C109.306 61.8962 108.834 62.117 108.601 62.5934C108.368 63.0692 108.414 63.815 108.773 64.3754C109.177 65.0072 109.864 65.2622 110.398 65.1608C110.933 65.0594 111.348 64.6742 111.74 64.2866C111.848 64.1792 111.958 64.067 112.012 63.902C112.065 63.7376 112.047 63.506 111.927 63.3398" fill="#E4977C"/>
<path d="M108.887 61.4244C109.062 61.4136 109.067 62.5776 110.065 63.4008C111.061 64.227 112.301 64.0938 112.31 64.2564C112.326 64.329 112.034 64.4832 111.511 64.4982C110.997 64.5168 110.247 64.3536 109.636 63.8496C109.028 63.3444 108.765 62.6694 108.724 62.1924C108.679 61.7064 108.808 61.4178 108.887 61.4244Z" fill="#263238"/>
<path d="M108.977 48.9263C108.843 49.2059 107.791 48.9635 106.525 48.9905C105.258 48.9923 104.213 49.2593 104.072 48.9827C104.011 48.8507 104.213 48.5951 104.649 48.3551C105.081 48.1145 105.753 47.9117 106.513 47.9021C107.272 47.8943 107.948 48.0815 108.386 48.3119C108.827 48.5423 109.036 48.7931 108.977 48.9263Z" fill="#263238"/>
<path d="M118.989 50.4167C118.755 50.6597 117.838 50.4053 116.735 50.3915C115.632 50.3465 114.697 50.5517 114.482 50.2967C114.388 50.1731 114.536 49.9295 114.944 49.6997C115.347 49.4705 116.02 49.2839 116.778 49.3037C117.536 49.3247 118.192 49.5461 118.575 49.7963C118.965 50.0471 119.093 50.2979 118.989 50.4167Z" fill="#263238"/>
<path d="M78.4685 79.0048C80.1623 76.2664 85.6313 69.7036 87.5675 65.1826C88.9487 61.9576 89.9891 50.6398 92.9351 44.8144C95.8805 38.9884 99.3503 36.6322 102.754 35.7154C106.158 34.7992 108.711 36.0424 110.249 37.4176C111.787 38.7922 112.31 42.7942 112.31 42.7942C112.31 42.7942 104.099 44.62 101.334 49.3024C98.1569 54.6808 97.3871 57.3862 97.3871 57.3862L96.3593 60.328C96.3593 60.328 97.3211 66.0232 97.6751 68.8378C98.0291 71.6524 97.4645 74.2672 95.1479 75.409L90.4877 78.7024C90.4877 78.7024 93.0173 105.925 92.7365 106.139C92.0411 106.67 86.2091 105.493 80.9345 104.283C79.9097 104.048 79.3517 94.4428 79.3517 94.4428L77.8103 103.435L73.8425 102.531C73.8425 102.531 75.0071 84.601 78.4685 79.0048Z" fill="#263238"/>
<path d="M112.158 42.8301C112.158 42.8301 117.238 42.3357 118.973 47.6379C119.758 50.0367 120.356 56.9649 120.356 56.9649C120.356 56.9649 121.043 51.4647 120.79 48.3243C120.537 45.1839 118.97 41.2143 116.564 39.0159C114.224 36.8781 112.25 35.8755 108.065 36.1287C108.065 36.1287 109.732 36.8853 110.803 38.4717C111.339 39.2661 111.469 39.8457 112.158 42.8301Z" fill="#263238"/>
<path d="M97.4442 57.7952C97.3584 56.0762 95.4858 54.929 93.996 55.79C93.1776 56.2628 92.5524 57.2138 92.6274 59.039C92.8278 63.9062 97.6728 62.7008 97.6758 62.561C97.677 62.474 97.5444 59.8082 97.4442 57.7952Z" fill="#FFBEA9"/>
<path d="M96.1129 60.7778C96.0907 60.7634 96.0307 60.8408 95.8897 60.9122C95.7529 60.9818 95.5141 61.0358 95.2567 60.9512C94.7347 60.7838 94.2679 59.9852 94.2085 59.1092C94.1779 58.667 94.2535 58.241 94.3957 57.8852C94.5295 57.5228 94.7497 57.2648 95.0065 57.2078C95.2615 57.1376 95.4511 57.2852 95.5165 57.4196C95.5873 57.5528 95.5603 57.6512 95.5867 57.659C95.6011 57.6704 95.6881 57.5732 95.6401 57.3734C95.6161 57.278 95.5543 57.1652 95.4361 57.0764C95.3155 56.9864 95.1415 56.945 94.9621 56.972C94.5877 57.0134 94.2643 57.3728 94.1071 57.7628C93.9301 58.1558 93.8347 58.6346 93.8689 59.1314C93.9403 60.1106 94.4803 61.0082 95.1925 61.1822C95.5387 61.2578 95.8201 61.1426 95.9623 61.0214C96.1087 60.896 96.1297 60.7862 96.1129 60.7778Z" fill="#E4977C"/>
<path d="M94.9013 42.0332C91.8941 46.2356 89.8373 51.1136 88.9295 56.201C88.3583 59.402 88.1663 62.8586 86.2259 65.4674C85.2065 66.8384 83.7497 67.8932 82.9979 69.4274C82.1801 71.0966 82.3013 73.1348 81.3443 74.7278C80.3009 76.4648 78.2225 77.2838 76.8635 78.7868C74.3057 81.6164 74.8727 85.9844 73.8275 89.6528C73.1627 91.9868 71.7815 94.1114 69.9185 95.6666C69.2801 96.1994 68.5025 96.8966 68.7401 97.6934C68.8841 98.1746 69.3599 98.468 69.8075 98.696C71.2805 99.4472 72.6389 102.319 74.2631 102.627C74.5991 93.8792 78.8459 83.3726 83.4503 75.9266C86.0783 71.6768 88.9781 67.4294 90.0155 62.5412C90.6983 59.3228 90.5333 55.9886 90.8915 52.718C91.2497 49.4474 92.2541 46.0418 94.7285 43.8728" fill="#263238"/>
<path d="M93.4462 63.8858C93.385 63.9584 92.9398 63.752 92.353 63.101C91.7914 62.4494 91.1002 61.3016 90.9454 59.6894C90.8722 58.892 90.9466 57.9788 91.264 57.068C91.5772 56.162 92.1094 55.2866 92.7634 54.4886C93.4174 53.687 94.1842 52.952 94.9876 52.2356C95.7964 51.5168 96.6688 50.8106 97.5964 50.135C99.4522 48.782 101.354 47.6816 103.152 46.8368C104.964 45.9836 106.622 45.4358 107.908 44.8166C109.205 44.2148 110.133 43.5584 110.709 43.0172C111.29 42.4808 111.569 42.1124 111.674 42.1712C111.758 42.2132 111.659 42.6932 111.17 43.415C110.688 44.1374 109.744 45.0224 108.428 45.7916C107.12 46.58 105.471 47.2478 103.791 48.1268C102.095 49.0094 100.296 50.1008 98.5156 51.398C97.6258 52.046 96.7828 52.7144 95.9932 53.3888C95.2012 54.0674 94.468 54.7334 93.8614 55.4192C93.253 56.1032 92.776 56.8124 92.4742 57.53C92.1736 58.2428 92.0542 58.964 92.0488 59.6372C92.0464 60.9914 92.4886 62.063 92.8516 62.753C93.232 63.4406 93.526 63.7982 93.4462 63.8858Z" fill="#263238"/>
<path d="M95.4227 64.102C95.4173 64.1117 95.3351 64.0733 95.1821 63.9911C95.0237 63.9161 94.8119 63.7721 94.5443 63.5765C94.0217 63.1756 93.3377 62.4586 92.8295 61.3769C92.3267 60.3106 92.0111 58.8299 92.4131 57.2771C92.8061 55.7189 93.9449 54.2975 95.3291 53.1569C96.7259 52.0109 98.1707 51.1031 99.4763 50.2637C100.791 49.4387 102.003 48.7421 103.035 48.1847C104.067 47.6267 104.918 47.2049 105.512 46.9253C105.808 46.7849 106.041 46.6811 106.2 46.6139C106.359 46.5467 106.445 46.5161 106.449 46.5257C106.46 46.5467 106.142 46.7213 105.567 47.0339C104.991 47.3459 104.159 47.7965 103.143 48.3773C102.128 48.9575 100.932 49.6715 99.6311 50.5067C98.3417 51.3539 96.8987 52.2725 95.5301 53.3963C94.1711 54.5171 93.0791 55.8785 92.6921 57.3509C92.2949 58.8173 92.5703 60.2446 93.0317 61.2862C93.4973 62.3422 94.1345 63.0623 94.6223 63.4829C95.1155 63.9041 95.4407 64.0721 95.4227 64.102Z" fill="#455A64"/>
<path d="M105.083 35.4018C105.076 35.3706 105.707 35.2614 106.681 35.5068C107.645 35.7462 108.94 36.3054 110.099 37.3098C111.268 38.3274 111.865 39.654 112.084 40.6182C112.196 41.1054 112.231 41.5086 112.23 41.7864C112.232 42.0642 112.208 42.2166 112.189 42.2166C112.133 42.2196 112.139 41.604 111.871 40.6746C111.604 39.7548 111.004 38.5116 109.893 37.545C108.782 36.5814 107.539 36.0042 106.622 35.7204C105.697 35.4282 105.083 35.4564 105.083 35.4018Z" fill="#455A64"/>
<path d="M92.7557 61.9394C92.7743 61.9598 92.5301 62.1674 92.1923 62.6234C91.8617 63.0764 91.4411 63.8108 91.2947 64.8074C91.1471 65.7896 91.3349 67.0514 92.0939 68.1368C92.8235 69.2048 94.2179 70.091 95.7323 69.9044C96.4763 69.8174 97.1729 69.4874 97.6595 68.9822C98.1515 68.4776 98.4347 67.823 98.5787 67.1834C98.8547 65.8922 98.7077 64.6352 98.2775 63.74C97.8497 62.8286 97.1344 62.3354 96.6226 62.1278C96.0982 61.9202 95.7689 61.9436 95.7725 61.9112C95.7725 61.9022 95.8523 61.889 96.0053 61.892C96.1583 61.8932 96.3856 61.9232 96.6652 62.0138C97.213 62.1938 97.9943 62.6858 98.4761 63.6416C98.9573 64.5836 99.1343 65.8814 98.8607 67.2452C98.7161 67.9226 98.4209 68.633 97.8803 69.194C97.3433 69.7568 96.5794 70.1192 95.7694 70.214C94.9558 70.3148 94.1428 70.1228 93.4726 69.7598C92.7994 69.3962 92.2481 68.879 91.8569 68.2994C91.0637 67.1354 90.8933 65.7998 91.0763 64.7726C91.2593 63.7322 91.7279 62.99 92.0963 62.5484C92.2817 62.324 92.4502 62.1728 92.5636 62.0726C92.683 61.9766 92.7485 61.9316 92.7557 61.9394Z" fill="#E0E0E0"/>
<path d="M73.6864 273.441L77.1005 258.642L65.0854 256.63V267.451L68.4305 272.376L73.6864 273.441Z" fill="#FFBEA9"/>
<path d="M74.7947 272.729L74.3897 273.371C74.3897 273.371 82.4675 284.633 81.2729 286.766L59.7971 272.945L64.6883 265.986C66.9299 269.52 70.1645 271.838 74.7947 272.729Z" fill="#FF8A8A"/>
<g opacity="0.6">
<path d="M65.3927 269.671C64.9043 269.518 64.3163 269.8 64.1423 270.282C63.9683 270.765 64.2503 271.365 64.7369 271.527C65.2229 271.69 65.9393 271.372 66.0575 270.874C66.1763 270.375 65.8067 269.689 65.2961 269.647" fill="white"/>
</g>
<g opacity="0.6">
<path d="M59.7976 272.945L60.9742 271.271L81.127 285.13C81.127 285.13 81.8152 286.162 81.274 286.765L59.7976 272.945Z" fill="white"/>
</g>
<path d="M74.4262 273.479C74.3554 273.582 73.8004 273.292 73.0672 273.297C72.334 273.283 71.776 273.566 71.7064 273.463C71.623 273.38 72.1828 272.854 73.0702 272.863C73.9576 272.865 74.5114 273.397 74.4262 273.479Z" fill="#263238"/>
<path d="M76.08 275.861C76.0386 275.978 75.4698 275.864 74.8278 276.078C74.1798 276.273 73.7814 276.695 73.68 276.623C73.5708 276.576 73.8936 275.915 74.6964 275.664C75.4968 275.406 76.1418 275.759 76.08 275.861Z" fill="#263238"/>
<path d="M75.6239 279.379C75.5141 279.34 75.7055 278.722 76.3445 278.322C76.9805 277.916 77.6207 278.008 77.6093 278.124C77.6129 278.248 77.0963 278.351 76.5767 278.688C76.0493 279.013 75.7349 279.436 75.6239 279.379Z" fill="#263238"/>
<path d="M44.1894 179.827L54.9564 181.269L50.8128 193.145L39.2652 189.176L38.6118 184.788L44.1894 179.827Z" fill="#FFBEA9"/>
<path d="M40.4014 189.981L39.7528 189.706C39.7528 189.706 30.643 198.796 28.51 198.022L37.9558 176.271L45.0652 179.71C42.163 182.293 40.5244 185.604 40.4014 189.981Z" fill="#FF8A8A"/>
<g opacity="0.6">
<path d="M41.7948 180.907C41.8626 180.436 41.5158 179.94 41.0478 179.853C40.5798 179.766 40.0722 180.114 39.996 180.584C39.9198 181.054 40.3182 181.662 40.7928 181.697C41.2674 181.731 41.841 181.289 41.8026 180.815" fill="white"/>
</g>
<g opacity="0.6">
<path d="M37.9553 176.271L39.6653 177.098L29.9861 197.643C29.9861 197.643 29.1443 198.428 28.5095 198.022L37.9553 176.271Z" fill="white"/>
</g>
<path d="M39.6587 189.756C39.5537 189.706 39.7367 189.154 39.6221 188.483C39.5249 187.809 39.1823 187.34 39.2663 187.261C39.3293 187.172 39.8957 187.606 40.0199 188.421C40.1519 189.234 39.7463 189.822 39.6587 189.756Z" fill="#263238"/>
<path d="M37.7243 191.627C37.6109 191.607 37.6301 191.069 37.3373 190.513C37.0613 189.949 36.6149 189.646 36.6653 189.542C36.6923 189.436 37.3457 189.632 37.6967 190.33C38.0537 191.025 37.8269 191.669 37.7243 191.627Z" fill="#263238"/>
<path d="M34.4315 191.737C34.4507 191.631 35.0453 191.713 35.5085 192.239C35.9759 192.761 35.9879 193.361 35.8793 193.368C35.7659 193.39 35.5937 192.932 35.2067 192.506C34.8305 192.072 34.3961 191.848 34.4315 191.737Z" fill="#263238"/>
<path d="M103.367 168.436C102.411 168.909 90.3816 215.28 86.5962 217.192L78.933 254.902C78.933 254.902 79.6302 255.687 79.4562 257.343C79.2816 259 78.5844 259.261 78.5844 259.261C78.5844 259.261 67.512 260.656 63.0654 257.431C63.0654 257.431 63.5886 254.117 63.8502 253.856C64.1118 253.594 65.1582 223.69 67.8606 216.715C70.5636 209.74 74.1378 187.682 73.7892 183.235C73.4406 178.789 72.2196 168.413 72.4812 165.101C72.7428 161.788 73.8762 158.475 73.8762 158.475L103.367 168.436Z" fill="#263238"/>
<path d="M108.143 170.31C108.143 170.31 104.063 198.269 100.544 202.817C97.026 207.365 92.2302 207.486 91.0914 207.679C89.952 207.871 48.5178 192.544 48.5178 192.544C48.5178 192.544 47.844 181.259 49.1916 179.575C49.1916 179.575 52.8972 179.743 53.739 180.922L75.2982 183.954L83.2158 159.868L108.143 170.31Z" fill="#263238"/>
<path d="M101.069 170.261C101.08 170.264 101.048 170.43 100.979 170.744C100.901 171.084 100.796 171.54 100.664 172.112C100.37 173.328 99.9563 175.035 99.4481 177.131C98.3855 181.388 96.9299 187.217 95.3213 193.658C93.7193 200.115 92.0501 205.925 90.4073 209.976C89.6027 212.006 88.8599 213.611 88.3055 214.698C88.0367 215.246 87.7991 215.657 87.6479 215.94C87.4925 216.221 87.4067 216.366 87.3971 216.361C87.3875 216.356 87.4553 216.201 87.5921 215.911C87.7253 215.619 87.9449 215.2 88.1963 214.645C88.7159 213.544 89.4257 211.93 90.2015 209.897C91.7867 205.838 93.4169 200.039 95.0189 193.582C96.6617 187.15 98.1485 181.328 99.2339 177.077C99.7817 174.992 100.228 173.293 100.546 172.083C100.702 171.518 100.826 171.066 100.918 170.729C101.007 170.419 101.059 170.258 101.069 170.261Z" fill="#455A64"/>
<path d="M72.5543 164.354C72.5705 164.359 72.5303 164.5 72.5087 164.775C72.4817 165.05 72.4649 165.458 72.4733 165.985C72.4829 167.038 72.5885 168.559 72.7481 170.44C72.9275 172.33 73.1393 174.563 73.3739 177.038C73.5725 179.521 73.9691 182.249 73.9955 185.144C74.0723 190.953 72.7559 196.079 71.9639 199.751C71.5655 201.568 71.2403 203.051 71.0063 204.117C70.9001 204.608 70.8149 205.003 70.7495 205.305C70.6871 205.576 70.6493 205.717 70.6391 205.715C70.6283 205.714 70.6457 205.568 70.6877 205.294C70.7387 204.988 70.8047 204.59 70.8875 204.094C71.0717 203.054 71.3627 201.554 71.7479 199.705C72.4865 196.015 73.7597 190.908 73.6829 185.148C73.6571 182.276 73.2707 179.559 73.0871 177.067C72.8771 174.587 72.6881 172.349 72.5279 170.456C72.3959 168.574 72.3239 167.043 72.3515 165.985C72.3623 165.455 72.3983 165.044 72.4463 164.768C72.4883 164.49 72.5543 164.354 72.5543 164.354Z" fill="#455A64"/>
<path d="M53.3081 180.758C53.3537 180.775 53.1125 181.47 52.7873 182.609C52.4609 183.747 52.0739 185.337 51.8147 187.123C51.5591 188.91 51.4817 190.545 51.4739 191.728C51.4649 192.912 51.5003 193.647 51.4517 193.651C51.4301 193.653 51.3977 193.471 51.3569 193.14C51.3137 192.809 51.2771 192.327 51.2531 191.731C51.2045 190.54 51.2471 188.884 51.5057 187.078C51.7673 185.273 52.1933 183.672 52.5767 182.543C52.7675 181.978 52.9391 181.527 53.0735 181.221C53.2055 180.915 53.2883 180.75 53.3081 180.758Z" fill="#455A64"/>
<path d="M42.1296 191.083C42.1296 191.169 42.078 191.239 42.0144 191.239C41.9508 191.239 41.8992 191.169 41.8992 191.083C41.8992 190.996 41.9508 190.927 42.0144 190.927C42.078 190.927 42.1296 190.997 42.1296 191.083Z" fill="#455A64"/>
<path d="M64.128 253.268C64.1376 253.222 64.9692 253.366 66.3138 253.577C67.6584 253.79 69.5196 254.056 71.5848 254.266C73.6506 254.474 75.5274 254.585 76.8876 254.646C78.2478 254.708 79.0908 254.734 79.0908 254.78C79.0908 254.801 78.8802 254.822 78.4986 254.84C78.117 254.86 77.5644 254.869 76.8816 254.867C75.516 254.862 73.6284 254.786 71.553 254.577C69.4788 254.366 67.614 254.064 66.2748 253.795C65.6052 253.661 65.0658 253.541 64.6956 253.445C64.326 253.351 64.1232 253.289 64.128 253.268Z" fill="#455A64"/>
<path d="M107.174 172.646C107.307 172.558 115.05 172.646 115.05 172.646C115.05 172.646 120.848 144.396 121.537 135.739C122.225 127.081 107.41 139.75 107.41 139.75L107.174 172.646Z" fill="#FF8A8A"/>
<path d="M118.846 163.255C119.108 164.563 119.513 165.733 119.347 167.056C119.299 167.438 119.23 167.825 119.045 168.163C118.822 168.57 118.45 168.871 118.087 169.161C117.211 169.86 116.336 170.56 115.46 171.259C115.179 171.483 114.773 171.712 114.492 171.487C114.289 171.324 114.291 171.017 114.329 170.759C114.439 170.021 114.694 169.305 115.075 168.663L116.01 164.738L115.049 162.711L118.846 163.255Z" fill="#FFBEA9"/>
<path d="M96.7127 74.1982C96.7127 74.1982 104.237 74.1976 108.66 84.0286C108.66 84.0286 121.989 107.277 122.3 117.196C122.3 117.196 122.145 131.92 119.665 140.6C117.185 149.279 110.049 172.276 110.049 172.276C110.049 172.276 87.7373 170.357 83.2427 167.102C78.7481 163.847 68.8289 164.312 68.8289 164.312C68.8289 164.312 74.8733 145.869 82.3127 134.709C89.7521 123.55 86.8073 103.712 86.8073 103.712C86.8073 103.712 84.7247 74.287 96.7127 74.1982Z" fill="#FF8A8A"/>
<path d="M107.409 172.021C107.41 172.013 107.534 172.016 107.771 172.03C108.008 172.039 108.359 172.051 108.816 172.049C109.73 172.048 111.07 171.996 112.751 171.832L112.676 171.893C114.224 166.445 116.781 157.142 118.945 146.423C120.687 137.875 121.743 130.032 122.064 124.327C122.223 121.475 122.223 119.161 122.172 117.565C122.135 116.786 122.106 116.171 122.085 115.727C122.079 115.531 122.074 115.373 122.07 115.247C122.069 115.139 122.07 115.084 122.076 115.083C122.081 115.082 122.09 115.137 122.102 115.244C122.114 115.37 122.129 115.526 122.148 115.721C122.183 116.165 122.232 116.78 122.293 117.559C122.382 119.157 122.415 121.477 122.284 124.338C122.019 130.06 120.995 137.924 119.251 146.484C117.084 157.216 114.471 166.514 112.842 171.941L112.824 171.999L112.767 172.004C111.075 172.144 109.732 172.169 108.814 172.141C108.355 172.128 108.003 172.1 107.766 172.076C107.531 172.048 107.409 172.03 107.409 172.021Z" fill="#263238"/>
<path d="M112.718 78.4265C112.763 77.5883 120.983 90.4769 123.128 104.079C123.9 108.972 122.078 115.083 122.078 115.083L106.655 80.4611C106.655 80.4611 112.31 86.0075 112.718 78.4265Z" fill="#E0E0E0"/>
<path d="M101.43 75.6328C101.43 75.6328 102.157 76.1086 103.226 77.2432C103.753 77.8132 104.328 78.595 104.788 79.6018C105.257 80.6038 105.661 81.787 106.152 83.071L106.16 83.0902L106.16 83.1124C106.175 84.2116 106.395 85.393 106.811 86.5918C107.224 87.7924 107.816 89.0098 108.486 90.2566C109.856 92.7388 111.338 95.4604 112.769 98.3572C115.946 104.732 118.367 110.717 119.966 115.097C120.771 117.285 121.362 119.078 121.766 120.318C121.952 120.92 122.1 121.398 122.209 121.752C122.307 122.081 122.354 122.256 122.343 122.259C122.333 122.262 122.267 122.094 122.15 121.772C122.027 121.422 121.86 120.95 121.652 120.356C121.212 119.13 120.59 117.35 119.76 115.173C118.11 110.819 115.661 104.859 112.489 98.4958C111.06 95.6014 109.592 92.8894 108.229 90.394C107.562 89.1376 106.969 87.9034 106.558 86.6776C106.143 85.4542 105.928 84.241 105.925 83.113L105.933 83.1538C105.453 81.8614 105.064 80.674 104.618 79.6804C104.181 78.682 103.635 77.908 103.128 77.3308C102.624 76.7488 102.177 76.345 101.882 76.0642C101.745 75.937 101.633 75.8338 101.541 75.7492C101.463 75.6772 101.427 75.6376 101.43 75.6328Z" fill="#263238"/>
<path d="M111.831 127.224C111.834 127.21 111.96 127.206 112.158 127.304C112.356 127.398 112.613 127.617 112.788 127.977C112.953 128.331 113.046 128.853 112.796 129.357C112.554 129.872 111.908 130.172 111.293 130.103C110.675 130.049 110.102 129.628 109.965 129.075C109.818 128.532 110.013 128.039 110.244 127.724C110.487 127.405 110.782 127.241 110.994 127.187C111.209 127.131 111.331 127.16 111.331 127.174C111.354 127.228 110.819 127.239 110.426 127.85C110.244 128.139 110.111 128.571 110.241 128.993C110.36 129.416 110.808 129.741 111.324 129.792C111.84 129.844 112.343 129.614 112.542 129.221C112.754 128.834 112.708 128.384 112.586 128.064C112.32 127.389 111.798 127.272 111.831 127.224Z" fill="#263238"/>
<path d="M92.4886 129.476C92.4784 129.501 92.107 129.338 91.4182 129.106C91.0738 128.992 90.6484 128.859 90.1444 128.773C89.6434 128.688 89.0512 128.643 88.4434 128.811C87.8362 128.977 87.259 129.405 86.8798 130.05C86.4892 130.685 86.2294 131.469 85.9024 132.267C85.2604 133.875 84.5578 135.633 83.8198 137.481C83.6182 137.981 83.419 138.475 83.2312 138.942L83.0824 138.729C86.752 138.625 89.923 139.696 91.9564 140.784C92.9836 141.325 93.7576 141.85 94.2664 142.24C94.5256 142.428 94.7098 142.597 94.8394 142.703C94.9666 142.813 95.0302 142.874 95.0236 142.882C95.0086 142.9 94.726 142.692 94.1998 142.332C93.6736 141.973 92.8888 141.481 91.861 140.97C89.8252 139.944 86.695 138.929 83.0914 139.039L82.8538 139.047L82.942 138.826C83.1292 138.36 83.3278 137.865 83.5288 137.364C84.2746 135.52 84.985 133.765 85.6342 132.16C85.9684 131.368 86.2348 130.584 86.6596 129.912C86.872 129.58 87.1276 129.282 87.427 129.058C87.7282 128.838 88.0576 128.686 88.3852 128.598C89.047 128.431 89.6638 128.499 90.1762 128.601C90.6916 128.707 91.1176 128.858 91.459 128.991C91.801 129.125 92.0584 129.246 92.2318 129.33C92.4046 129.416 92.4934 129.466 92.4886 129.476Z" fill="#263238"/>
<path d="M122.272 122.684C122.264 122.683 122.27 122.608 122.287 122.463C122.31 122.296 122.338 122.086 122.373 121.827C122.462 121.241 122.584 120.432 122.737 119.417C123.074 117.312 123.547 114.358 124.113 110.821L124.111 110.837C124.181 109.048 124.269 107.092 124.309 105.021C124.335 103.992 124.276 102.925 124.193 101.842C124.166 101.299 124.102 100.755 124.025 100.206C123.965 99.6543 123.874 99.1029 123.766 98.5491C123.18 95.2479 122.117 92.2107 120.968 89.5467C119.807 86.8821 118.502 84.6003 117.268 82.7823C116.033 80.9625 114.88 79.6029 114.057 78.6885C113.644 78.2325 113.297 77.9037 113.077 77.6649C112.853 77.4303 112.739 77.3031 112.746 77.2953C112.753 77.2875 112.882 77.3991 113.12 77.6199C113.355 77.8443 113.717 78.1605 114.145 78.6057C114.998 79.4979 116.185 80.8437 117.451 82.6581C118.715 84.4707 120.049 86.7561 121.231 89.4315C122.403 92.1069 123.481 95.1627 124.073 98.4939C124.182 99.0525 124.274 99.6093 124.334 100.167C124.411 100.721 124.475 101.272 124.501 101.82C124.583 102.914 124.639 103.981 124.61 105.027C124.562 107.106 124.463 109.059 124.379 110.85L124.379 110.858L124.378 110.865C123.766 114.395 123.256 117.342 122.891 119.442C122.707 120.452 122.561 121.257 122.454 121.84C122.403 122.097 122.362 122.305 122.329 122.47C122.298 122.613 122.279 122.685 122.272 122.684Z" fill="#263238"/>
<path d="M111.031 158.473C111.344 158.33 117.085 160.635 118.226 162.109C119.174 163.333 118.97 164.354 118.97 164.354C118.97 164.354 111.641 161.217 110.141 161.429C108.64 161.641 107.608 163.81 106.678 162.407C105.748 161.005 105.605 160.836 105.605 160.836L111.031 158.473Z" fill="#FFBEA9"/>
<path d="M96.6352 75.6328C98.7394 75.6286 104.15 79.7332 104.451 90.2752C104.744 100.526 104.075 119.049 104.075 119.049L112.61 157.46C112.857 157.837 104.313 162.356 100.545 161.386C100.545 161.386 90.715 126.717 89.8738 122.443C89.0326 118.169 87.2104 98.2648 87.9112 93.7798C88.6126 89.2942 87.52 75.6526 96.6352 75.6328Z" fill="#FF8A8A"/>
<path d="M101.568 157.242C101.091 156.91 100.314 157.238 100.219 157.812C100.124 158.385 100.755 158.945 101.314 158.784C101.873 158.622 102.106 157.811 101.719 157.377" fill="#E0E0E0"/>
<path d="M101.72 157.377C101.732 157.365 101.805 157.399 101.885 157.518C101.965 157.635 102.033 157.843 102.004 158.101C101.971 158.35 101.839 158.67 101.514 158.856C101.186 159.051 100.718 158.964 100.419 158.691C100.112 158.427 99.97 157.971 100.124 157.623C100.27 157.278 100.572 157.109 100.816 157.047C101.069 156.987 101.283 157.03 101.409 157.095C101.536 157.16 101.579 157.23 101.569 157.243C101.547 157.289 101.284 157.106 100.881 157.258C100.691 157.331 100.476 157.489 100.394 157.725C100.305 157.956 100.401 158.256 100.627 158.457C100.854 158.657 101.162 158.717 101.381 158.601C101.606 158.491 101.737 158.259 101.787 158.061C101.889 157.644 101.676 157.404 101.72 157.377Z" fill="#263238"/>
<path d="M100.732 154.97C100.265 154.765 99.6555 155.212 99.7113 155.72C99.7671 156.227 100.459 156.531 100.871 156.229C101.282 155.927 101.199 155.176 100.732 154.97Z" fill="#E0E0E0"/>
<path d="M100.732 154.97C100.738 154.954 100.811 154.952 100.92 155.018C101.028 155.083 101.159 155.229 101.224 155.45C101.283 155.666 101.285 155.977 101.07 156.239C100.855 156.511 100.423 156.573 100.095 156.421C99.7619 156.282 99.5152 155.922 99.5698 155.58C99.6172 155.244 99.8483 155.035 100.046 154.933C100.254 154.831 100.45 154.828 100.57 154.864C100.692 154.9 100.74 154.955 100.732 154.97C100.719 155.018 100.461 154.913 100.157 155.123C100.014 155.223 99.8686 155.401 99.8554 155.609C99.8344 155.814 99.9844 156.031 100.22 156.135C100.457 156.238 100.718 156.202 100.854 156.048C100.998 155.898 101.031 155.671 101.007 155.498C100.957 155.131 100.706 155.012 100.732 154.97Z" fill="#263238"/>
<path d="M100.14 152.664C99.673 152.459 99.064 152.906 99.1198 153.414C99.1756 153.921 99.8674 154.225 100.279 153.923C100.691 153.621 100.608 152.869 100.14 152.664Z" fill="#E0E0E0"/>
<path d="M100.14 152.664C100.146 152.648 100.22 152.646 100.328 152.712C100.436 152.777 100.567 152.923 100.632 153.144C100.691 153.36 100.694 153.671 100.478 153.933C100.263 154.205 99.8309 154.267 99.5039 154.115C99.1703 153.977 98.9237 153.616 98.9783 153.274C99.0257 152.938 99.2567 152.729 99.4553 152.627C99.6629 152.525 99.8591 152.522 99.9791 152.558C100.1 152.594 100.148 152.649 100.14 152.664C100.127 152.712 99.8699 152.607 99.5657 152.817C99.4229 152.917 99.2771 153.095 99.2639 153.303C99.2429 153.508 99.3929 153.725 99.6287 153.829C99.8651 153.932 100.126 153.896 100.263 153.742C100.407 153.592 100.439 153.365 100.416 153.192C100.366 152.825 100.115 152.706 100.14 152.664Z" fill="#263238"/>
<path d="M88.0295 92.7821C88.0295 92.7821 88.0355 92.9039 88.0319 93.1397C88.0325 93.3761 88.0109 93.7265 88.0169 94.1879C88.0247 95.1101 88.0529 96.4709 88.1393 98.2253C88.3007 101.734 88.6415 106.814 89.1443 113.11C89.2739 114.683 89.4095 116.333 89.5511 118.054C89.6255 118.913 89.7011 119.791 89.7779 120.686C89.7977 120.91 89.8175 121.134 89.8373 121.36L89.8673 121.696L89.9381 122.024C90.0263 122.461 90.1469 122.911 90.2591 123.361C91.1819 126.967 92.2439 130.812 93.3515 134.867C95.5991 142.972 98.0783 151.91 100.694 161.345L100.559 161.231C101.993 161.37 103.553 161.203 105.065 160.816C107.773 160.118 110.301 158.86 112.517 157.336L112.458 157.495C109.27 143.126 106.37 130.057 104.057 119.63L104.053 119.615L104.054 119.599C104.411 111.144 104.702 104.252 104.904 99.4613C105.013 97.0799 105.097 95.2223 105.155 93.9479C105.188 93.3245 105.212 92.8451 105.23 92.5097C105.248 92.1857 105.267 92.0195 105.267 92.0195C105.267 92.0195 105.272 92.1863 105.266 92.5115C105.257 92.8475 105.243 93.3269 105.226 93.9509C105.183 95.2259 105.12 97.0847 105.04 99.4673C104.863 104.259 104.608 111.153 104.295 119.609L104.292 119.578C106.625 130.001 109.547 143.065 112.761 157.428L112.784 157.53L112.701 157.587C110.441 159.143 107.901 160.406 105.142 161.12C103.604 161.513 102.008 161.687 100.53 161.543L100.422 161.533L100.394 161.43C97.7879 151.993 95.3183 143.05 93.0797 134.943C91.9799 130.885 90.9281 127.039 90.0143 123.424C89.9027 122.97 89.7851 122.527 89.6933 122.066L89.6219 121.726L89.5925 121.383C89.5733 121.157 89.5541 120.932 89.5349 120.709C89.4611 119.813 89.3885 118.936 89.3171 118.075C89.1827 116.353 89.0537 114.703 88.9301 113.128C88.4549 106.829 88.1465 101.744 88.0211 98.2319C87.9527 96.4757 87.9437 95.1131 87.9551 94.1897C87.9587 93.7283 87.9899 93.3767 88.0001 93.1403C88.0145 92.9021 88.0295 92.7821 88.0295 92.7821Z" fill="#263238"/>
<path d="M205.418 108.953C205.369 108.971 202.832 102.12 199.753 93.6529C196.673 85.1827 194.218 78.3037 194.269 78.2857C194.318 78.2677 196.855 85.1167 199.934 93.5875C203.012 102.055 205.468 108.935 205.418 108.953Z" fill="#263238"/>
<path d="M226.868 63.8706C226.871 63.8712 226.868 63.9108 226.858 63.9876C226.845 64.0746 226.829 64.1862 226.809 64.3272C226.76 64.6374 226.691 65.0736 226.604 65.6292C226.42 66.7722 226.157 68.403 225.833 70.4136C225.187 74.454 224.326 80.0406 223.461 86.223C222.598 92.4078 221.894 98.0172 221.408 102.08C221.168 104.102 220.973 105.742 220.837 106.892C220.769 107.45 220.716 107.888 220.678 108.2C220.658 108.34 220.643 108.452 220.631 108.539C220.62 108.616 220.612 108.655 220.609 108.655C220.606 108.654 220.607 108.614 220.612 108.538C220.619 108.45 220.628 108.337 220.64 108.196C220.669 107.883 220.711 107.443 220.763 106.884C220.874 105.745 221.047 104.098 221.273 102.064C221.725 97.9968 222.407 92.3832 223.271 86.196C224.137 80.0118 225.02 74.4264 225.7 70.3908C226.04 68.373 226.325 66.7416 226.531 65.616C226.634 65.0634 226.715 64.629 226.772 64.32C226.8 64.1808 226.822 64.0698 226.839 63.984C226.855 63.9084 226.865 63.87 226.868 63.8706Z" fill="#263238"/>
<path d="M254.203 87.07C254.244 87.1042 249.945 92.269 244.604 98.6038C239.261 104.941 234.898 110.049 234.857 110.015C234.816 109.98 239.113 104.817 244.457 98.4796C249.798 92.1442 254.162 87.0352 254.203 87.07Z" fill="#263238"/>
<path d="M193.162 112.975C193.128 113.015 190.579 110.899 187.47 108.247C184.36 105.595 181.868 103.412 181.903 103.372C181.937 103.332 184.485 105.448 187.595 108.101C190.703 110.752 193.197 112.935 193.162 112.975Z" fill="#263238"/>
<path d="M258.68 119.689C258.676 119.742 255.318 119.545 251.181 119.249C247.042 118.953 243.691 118.671 243.694 118.617C243.698 118.565 247.056 118.761 251.194 119.057C255.332 119.354 258.684 119.636 258.68 119.689Z" fill="#263238"/>
<g opacity="0.3">
<path d="M143.791 144.439C143.413 142.748 144.145 141.395 145.615 141.066C147.086 140.737 148.336 141.631 148.717 143.337C149.099 145.043 148.349 146.384 146.878 146.713C145.408 147.042 144.169 146.131 143.791 144.439ZM147.511 143.607C147.255 142.46 146.639 141.918 145.846 142.096C145.081 142.267 144.729 143.041 144.982 144.172C145.235 145.305 145.883 145.855 146.648 145.684C147.442 145.507 147.768 144.754 147.511 143.607ZM151.815 139.788L153.256 139.466L148.528 151.332L147.087 151.654L151.815 139.788ZM151.627 147.783C151.248 146.092 151.981 144.739 153.451 144.41C154.921 144.081 156.175 144.989 156.553 146.681C156.932 148.372 156.185 149.728 154.714 150.057C153.243 150.386 152.004 149.474 151.627 147.783ZM155.347 146.95C155.094 145.817 154.46 145.264 153.681 145.438C152.902 145.612 152.561 146.368 152.818 147.515C153.074 148.662 153.704 149.201 154.483 149.027C155.263 148.853 155.6 148.082 155.347 146.95Z" fill="white"/>
</g>
<g opacity="0.3">
<path d="M203.373 133.811C202.995 132.119 203.728 130.767 205.198 130.437C206.668 130.109 207.918 131.002 208.3 132.708C208.682 134.414 207.931 135.756 206.461 136.085C204.99 136.414 203.751 135.502 203.373 133.811ZM207.094 132.979C206.837 131.832 206.222 131.29 205.428 131.468C204.664 131.639 204.311 132.412 204.565 133.545C204.818 134.677 205.466 135.227 206.231 135.056C207.025 134.878 207.351 134.126 207.094 132.979ZM211.397 129.16L212.839 128.838L208.111 140.704L206.67 141.026L211.397 129.16ZM211.208 137.154C210.83 135.463 211.562 134.111 213.033 133.782C214.504 133.453 215.757 134.361 216.135 136.052C216.514 137.744 215.767 139.1 214.296 139.428C212.826 139.757 211.586 138.846 211.208 137.154ZM214.929 136.322C214.676 135.189 214.043 134.636 213.263 134.811C212.483 134.985 212.144 135.741 212.4 136.887C212.657 138.035 213.287 138.574 214.066 138.399C214.846 138.225 215.182 137.454 214.929 136.322Z" fill="white"/>
</g>
<path d="M199.749 286.991C203.588 286.991 206.7 283.879 206.7 280.04C206.7 276.201 203.588 273.089 199.749 273.089C195.91 273.089 192.798 276.201 192.798 280.04C192.798 283.879 195.91 286.991 199.749 286.991Z" fill="#263238"/>
<path d="M199.749 283.827C201.84 283.827 203.536 282.131 203.536 280.04C203.536 277.948 201.84 276.252 199.749 276.252C197.657 276.252 195.962 277.948 195.962 280.04C195.962 282.131 197.657 283.827 199.749 283.827Z" fill="#E0E0E0"/>
<path d="M211.753 268.744V273.385L200.974 282.068C200.974 282.068 200.119 282.695 199.316 282.781C198.514 282.866 197.763 282.412 197.763 281.222C197.763 278.963 200.58 272.377 200.58 272.377H202.834V268.744H211.753V268.744Z" fill="#455A64"/>
<path d="M199.143 280.645C199.114 280.666 199.007 280.374 199.316 280.076C199.464 279.94 199.733 279.85 200.004 279.941C200.274 280.023 200.514 280.308 200.511 280.645C200.514 280.982 200.273 281.267 200.004 281.349C199.733 281.44 199.464 281.35 199.316 281.214C199.007 280.917 199.114 280.625 199.143 280.645C199.191 280.638 199.202 280.879 199.449 281.039C199.568 281.115 199.744 281.147 199.906 281.079C200.067 281.016 200.2 280.843 200.198 280.645C200.2 280.447 200.067 280.276 199.906 280.212C199.744 280.144 199.567 280.177 199.449 280.252C199.202 280.411 199.191 280.653 199.143 280.645Z" fill="#263238"/>
<path d="M200.58 272.378C200.58 272.336 201.206 272.294 202.218 272.277C203.23 272.259 204.628 272.271 206.17 272.31C207.657 272.357 209.001 272.399 210.118 272.435C211.128 272.474 211.753 272.511 211.753 272.555C211.753 272.597 211.127 272.639 210.116 272.656C209.103 272.673 207.705 272.661 206.163 272.622C204.677 272.576 203.332 272.533 202.215 272.498C201.206 272.459 200.58 272.421 200.58 272.378Z" fill="#263238"/>
<path d="M115.478 287.062C119.317 287.062 122.429 283.95 122.429 280.111C122.429 276.272 119.317 273.16 115.478 273.16C111.639 273.16 108.527 276.272 108.527 280.111C108.527 283.95 111.639 287.062 115.478 287.062Z" fill="#263238"/>
<path d="M115.478 283.898C117.569 283.898 119.265 282.202 119.265 280.11C119.265 278.019 117.569 276.323 115.478 276.323C113.386 276.323 111.69 278.019 111.69 280.11C111.69 282.202 113.386 283.898 115.478 283.898Z" fill="#E0E0E0"/>
<path d="M127.482 267.49V273.456L116.703 282.139C116.703 282.139 115.848 282.766 115.045 282.851C114.242 282.938 113.492 282.483 113.492 281.294C113.492 279.034 116.309 272.449 116.309 272.449H118.562V267.49H127.482Z" fill="#455A64"/>
<path d="M114.872 280.716C114.843 280.737 114.736 280.445 115.044 280.147C115.193 280.011 115.461 279.921 115.733 280.012C116.003 280.094 116.243 280.379 116.24 280.716C116.243 281.053 116.003 281.338 115.733 281.42C115.461 281.511 115.193 281.421 115.044 281.285C114.736 280.988 114.842 280.696 114.872 280.716C114.92 280.709 114.93 280.95 115.178 281.11C115.296 281.186 115.473 281.218 115.635 281.15C115.796 281.087 115.929 280.914 115.927 280.716C115.929 280.518 115.796 280.347 115.635 280.283C115.473 280.215 115.296 280.248 115.178 280.323C114.93 280.482 114.92 280.724 114.872 280.716Z" fill="#263238"/>
<path d="M116.309 272.448C116.309 272.406 116.934 272.365 117.947 272.348C118.959 272.33 120.357 272.342 121.899 272.381C123.386 272.427 124.73 272.47 125.847 272.505C126.857 272.545 127.482 272.582 127.482 272.626C127.482 272.668 126.857 272.709 125.844 272.727C124.832 272.744 123.434 272.732 121.892 272.693C120.405 272.646 119.061 272.604 117.944 272.568C116.934 272.529 116.309 272.493 116.309 272.448Z" fill="#263238"/>
<path d="M148.546 236.322C146.483 236.322 144.619 235.005 143.947 233.031L123.668 173.569L231.243 190.957L228.773 227.269C228.62 229.508 226.816 231.305 224.577 231.449L148.858 236.313C148.753 236.319 148.649 236.322 148.546 236.322ZM125.448 175.072L145.082 232.642C145.615 234.204 147.142 235.221 148.781 235.114L224.499 230.25C226.14 230.144 227.462 228.826 227.575 227.185L229.971 191.966L125.448 175.072Z" fill="#455A64"/>
<path d="M128.55 187.57L124.049 184.141L119.606 171.212L115.71 168.955L116.311 167.917L120.595 170.398L125.066 183.407L129.277 186.616L128.55 187.57Z" fill="#455A64"/>
<path d="M128.392 184.747L128.229 185.936L229.985 199.894L230.148 198.706L128.392 184.747Z" fill="#455A64"/>
<path d="M134.323 202.288L134.252 203.485L229.804 209.152L229.875 207.954L134.323 202.288Z" fill="#455A64"/>
<path d="M228.68 217.372L140.212 219.699L140.243 220.899L228.711 218.572L228.68 217.372Z" fill="#455A64"/>
<path d="M228.14 226.41L144.068 230.476L144.126 231.674L228.198 227.609L228.14 226.41Z" fill="#455A64"/>
<path d="M220.741 230.371L219.546 230.27C220.67 216.873 221.423 203.265 221.78 189.825L222.98 189.857C222.621 203.319 221.869 216.95 220.741 230.371Z" fill="#455A64"/>
<path d="M213.84 231.07L212.64 231.062C212.642 230.778 212.843 202.604 213.199 189.242L214.399 189.274C214.043 202.624 213.842 230.787 213.84 231.07Z" fill="#455A64"/>
<path d="M205.653 187.063L204.452 187.094L205.614 231.231L206.814 231.2L205.653 187.063Z" fill="#455A64"/>
<path d="M195.802 185.701L194.605 185.79L198.038 232.117L199.235 232.028L195.802 185.701Z" fill="#455A64"/>
<path d="M183.683 183.499L182.493 183.659L189.102 232.864L190.291 232.705L183.683 183.499Z" fill="#455A64"/>
<path d="M170.545 181.035L169.365 181.256L179.15 233.613L180.33 233.392L170.545 181.035Z" fill="#455A64"/>
<path d="M154.996 178.999L153.832 179.294L167.77 234.287L168.934 233.992L154.996 178.999Z" fill="#455A64"/>
<path d="M135.504 175.81L134.362 176.181L154.464 238.006L155.605 237.635L135.504 175.81Z" fill="#455A64"/>
<path d="M215.428 269.823C215.419 269.823 215.411 269.823 215.402 269.823L117.282 268.222C116.882 268.215 116.501 268.049 116.224 267.761C115.947 267.472 115.797 267.085 115.807 266.684C115.851 264.925 116.104 256.052 116.788 254.099C117.031 253.404 117.438 252.24 133.731 244.252C135.348 243.46 149.588 236.503 151.552 236.393C153.589 236.279 171.682 235.509 172.451 235.477C173.264 235.448 173.978 236.084 174.014 236.912C174.049 237.74 173.406 238.439 172.579 238.474C172.391 238.482 154.052 239.262 151.774 239.386C149.202 239.935 122.357 252.82 119.561 255.299C119.266 256.575 118.988 260.989 118.849 265.247L215.451 266.824C216.279 266.837 216.94 267.52 216.926 268.348C216.914 269.168 216.245 269.823 215.428 269.823Z" fill="#455A64"/>
<path d="M172.161 267.325L159.701 267.019C157.348 266.902 155.589 266.203 154.457 264.943C153.386 263.749 152.903 262.102 153.023 260.049C153.129 258.227 153.759 256.372 154.846 254.685L166.902 236.858L167.896 237.531L155.847 255.346C154.88 256.848 154.314 258.502 154.221 260.118C154.121 261.841 154.5 263.194 155.35 264.141C156.26 265.155 157.739 265.72 159.746 265.819L172.19 266.125L172.161 267.325Z" fill="#455A64"/>
<path d="M168.704 237.423C158.663 219.335 132.314 172.061 130.992 170.553C130.191 169.84 123.769 167.579 119.915 166.327L120.286 165.186C121.331 165.525 130.532 168.534 131.816 169.682C133.056 170.791 163.636 225.821 169.753 236.841L168.704 237.423Z" fill="#455A64"/>
<path d="M122.69 166.114L116.081 170.13C116.081 170.13 108.446 166.676 107.81 165.858C107.174 165.04 106.992 162 109.628 161.43C112.263 160.859 122.69 166.114 122.69 166.114Z" fill="#455A64"/>
<path d="M109.971 164.124C109.954 164.124 109.922 164.011 109.952 163.803C109.982 163.6 110.097 163.291 110.399 163.041C110.69 162.792 111.195 162.637 111.698 162.813C112.196 162.972 112.635 163.501 112.629 164.123C112.635 164.745 112.196 165.274 111.698 165.433C111.195 165.609 110.69 165.454 110.399 165.205C110.097 164.956 109.982 164.647 109.952 164.443C109.922 164.236 109.954 164.122 109.971 164.124C109.997 164.123 110.007 164.235 110.07 164.414C110.131 164.59 110.264 164.842 110.532 165.03C110.792 165.218 111.206 165.315 111.599 165.163C111.989 165.022 112.321 164.606 112.317 164.124C112.321 163.641 111.989 163.225 111.599 163.084C111.206 162.932 110.792 163.029 110.532 163.218C110.264 163.405 110.131 163.657 110.07 163.833C110.007 164.013 109.997 164.124 109.971 164.124Z" fill="#263238"/>
<path d="M117.31 267.959C117.311 267.873 139.236 268.154 166.274 268.588C193.322 269.021 215.24 269.443 215.239 269.529C215.238 269.615 193.318 269.334 166.27 268.9C139.231 268.467 117.308 268.046 117.31 267.959Z" fill="#263238"/>
<path d="M268.244 287.062C268.244 287.148 214.763 287.218 148.806 287.218C82.8253 287.218 29.3557 287.148 29.3557 287.062C29.3557 286.975 82.8253 286.906 148.806 286.906C214.763 286.905 268.244 286.975 268.244 287.062Z" fill="#263238"/>
<defs>
<clipPath id="clip0_1400_34044">
<rect width="90" height="90" fill="white" transform="translate(138 140.4)"/>
</clipPath>
</defs>
</svg>
