<svg width="300" height="300" viewBox="0 0 300 300" fill="none" xmlns="http://www.w3.org/2000/svg">
<path d="M99.3233 172.188H41.4719V281.546H99.3233V172.188Z" fill="#009589"/>
<path d="M82.1544 172.188H24.303V281.546H82.1544V172.188Z" fill="#F5F5F5"/>
<path d="M77.8956 194.697H28.239V177.363H77.8962L77.8956 194.697ZM28.8492 194.088H77.286V177.973H28.8492V194.088Z" fill="#009589"/>
<path d="M59.8572 181.122H46.95C45.3102 181.122 43.9812 179.793 43.9812 178.153V177.668H62.826V178.153C62.826 179.793 61.497 181.122 59.8572 181.122Z" fill="#EBEBEB"/>
<path d="M77.8956 216.717H28.239V199.383H77.8962L77.8956 216.717ZM28.8492 216.107H77.286V199.992H28.8492V216.107Z" fill="#009589"/>
<path d="M59.8572 203.142H46.95C45.3102 203.142 43.9812 201.813 43.9812 200.173V199.688H62.826V200.173C62.826 201.813 61.497 203.142 59.8572 203.142Z" fill="#EBEBEB"/>
<path d="M77.8956 238.737H28.239V221.403H77.8962L77.8956 238.737ZM28.8492 238.127H77.286V222.012H28.8492V238.127Z" fill="#009589"/>
<path d="M59.8572 225.162H46.95C45.3102 225.162 43.9812 223.833 43.9812 222.193V221.708H62.826V222.193C62.826 223.832 61.497 225.162 59.8572 225.162Z" fill="#EBEBEB"/>
<path d="M77.8956 260.757H28.239V243.422H77.8962L77.8956 260.757ZM28.8492 260.147H77.286V244.032H28.8492V260.147Z" fill="#009589"/>
<path d="M59.8573 247.182H46.9507C45.3109 247.182 43.9819 245.853 43.9819 244.213V243.728H62.8267V244.213C62.8261 245.852 61.4971 247.182 59.8573 247.182Z" fill="#EBEBEB"/>
<path d="M84.5742 168.095H21.7368V173.542H84.5742V168.095Z" fill="#EBEBEB"/>
<path d="M103.47 168.095H84.5742V173.542H103.47V168.095Z" fill="#009589"/>
<path d="M27.3432 281.546H24.303V287.132H27.3432V281.546Z" fill="#009589"/>
<path d="M46.1281 281.546H43.0879V287.132H46.1281V281.546Z" fill="#009589"/>
<path d="M80.4391 281.546H77.3989V287.132H80.4391V281.546Z" fill="#009589"/>
<path d="M97.5949 281.546H94.5547V287.132H97.5949V281.546Z" fill="#009589"/>
<path d="M77.8663 153.552L83.7223 168.533L80.0815 168.516L77.1643 159.31L77.8663 153.552Z" fill="#009589"/>
<path d="M57.8688 139.71L55.8564 168.414L76.638 168.848L78.9762 139.71H57.8688Z" fill="#EBEBEB"/>
<path d="M59.9485 142.021L58.2727 165.914L73.7215 166.638L75.8803 141.88L59.9485 142.021Z" fill="#FAFAFA"/>
<path d="M63.3384 145.4L62.085 162.195H70.6074L72.111 145.4H63.3384Z" fill="#009589"/>
<path d="M269.957 28.3521H192.387V167.7H269.957V28.3521Z" fill="#EBEBEB"/>
<path d="M266.059 32.3926H195.488V163.548H266.059V32.3926Z" fill="#FAFAFA"/>
<path d="M273.238 168.956L269.957 167.7V25.9888H273.238V168.956Z" fill="#009589"/>
<path d="M267.592 70.1221H195.488V71.5189H267.592V70.1221Z" fill="#009589"/>
<path d="M267.592 101.356H195.488V102.753H267.592V101.356Z" fill="#009589"/>
<path d="M267.592 132.589H195.488V133.986H267.592V132.589Z" fill="#009589"/>
<path d="M228.99 70.8206V167.268H232.556V70.8206H228.99Z" fill="#009589"/>
<path d="M210.692 32.3926H209.076V70.8208H210.692V32.3926Z" fill="#009589"/>
<path d="M224.623 32.3926H223.008V70.8208H224.623V32.3926Z" fill="#009589"/>
<path d="M238.554 32.3926H236.939V70.8208H238.554V32.3926Z" fill="#009589"/>
<path d="M252.485 32.3926H250.87V70.8208H252.485V32.3926Z" fill="#009589"/>
<path d="M192.387 25.9888H189.107V168.563H192.387V25.9888Z" fill="#009589"/>
<path d="M273.237 24.5498H189.107V28.352H273.237V24.5498Z" fill="#009589"/>
<path d="M275.459 169.425H186.779V172.967H275.459V169.425Z" fill="#009589"/>
<path d="M269.957 167.7L275.459 169.425H186.779L192.387 167.7H269.957Z" fill="#009589"/>
<path d="M72.3749 33.1676C73.7477 32.3384 75.2087 31.709 76.7159 31.2812L77.6099 26.9846L84.8693 26.8574L85.9139 31.1198C87.4355 31.4948 88.9181 32.072 90.3185 32.8526L93.9875 30.4478L99.2105 35.4914L96.9365 39.242C97.7663 40.6148 98.3951 42.077 98.8229 43.5842L103.119 44.4782L103.247 51.7376L98.9843 52.7828C98.6093 54.3038 98.0321 55.7858 97.2515 57.1868L99.6557 60.8558L94.6133 66.0794L90.8627 63.8054C89.4899 64.6352 88.0283 65.2634 86.5211 65.6918L85.6265 69.9884L78.3671 70.1156L77.3219 65.8532C75.8009 65.4782 74.3183 64.901 72.9173 64.1204L69.2483 66.5252L64.0247 61.4822L66.2987 57.7316C65.4689 56.3588 64.8401 54.8978 64.4123 53.39L60.1157 52.496L59.9885 45.2366L64.2509 44.1914C64.6259 42.6704 65.2031 41.1878 65.9837 39.7874L63.5789 36.1184L68.6213 30.8948L72.3749 33.1676ZM76.2449 42.8384C73.2569 45.9332 73.3433 50.864 76.4387 53.8514C79.5335 56.8394 84.4643 56.7524 87.4517 53.6576C90.4391 50.5628 90.3527 45.632 87.2579 42.6446C84.1631 39.6572 79.2323 39.7436 76.2449 42.8384Z" fill="#009589"/>
<path d="M76.2449 42.8387C76.2449 42.8387 76.6524 42.2645 77.6952 41.5661C78.7188 40.8845 80.5079 40.1255 82.7766 40.3649C83.8938 40.4903 85.1159 40.8545 86.2301 41.5919C87.3323 42.3287 88.3727 43.3775 89.0231 44.7383C89.3651 45.4067 89.6027 46.1495 89.7317 46.9247C89.8715 47.6981 89.892 48.5123 89.7756 49.3223C89.5782 50.9495 88.809 52.5527 87.6132 53.8127C86.3958 55.0523 84.8202 55.8779 83.2008 56.1329C82.3956 56.2781 81.5808 56.2865 80.8026 56.1737C80.0232 56.0723 79.2726 55.8611 78.5928 55.5425C77.2092 54.9407 76.1244 53.9375 75.3492 52.8617C74.5734 51.7739 74.1665 50.5649 74.0021 49.4531C73.6829 47.1941 74.379 45.3797 75.0246 44.3333C75.6852 43.2659 76.2449 42.8387 76.2449 42.8387C76.2869 42.8741 75.7746 43.3499 75.1746 44.4191C74.5878 45.4697 73.9674 47.2421 74.3136 49.4051C74.4918 50.4701 74.898 51.6191 75.651 52.6469C76.4028 53.6627 77.4437 54.6077 78.7601 55.1663C79.4069 55.4639 80.1192 55.6589 80.8584 55.7507C81.5958 55.8533 82.3668 55.8419 83.1276 55.7015C84.6588 55.4555 86.1414 54.6731 87.2922 53.5025C88.4208 52.3109 89.1504 50.8025 89.3424 49.2635C89.4558 48.4979 89.4402 47.7275 89.3112 46.9943C89.1936 46.2599 88.9739 45.5543 88.6536 44.9189C88.0487 43.6235 87.0684 42.6167 86.0268 41.9003C84.9738 41.1839 83.811 40.8185 82.7406 40.6781C80.5668 40.4081 78.8171 41.0903 77.7875 41.7137C76.7393 42.3509 76.2821 42.8795 76.2449 42.8387Z" fill="#009589"/>
<path d="M72.3749 33.1679C72.3749 33.1739 72.2939 33.1313 72.1331 33.0401C71.9567 32.9381 71.7203 32.8013 71.4137 32.6243C70.7579 32.2367 69.8129 31.6787 68.5865 30.9545L68.6747 30.9431C67.3913 32.2877 65.7035 34.0565 63.6623 36.1955L63.6755 36.0551C64.4081 37.1639 65.2235 38.3957 66.0947 39.7145L66.1385 39.7805L66.1001 39.8507C65.3873 41.1419 64.7879 42.6125 64.3955 44.2259L64.3745 44.3117L64.2875 44.3333C62.9597 44.6627 61.5227 45.0191 60.0281 45.3905L60.1493 45.2333C60.1949 47.5187 60.2429 49.9451 60.2933 52.4915L60.1535 52.3229C61.4837 52.5971 62.9495 52.8989 64.4513 53.2085L64.5605 53.2313L64.5911 53.3387C64.9901 54.7403 65.6135 56.2301 66.4649 57.6311L66.5255 57.7307L66.4649 57.8309C65.7617 58.9943 64.9859 60.2777 64.1963 61.5845L64.1645 61.3379C65.8067 62.9201 67.5785 64.6259 69.3941 66.3749L69.1355 66.3509C70.2773 65.6009 71.5319 64.7771 72.8021 63.9425L72.9095 63.8723L73.0217 63.9347C74.3021 64.6487 75.7985 65.2577 77.3741 65.6435L77.5013 65.6741L77.5325 65.8013C77.8607 67.1363 78.2189 68.5925 78.5801 70.0631L78.3635 69.8963C80.6621 69.8549 83.1251 69.8105 85.6229 69.7661L85.4099 69.9425C85.6919 68.5853 85.9961 67.1207 86.3033 65.6459L86.3309 65.5133L86.4605 65.4767C87.8903 65.0723 89.3711 64.4471 90.7433 63.6161L90.7469 63.6137L90.8639 63.5441L90.9779 63.6137C92.2373 64.3775 93.4889 65.1365 94.7285 65.8883L94.4525 65.9237C96.1571 64.1591 97.8389 62.4179 99.4967 60.7019L99.4709 60.9767C98.6621 59.7413 97.8611 58.5179 97.0679 57.3065L96.9953 57.1955L97.0601 57.0797C97.8311 55.6985 98.4041 54.2291 98.7743 52.7303L98.8061 52.6031L98.9333 52.5725C100.375 52.2203 101.795 51.8735 103.196 51.5309L103.034 51.7409C102.993 49.2629 102.953 46.8419 102.914 44.4815L103.077 44.6789C101.619 44.3741 100.188 44.0741 98.7821 43.7795L98.6633 43.7543L98.6303 43.6379C98.1953 42.0989 97.5605 40.6529 96.7709 39.3419L96.7103 39.2411L96.7709 39.1415C97.5527 37.8569 98.3111 36.6113 99.0509 35.3951L99.0809 35.6249C97.2473 33.8471 95.5163 32.1689 93.8681 30.5711L94.0805 30.5909C92.7881 31.4333 91.5755 32.2241 90.4061 32.9867L90.3245 33.0401L90.2405 32.9927C88.7783 32.1749 87.3125 31.6217 85.8785 31.2623L85.7915 31.2407L85.7711 31.1549C85.3967 29.6045 85.0589 28.2083 84.7403 26.8895L84.8711 26.9897C82.0583 27.0269 79.6625 27.0581 77.6111 27.0851L77.7071 27.0053C77.3393 28.7189 77.0369 30.1247 76.7855 31.2959L76.7759 31.3391L76.7345 31.3505C75.1985 31.7795 74.1179 32.2805 73.4153 32.6273C73.0799 32.8025 72.8225 32.9369 72.6347 33.0353C72.4583 33.1325 72.3749 33.1739 72.3749 33.1679C72.3755 33.1625 72.4577 33.1049 72.6167 33.0029C72.7829 32.9009 73.0343 32.7479 73.3817 32.5619C74.0765 32.1923 75.1535 31.6661 76.6961 31.2119L76.6457 31.2659C76.8821 30.0917 77.1659 28.6823 77.5121 26.9639L77.5277 26.8859L77.6087 26.8841C79.6595 26.8391 82.0553 26.7869 84.8675 26.7251L84.9725 26.7227L84.9983 26.8259C85.3259 28.1429 85.6721 29.5367 86.0573 31.0841L85.9499 30.9767C87.4097 31.3331 88.9043 31.8869 90.3977 32.7119L90.2321 32.7179C91.3979 31.9499 92.6069 31.1531 93.8951 30.3041L94.0091 30.2291L94.1081 30.3245C95.7623 31.9151 97.5005 33.5867 99.3413 35.3567L99.4481 35.4593L99.3713 35.5865C98.6351 36.8051 97.8815 38.0531 97.1039 39.3407L97.1045 39.1409C97.9157 40.4783 98.5691 41.9549 99.0179 43.5275L98.8661 43.3865C100.273 43.6775 101.705 43.9739 103.163 44.2751L103.324 44.3081L103.327 44.4725C103.371 46.8329 103.416 49.2533 103.462 51.7313L103.465 51.9011L103.3 51.9419C101.899 52.2869 100.479 52.6355 99.0389 52.9901L99.1973 52.8317C98.8199 54.3683 98.2349 55.8743 97.4459 57.2909L97.4375 57.0647C98.2319 58.2755 99.0335 59.4977 99.8435 60.7325L99.9401 60.8801L99.8177 61.0073C98.1611 62.7245 96.4799 64.4663 94.7765 66.2321L94.6529 66.3605L94.5005 66.2681C93.2603 65.5163 92.0087 64.7579 90.7493 63.9947H90.9803L90.9761 63.9971C89.5685 64.8497 88.0499 65.4905 86.5841 65.9045L86.7413 65.7353C86.4341 67.2101 86.1293 68.6747 85.8461 70.0313L85.8101 70.2047L85.6325 70.2077C83.1353 70.2503 80.6717 70.2923 78.3731 70.3319L78.1985 70.3349L78.1571 70.1651C77.7971 68.6939 77.4413 67.2377 77.1149 65.9021L77.2733 66.0605C75.6593 65.6639 74.1275 65.0369 72.8177 64.3037L73.0373 64.2959C71.7653 65.1281 70.5095 65.9495 69.3659 66.6971L69.2267 66.7883L69.1073 66.6731C67.2959 64.9199 65.5289 63.2099 63.8903 61.6235L63.7757 61.5125L63.8585 61.3769C64.6523 60.0725 65.4311 58.7915 66.1379 57.6299V57.8291C65.2721 56.3951 64.6403 54.8705 64.2389 53.4383L64.3787 53.5679C62.8775 53.2529 61.4135 52.9451 60.0839 52.6655L59.9465 52.6367L59.9441 52.4963C59.9051 49.9493 59.8679 47.5229 59.8331 45.2369L59.8313 45.1097L59.9543 45.0797C61.4513 44.7173 62.8901 44.3687 64.2197 44.0465L64.1123 44.1539C64.5215 42.5159 65.1401 41.0261 65.8727 39.7211L65.8775 39.8567C65.0165 38.5313 64.2119 37.2929 63.4877 36.1781L63.4379 36.1013L63.5009 36.0371C65.5667 33.9215 67.2749 32.1731 68.5739 30.8429L68.6141 30.8015L68.6621 30.8315C69.8609 31.5773 70.7843 32.1521 71.4251 32.5511C71.7281 32.7431 71.9615 32.8919 72.1355 33.0023C72.2939 33.1061 72.3749 33.1619 72.3749 33.1679Z" fill="#009589"/>
<path d="M117.054 18.9822C117.876 18.486 118.751 18.1092 119.653 17.853L120.188 15.2808L124.533 15.2046L125.159 17.7558C126.069 17.9802 126.957 18.3258 127.796 18.7932L129.992 17.3538L133.118 20.373L131.757 22.6182C132.254 23.4402 132.63 24.315 132.886 25.2174L135.458 25.7526L135.534 30.0978L132.983 30.7236C132.758 31.6338 132.413 32.5212 131.945 33.36L133.385 35.5566L130.366 38.6832L128.121 37.3218C127.299 37.8186 126.424 38.1948 125.522 38.451L124.987 41.0232L120.642 41.0994L120.017 38.5476C119.106 38.3232 118.219 37.9776 117.38 37.5102L115.184 38.9496L112.058 35.9304L113.419 33.6852C112.922 32.8632 112.546 31.989 112.29 31.0866L109.718 30.5514L109.642 26.2062L112.194 25.5804C112.418 24.6702 112.764 23.7828 113.231 22.944L111.792 20.7474L114.81 17.6208L117.054 18.9822ZM119.371 24.771C117.582 26.6238 117.634 29.5752 119.487 31.3638C121.339 33.1524 124.291 33.1002 126.08 31.248C127.868 29.3958 127.816 26.4438 125.964 24.6552C124.111 22.8672 121.16 22.9188 119.371 24.771Z" fill="#F5F5F5"/>
<path d="M119.371 24.7709C119.371 24.7709 119.615 24.4271 120.239 24.0089C120.852 23.6009 121.923 23.1467 123.281 23.2895C123.95 23.3645 124.681 23.5829 125.348 24.0239C126.008 24.4649 126.631 25.0925 127.019 25.9073C127.224 26.3075 127.366 26.7521 127.444 27.2159C127.528 27.6791 127.54 28.1663 127.47 28.6511C127.352 29.6249 126.892 30.5849 126.176 31.3391C125.447 32.0813 124.504 32.5757 123.535 32.7281C123.052 32.8151 122.565 32.8199 122.099 32.7527C121.632 32.6921 121.183 32.5655 120.776 32.3747C119.948 32.0147 119.299 31.4135 118.834 30.7697C118.37 30.1187 118.126 29.3951 118.028 28.7297C117.837 27.3773 118.253 26.2913 118.64 25.6649C119.036 25.0271 119.371 24.7709 119.371 24.7709C119.396 24.7925 119.09 25.0769 118.73 25.7171C118.379 26.3459 118.008 27.4073 118.215 28.7015C118.322 29.3387 118.565 30.0269 119.015 30.6419C119.465 31.2503 120.089 31.8155 120.877 32.1503C121.264 32.3285 121.69 32.4455 122.132 32.5001C122.574 32.5619 123.035 32.5547 123.491 32.4707C124.408 32.3231 125.295 31.8551 125.984 31.1543C126.659 30.4409 127.096 29.5379 127.211 28.6169C127.279 28.1591 127.27 27.6977 127.192 27.2585C127.122 26.8187 126.991 26.3969 126.799 26.0159C126.436 25.2407 125.849 24.6377 125.226 24.2093C124.595 23.7809 123.899 23.5619 123.259 23.4779C121.958 23.3159 120.91 23.7245 120.294 24.0977C119.667 24.4793 119.393 24.7961 119.371 24.7709Z" fill="#F5F5F5"/>
<path d="M117.055 18.982C117.055 18.9856 117.006 18.9604 116.91 18.9058C116.804 18.8446 116.663 18.763 116.479 18.6568C116.087 18.4252 115.521 18.091 114.787 17.6572L114.84 17.6506C114.072 18.4558 113.062 19.5142 111.839 20.7946L111.847 20.7106C112.286 21.3742 112.774 22.1116 113.296 22.9012L113.322 22.9408L113.299 22.9828C112.873 23.7556 112.514 24.6358 112.279 25.6018L112.266 25.6534L112.214 25.666C111.42 25.8634 110.56 26.077 109.665 26.299L109.738 26.2048C109.765 27.5728 109.793 29.0254 109.824 30.55L109.741 30.4492C110.537 30.6136 111.414 30.7942 112.313 30.9796L112.379 30.9934L112.397 31.0576C112.636 31.8964 113.009 32.7886 113.519 33.6268L113.555 33.6862L113.519 33.7462C113.098 34.4428 112.634 35.2108 112.161 35.9932L112.142 35.8456C113.125 36.7924 114.185 37.8136 115.272 38.8606L115.117 38.8462C115.801 38.3974 116.552 37.9042 117.312 37.4044L117.376 37.3624L117.443 37.3996C118.21 37.8268 119.105 38.1916 120.049 38.4226L120.125 38.4412L120.143 38.5174C120.34 39.3166 120.554 40.1878 120.77 41.0686L120.641 40.969C122.017 40.9444 123.491 40.918 124.986 40.891L124.858 40.9966C125.027 40.1842 125.209 39.3076 125.393 38.425L125.409 38.3458L125.487 38.3236C126.343 38.0818 127.229 37.7074 128.051 37.21L128.053 37.2088L128.123 37.1674L128.192 37.2088C128.945 37.666 129.695 38.1202 130.437 38.5702L130.272 38.5912C131.293 37.5346 132.299 36.4924 133.291 35.4652L133.276 35.6296C132.791 34.8898 132.312 34.1578 131.837 33.433L131.794 33.3664L131.832 33.2974C132.293 32.4706 132.637 31.591 132.858 30.694L132.877 30.6178L132.953 30.5992C133.816 30.388 134.666 30.1804 135.505 29.9758L135.408 30.1018C135.383 28.6186 135.359 27.1696 135.336 25.7566L135.434 25.8748C134.561 25.6924 133.705 25.5124 132.863 25.3366L132.791 25.3216L132.772 25.252C132.511 24.331 132.131 23.4652 131.659 22.6804L131.623 22.6204L131.659 22.561C132.127 21.7918 132.581 21.0466 133.024 20.3182L133.042 20.4556C131.944 19.3912 130.907 18.3868 129.921 17.4304L130.048 17.4424C129.275 17.9464 128.549 18.4198 127.849 18.8764L127.8 18.9052L127.75 18.877C126.874 18.3874 125.997 18.0562 125.138 17.8414L125.087 17.8282L125.074 17.7766C124.85 16.8484 124.648 16.0126 124.457 15.223L124.535 15.283C122.852 15.3052 121.418 15.3238 120.19 15.34L120.247 15.292C120.027 16.318 119.846 17.1592 119.696 17.8606L119.69 17.8864L119.666 17.8936C118.746 18.1504 118.099 18.4504 117.679 18.658C117.478 18.763 117.324 18.8434 117.211 18.9022C117.104 18.961 117.055 18.9856 117.055 18.982C117.055 18.9784 117.104 18.9442 117.199 18.8836C117.299 18.8224 117.449 18.7306 117.657 18.6196C118.073 18.3982 118.718 18.0832 119.641 17.8114L119.611 17.8438C119.752 17.1412 119.922 16.297 120.129 15.2686L120.139 15.2218L120.187 15.2206C121.415 15.1936 122.849 15.1624 124.532 15.1252L124.595 15.124L124.611 15.1858C124.807 15.9742 125.014 16.8088 125.245 17.7352L125.18 17.671C126.054 17.884 126.949 18.2158 127.843 18.7096L127.744 18.7132C128.441 18.253 129.165 17.7766 129.936 17.2684L130.004 17.2234L130.063 17.2804C131.054 18.2326 132.094 19.2328 133.196 20.293L133.26 20.3542L133.214 20.4304C132.773 21.16 132.322 21.907 131.857 22.678V22.5586C132.342 23.3596 132.733 24.2428 133.002 25.1848L132.911 25.1002C133.754 25.2742 134.611 25.4518 135.484 25.6324L135.58 25.6522L135.581 25.7506C135.608 27.1636 135.635 28.6126 135.662 30.0958L135.664 30.1972L135.565 30.2218C134.726 30.4282 133.877 30.637 133.014 30.8494L133.109 30.7546C132.883 31.6744 132.533 32.5756 132.061 33.424L132.056 33.2884C132.531 34.0132 133.011 34.7452 133.496 35.4838L133.555 35.572L133.481 35.6482C132.49 36.676 131.483 37.7188 130.463 38.776L130.39 38.8528L130.298 38.7976C129.556 38.3476 128.807 37.8934 128.053 37.4368H128.191L128.189 37.438C127.346 37.9486 126.437 38.332 125.56 38.5798L125.654 38.4784C125.47 39.361 125.287 40.2382 125.118 41.05L125.096 41.1538L124.99 41.1556C123.495 41.1814 122.021 41.2066 120.644 41.23L120.54 41.2318L120.515 41.1298C120.3 40.249 120.087 39.3772 119.891 38.578L119.986 38.6728C119.02 38.4352 118.103 38.0602 117.319 37.621L117.451 37.6162C116.689 38.1142 115.937 38.6062 115.253 39.0538L115.169 39.1084L115.098 39.0394C114.014 37.99 112.956 36.9664 111.975 36.0166L111.907 35.9506L111.956 35.869C112.431 35.0878 112.897 34.321 113.32 33.6262V33.7456C112.802 32.887 112.424 31.9744 112.183 31.1176L112.267 31.1956C111.368 31.0066 110.492 30.8224 109.696 30.655L109.613 30.6376L109.612 30.5536C109.589 29.029 109.567 27.5764 109.546 26.2078L109.545 26.1316L109.619 26.1136C110.515 25.8964 111.376 25.6882 112.172 25.495L112.108 25.5592C112.352 24.5788 112.723 23.6872 113.161 22.9054L113.164 22.9864C112.649 22.1932 112.167 21.4516 111.734 20.7844L111.704 20.7388L111.742 20.7004C112.979 19.4344 114.001 18.3874 114.779 17.5912L114.803 17.5666L114.832 17.5846C115.549 18.031 116.102 18.3748 116.486 18.6136C116.667 18.7288 116.807 18.8176 116.911 18.8836C117.006 18.9454 117.055 18.9784 117.055 18.982Z" fill="#F5F5F5"/>
<path d="M76.7569 82.769H27.6379V133.971H76.7569V82.769Z" fill="#009589"/>
<path d="M73.4305 82.769H24.3115V133.971H73.4305V82.769Z" fill="#EBEBEB"/>
<path d="M66.8275 89.6523H30.9146V127.089H66.8275V89.6523Z" fill="#FAFAFA"/>
<path d="M30.9145 127.337C30.9385 127.366 30.5935 127.752 30.0169 128.355C29.4403 128.956 28.6321 129.774 27.7291 130.664C26.8255 131.554 25.9969 132.349 25.3873 132.915C24.7777 133.481 24.3877 133.818 24.3613 133.792C24.3349 133.765 24.6781 133.38 25.2547 132.778C25.8313 132.176 26.6413 131.357 27.5473 130.464C28.4533 129.572 29.2831 128.776 29.8927 128.209C30.5017 127.644 30.8905 127.309 30.9145 127.337Z" fill="#009589"/>
<path d="M66.8276 127.245C66.8564 127.221 67.2428 127.566 67.8452 128.142C68.4476 128.719 69.2648 129.527 70.1546 130.431C71.045 131.334 71.84 132.163 72.4058 132.773C72.9716 133.382 73.3088 133.772 73.2824 133.799C73.256 133.825 72.8708 133.482 72.2684 132.905C71.6666 132.329 70.8476 131.519 69.9548 130.613C69.0626 129.707 68.2664 128.877 67.7 128.267C67.1348 127.658 66.7994 127.269 66.8276 127.245Z" fill="#009589"/>
<path d="M66.7292 89.7517C66.7052 89.7229 67.0502 89.3359 67.6268 88.7341C68.2034 88.1317 69.011 87.3145 69.9146 86.4247C70.8188 85.5343 71.6468 84.7393 72.2564 84.1735C72.866 83.6077 73.256 83.2705 73.2824 83.2969C73.3088 83.3233 72.9656 83.7085 72.389 84.3109C71.8124 84.9127 71.0024 85.7317 70.0964 86.6239C69.1904 87.5161 68.3606 88.3123 67.751 88.8787C67.142 89.4445 66.7532 89.7805 66.7292 89.7517Z" fill="#009589"/>
<path d="M30.8161 89.8437C30.7873 89.8677 30.4003 89.5227 29.7985 88.9461C29.1967 88.3695 28.3795 87.5613 27.4891 86.6583C26.5987 85.7541 25.8037 84.9261 25.2379 84.3165C24.6721 83.7069 24.3349 83.3169 24.3613 83.2905C24.3877 83.2641 24.7729 83.6073 25.3753 84.1839C25.9771 84.7605 26.7961 85.5705 27.6889 86.4765C28.5811 87.3825 29.3773 88.2123 29.9437 88.8219C30.5089 89.4315 30.8449 89.8197 30.8161 89.8437Z" fill="#009589"/>
<path d="M66.7291 127.088C66.7291 127.088 66.7249 127.025 66.7225 126.907C66.7207 126.783 66.7189 126.61 66.7159 126.386C66.7129 125.92 66.7081 125.245 66.7021 124.367C66.6949 122.597 66.6847 120.018 66.6715 116.74C66.6571 110.185 66.6367 100.841 66.6121 89.6522L66.7297 89.7698C56.2759 89.7746 43.9975 89.7806 30.9187 89.7872H30.9151L31.0501 89.6522C31.0429 103.393 31.0363 116.248 31.0309 127.089L30.9151 126.973C41.6521 126.997 50.5909 127.018 56.8537 127.032C59.9857 127.045 62.4469 127.055 64.1353 127.062C64.9723 127.068 65.6161 127.072 66.0607 127.075C66.2743 127.078 66.4381 127.08 66.5575 127.082C66.6691 127.084 66.7291 127.088 66.7291 127.088C66.7291 127.088 66.6775 127.092 66.5695 127.095C66.4531 127.096 66.2935 127.098 66.0853 127.101C65.6461 127.104 65.0101 127.109 64.1827 127.114C62.5003 127.122 60.0475 127.132 56.9269 127.144C50.6461 127.159 41.6815 127.179 30.9145 127.204H30.7987V127.088C30.7933 116.248 30.7867 103.393 30.7795 89.6516V89.5166H30.9145H30.9181C43.9969 89.5226 56.2753 89.5286 66.7291 89.534H66.8467V89.6516C66.8221 100.872 66.8017 110.241 66.7873 116.815C66.7741 120.082 66.7633 122.652 66.7567 124.416C66.7507 125.284 66.7459 125.952 66.7429 126.412C66.7399 126.631 66.7381 126.799 66.7363 126.921C66.7339 127.034 66.7291 127.088 66.7291 127.088Z" fill="#009589"/>
<path d="M40.3927 105.292C40.3927 105.292 39.6235 114.561 49.6615 114.561C49.6615 109.614 45.5809 105.71 40.3927 105.292Z" fill="#EBEBEB"/>
<path d="M58.7605 105.299C58.7605 105.299 49.4917 104.53 49.4917 114.568C54.4381 114.568 58.3423 110.487 58.7605 105.299Z" fill="#EBEBEB"/>
<path d="M49.2162 100.226C49.2162 100.226 41.6442 107.023 49.6308 114.561C53.3454 110.625 53.0304 104.454 49.2162 100.226Z" fill="#009589"/>
<path d="M231.446 250.613C221.221 245.087 209.728 235.028 205.257 223.602C216.311 229.303 225.626 238.911 231.446 250.613Z" fill="#BFDBDE"/>
<path d="M230.779 233.475C220.553 227.948 209.061 217.89 204.59 206.464C215.644 212.165 224.959 221.772 230.779 233.475Z" fill="#BFDBDE"/>
<path d="M229.251 216.722C219.026 211.195 207.533 201.136 203.062 189.71C214.117 195.412 223.431 205.019 229.251 216.722Z" fill="#BFDBDE"/>
<path d="M227.015 199.124C217.529 192.212 207.322 180.629 204.24 168.672C214.527 175.873 222.628 186.704 227.015 199.124Z" fill="#BFDBDE"/>
<path d="M224.131 185.547C217.712 175.278 212.233 160.382 213.488 148.04C220.551 158.903 224.336 172.244 224.131 185.547Z" fill="#BFDBDE"/>
<path d="M225.587 192.009C228.289 179.199 234.864 163.391 244.333 154.487C241.664 168.235 234.996 181.582 225.587 192.009Z" fill="#BFDBDE"/>
<path d="M227.692 206.5C231.56 193.394 239.709 177.502 250.304 169.053C246.394 183.139 238.351 196.459 227.692 206.5Z" fill="#BFDBDE"/>
<path d="M230.017 224.149C233.884 211.042 242.033 195.151 252.628 186.702C248.718 200.788 240.675 214.108 230.017 224.149Z" fill="#BFDBDE"/>
<path d="M231.187 245.657C235.055 232.551 243.204 216.659 253.799 208.21C249.889 222.297 241.846 235.616 231.187 245.657Z" fill="#BFDBDE"/>
<path d="M223.874 182.962C223.882 182.961 223.903 183.031 223.938 183.169C223.976 183.332 224.024 183.534 224.084 183.786C224.21 184.361 224.383 185.157 224.604 186.165C225.055 188.232 225.645 191.237 226.316 194.96C226.995 198.681 227.707 203.13 228.407 208.083C229.086 213.039 229.739 218.501 230.275 224.249C230.796 230.001 231.148 235.491 231.383 240.489C231.599 245.487 231.708 249.992 231.721 253.775C231.74 257.558 231.709 260.619 231.643 262.733C231.611 263.765 231.585 264.579 231.566 265.167C231.554 265.425 231.544 265.634 231.536 265.8C231.527 265.943 231.518 266.016 231.511 266.016C231.504 266.016 231.498 265.943 231.493 265.8C231.49 265.633 231.487 265.425 231.482 265.166C231.482 264.578 231.481 263.763 231.481 262.731C231.496 260.617 231.482 257.558 231.425 253.778C231.374 249.999 231.235 245.499 230.998 240.507C230.741 235.516 230.378 230.033 229.858 224.288C229.323 218.546 228.682 213.089 228.025 208.136C227.346 203.185 226.665 198.735 226.024 195.011C225.391 191.284 224.845 188.273 224.444 186.197C224.256 185.182 224.108 184.382 224.001 183.803C223.958 183.548 223.924 183.342 223.896 183.177C223.875 183.037 223.868 182.964 223.874 182.962Z" fill="#263238"/>
<g opacity="0.3">
<path d="M231.446 250.613C221.221 245.087 209.728 235.028 205.257 223.602C216.311 229.303 225.626 238.911 231.446 250.613Z" fill="black"/>
</g>
<g opacity="0.3">
<path d="M230.779 233.475C220.553 227.948 209.061 217.89 204.59 206.464C215.644 212.165 224.959 221.772 230.779 233.475Z" fill="black"/>
</g>
<g opacity="0.3">
<path d="M229.251 216.722C219.026 211.195 207.533 201.136 203.062 189.71C214.117 195.412 223.431 205.019 229.251 216.722Z" fill="black"/>
</g>
<g opacity="0.3">
<path d="M227.015 199.124C217.529 192.212 207.322 180.629 204.24 168.672C214.527 175.873 222.628 186.704 227.015 199.124Z" fill="black"/>
</g>
<g opacity="0.3">
<path d="M224.131 185.547C217.712 175.278 212.233 160.382 213.488 148.04C220.551 158.903 224.336 172.244 224.131 185.547Z" fill="black"/>
</g>
<g opacity="0.3">
<path d="M225.587 192.009C228.289 179.199 234.864 163.391 244.333 154.487C241.664 168.235 234.996 181.582 225.587 192.009Z" fill="black"/>
</g>
<g opacity="0.3">
<path d="M227.692 206.5C231.56 193.394 239.709 177.502 250.304 169.053C246.394 183.139 238.351 196.459 227.692 206.5Z" fill="black"/>
</g>
<g opacity="0.3">
<path d="M230.017 224.149C233.884 211.042 242.033 195.151 252.628 186.702C248.718 200.788 240.675 214.108 230.017 224.149Z" fill="black"/>
</g>
<g opacity="0.3">
<path d="M231.187 245.657C235.055 232.551 243.204 216.659 253.799 208.21C249.889 222.297 241.846 235.616 231.187 245.657Z" fill="black"/>
</g>
<path d="M234.031 254.076C227.81 245.861 222.014 233.705 222.096 223.27C228.905 231.943 233.15 242.9 234.031 254.076Z" fill="#BFDBDE"/>
<path d="M238.841 240.795C232.621 232.58 226.825 220.425 226.907 209.989C233.717 218.662 237.962 229.619 238.841 240.795Z" fill="#BFDBDE"/>
<path d="M242.865 227.469C236.645 219.254 230.849 207.098 230.931 196.663C237.741 205.336 241.986 216.293 242.865 227.469Z" fill="#BFDBDE"/>
<path d="M246.601 213.222C241.385 204.245 237.062 191.437 238.387 181.144C244.135 190.655 247.057 202.064 246.601 213.222Z" fill="#BFDBDE"/>
<path d="M248.584 201.776C246.793 191.454 247.171 177.986 251.983 169.104C254.089 180.13 252.88 191.752 248.584 201.776Z" fill="#BFDBDE"/>
<path d="M247.705 207.257C253.786 198.587 263.807 189.162 273.928 186.118C267.58 195.513 258.253 203.032 247.705 207.257Z" fill="#BFDBDE"/>
<path d="M244.833 219.091C251.912 210.655 263.18 201.784 274.034 199.528C266.618 208.693 256.231 215.651 244.833 219.091Z" fill="#BFDBDE"/>
<path d="M241.15 233.411C248.229 224.975 259.498 216.104 270.352 213.848C262.935 223.013 252.549 229.971 241.15 233.411Z" fill="#BFDBDE"/>
<path d="M235.371 250.209C242.45 241.772 253.718 232.901 264.572 230.646C257.156 239.81 246.769 246.769 235.371 250.209Z" fill="#BFDBDE"/>
<path d="M249.188 199.712C249.195 199.713 249.191 199.774 249.176 199.891C249.155 200.031 249.13 200.201 249.1 200.41C249.02 200.897 248.91 201.561 248.771 202.399C248.485 204.127 248.015 206.617 247.387 209.685C246.131 215.819 244.138 224.247 241.39 233.403C240.008 237.979 238.574 242.302 237.199 246.208C235.803 250.107 234.485 253.596 233.306 256.497C232.136 259.402 231.149 261.736 230.432 263.333C230.083 264.108 229.807 264.721 229.604 265.171C229.514 265.362 229.441 265.518 229.38 265.645C229.328 265.752 229.298 265.804 229.291 265.801C229.285 265.799 229.303 265.74 229.343 265.629C229.394 265.497 229.456 265.336 229.532 265.14C229.718 264.682 229.972 264.06 230.292 263.273C230.966 261.658 231.913 259.31 233.05 256.395C234.194 253.484 235.484 249.989 236.86 246.088C238.214 242.181 239.636 237.86 241.016 233.29C243.76 224.148 245.794 215.742 247.117 209.627C247.779 206.569 248.289 204.089 248.622 202.371C248.791 201.538 248.924 200.879 249.023 200.395C249.068 200.19 249.106 200.022 249.137 199.884C249.164 199.769 249.182 199.711 249.188 199.712Z" fill="#263238"/>
<path d="M243.786 287.527H221.919L217.843 257.392H247.978L243.786 287.527Z" fill="#455A64"/>
<path d="M250.687 257.085H215.134V261.77H250.687V257.085Z" fill="#455A64"/>
<path d="M250.687 261.851C250.687 261.937 242.819 262.007 233.115 262.007C223.408 262.007 215.541 261.937 215.541 261.851C215.541 261.764 223.408 261.695 233.115 261.695C242.819 261.695 250.687 261.765 250.687 261.851Z" fill="#263238"/>
<path d="M200.653 287.132H104.684C96.285 287.132 89.4768 280.323 89.4768 271.925V52.0703C89.4768 43.6715 96.285 36.8633 104.684 36.8633H200.653C209.051 36.8633 215.86 43.6715 215.86 52.0703V271.925C215.86 280.323 209.051 287.132 200.653 287.132Z" fill="black"/>
<path d="M91.4683 271.805V52.1901C91.4683 44.8251 97.4389 38.8545 104.804 38.8545H200.532C207.897 38.8545 213.868 44.8251 213.868 52.1901V271.805C213.868 279.169 207.897 285.14 200.532 285.14H104.804C97.4389 285.14 91.4683 279.169 91.4683 271.805Z" fill="#009589"/>
<path d="M143.591 46.7423C142.816 46.7423 142.186 46.1117 142.186 45.3365C142.186 44.5613 142.816 43.9307 143.591 43.9307H161.666C162.442 43.9307 163.072 44.5613 163.072 45.3365C163.072 46.1117 162.442 46.7423 161.666 46.7423H143.591Z" fill="#009589"/>
<path d="M133.9 46.7423C133.125 46.7423 132.494 46.1117 132.494 45.3365C132.494 44.5613 133.125 43.9307 133.9 43.9307C134.675 43.9307 135.305 44.5613 135.305 45.3365C135.305 46.1117 134.675 46.7423 133.9 46.7423Z" fill="#009589"/>
<path d="M139.073 46.7423C138.298 46.7423 137.667 46.1117 137.667 45.3365C137.667 44.5613 138.298 43.9307 139.073 43.9307C139.847 43.9307 140.478 44.5613 140.478 45.3365C140.478 46.1117 139.847 46.7423 139.073 46.7423Z" fill="#009589"/>
<path d="M171.436 46.7423C170.661 46.7423 170.03 46.1117 170.03 45.3365C170.03 44.5613 170.661 43.9307 171.436 43.9307C172.211 43.9307 172.841 44.5613 172.841 45.3365C172.841 46.1117 172.211 46.7423 171.436 46.7423Z" fill="#009589"/>
<path d="M166.263 46.7423C165.488 46.7423 164.858 46.1117 164.858 45.3365C164.858 44.5613 165.488 43.9307 166.263 43.9307C167.038 43.9307 167.669 44.5613 167.669 45.3365C167.669 46.1117 167.038 46.7423 166.263 46.7423Z" fill="#009589"/>
<path d="M179.647 85.1997H168.173C167.308 85.1997 166.546 85.9023 166.305 86.9232L165.575 90.0105C165.305 91.1536 164.452 91.9404 163.483 91.9404H143.717C142.747 91.9404 141.895 91.154 141.625 90.0105L140.895 86.9232C140.654 85.9023 139.892 85.1997 139.027 85.1997H130.105C126.181 85.1997 123 89.1062 123 93.9256V234.702C123 237.959 125.15 240.6 127.802 240.6H179.983C182.312 240.6 184.2 238.281 184.2 235.42V90.7919C184.2 87.7035 182.161 85.1997 179.647 85.1997Z" fill="#009589"/>
<path d="M211.02 276.333V206.306C193.052 208.127 176.236 219.005 167.209 234.647C159.067 248.755 157.453 266.411 162.654 281.822H205.531C208.563 281.822 211.02 279.364 211.02 276.333Z" fill="#009589"/>
<path d="M215.857 91.2598H216.045C216.399 91.2598 216.685 91.546 216.685 91.8994V119.384C216.685 119.737 216.399 120.023 216.045 120.023H215.857V91.2598Z" fill="#009589"/>
<path d="M89.4769 108.986H89.2573C88.9039 108.986 88.6177 109.273 88.6177 109.626V126.558C88.6177 126.911 88.9039 127.198 89.2573 127.198H89.4769V108.986Z" fill="#009589"/>
<path d="M89.4769 85.1938H89.2573C88.9039 85.1938 88.6177 85.48 88.6177 85.8334V102.765C88.6177 103.119 88.9039 103.405 89.2573 103.405H89.4769V85.1938Z" fill="#009589"/>
<path d="M89.4768 67.335H89.3046C88.9908 67.335 88.7358 67.5894 88.7358 67.9038V75.234C88.7358 75.5478 88.9902 75.8028 89.3046 75.8028H89.4768V67.335Z" fill="#009589"/>
<path d="M183.557 48.6865H182.689V49.9039H183.557V48.6865Z" fill="#009589"/>
<path d="M184.969 48.144H184.102V49.9032H184.969V48.144Z" fill="#009589"/>
<path d="M186.382 47.7373H185.515V49.9033H186.382V47.7373Z" fill="#009589"/>
<path d="M187.795 46.9512H186.927V49.9032H187.795V46.9512Z" fill="#009589"/>
<path d="M200.611 49.9645H196.254C196.082 49.9645 195.941 49.8247 195.941 49.6519V47.4859C195.941 47.3137 196.081 47.1733 196.25 47.1733H200.611C200.632 47.1733 200.653 47.1817 200.668 47.1967C200.683 47.2117 200.69 47.2321 200.69 47.2531V47.9671H201.157C201.201 47.9671 201.236 48.0031 201.236 48.0469V49.0909C201.236 49.1347 201.201 49.1707 201.157 49.1707H200.69V49.8847C200.691 49.9291 200.656 49.9645 200.611 49.9645ZM200.531 47.3335L196.251 47.3341C196.167 47.3341 196.102 47.4013 196.102 47.4871V49.6531C196.102 49.7371 196.17 49.8061 196.255 49.8061H200.532V49.0921C200.532 49.0483 200.567 49.0123 200.612 49.0123H201.078V48.1279H200.612C200.567 48.1279 200.532 48.0919 200.532 48.0481V47.3335H200.531Z" fill="#009589"/>
<path d="M196.457 49.4493V47.6895H200.176V48.4833V48.6561V49.4493H196.457Z" fill="#009589"/>
<path d="M191.95 49.7976C191.95 49.6218 191.807 49.479 191.632 49.479C191.456 49.479 191.313 49.6218 191.313 49.7976C191.313 49.9734 191.456 50.1162 191.632 50.1162C191.808 50.1162 191.95 49.9734 191.95 49.7976Z" fill="#009589"/>
<path d="M190.545 49.0302L190.952 49.4364C191.126 49.2624 191.366 49.1544 191.631 49.1544C191.897 49.1544 192.137 49.2624 192.311 49.4364L192.717 49.0302C192.439 48.7518 192.055 48.5796 191.631 48.5796C191.208 48.5796 190.824 48.7518 190.545 49.0302Z" fill="#009589"/>
<path d="M191.632 47.6738C190.959 47.6738 190.348 47.948 189.906 48.3902L190.312 48.7964C190.651 48.458 191.117 48.2486 191.632 48.2486C192.147 48.2486 192.614 48.458 192.952 48.7964L193.358 48.3902C192.916 47.948 192.305 47.6738 191.632 47.6738Z" fill="#009589"/>
<path d="M189.244 47.7289L189.651 48.1357C190.159 47.6281 190.859 47.3137 191.632 47.3137C192.405 47.3137 193.106 47.6281 193.613 48.1357L194.02 47.7289C193.408 47.1175 192.564 46.7383 191.633 46.7383C190.7 46.7383 189.856 47.1175 189.244 47.7289Z" fill="#009589"/>
<path d="M180.14 140.554C183.348 132.667 179.556 123.673 171.669 120.465C163.783 117.257 154.789 121.05 151.581 128.936C148.373 136.823 152.166 145.816 160.052 149.024C167.939 152.233 176.932 148.44 180.14 140.554Z" fill="#009589"/>
<path d="M141.608 236.182C143.012 236.182 144.151 235.043 144.151 233.639C144.151 232.235 143.012 231.097 141.608 231.097C140.204 231.097 139.066 232.235 139.066 233.639C139.066 235.043 140.204 236.182 141.608 236.182Z" fill="#EBEBEB"/>
<path d="M150.109 236.182C151.513 236.182 152.652 235.043 152.652 233.639C152.652 232.235 151.513 231.097 150.109 231.097C148.705 231.097 147.567 232.235 147.567 233.639C147.567 235.043 148.705 236.182 150.109 236.182Z" fill="#009589"/>
<path d="M158.61 236.182C160.014 236.182 161.152 235.043 161.152 233.639C161.152 232.235 160.014 231.097 158.61 231.097C157.206 231.097 156.068 232.235 156.068 233.639C156.068 235.043 157.206 236.182 158.61 236.182Z" fill="#009589"/>
<path d="M167.111 236.182C168.515 236.182 169.653 235.043 169.653 233.639C169.653 232.235 168.515 231.097 167.111 231.097C165.707 231.097 164.569 232.235 164.569 233.639C164.569 235.043 165.707 236.182 167.111 236.182Z" fill="#009589"/>
<path d="M120.413 266.779H110.809C107.803 266.779 105.365 264.342 105.365 261.336V251.732C105.365 248.726 107.803 246.289 110.809 246.289H120.413C123.419 246.289 125.856 248.726 125.856 251.732V261.336C125.856 264.342 123.419 266.779 120.413 266.779Z" fill="#FF725E"/>
<path d="M145.63 266.588H136.676C133.49 266.588 130.907 264.005 130.907 260.819V251.866C130.907 248.68 133.49 246.097 136.676 246.097H145.63C148.816 246.097 151.399 248.68 151.399 251.866V260.82C151.398 264.006 148.816 266.588 145.63 266.588Z" fill="#009589"/>
<path d="M170.846 266.398H162.544C159.178 266.398 156.449 263.67 156.449 260.304V252.002C156.449 248.636 159.178 245.908 162.544 245.908H170.846C174.212 245.908 176.94 248.636 176.94 252.002V260.304C176.94 263.67 174.212 266.398 170.846 266.398Z" fill="#009589"/>
<path d="M196.317 266.779H188.157C184.752 266.779 181.991 264.019 181.991 260.614V252.454C181.991 249.049 184.752 246.288 188.157 246.288H196.317C199.722 246.288 202.483 249.049 202.483 252.454V260.614C202.482 264.019 199.722 266.779 196.317 266.779Z" fill="#009589"/>
<path d="M161.917 261.124L162.664 258.339C162.241 257.577 162.019 256.722 162.019 255.855C162.019 253.019 164.326 250.712 167.161 250.712C169.997 250.712 172.304 253.019 172.304 255.855C172.304 258.69 169.997 260.998 167.161 260.998C166.31 260.998 165.469 260.783 164.717 260.374L161.917 261.124ZM164.856 259.331L165.032 259.436C165.68 259.822 166.416 260.026 167.162 260.026C169.462 260.026 171.332 258.155 171.332 255.855C171.332 253.555 169.462 251.685 167.162 251.685C164.862 251.685 162.991 253.555 162.991 255.855C162.991 256.615 163.202 257.362 163.601 258.018L163.709 258.195L163.292 259.75L164.856 259.331Z" fill="#009589"/>
<path fill-rule="evenodd" clip-rule="evenodd" d="M169.016 256.6C168.804 256.474 168.529 256.332 168.279 256.435C168.088 256.513 167.966 256.812 167.842 256.965C167.778 257.044 167.702 257.056 167.605 257.017C166.886 256.731 166.336 256.251 165.94 255.591C165.872 255.488 165.884 255.407 165.965 255.312C166.085 255.171 166.235 255.01 166.268 254.821C166.3 254.631 166.211 254.409 166.133 254.239C166.033 254.023 165.92 253.715 165.704 253.593C165.505 253.48 165.243 253.543 165.065 253.687C164.759 253.936 164.612 254.327 164.616 254.714C164.617 254.824 164.63 254.934 164.656 255.04C164.718 255.295 164.836 255.534 164.969 255.76C165.069 255.931 165.178 256.097 165.295 256.257C165.679 256.779 166.157 257.232 166.711 257.571C166.987 257.74 167.285 257.889 167.593 257.991C167.939 258.105 168.247 258.223 168.62 258.153C169.012 258.079 169.397 257.837 169.552 257.46C169.598 257.349 169.621 257.224 169.595 257.107C169.543 256.863 169.213 256.718 169.016 256.6Z" fill="#009589"/>
<path fill-rule="evenodd" clip-rule="evenodd" d="M119.229 257.765C118.827 257.525 118.304 257.256 117.83 257.45C117.466 257.599 117.235 258.168 116.999 258.458C116.878 258.608 116.734 258.63 116.548 258.556C115.184 258.012 114.139 257.102 113.386 255.847C113.258 255.652 113.281 255.498 113.435 255.317C113.662 255.05 113.948 254.745 114.009 254.384C114.071 254.024 113.902 253.602 113.752 253.28C113.561 252.87 113.348 252.284 112.937 252.052C112.559 251.838 112.061 251.958 111.724 252.233C111.143 252.706 110.862 253.448 110.871 254.183C110.873 254.392 110.899 254.601 110.948 254.802C111.065 255.288 111.289 255.74 111.542 256.171C111.732 256.496 111.939 256.811 112.162 257.114C112.891 258.105 113.799 258.966 114.85 259.61C115.375 259.932 115.941 260.214 116.527 260.408C117.184 260.625 117.769 260.85 118.479 260.716C119.222 260.575 119.954 260.115 120.249 259.4C120.336 259.188 120.38 258.951 120.331 258.728C120.23 258.264 119.603 257.99 119.229 257.765Z" fill="#009589"/>
<path d="M195.443 253.251C195.112 253.251 194.844 253.52 194.844 253.85C194.844 254.181 195.112 254.449 195.443 254.449C195.774 254.449 196.042 254.181 196.042 253.85C196.042 253.519 195.774 253.251 195.443 253.251Z" fill="#009589"/>
<path d="M192.781 253.847C191.395 253.847 190.267 254.975 190.267 256.361C190.267 257.748 191.395 258.876 192.781 258.876C194.168 258.876 195.296 257.748 195.296 256.361C195.296 254.975 194.168 253.847 192.781 253.847ZM192.781 257.972C191.893 257.972 191.17 257.25 191.17 256.361C191.17 255.473 191.893 254.75 192.781 254.75C193.669 254.75 194.392 255.473 194.392 256.361C194.392 257.25 193.67 257.972 192.781 257.972Z" fill="#009589"/>
<path d="M194.778 261.639H190.702C189.01 261.639 187.635 260.263 187.635 258.571V254.494C187.635 252.803 189.01 251.427 190.702 251.427H194.778C196.47 251.427 197.845 252.803 197.845 254.494V258.571C197.845 260.263 196.469 261.639 194.778 261.639ZM190.701 252.388C189.54 252.388 188.595 253.333 188.595 254.495V258.572C188.595 259.734 189.54 260.679 190.701 260.679H194.778C195.939 260.679 196.884 259.734 196.884 258.572V254.495C196.884 253.333 195.939 252.388 194.778 252.388H190.701Z" fill="#009589"/>
<path d="M136.619 261.333C136.497 261.333 136.382 261.285 136.297 261.2C136.12 261.022 136.12 260.733 136.297 260.556L138.731 258.121C137.419 256.485 137.546 254.061 139.034 252.573C139.821 251.786 140.867 251.353 141.979 251.353C143.092 251.353 144.137 251.786 144.924 252.573C146.547 254.196 146.547 256.838 144.924 258.462C144.137 259.248 143.092 259.682 141.979 259.682C141.018 259.682 140.119 259.365 139.375 258.765L136.94 261.2C136.855 261.285 136.741 261.333 136.619 261.333ZM141.979 252.263C141.11 252.263 140.293 252.602 139.678 253.217C139.064 253.83 138.727 254.647 138.727 255.518C138.727 256.388 139.064 257.205 139.678 257.819C140.293 258.434 141.11 258.772 141.979 258.772C142.849 258.772 143.666 258.434 144.28 257.819C144.894 257.205 145.232 256.388 145.232 255.518C145.232 254.648 144.894 253.83 144.28 253.217C143.666 252.602 142.849 252.263 141.979 252.263Z" fill="#009589"/>
<path d="M155.303 115.965C155.303 116.051 145.69 116.122 133.835 116.122C121.975 116.122 112.365 116.051 112.365 115.965C112.365 115.879 121.975 115.809 133.835 115.809C145.69 115.809 155.303 115.879 155.303 115.965Z" fill="#009589"/>
<path d="M277.517 287.016C277.517 287.103 220.421 287.172 150.006 287.172C79.5665 287.172 22.4832 287.102 22.4832 287.016C22.4832 286.931 79.5665 286.86 150.006 286.86C220.421 286.86 277.517 286.93 277.517 287.016Z" fill="#263238"/>
<rect x="100.2" y="55.2002" width="100.2" height="225" rx="11" fill="#009589"/>
<path d="M163.427 143.371C162.934 143.331 161.66 143.598 162.123 142.49C162.851 140.75 163.579 139.01 164.307 137.27C164.458 136.912 164.731 136.638 165.1 136.911C165.239 137.013 165.308 137.144 165.308 137.302C165.304 138.303 165.305 139.304 165.31 140.305C165.311 140.35 165.333 140.373 165.376 140.374C165.917 140.389 167.168 140.178 166.695 141.303C165.967 143.033 165.238 144.763 164.508 146.492C164.273 147.047 163.55 147.122 163.529 146.44C163.498 145.441 163.486 144.443 163.493 143.444C163.493 143.399 163.471 143.374 163.427 143.371ZM163.987 142.357C164.111 142.357 164.231 142.409 164.319 142.5C164.407 142.592 164.457 142.716 164.457 142.845V143.877C164.456 143.885 164.458 143.893 164.463 143.899C164.468 143.905 164.475 143.909 164.482 143.911C164.49 143.913 164.498 143.911 164.505 143.908C164.512 143.904 164.518 143.897 164.521 143.89L165.538 141.496C165.56 141.446 165.544 141.419 165.491 141.416C165.21 141.401 164.867 141.461 164.649 141.343C164.192 141.097 164.327 140.232 164.367 139.781C164.368 139.773 164.367 139.765 164.362 139.758C164.358 139.752 164.352 139.747 164.344 139.745C164.336 139.743 164.328 139.744 164.321 139.748C164.314 139.751 164.308 139.758 164.305 139.765L163.257 142.288C163.237 142.334 163.252 142.357 163.301 142.357H163.987Z" fill="white"/>
<path d="M158.529 164.807C157.323 162.836 154.412 163.09 153.656 165.331C153.539 165.677 153.481 166.25 153.48 167.052C153.479 169.175 153.478 171.298 153.478 173.421C153.478 176.834 150.235 179.274 147.099 177.964C145.227 177.182 144.215 175.366 144.208 173.276C144.204 171.822 144.204 170.369 144.207 168.918C144.207 168.901 144.2 168.885 144.189 168.873C144.178 168.862 144.163 168.855 144.147 168.855C143.614 168.851 143.014 168.878 142.517 168.727C140.492 168.113 139.547 166.517 139.565 164.389C139.579 162.523 139.584 160.658 139.581 158.794C139.572 153.285 136.428 148.725 132.059 145.878C132.029 145.859 132.004 145.831 131.988 145.797C131.75 145.323 131.994 144.97 132.489 144.978C135.436 145.025 138.093 145.951 140.459 147.757C140.496 147.786 140.516 147.776 140.519 147.728C140.562 147.087 140.617 146.455 140.682 145.834C140.97 143.149 141.809 140.648 143.202 138.33C143.927 137.122 145.378 137.326 146.04 138.446C147.501 140.911 148.346 143.593 148.575 146.492C148.596 146.767 148.602 147.307 148.644 147.714C148.649 147.761 148.67 147.77 148.706 147.743C150.558 146.361 152.604 145.482 154.843 145.107C155.447 145.006 156.148 145.018 156.796 144.978C157.166 144.956 157.376 145.386 157.233 145.683C157.186 145.782 157.066 145.893 156.873 146.015C153.179 148.352 150.301 152.198 149.717 156.715C149.647 157.259 149.61 158.069 149.608 159.145C149.604 161.01 149.603 162.876 149.606 164.741C149.608 167.258 147.631 168.996 145.239 168.848C145.196 168.845 145.174 168.866 145.174 168.911C145.173 170.052 145.173 171.189 145.173 172.322C145.172 173.468 145.234 174.253 145.359 174.679C146.384 178.171 151.301 178.141 152.332 174.631C152.449 174.23 152.508 173.554 152.509 172.602C152.512 170.5 152.513 168.398 152.511 166.294C152.51 163.845 154.666 162.037 156.988 162.556C158.692 162.937 159.811 164.366 159.897 166.182C159.923 166.741 159.83 167.645 160.025 168.218C160.64 170.021 163.156 170.116 163.793 168.24C163.863 168.033 163.901 167.726 163.906 167.318C163.934 165.061 163.94 162.81 163.922 160.565C163.922 160.549 163.916 160.534 163.907 160.522C163.897 160.511 163.883 160.503 163.868 160.501C161.898 160.199 160.686 159.138 160.234 157.315C160.129 156.892 160.078 156.274 160.08 155.462C160.086 153.422 160.087 151.388 160.081 149.358C160.081 149.291 160.094 149.224 160.118 149.161C160.143 149.099 160.18 149.042 160.226 148.995C160.271 148.947 160.326 148.909 160.386 148.883C160.446 148.857 160.51 148.844 160.575 148.844H161.933C161.982 148.844 162.006 148.818 162.004 148.767C161.982 147.759 161.979 147.064 161.995 146.684C162.021 146.063 162.953 145.997 162.976 146.796C162.995 147.453 162.995 148.111 162.977 148.768C162.976 148.819 162.999 148.844 163.048 148.844H165.775C165.79 148.844 165.804 148.838 165.815 148.827C165.826 148.816 165.832 148.801 165.832 148.786C165.84 148.142 165.841 147.503 165.838 146.871C165.834 145.961 166.809 146.015 166.806 146.805C166.803 147.465 166.803 148.125 166.806 148.784C166.806 148.824 166.826 148.844 166.864 148.844H168.28C168.337 148.844 168.393 148.856 168.446 148.878C168.498 148.901 168.546 148.934 168.586 148.976C168.626 149.017 168.658 149.067 168.68 149.122C168.701 149.176 168.712 149.235 168.712 149.293C168.711 151.301 168.712 153.329 168.713 155.378C168.714 156.334 168.657 157.027 168.542 157.456C168.038 159.334 166.743 160.133 164.957 160.495C164.918 160.503 164.898 160.528 164.898 160.57C164.898 162.844 164.895 165.117 164.89 167.389C164.887 168.254 164.646 168.975 164.167 169.55C162.649 171.372 159.716 170.775 159.063 168.433C158.724 167.215 159.224 165.942 158.529 164.807ZM141.681 148.384C142.425 148.15 143.191 148.957 142.299 149.329C142.292 149.332 142.286 149.336 142.281 149.342C142.277 149.348 142.273 149.354 142.271 149.362C142.269 149.369 142.269 149.377 142.271 149.384C142.272 149.392 142.276 149.398 142.28 149.404L143.624 151.109C143.642 151.131 143.657 151.129 143.668 151.102C144.1 150.078 145.585 151.001 144.794 151.579C144.579 151.735 144.25 151.681 143.989 151.648C143.947 151.643 143.936 151.66 143.957 151.699L144.554 152.838C144.559 152.846 144.565 152.853 144.573 152.857C144.58 152.862 144.589 152.864 144.598 152.864C144.606 152.864 144.615 152.861 144.622 152.856C144.629 152.851 144.635 152.844 144.639 152.836C145.368 151.254 146.358 149.875 147.609 148.698C147.639 148.669 147.655 148.632 147.657 148.588C147.741 145.36 147.037 142.345 145.544 139.542C145.145 138.792 144.567 137.905 143.89 139.069C143.124 140.386 142.54 141.777 142.137 143.243C142.134 143.253 142.134 143.263 142.135 143.273C142.137 143.283 142.141 143.292 142.147 143.3C142.153 143.308 142.16 143.315 142.169 143.32C142.177 143.324 142.187 143.327 142.197 143.327C143.035 143.327 142.98 144.382 142.266 144.371C142.124 144.369 142.014 144.368 141.939 144.366C141.89 144.365 141.862 144.39 141.854 144.439L141.653 145.611C141.645 145.654 141.663 145.676 141.706 145.676C142.088 145.677 143.155 145.573 143.439 145.802C143.776 146.074 143.593 146.691 143.103 146.683C142.604 146.676 142.102 146.677 141.598 146.687C141.559 146.687 141.539 146.708 141.538 146.748L141.496 148.237C141.495 148.261 141.5 148.284 141.51 148.306C141.52 148.327 141.534 148.346 141.552 148.36C141.571 148.374 141.592 148.384 141.614 148.388C141.637 148.392 141.66 148.39 141.681 148.384ZM144.042 154.171C142.396 149.862 138.648 146.84 134.25 146.129C134.241 146.128 134.231 146.13 134.223 146.135C134.215 146.14 134.208 146.147 134.205 146.156C134.201 146.166 134.201 146.176 134.203 146.185C134.206 146.195 134.211 146.203 134.218 146.209C137.693 148.857 140.368 153.373 140.513 157.95C140.549 159.075 140.557 161.211 140.536 164.359C140.523 166.342 141.536 167.852 143.588 167.849C144.252 167.847 144.917 167.847 145.583 167.847C146.96 167.847 148.058 167.102 148.48 165.74C148.586 165.395 148.639 164.885 148.638 164.21C148.636 162.462 148.636 160.712 148.638 158.962C148.64 157.936 148.683 157.126 148.766 156.532C149.262 153.038 150.862 150.166 153.251 147.662C153.717 147.174 154.327 146.682 154.89 146.203C154.95 146.151 154.941 146.132 154.864 146.145C149.34 147.081 145.172 151.427 144.345 157.173C144.225 158.013 143.3 157.777 143.357 157.28C143.474 156.256 143.703 155.258 144.043 154.286C144.057 154.247 144.056 154.209 144.042 154.171ZM167.745 149.905C167.745 149.898 167.743 149.89 167.741 149.884C167.738 149.877 167.734 149.871 167.729 149.865C167.724 149.86 167.718 149.856 167.712 149.853C167.705 149.85 167.698 149.849 167.691 149.849H161.107C161.1 149.849 161.093 149.85 161.087 149.853C161.08 149.856 161.074 149.86 161.069 149.865C161.064 149.871 161.06 149.877 161.057 149.884C161.055 149.89 161.053 149.898 161.053 149.905V151.498C161.053 151.506 161.055 151.513 161.057 151.52C161.06 151.527 161.064 151.533 161.069 151.538C161.074 151.543 161.08 151.547 161.087 151.55C161.093 151.553 161.1 151.554 161.107 151.554H167.691C167.698 151.554 167.705 151.553 167.712 151.55C167.718 151.547 167.724 151.543 167.729 151.538C167.734 151.533 167.738 151.527 167.741 151.52C167.743 151.513 167.745 151.506 167.745 151.498V149.905ZM161.262 157.411C161.671 158.533 162.67 159.365 163.843 159.462C165.591 159.604 167.062 159.021 167.588 157.231C167.697 156.858 167.75 156.274 167.747 155.481C167.743 154.53 167.743 153.577 167.745 152.622C167.745 152.58 167.725 152.559 167.684 152.559H161.112C161.098 152.559 161.085 152.565 161.075 152.575C161.065 152.585 161.059 152.599 161.059 152.613C161.042 153.706 161.043 154.803 161.063 155.903C161.075 156.578 161.142 157.081 161.262 157.411Z" fill="white"/>
<path d="M143.96 141.021L143.446 141.022C143.199 141.022 143 141.23 143.001 141.485L143.001 141.556C143.001 141.812 143.201 142.019 143.448 142.018L143.962 142.017C144.208 142.017 144.408 141.809 144.407 141.553L144.407 141.483C144.407 141.227 144.206 141.02 143.96 141.021Z" fill="white"/>
<path d="M143.977 144.367C144.299 144.366 144.559 144.134 144.558 143.849C144.557 143.563 144.295 143.333 143.974 143.334C143.652 143.335 143.392 143.568 143.393 143.853C143.394 144.138 143.656 144.368 143.977 144.367Z" fill="white"/>
<path d="M145.526 145.676L144.629 145.688C144.379 145.691 144.179 145.904 144.182 146.164L144.182 146.22C144.185 146.479 144.391 146.687 144.641 146.684L145.538 146.673C145.788 146.669 145.988 146.456 145.985 146.197L145.985 146.141C145.982 145.881 145.776 145.673 145.526 145.676Z" fill="white"/>
<path d="M143.91 149.378C144.279 149.373 144.576 149.137 144.573 148.851C144.569 148.564 144.267 148.335 143.897 148.34C143.528 148.345 143.231 148.581 143.234 148.868C143.238 149.154 143.54 149.383 143.91 149.378Z" fill="white"/>
<path d="M143.801 158.007L143.74 158.004C143.493 157.992 143.283 158.19 143.271 158.446L143.237 159.157C143.225 159.413 143.416 159.632 143.663 159.644L143.724 159.647C143.971 159.66 144.182 159.462 144.194 159.205L144.227 158.495C144.239 158.238 144.049 158.02 143.801 158.007Z" fill="white"/>
<path d="M143.733 160.026L143.665 160.032C143.415 160.052 143.228 160.278 143.247 160.538L143.286 161.067C143.305 161.327 143.524 161.521 143.774 161.501L143.842 161.496C144.092 161.476 144.279 161.249 144.26 160.99L144.221 160.46C144.201 160.201 143.983 160.006 143.733 160.026Z" fill="white"/>
<path d="M70.8115 267.667L70.5907 280.171C70.5907 280.171 83.2261 284.595 83.4097 286.909L59.1505 287.352L58.6951 267.855L70.8115 267.667Z" fill="#BDC3FC"/>
<path d="M63.0702 279.257C62.6028 279.394 62.2884 279.928 62.4054 280.4C62.523 280.872 63.063 281.198 63.5328 281.069C64.002 280.94 64.3998 280.311 64.23 279.854C64.0602 279.398 63.405 279.051 62.9802 279.289" fill="#E0E0E0"/>
<path d="M59.1504 287.352L59.1816 285.385L82.4292 285.697C82.4292 285.697 83.5176 286.147 83.4096 286.91L59.1504 287.352Z" fill="#263238"/>
<path d="M70.9814 280.04C70.9796 280.159 70.388 280.223 69.8126 280.615C69.2264 280.991 68.9354 281.51 68.8256 281.465C68.7158 281.444 68.8796 280.732 69.5852 280.271C70.2866 279.803 71.0054 279.931 70.9814 280.04Z" fill="#263238"/>
<path d="M73.5452 281.047C73.5746 281.161 73.0652 281.372 72.6716 281.88C72.2636 282.377 72.1718 282.921 72.0536 282.918C71.9426 282.939 71.8484 282.246 72.3488 281.624C72.8444 280.996 73.5404 280.934 73.5452 281.047Z" fill="#263238"/>
<path d="M75.0458 284.066C74.9384 284.093 74.7632 283.504 75.0554 282.85C75.3434 282.193 75.8972 281.927 75.9488 282.025C76.0178 282.121 75.6644 282.475 75.4328 283.016C75.188 283.552 75.1634 284.052 75.0458 284.066Z" fill="#263238"/>
<path d="M70.7155 277.185C70.6681 277.294 70.1215 277.141 69.4525 277.198C68.7823 277.243 68.2657 277.477 68.2021 277.376C68.1319 277.291 68.6329 276.844 69.4213 276.787C70.2097 276.724 70.7719 277.091 70.7155 277.185Z" fill="#263238"/>
<path d="M56.7077 260.998L48.0293 270.002C48.0293 270.002 54.2669 281.847 52.8251 283.668L34.7627 267.467L47.7095 252.883L56.7077 260.998Z" fill="#BDC3FC"/>
<path d="M43.1459 264.21C42.7103 263.992 42.1169 264.168 41.8811 264.594C41.6453 265.02 41.8193 265.626 42.2513 265.851C42.6827 266.076 43.4021 265.887 43.5887 265.437C43.7753 264.987 43.5317 264.287 43.0589 264.172" fill="#E0E0E0"/>
<path d="M34.7622 267.467L36.1248 266.048L52.9332 282.111C52.9332 282.111 53.4234 283.182 52.8246 283.667L34.7622 267.467Z" fill="#263238"/>
<path d="M48.4044 270.172C48.3222 270.258 47.8452 269.902 47.157 269.797C46.4712 269.673 45.9048 269.854 45.855 269.747C45.789 269.657 46.3938 269.248 47.2248 269.39C48.057 269.525 48.4962 270.109 48.4044 270.172Z" fill="#263238"/>
<path d="M49.5959 272.655C49.5395 272.758 49.0229 272.566 48.3887 272.67C47.7515 272.756 47.3141 273.091 47.2301 273.009C47.1347 272.948 47.5373 272.377 48.3281 272.262C49.1177 272.141 49.6697 272.569 49.5959 272.655Z" fill="#263238"/>
<path d="M48.6385 275.888C48.5413 275.834 48.8137 275.284 49.4737 275.004C50.1313 274.72 50.7181 274.902 50.6899 275.009C50.6749 275.126 50.1745 275.145 49.6363 275.383C49.0927 275.608 48.7339 275.957 48.6385 275.888Z" fill="#263238"/>
<path d="M50.1546 267.901C50.0454 267.948 49.7502 267.463 49.221 267.05C48.7002 266.626 48.1626 266.445 48.1842 266.328C48.1902 266.218 48.8622 266.232 49.4784 266.727C50.0982 267.219 50.2602 267.871 50.1546 267.901Z" fill="#263238"/>
<path d="M104.544 132.147L93.8779 139.191L94.0357 141.984L96.8179 147.855C96.8179 147.855 98.1043 149.075 101.882 145.249C105.66 141.423 110.439 133.82 110.439 133.82L104.544 132.147Z" fill="#FFBE9D"/>
<path d="M122.501 117.47C122.378 117.191 122.115 116.995 121.807 116.954L116.581 116.254C116.121 116.2 115.658 116.34 115.31 116.639L100.345 129.49L101.023 130.149L106.636 131.501L122.604 117.706L122.501 117.47Z" fill="#263238"/>
<path d="M118.354 118.536C118.435 118.657 118.634 118.67 118.8 118.565C118.966 118.459 119.035 118.275 118.954 118.154C118.873 118.032 118.673 118.02 118.507 118.125C118.341 118.23 118.273 118.415 118.354 118.536Z" fill="white"/>
<path d="M122.605 117.705C122.602 117.726 122.236 117.698 121.578 117.627C120.868 117.544 119.93 117.434 118.795 117.301C118.203 117.227 117.562 117.147 116.876 117.061C116.551 117.003 116.224 117.086 115.969 117.296C115.692 117.537 115.407 117.783 115.115 118.037C113.935 119.052 112.645 120.164 111.29 121.33C108.57 123.66 106.096 125.757 104.295 127.263C103.421 127.986 102.699 128.583 102.152 129.035C101.641 129.449 101.352 129.669 101.338 129.653C101.323 129.637 101.586 129.386 102.072 128.945C102.601 128.475 103.302 127.853 104.149 127.1C105.913 125.552 108.363 123.429 111.083 121.099C112.443 119.939 113.739 118.834 114.924 117.824C115.221 117.573 115.51 117.328 115.792 117.09C116.105 116.828 116.548 116.736 116.905 116.808C117.59 116.907 118.231 117 118.822 117.086C119.953 117.258 120.888 117.401 121.594 117.509C122.248 117.615 122.608 117.684 122.605 117.705Z" fill="#455A64"/>
<path d="M117.173 120.39C117.173 120.39 116.697 120.159 116.037 121.454C115.378 122.749 113.389 126.436 113.389 126.436L111.153 124.303L107.746 123.808C107.746 123.808 106.843 124.27 107.268 124.777C107.692 125.284 109.666 126.239 109.666 126.239L110.58 128.872L106.777 125.518C106.777 125.518 105.202 125.489 105.381 126.505C105.559 127.521 107.739 131.155 107.739 131.155L105.582 130.37L103.408 128.044C103.408 128.044 102.594 127.855 102.702 128.624C102.81 129.393 104.841 132.631 104.841 132.631L107.695 135.161C107.695 135.161 109.538 135.526 109.86 135.044C110.181 134.563 110.437 133.82 110.437 133.82C110.437 133.82 111.468 133.831 111.777 133.416C112.086 133.001 112.177 132.235 112.177 132.235C112.177 132.235 113.606 132.92 114.027 132.135C114.449 131.35 114.755 129.655 114.784 128.968C114.814 128.281 117.286 122.513 117.276 122.315C117.266 122.117 118.227 120.259 117.173 120.39Z" fill="#FFBE9D"/>
<path d="M109.975 135.084C109.975 135.126 109.616 135.177 109.038 135.11C108.461 135.045 107.67 134.833 106.888 134.4C106.107 133.965 105.508 133.405 105.149 132.95C104.787 132.494 104.64 132.163 104.676 132.14C104.763 132.073 105.555 133.273 107.059 134.093C108.549 134.936 109.987 134.975 109.975 135.084Z" fill="#EB996E"/>
<path d="M109.525 133.679C109.452 133.74 108.953 133.269 108.472 132.581C107.99 131.892 107.718 131.262 107.801 131.215C107.886 131.166 108.287 131.706 108.76 132.379C109.231 133.054 109.601 133.616 109.525 133.679Z" fill="#EB996E"/>
<path d="M112.062 131.316C111.991 131.378 111.493 130.916 111.06 130.208C110.624 129.502 110.436 128.85 110.523 128.814C110.615 128.775 110.939 129.344 111.36 130.024C111.777 130.706 112.138 131.252 112.062 131.316Z" fill="#EB996E"/>
<path d="M114.535 129.532C114.435 129.546 114.276 128.832 113.942 128.01C113.614 127.185 113.235 126.56 113.317 126.499C113.388 126.441 113.92 127.004 114.268 127.878C114.622 128.751 114.627 129.526 114.535 129.532Z" fill="#EB996E"/>
<path d="M88.7485 118.026C84.6955 117.885 76.1647 106.13 76.2175 102.075L76.5337 77.6732C76.4101 71.1152 80.1235 65.5766 86.6827 65.6342L87.2887 65.675C93.3853 66.0854 98.1475 71.1062 98.2291 77.2166C98.3047 82.9016 98.3155 89.1836 98.0743 92.2148C97.5745 98.489 91.2277 99.0434 91.2277 99.0434C91.2139 99.0434 91.1725 100.501 91.1281 102.348C91.0285 106.496 92.6485 118.146 88.5019 118.002L88.7485 118.026Z" fill="#FFBE9D"/>
<path d="M91.2277 99.0437C91.2277 99.0437 87.2539 99.0095 83.2141 96.0767C83.2141 96.0767 84.8635 100.93 91.1677 100.786L91.2277 99.0437Z" fill="#EB996E"/>
<path d="M96.1046 82.3654C96.0896 82.84 95.675 83.2186 95.1788 83.212C94.6838 83.2054 94.2938 82.816 94.3088 82.3414C94.3238 81.8668 94.7384 81.4876 95.2334 81.4942C95.7296 81.5008 96.1196 81.8908 96.1046 82.3654Z" fill="#263238"/>
<path d="M96.7068 79.9006C96.588 80.0098 95.9424 79.4614 94.977 79.399C94.014 79.3228 93.2724 79.7716 93.1758 79.6462C93.1278 79.5904 93.255 79.387 93.579 79.183C93.8976 78.9796 94.4298 78.7972 95.031 78.8404C95.6316 78.8842 96.1224 79.1392 96.3978 79.3852C96.6792 79.633 96.7656 79.8514 96.7068 79.9006Z" fill="#263238"/>
<path d="M87.2725 82.1696C87.2575 82.6442 86.8429 83.0228 86.3467 83.0162C85.8517 83.0096 85.4617 82.6202 85.4767 82.1456C85.4917 81.671 85.9063 81.2918 86.4013 81.2984C86.8975 81.3044 87.2875 81.695 87.2725 82.1696Z" fill="#263238"/>
<path d="M87.2323 79.4877C87.1129 79.5969 86.4667 79.0491 85.5019 78.9867C84.5389 78.9105 83.7973 79.3593 83.7001 79.2339C83.6527 79.1781 83.7787 78.9747 84.1033 78.7713C84.4219 78.5679 84.9541 78.3855 85.5553 78.4281C86.1565 78.4719 86.6467 78.7275 86.9227 78.9729C87.2035 79.2207 87.2905 79.4391 87.2323 79.4877Z" fill="#263238"/>
<path d="M90.1958 87.1359C90.1952 87.0807 90.8018 87.0177 91.7822 86.9583C92.0306 86.9499 92.267 86.9163 92.3198 86.7507C92.39 86.5767 92.3048 86.3043 92.2046 86.0091C92.0132 85.3971 91.8122 84.7557 91.6022 84.0837C90.77 81.3441 90.185 79.0983 90.2954 79.0653C90.4064 79.0329 91.1708 81.2271 92.003 83.9667C92.2022 84.6423 92.393 85.2855 92.5742 85.9011C92.6486 86.1873 92.7878 86.5161 92.6372 86.8767C92.5586 87.0561 92.3684 87.1779 92.2082 87.2097C92.0468 87.2475 91.9082 87.2409 91.7858 87.2397C90.803 87.2271 90.1958 87.1911 90.1958 87.1359Z" fill="#263238"/>
<path d="M87.3888 75.875C87.2412 76.1126 86.322 75.7904 85.1838 75.6896C84.0474 75.5654 83.0832 75.701 82.9848 75.4394C82.9428 75.3146 83.1498 75.1058 83.5644 74.9336C83.9754 74.7608 84.5982 74.6456 85.2804 74.7128C85.962 74.7812 86.55 75.0158 86.9196 75.266C87.2922 75.5156 87.4548 75.7616 87.3888 75.875Z" fill="#263238"/>
<path d="M96.6307 77.6282C96.4183 77.837 95.6437 77.5681 94.6987 77.5081C93.7555 77.4199 92.9449 77.5646 92.7727 77.3252C92.6977 77.21 92.8351 76.9963 93.1957 76.8073C93.5509 76.6183 94.1371 76.4792 94.7857 76.5302C95.4349 76.5818 95.9875 76.8098 96.3049 77.0516C96.6271 77.294 96.7249 77.5262 96.6307 77.6282Z" fill="#263238"/>
<path d="M76.7341 82.3574C76.6303 82.304 72.5053 80.7908 72.3535 85.0934C72.2017 89.396 76.5529 88.6604 76.5643 88.5374C76.5763 88.4144 76.7341 82.3574 76.7341 82.3574Z" fill="#FFBE9D"/>
<path d="M75.3073 86.8614C75.2887 86.847 75.2305 86.9112 75.1015 86.9646C74.9761 87.0168 74.7625 87.048 74.5411 86.9562C74.0923 86.7732 73.7353 86.0382 73.7419 85.2618C73.7449 84.87 73.8397 84.4998 73.9897 84.1962C74.1325 83.886 74.3437 83.673 74.5735 83.6406C74.8033 83.5962 74.9605 83.7384 75.0085 83.8614C75.0619 83.9838 75.0313 84.069 75.0541 84.0768C75.0655 84.0882 75.1489 84.0078 75.1207 83.829C75.1057 83.7426 75.0589 83.6394 74.9611 83.5536C74.8609 83.466 74.7103 83.418 74.5507 83.4294C74.2183 83.4408 73.9087 83.7354 73.7443 84.069C73.5619 84.4032 73.4455 84.819 73.4419 85.2588C73.4389 86.127 73.8541 86.9538 74.4697 87.1554C74.7697 87.2454 75.0253 87.1626 75.1591 87.066C75.2959 86.9646 75.3223 86.8692 75.3073 86.8614Z" fill="#EB996E"/>
<path d="M87.5257 87.586C87.4669 87.5932 87.4261 87.8266 87.4993 88.2004C87.5659 88.57 87.8047 89.0902 88.2433 89.4844C88.6747 89.884 89.1427 90.1084 89.4799 90.244C89.8207 90.3778 90.0451 90.421 90.0727 90.3658C90.1015 90.3088 89.9245 90.1624 89.6305 89.9608C89.3389 89.758 88.9267 89.5012 88.5529 89.1532C87.7855 88.4716 87.6649 87.559 87.5257 87.586Z" fill="#263238"/>
<path d="M56.292 162.395L53.5068 179.712L55.5396 194.021L55.6266 197.131L57.6864 212.398C57.6864 212.398 56.9202 226.785 56.541 229.908C56.1612 233.031 57.5106 277.003 57.5106 277.003L71.502 276.387C71.502 276.387 76.7928 211.146 76.7724 210.429C76.7526 209.711 84.048 161.621 84.048 161.621L56.292 162.395Z" fill="#263238"/>
<path d="M91.6614 165.068C91.6614 165.068 91.3806 223.669 90.0744 227.057C88.7682 230.445 52.0056 266.872 52.0056 266.872L40.3674 257.8L70.092 217.797L71.9196 161.958L91.6614 165.068Z" fill="#263238"/>
<path d="M81.9031 180.389C81.9823 180.398 80.2435 195.196 78.0199 213.435C75.7957 231.681 73.9285 246.461 73.8493 246.45C73.7701 246.441 75.5089 231.647 77.7331 213.4C79.9567 195.161 81.8239 180.379 81.9031 180.389Z" fill="#455A64"/>
<path d="M57.6863 212.397C57.6911 212.398 57.6917 212.447 57.6887 212.543C57.6827 212.655 57.6749 212.794 57.6659 212.966C57.6377 213.36 57.5993 213.903 57.5501 214.592C57.4337 216.002 57.3029 218.045 57.1493 220.569C56.8655 225.618 56.6285 232.604 56.6909 240.322C56.7359 248.042 56.9789 255.029 57.1103 260.087C57.1691 262.599 57.2165 264.64 57.2501 266.078C57.2579 266.768 57.2645 267.312 57.2687 267.708C57.2675 267.88 57.2669 268.019 57.2663 268.131C57.2639 268.227 57.2603 268.276 57.2555 268.276C57.2507 268.276 57.2441 268.227 57.2369 268.132C57.2303 268.02 57.2213 267.881 57.2105 267.709C57.1931 267.314 57.1685 266.771 57.1379 266.081C57.0821 264.644 57.0035 262.604 56.9063 260.094C56.7227 255.038 56.4479 248.05 56.4023 240.324C56.3399 232.601 56.6093 225.607 56.9453 220.557C57.1247 218.032 57.2867 215.99 57.4379 214.583C57.5099 213.896 57.5663 213.354 57.6077 212.961C57.6287 212.79 57.6455 212.652 57.6593 212.541C57.6719 212.445 57.6815 212.397 57.6863 212.397Z" fill="#455A64"/>
<path d="M71.8327 179.15C71.8681 179.221 69.3211 180.564 66.1435 182.148C62.9653 183.732 60.3607 184.958 60.3253 184.887C60.2899 184.815 62.8363 183.474 66.0151 181.889C69.1921 180.305 71.7973 179.079 71.8327 179.15Z" fill="#455A64"/>
<path d="M100.013 133.815L107.038 140.133C107.038 140.133 96.0406 152.144 92.6428 154.802C89.245 157.458 93.73 136.674 93.73 136.674L100.013 133.815Z" fill="#BDC3FC"/>
<path d="M76.1555 96.248L73.2341 100.297L61.8629 104.503L56.7053 143.17L53.4509 177.696C53.4509 177.696 58.0019 171.204 61.4861 171.112C64.9703 171.021 82.6019 175.95 83.7941 176.85L86.1227 169.032L88.0091 178.083C88.0091 178.083 91.3199 178.83 93.0491 173.879L92.3153 156.721C92.3153 156.721 94.6445 125.787 94.5143 121.122C94.3841 116.457 91.2281 103.503 91.2281 103.503L90.0521 107.322L79.8131 98.5905L76.1555 96.248Z" fill="#BDC3FC"/>
<path d="M65.1486 103.324C65.1486 103.324 57.678 103.299 55.263 117.139C52.848 130.978 49.3722 145.826 51.1608 151.378C52.9494 156.931 59.9682 172.925 59.9682 172.925L69.5934 169.456L65.6454 144.337L70.215 119.753C70.215 119.753 70.779 104.335 65.1486 103.324Z" fill="#BDC3FC"/>
<path d="M73.7382 175.007C73.7382 175.007 69.1524 169.611 68.8032 169.742L61.1808 172.489C61.1808 172.489 60.8982 175.189 61.233 178.374C61.5294 181.191 62.0148 184.206 62.0148 184.206L72.039 178.86C72.039 178.86 72.4614 180.949 73.0188 182.114C73.5762 183.28 75.5106 182.045 75.5106 182.045L73.7382 175.007Z" fill="#FFBE9D"/>
<path d="M70.2143 119.753C70.2143 119.753 70.1975 119.904 70.1489 120.194C70.0967 120.494 70.0229 120.923 69.9263 121.479C69.7217 122.617 69.4241 124.276 69.0419 126.401C68.2595 130.673 67.1345 136.819 65.7539 144.357L65.7545 144.32C66.8867 151.473 68.2433 160.043 69.7301 169.434L69.7481 169.548L69.6395 169.587C66.5603 170.698 63.3263 171.865 60.0161 173.06L59.8889 173.106L59.8355 172.982C58.8587 170.716 57.8255 168.318 56.7779 165.889C54.9395 161.538 53.1521 157.287 51.6101 153.102C51.4139 152.581 51.2417 152.052 51.0623 151.528C50.9777 151.264 50.9261 150.986 50.8571 150.716C50.7875 150.446 50.7251 150.174 50.7047 149.899C50.6381 149.351 50.5637 148.806 50.5619 148.262C50.5373 147.717 50.5205 147.176 50.5457 146.639C50.5919 144.489 50.8049 142.395 51.0767 140.366C51.6053 136.303 52.3241 132.479 52.9793 128.9C53.6465 125.324 54.2681 121.992 54.8363 118.95C55.0955 117.427 55.3985 115.98 55.7009 114.616C55.8947 113.945 56.0831 113.292 56.2655 112.659C56.4797 112.037 56.7185 111.444 56.9321 110.867C57.8789 108.589 59.0999 106.79 60.3827 105.612C61.6553 104.418 62.9111 103.827 63.7799 103.561C64.2167 103.425 64.5623 103.37 64.7945 103.34C64.9049 103.331 64.9913 103.325 65.0585 103.32C65.1179 103.32 65.1479 103.324 65.1479 103.324C65.1479 103.324 65.0285 103.336 64.7981 103.369C64.5689 103.409 64.2275 103.473 63.7973 103.617C62.9411 103.898 61.7075 104.5 60.4595 105.694C59.2019 106.872 58.0067 108.663 57.0809 110.93C56.8721 111.506 56.6387 112.095 56.4293 112.714C56.2511 113.344 56.0675 113.993 55.8785 114.662C55.5851 116.02 55.2899 117.459 55.0367 118.988C54.4793 122.032 53.8691 125.366 53.2145 128.944C52.5695 132.524 51.8603 136.347 51.3407 140.401C51.0737 142.426 50.8649 144.512 50.8217 146.645C50.7977 147.178 50.8151 147.713 50.8397 148.25C50.8415 148.789 50.9159 149.322 50.9813 149.859C51.0017 150.13 51.0629 150.392 51.1307 150.654C51.1985 150.915 51.2465 151.181 51.3305 151.442C51.5093 151.962 51.6803 152.486 51.8771 153.006C53.4185 157.177 55.2077 161.429 57.0449 165.777C58.0913 168.206 59.1233 170.603 60.0995 172.868L59.9195 172.79C63.2309 171.598 66.4655 170.434 69.5459 169.325L69.4553 169.478C67.9895 160.082 66.6515 151.509 65.5349 144.354L65.5319 144.335L65.5355 144.316C66.9557 136.785 68.1143 130.645 68.9195 126.377C69.3269 124.257 69.6449 122.603 69.8627 121.467C69.9731 120.912 70.0577 120.486 70.1171 120.187C70.1759 119.9 70.2143 119.753 70.2143 119.753Z" fill="#263238"/>
<path d="M90.0508 107.323C90.064 107.33 89.9854 107.509 89.8276 107.836C89.6464 108.199 89.4136 108.666 89.1298 109.234C88.492 110.467 87.6274 112.14 86.6164 114.095L86.5186 114.285L86.3914 114.111C85.4968 112.885 84.4702 111.557 83.3422 110.203C81.13 107.539 78.9352 105.293 77.293 103.727C76.4746 102.94 75.7954 102.321 75.3286 101.891C74.8582 101.464 74.6038 101.221 74.6164 101.206C74.629 101.191 74.908 101.405 75.4024 101.806C75.8926 102.211 76.594 102.808 77.4328 103.578C79.1152 105.11 81.343 107.343 83.5642 110.018C84.697 111.378 85.7212 112.716 86.6068 113.955L86.3818 113.971C87.43 112.036 88.3264 110.38 88.9876 109.159C89.2984 108.604 89.5534 108.15 89.752 107.795C89.9338 107.482 90.0376 107.316 90.0508 107.323Z" fill="#263238"/>
<path d="M92.5697 109.386C92.6669 109.351 93.1493 111.108 92.8049 113.449L92.7443 113.86L92.5403 113.483C92.4323 113.282 92.3243 113.069 92.2229 112.848C91.6805 111.63 91.3889 110.474 91.0895 109.674C90.8027 108.868 90.5651 108.393 90.6035 108.371C90.6341 108.353 90.9389 108.8 91.2797 109.599C91.6319 110.392 91.9577 111.545 92.4857 112.728C92.5847 112.943 92.6884 113.151 92.791 113.346L92.5271 113.379C92.7335 112.293 92.6783 111.254 92.6609 110.542C92.6375 109.818 92.5409 109.398 92.5697 109.386Z" fill="#263238"/>
<path d="M90.5411 109.318C90.5459 109.318 90.5501 109.37 90.5537 109.473C90.5555 109.591 90.5585 109.741 90.5609 109.927C90.5663 110.326 90.5633 110.914 90.5531 111.673C90.5321 113.188 90.4661 115.382 90.3179 118.089C90.0317 123.504 89.3711 130.962 88.6937 139.201C87.9893 147.433 87.3521 154.883 86.8883 160.301C86.6447 162.983 86.4473 165.161 86.3081 166.692C86.2349 167.43 86.1773 168.01 86.1359 168.429C86.1149 168.613 86.0975 168.762 86.0837 168.88C86.0705 168.981 86.0609 169.033 86.0561 169.033C86.0513 169.032 86.0507 168.98 86.0543 168.877C86.0603 168.759 86.0681 168.61 86.0777 168.424C86.1059 168.004 86.1455 167.422 86.1959 166.683C86.3129 165.15 86.4797 162.969 86.6843 160.284C87.1259 154.864 87.7337 147.411 88.4051 139.177C89.0825 130.936 89.7749 123.482 90.1133 118.076C90.2873 115.373 90.3839 113.183 90.4397 111.669C90.4661 110.929 90.4871 110.346 90.5021 109.926C90.5105 109.74 90.5177 109.591 90.5231 109.472C90.5303 109.37 90.5363 109.318 90.5411 109.318Z" fill="#263238"/>
<path d="M94.5731 122.763C94.6529 122.769 94.2227 130.414 93.6131 139.838C93.0029 149.265 92.4443 156.899 92.3645 156.893C92.2847 156.887 92.7149 149.243 93.3245 139.816C93.9341 130.392 94.4933 122.756 94.5731 122.763Z" fill="#263238"/>
<path d="M72.0827 113.514C72.0299 113.517 72.0311 112.824 71.7563 111.76C71.4893 110.704 70.8803 109.274 69.7511 108.044C68.6207 106.814 67.2473 106.086 66.2177 105.73C65.1821 105.367 64.4915 105.309 64.4993 105.256C64.5011 105.238 64.6739 105.235 64.9853 105.266C65.2961 105.297 65.7443 105.375 66.2819 105.536C67.3523 105.849 68.7923 106.573 69.9641 107.848C71.1353 109.124 71.7341 110.62 71.9549 111.713C72.0695 112.263 72.1103 112.716 72.1145 113.028C72.1193 113.341 72.1007 113.514 72.0827 113.514Z" fill="#263238"/>
<g opacity="0.3">
<path d="M92.7587 154.566C94.8641 148.882 95.1946 142.576 93.8152 136.674C93.4366 142.685 93.1223 148.695 92.7437 154.706" fill="black"/>
</g>
<g opacity="0.3">
<path d="M69.8165 121.895C67.3505 134.703 65.3483 146.855 65.6279 145.174L69.5939 169.456L71.9351 172.926C69.8963 156.629 68.2139 138.125 69.8165 121.895Z" fill="black"/>
</g>
<path d="M102.707 69.8857C102.67 69.0565 102.151 68.2825 101.432 67.8787C101.443 67.6297 101.437 67.3885 101.405 67.1605C101.2 65.7157 99.9174 64.4467 98.4582 64.4251C98.301 63.3115 97.4898 62.3149 96.4308 61.9345C95.3724 61.5541 94.1124 61.8073 93.282 62.5663C92.2836 61.5541 90.66 61.2181 89.3418 61.7521C89.1762 61.8193 89.0088 61.9045 88.9062 62.0503C88.839 62.1463 88.8156 62.2735 88.8402 62.3857C88.4898 61.7209 87.801 61.2409 87.0522 61.1623C86.7966 61.1353 86.5392 61.1599 86.2908 61.2205C85.6068 61.2475 84.9402 61.4965 84.4638 61.9981C82.788 61.2637 80.6034 62.0521 79.7832 63.6877C78.3714 63.6643 76.992 64.5937 76.4838 65.9113C75.5754 65.9227 74.691 66.4483 74.2464 67.2409C73.8018 68.0329 73.8138 69.0619 74.277 69.8431C74.277 69.8431 71.2134 70.3177 71.808 73.0639C72.1116 74.4667 73.9764 74.3575 73.9764 74.3575L75.6804 83.2195C75.6402 83.2603 76.1508 84.3187 76.6848 84.1357C77.2188 83.9527 77.5518 83.4379 77.8848 82.9819C78.2658 82.4593 78.7068 81.9583 78.9066 81.3433C79.1064 80.7277 78.9852 79.9459 78.4332 79.6087C79.194 79.4149 79.7274 78.6901 79.9218 77.9287C80.1162 77.1679 80.034 76.3669 79.9506 75.5857C79.827 74.4331 79.7034 73.2805 79.5804 72.1279C81.144 72.1987 82.713 71.3185 83.4678 69.9469C84.5226 70.8859 86.4246 70.5589 87.105 69.3205C87.4962 70.8991 89.2932 71.9761 90.8694 71.5771C90.6366 72.4567 92.1786 73.3963 93.039 73.6927C93.8994 73.9891 95.0418 73.4467 95.0418 73.4467C95.0418 73.4467 95.943 74.0665 96.7398 74.1943C96.771 74.1991 96.8016 74.2045 96.8328 74.2081C98.0412 74.4115 99.306 73.3903 99.9702 72.3625C100.282 72.4117 100.6 72.4081 100.907 72.3283C101.965 72.0517 102.756 70.9783 102.707 69.8857Z" fill="#263238"/>
<path d="M67.6651 134.337C67.6429 134.382 66.8581 134.012 65.5645 133.481C64.2715 132.949 62.4589 132.278 60.4051 131.708C58.3495 131.141 56.4499 130.785 55.0669 130.577C53.6845 130.368 52.8211 130.281 52.8247 130.232C52.8265 130.21 53.0437 130.209 53.4367 130.224C53.8297 130.236 54.3973 130.281 55.0957 130.358C56.4931 130.511 58.4161 130.836 60.4879 131.407C62.5585 131.982 64.3747 132.691 65.6515 133.278C66.2905 133.571 66.7999 133.825 67.1437 134.016C67.4887 134.205 67.6747 134.318 67.6651 134.337Z" fill="white"/>
<path d="M62.1851 171.877C62.1803 171.879 62.1545 171.826 62.1089 171.721C62.0585 171.598 61.9943 171.444 61.9145 171.251C61.7423 170.814 61.5023 170.206 61.1969 169.432C60.5861 167.848 59.7029 165.555 58.7315 162.677C57.7661 159.799 56.7011 156.328 55.9661 152.37C55.6013 150.393 55.3121 148.295 55.2017 146.106C55.0919 143.917 55.1453 141.642 55.3865 139.333C55.8539 134.706 56.8679 130.391 57.7847 126.486C58.7141 122.58 59.6279 119.081 60.4367 116.155C61.2455 113.229 61.9433 110.872 62.4419 109.25C62.6915 108.457 62.8883 107.833 63.0293 107.386C63.0959 107.188 63.1487 107.029 63.1913 106.904C63.2291 106.796 63.2513 106.741 63.2567 106.743C63.2621 106.744 63.2501 106.802 63.2219 106.913C63.1877 107.041 63.1439 107.202 63.0899 107.404C62.9621 107.856 62.7845 108.485 62.5589 109.285C62.0963 110.917 61.4309 113.281 60.6503 116.213C59.8691 119.145 58.9787 122.646 58.0655 126.553C57.1643 130.459 56.1623 134.765 55.6979 139.365C55.4585 141.661 55.4033 143.918 55.5077 146.091C55.6133 148.265 55.8941 150.351 56.2499 152.319C56.9657 156.259 58.0049 159.726 58.9421 162.607C59.8847 165.49 60.7355 167.794 61.3115 169.39C61.5929 170.172 61.8149 170.788 61.9739 171.229C62.0417 171.427 62.0963 171.585 62.1395 171.711C62.1743 171.818 62.1899 171.874 62.1851 171.877Z" fill="white"/>
<path d="M66.6925 153.83C66.7003 153.85 66.5305 153.935 66.2155 154.072C65.9017 154.21 65.4385 154.39 64.8607 154.595C63.7051 155.005 62.0743 155.488 60.2359 155.853C58.3963 156.216 56.7049 156.392 55.4803 156.453C54.8677 156.484 54.3715 156.494 54.0283 156.486C53.6851 156.479 53.4955 156.466 53.4949 156.444C53.4937 156.396 54.2491 156.35 55.4635 156.233C56.6779 156.116 58.3501 155.907 60.1753 155.547C61.9993 155.185 63.6247 154.74 64.7917 154.385C65.9593 154.031 66.6751 153.785 66.6925 153.83Z" fill="white"/>
<path d="M71.7967 115.794C71.7457 115.829 71.2621 115.074 70.2685 114.044C69.7765 113.525 69.1351 112.963 68.3809 112.397C67.6153 111.846 66.7297 111.301 65.7445 110.838C64.7533 110.387 63.7645 110.064 62.8489 109.837C61.9291 109.628 61.0855 109.503 60.3715 109.463C58.9435 109.373 58.0549 109.492 58.0489 109.431C58.0459 109.409 58.2655 109.37 58.6675 109.316C58.8685 109.286 59.1151 109.258 59.4031 109.253C59.6911 109.245 60.0193 109.217 60.3823 109.243C61.1089 109.255 61.9717 109.358 62.9137 109.556C63.8509 109.772 64.8637 110.094 65.8759 110.555C66.8821 111.028 67.7821 111.592 68.5537 112.167C69.3139 112.757 69.9511 113.347 70.4305 113.894C70.6843 114.154 70.8763 114.422 71.0563 114.647C71.2393 114.87 71.3773 115.076 71.4841 115.249C71.7031 115.589 71.8147 115.783 71.7967 115.794Z" fill="white"/>
<path d="M76.9343 174.004C76.9289 174.004 76.9247 173.938 76.9223 173.81C76.9211 173.665 76.9199 173.478 76.9181 173.242C76.9217 172.723 76.9259 171.992 76.9319 171.061C76.9583 169.146 76.9955 166.41 77.0417 163.039C77.1653 156.248 77.3351 146.9 77.5229 136.575C77.6165 131.406 77.6879 126.483 77.5241 122.011C77.4473 119.776 77.3033 117.654 77.1107 115.675C76.9205 113.697 76.6595 111.861 76.2155 110.235C75.7799 108.607 75.1619 107.199 74.4323 106.08C73.7093 104.955 72.8981 104.117 72.1667 103.528C71.4305 102.94 70.7801 102.592 70.3295 102.385C69.8789 102.177 69.6269 102.1 69.6329 102.083C69.6329 102.083 69.8921 102.136 70.3547 102.328C70.8167 102.517 71.4845 102.852 72.2417 103.432C72.9947 104.015 73.8305 104.852 74.5781 105.984C75.3329 107.11 75.9743 108.535 76.4285 110.176C76.8911 111.817 77.1665 113.667 77.3687 115.65C77.5733 117.634 77.7269 119.76 77.8121 122.001C77.9927 126.483 77.9291 131.413 77.8361 136.58C77.6129 146.905 77.4101 156.252 77.2637 163.042C77.1755 166.413 77.1041 169.148 77.0543 171.063C77.0231 171.993 76.9991 172.724 76.9817 173.243C76.9709 173.478 76.9619 173.665 76.9547 173.81C76.9463 173.938 76.9397 174.004 76.9343 174.004Z" fill="white"/>
<path d="M86.6208 161.216C86.6172 161.237 86.3472 161.209 85.8618 161.14C85.3764 161.072 84.6768 160.96 83.814 160.813C82.0878 160.518 79.7094 160.076 77.0934 159.535C74.4762 158.994 72.117 158.458 70.4154 158.044C69.5646 157.837 68.8782 157.663 68.4054 157.534C67.9326 157.405 67.674 157.324 67.6788 157.303C67.6836 157.282 67.9518 157.323 68.433 157.416C68.9748 157.526 69.6552 157.665 70.464 157.83C72.2412 158.202 74.5752 158.69 77.1564 159.23C79.7394 159.757 82.0758 160.233 83.8548 160.596C84.663 160.765 85.3422 160.908 85.8834 161.022C86.3622 161.127 86.6244 161.195 86.6208 161.216Z" fill="white"/>
<path d="M88.2462 139.698C88.2396 139.784 83.4229 139.494 77.4883 139.05C71.5519 138.605 66.7464 138.176 66.7524 138.089C66.759 138.003 71.5747 138.294 77.5117 138.738C83.4463 139.182 88.2528 139.613 88.2462 139.698Z" fill="white"/>
<path d="M89.8217 120.76C89.8229 120.781 89.5475 120.815 89.0477 120.858C88.5485 120.901 87.8249 120.948 86.9297 120.993C85.1399 121.084 82.6643 121.155 79.9295 121.14C77.1941 121.123 74.7191 121.023 72.9305 120.91C72.0359 120.854 71.3135 120.798 70.8143 120.749C70.3151 120.7 70.0403 120.663 70.0415 120.642C70.0427 120.621 70.3205 120.616 70.8215 120.628C71.3843 120.644 72.0947 120.665 72.9407 120.69C74.7293 120.746 77.2007 120.811 79.9313 120.828C82.6607 120.843 85.1327 120.807 86.9219 120.772C87.7685 120.758 88.4783 120.745 89.0417 120.736C89.5427 120.731 89.8205 120.738 89.8217 120.76Z" fill="white"/>
<path d="M77.0448 103.077C77.0508 103.123 76.497 103.222 75.6114 103.41C74.7258 103.597 73.5108 103.89 72.198 104.312C70.8858 104.736 69.7278 105.207 68.8992 105.572C68.0706 105.936 67.563 106.179 67.5408 106.138C67.5216 106.104 67.9932 105.791 68.8044 105.373C69.615 104.954 70.7736 104.444 72.102 104.015C73.4304 103.588 74.6688 103.326 75.5718 103.194C76.4754 103.059 77.0406 103.038 77.0448 103.077Z" fill="white"/>
<path d="M89.0611 109.856C89.0455 109.871 88.8493 109.702 88.5073 109.383C88.1203 109.018 87.6391 108.564 87.0685 108.026C85.8559 106.879 84.1675 105.308 82.2571 103.624C80.3449 101.941 78.5731 100.466 77.2813 99.4074C76.6753 98.9094 76.1641 98.49 75.7531 98.1522C75.3937 97.8534 75.2011 97.68 75.2143 97.6626C75.2275 97.6452 75.4447 97.7862 75.8275 98.0556C76.2109 98.3238 76.7551 98.7264 77.4193 99.2346C78.7483 100.25 80.5471 101.703 82.4641 103.39C84.3793 105.077 86.0479 106.678 87.2233 107.867C87.8113 108.462 88.2793 108.951 88.5937 109.297C88.9093 109.643 89.0767 109.841 89.0611 109.856Z" fill="white"/>
<path d="M85.128 103.379C85.1916 103.437 84.3744 104.436 83.3022 105.611C82.23 106.785 81.309 107.69 81.2454 107.632C81.1818 107.574 81.999 106.575 83.0712 105.4C84.1428 104.225 85.0638 103.32 85.128 103.379Z" fill="white"/>
<path d="M94.5618 121.108C94.5468 121.196 93.5647 121.093 92.3539 121.042C91.1431 120.986 90.1554 121.003 90.1482 120.913C90.1398 120.83 91.1334 120.673 92.3676 120.729C93.6012 120.782 94.5774 121.026 94.5618 121.108Z" fill="white"/>
<path d="M93.1446 141.125C93.1428 141.211 92.1366 141.258 90.8988 141.229C89.6604 141.2 88.6578 141.106 88.6602 141.02C88.662 140.934 89.6676 140.887 90.9066 140.916C92.1444 140.946 93.147 141.039 93.1446 141.125Z" fill="white"/>
<path d="M92.745 113.86C92.7504 113.86 92.7558 113.916 92.7606 114.024C92.7648 114.15 92.7696 114.309 92.7756 114.505C92.7822 114.951 92.7912 115.569 92.8026 116.352C92.8176 117.154 92.8074 118.136 92.79 119.276C92.7804 120.416 92.7546 121.713 92.7036 123.147C92.5422 128.884 92.0532 136.797 91.4364 145.527C90.8202 154.26 90.2886 162.165 90.0672 167.895C90.0024 169.327 89.958 170.623 89.9328 171.762C89.8998 172.9 89.8686 173.88 89.8656 174.682C89.8524 175.465 89.8416 176.082 89.8338 176.528C89.8272 176.724 89.8218 176.882 89.8176 177.009C89.8122 177.117 89.8068 177.172 89.8014 177.172C89.796 177.172 89.7906 177.117 89.7858 177.009C89.7816 176.883 89.7768 176.724 89.7708 176.529C89.7642 176.083 89.7552 175.465 89.7438 174.681C89.7282 173.879 89.7414 172.897 89.7576 171.758C89.766 170.618 89.7954 169.321 89.8464 167.887C90.0114 162.15 90.5082 154.237 91.1244 145.504C91.7418 136.775 92.265 128.869 92.4828 123.139C92.5482 121.707 92.589 120.411 92.6154 119.272C92.6496 118.134 92.6778 117.153 92.6814 116.352C92.6952 115.569 92.7054 114.951 92.7132 114.505C92.7198 114.309 92.7252 114.151 92.7294 114.024C92.7342 113.916 92.7396 113.86 92.745 113.86Z" fill="white"/>
<path d="M92.4462 161.133C92.4618 161.218 91.1952 161.521 89.6166 161.811C88.038 162.101 86.7462 162.267 86.7306 162.183C86.715 162.098 87.9816 161.794 89.5602 161.504C91.1388 161.214 92.4312 161.047 92.4462 161.133Z" fill="white"/>
<path d="M103.748 137.438C103.77 137.479 103.157 137.853 102.173 138.466C101.19 139.079 99.8411 139.94 98.3897 140.945C96.9383 141.953 95.6597 142.915 94.7411 143.621C93.8225 144.328 93.2573 144.77 93.2273 144.736C93.2009 144.705 93.7157 144.202 94.6025 143.449C95.4881 142.696 96.7529 141.701 98.2115 140.689C99.6707 139.678 101.045 138.842 102.061 138.276C103.076 137.709 103.728 137.402 103.748 137.438Z" fill="white"/>
<path d="M101.829 145.489C101.788 145.509 101.486 144.975 100.996 144.114C100.506 143.253 99.822 142.069 99.0228 140.788C98.2224 139.507 97.4598 138.373 96.9006 137.555C96.342 136.737 95.9946 136.23 96.0306 136.203C96.063 136.177 96.4728 136.637 97.0794 137.425C97.686 138.213 98.4828 139.335 99.2874 140.623C100.091 141.911 100.749 143.119 101.19 144.01C101.633 144.901 101.866 145.471 101.829 145.489Z" fill="white"/>
</svg>
