<svg width="32" height="32" viewBox="0 0 32 32" fill="none" xmlns="http://www.w3.org/2000/svg">
<g id="entypo-social:linkedin-with-circle">
<path id="Vector" d="M16.0001 0.639648C7.51694 0.639648 0.640137 7.51645 0.640137 15.9996C0.640137 24.4828 7.51694 31.3596 16.0001 31.3596C24.4833 31.3596 31.3601 24.4828 31.3601 15.9996C31.3601 7.51645 24.4833 0.639648 16.0001 0.639648ZM12.2401 22.366H9.12974V12.3564H12.2401V22.366ZM10.6657 11.1276C9.68334 11.1276 9.04814 10.4316 9.04814 9.57085C9.04814 8.69245 9.70254 8.01725 10.7057 8.01725C11.7089 8.01725 12.3233 8.69245 12.3425 9.57085C12.3425 10.4316 11.7089 11.1276 10.6657 11.1276ZM23.6001 22.366H20.4897V16.8188C20.4897 15.5276 20.0385 14.6508 18.9137 14.6508C18.0545 14.6508 17.5441 15.2444 17.3185 15.8156C17.2353 16.0189 17.2145 16.3068 17.2145 16.5932V22.3644H14.1025V15.5484C14.1025 14.2988 14.0625 13.254 14.0209 12.3548H16.7233L16.8657 13.7452H16.9281C17.3377 13.0924 18.3409 12.1292 20.0193 12.1292C22.0657 12.1292 23.6001 13.5004 23.6001 16.4476V22.366Z" fill="#006E7C" fill-opacity="0.5"/>
</g>
</svg>
