<svg width="50" height="64" viewBox="0 0 50 64" fill="none" xmlns="http://www.w3.org/2000/svg">
<g id="Group 6">
<path id="Vector" d="M42.8204 10.1274C42.1508 10.0654 40.4209 10.4766 41.0491 8.76992C42.0376 6.08751 43.0266 3.40572 44.0161 0.724565C44.2202 0.172562 44.5917 -0.249886 45.0923 0.170688C45.2815 0.328403 45.3755 0.529301 45.3745 0.773384C45.3692 2.31674 45.3702 3.85947 45.3777 5.40157C45.3787 5.47167 45.4085 5.50734 45.467 5.50859C46.2019 5.53113 47.9015 5.20631 47.259 6.9393C46.2705 9.60668 45.2804 12.2728 44.2888 14.9377C43.9699 15.7939 42.9878 15.9084 42.9591 14.857C42.9166 13.3186 42.9001 11.7797 42.9097 10.2401C42.9097 10.17 42.8799 10.1324 42.8204 10.1274ZM43.5809 8.56526C43.75 8.56526 43.9122 8.64439 44.0318 8.78523C44.1514 8.92608 44.2186 9.11711 44.2186 9.31629V10.9066C44.218 10.9191 44.2212 10.9312 44.2277 10.9409C44.2341 10.9507 44.2434 10.9574 44.2538 10.9598C44.2643 10.9623 44.2752 10.9604 44.2848 10.9544C44.2944 10.9485 44.302 10.9388 44.3063 10.9272L45.687 7.23783C45.7167 7.16022 45.6955 7.11891 45.6232 7.11391C45.2422 7.09138 44.7766 7.18338 44.4801 7.00126C43.8599 6.62199 44.0432 5.28892 44.0974 4.59422C44.0991 4.58182 44.0967 4.56929 44.0909 4.55901C44.0851 4.54873 44.0761 4.5414 44.0657 4.5384C44.0553 4.5354 44.0442 4.53694 44.0345 4.54272C44.0248 4.54851 44.0171 4.55814 44.0129 4.56981L42.5892 8.45824C42.5626 8.52959 42.5828 8.56526 42.6498 8.56526H43.5809Z" fill="#00485E"/>
<path id="Vector_2" d="M36.1693 43.1662C34.532 40.1283 30.5781 40.5207 29.5513 43.9736C29.393 44.5068 29.3132 45.3911 29.3122 46.6265C29.3111 49.8985 29.3101 53.1705 29.309 56.4424C29.309 61.7034 24.9055 65.4641 20.6471 63.4457C18.1042 62.2403 16.7299 59.4409 16.7203 56.219C16.715 53.9785 16.7145 51.7398 16.7187 49.503C16.7187 49.4771 16.7101 49.4522 16.6949 49.4339C16.6796 49.4156 16.659 49.4053 16.6374 49.4053C15.9136 49.3997 15.0989 49.441 14.4245 49.2082C11.6743 48.2619 10.3909 45.8023 10.4148 42.5222C10.4339 39.6458 10.4414 36.7712 10.4371 33.8986C10.4244 25.4082 6.15479 18.3786 0.222354 13.9908C0.180721 13.9613 0.146986 13.9183 0.125098 13.8668C-0.198547 13.1365 0.133073 12.592 0.805873 12.6032C4.8076 12.6758 8.41553 14.104 11.6297 16.8878C11.6796 16.9316 11.7067 16.9166 11.711 16.8428C11.7694 15.8539 11.8433 14.8807 11.9326 13.9232C12.3227 9.78503 13.4631 5.92976 15.354 2.35739C16.3393 0.494848 18.3098 0.810281 19.209 2.53576C21.1924 6.33595 22.3397 10.4697 22.6511 14.9371C22.6798 15.3614 22.6878 16.1931 22.7452 16.8202C22.7516 16.8928 22.7798 16.9079 22.8297 16.8653C25.3445 14.7349 28.1223 13.3806 31.1632 12.8023C31.9843 12.6464 32.9361 12.6652 33.8161 12.6032C34.3183 12.5695 34.6037 13.2322 34.4092 13.6904C34.3454 13.8431 34.1823 14.0139 33.9198 14.2029C28.904 17.8041 24.9948 23.7316 24.2024 30.6936C24.1068 31.5322 24.0573 32.7808 24.0541 34.4393C24.0488 37.3145 24.0478 40.1896 24.051 43.0648C24.0541 46.9439 21.3693 49.6231 18.1201 49.3941C18.0616 49.3903 18.0324 49.4229 18.0324 49.4917C18.0314 51.2504 18.0308 53.0027 18.0308 54.7489C18.0298 56.515 18.1143 57.7261 18.2843 58.382C19.6762 63.7649 26.3531 63.718 27.7529 58.3087C27.9124 57.6904 27.9926 56.6477 27.9937 55.1807C27.9979 51.9413 27.999 48.7006 27.9969 45.4587C27.9953 41.6829 30.9224 38.8966 34.076 39.6965C36.3909 40.2841 37.9103 42.4865 38.0267 45.286C38.0618 46.1478 37.9358 47.5409 38.2005 48.4234C39.0359 51.2022 42.4525 51.3486 43.3182 48.4572C43.4128 48.1392 43.4638 47.6655 43.4713 47.0359C43.5095 43.5574 43.517 40.0882 43.4936 36.6285C43.4931 36.6042 43.4855 36.5809 43.4721 36.5627C43.4587 36.5445 43.4403 36.5326 43.4203 36.529C40.7439 36.0646 39.0986 34.428 38.4843 31.6192C38.3418 30.9671 38.2722 30.0151 38.2754 28.7634C38.2839 25.6191 38.2844 22.483 38.277 19.355C38.2768 19.251 38.294 19.148 38.3276 19.0519C38.3613 18.9558 38.4107 18.8684 38.473 18.7948C38.5354 18.7212 38.6094 18.6628 38.691 18.623C38.7725 18.5831 38.8599 18.5626 38.9482 18.5626H40.7912C40.8582 18.5626 40.8906 18.5232 40.8885 18.4443C40.8587 16.8897 40.8545 15.8195 40.8757 15.2337C40.9108 14.2762 42.1767 14.1748 42.2086 15.4064C42.2341 16.4191 42.2346 17.4323 42.2102 18.4462C42.2081 18.5238 42.2399 18.5626 42.3058 18.5626H46.0094C46.0299 18.5626 46.0495 18.5532 46.0641 18.5364C46.0787 18.5195 46.0871 18.4966 46.0875 18.4725C46.0971 17.4799 46.0998 16.4961 46.0955 15.521C46.0891 14.1184 47.414 14.2029 47.4092 15.4196C47.405 16.4372 47.405 17.4542 47.4092 18.4706C47.4103 18.532 47.4369 18.5626 47.489 18.5626H49.4117C49.4889 18.5626 49.5653 18.5806 49.6366 18.6154C49.7079 18.6502 49.7726 18.7013 49.8271 18.7657C49.8816 18.83 49.9248 18.9064 49.9542 18.9905C49.9836 19.0745 49.9986 19.1646 49.9984 19.2554C49.9973 22.3497 49.9979 25.4758 50 28.6339C50.0011 30.1071 49.9235 31.1748 49.7672 31.837C49.0833 34.7303 47.3247 35.962 44.8982 36.5196C44.8451 36.5322 44.8185 36.5709 44.8185 36.636C44.8185 40.1408 44.8148 43.6444 44.8073 47.1466C44.8041 48.4797 44.4768 49.59 43.8252 50.4774C41.7638 53.2844 37.7812 52.3644 36.8947 48.7557C36.434 46.8781 37.1132 44.9161 36.1693 43.1662ZM13.2893 17.8529C14.2985 17.4924 15.3396 18.7372 14.128 19.3099C14.1188 19.3143 14.1106 19.3212 14.1041 19.33C14.0976 19.3388 14.0929 19.3493 14.0905 19.3606C14.088 19.3719 14.0878 19.3837 14.0899 19.3951C14.0919 19.4065 14.0962 19.4172 14.1024 19.4263L15.9279 22.053C15.9524 22.0881 15.972 22.0849 15.9869 22.0436C16.5736 20.4646 18.5904 21.8878 17.5159 22.7778C17.2241 23.0181 16.7777 22.9355 16.4238 22.8848C16.3664 22.8773 16.3515 22.9036 16.3791 22.9636L17.1906 24.7192C17.1966 24.7314 17.2053 24.7415 17.2157 24.7485C17.2262 24.7554 17.238 24.7589 17.2499 24.7585C17.2617 24.7581 17.2732 24.7539 17.283 24.7463C17.2928 24.7387 17.3005 24.728 17.3054 24.7154C18.296 22.2771 19.6406 20.151 21.339 18.3373C21.3805 18.2923 21.4023 18.2359 21.4044 18.1683C21.5192 13.1928 20.5626 8.54521 18.5346 4.22557C17.9926 3.06899 17.2082 1.70212 16.2882 3.49707C15.2488 5.52609 14.4553 7.67026 13.9079 9.92959C13.9043 9.94456 13.9036 9.96033 13.9059 9.97567C13.9082 9.99101 13.9135 10.0055 13.9214 10.018C13.9293 10.0306 13.9395 10.0408 13.9512 10.0479C13.963 10.0551 13.976 10.0589 13.9892 10.0591C15.1276 10.0591 15.0526 11.6851 14.0833 11.6682C13.8899 11.6657 13.7416 11.6632 13.6385 11.6607C13.5726 11.6595 13.5343 11.697 13.5237 11.7734L13.2511 13.5796C13.2404 13.6459 13.2644 13.6791 13.3228 13.6791C13.841 13.681 15.2902 13.5214 15.676 13.8744C16.1336 14.2931 15.8849 15.245 15.2201 15.2318C14.5419 15.2206 13.8606 15.2224 13.1761 15.2375C13.123 15.2387 13.0959 15.27 13.0948 15.3313L13.0374 17.6276C13.0366 17.664 13.0431 17.7001 13.0564 17.733C13.0698 17.7658 13.0896 17.7945 13.1142 17.8165C13.1389 17.8385 13.1676 17.8533 13.198 17.8596C13.2285 17.866 13.2598 17.8637 13.2893 17.8529ZM16.4955 26.7732C14.2603 20.1323 9.16964 15.474 3.19734 14.3775C3.18453 14.3758 3.17158 14.379 3.16047 14.3867C3.14935 14.3944 3.14069 14.4062 3.13581 14.4202C3.13093 14.4343 3.13009 14.4498 3.13342 14.4645C3.13676 14.4792 3.14409 14.4922 3.15429 14.5015C7.87346 18.5833 11.5053 25.5434 11.703 32.5974C11.7519 34.331 11.762 37.6236 11.7333 42.4753C11.7158 45.5319 13.0916 47.8601 15.8785 47.8545C16.7809 47.852 17.6838 47.8513 18.5872 47.8526C20.4574 47.8526 21.9496 46.7035 22.522 44.6044C22.6666 44.0724 22.7383 43.2864 22.7372 42.2462C22.7341 39.5513 22.7341 36.8551 22.7372 34.1577C22.7394 32.5755 22.7973 31.3269 22.911 30.4119C23.5838 25.0271 25.7569 20.5998 29.0013 16.7414C29.6342 15.9885 30.4633 15.23 31.227 14.4921C31.3088 14.412 31.2971 14.3819 31.1919 14.4019C23.6906 15.8458 18.0292 22.5431 16.9068 31.3995C16.7442 32.695 15.4879 32.3308 15.5644 31.5647C15.7239 29.9863 16.0347 28.448 16.4971 26.9497C16.5152 26.8909 16.5146 26.832 16.4955 26.7732ZM48.6847 20.198C48.6847 20.1866 48.6828 20.1754 48.6791 20.1649C48.6754 20.1545 48.67 20.1449 48.6632 20.1369C48.6564 20.1289 48.6483 20.1225 48.6394 20.1182C48.6305 20.1138 48.621 20.1116 48.6113 20.1116H39.6704C39.6608 20.1116 39.6513 20.1138 39.6424 20.1182C39.6335 20.1225 39.6254 20.1289 39.6186 20.1369C39.6118 20.1449 39.6064 20.1545 39.6027 20.1649C39.599 20.1754 39.5971 20.1866 39.5971 20.198V22.6538C39.5971 22.6652 39.599 22.6764 39.6027 22.6869C39.6064 22.6974 39.6118 22.7069 39.6186 22.7149C39.6254 22.7229 39.6335 22.7293 39.6424 22.7336C39.6513 22.738 39.6608 22.7402 39.6704 22.7402H48.6113C48.621 22.7402 48.6305 22.738 48.6394 22.7336C48.6483 22.7293 48.6564 22.7229 48.6632 22.7149C48.67 22.7069 48.6754 22.6974 48.6791 22.6869C48.6828 22.6764 48.6847 22.6652 48.6847 22.6538V20.198ZM39.8809 31.7675C40.4357 33.4968 41.7925 34.7791 43.3852 34.9275C45.7591 35.1471 47.7568 34.2478 48.471 31.4896C48.6198 30.9139 48.6921 30.0145 48.6879 28.7916C48.6826 27.3271 48.6815 25.8582 48.6847 24.3849C48.6847 24.3211 48.657 24.2892 48.6018 24.2892H39.6768C39.6581 24.2892 39.64 24.2978 39.6266 24.3133C39.6132 24.3287 39.6055 24.3497 39.6051 24.3718C39.5817 26.0566 39.5833 27.747 39.6099 29.4431C39.6269 30.4833 39.7172 31.2581 39.8809 31.7675Z" fill="#00485E"/>
<path id="Vector_3" d="M16.3842 6.50416L15.6859 6.50559C15.3513 6.50628 15.0806 6.82627 15.0811 7.22031L15.0813 7.32921C15.0819 7.72325 15.3536 8.04212 15.6882 8.04143L16.3865 8.04C16.7211 8.03931 16.9919 7.71932 16.9913 7.32528L16.9911 7.21638C16.9905 6.82234 16.7188 6.50347 16.3842 6.50416Z" fill="#00485E"/>
<path id="Vector_4" d="M16.4068 11.6631C16.8436 11.6613 17.1965 11.3035 17.1952 10.8638C17.1939 10.4241 16.8388 10.0692 16.4021 10.071C15.9654 10.0728 15.6124 10.4306 15.6137 10.8703C15.615 11.31 15.9701 11.6649 16.4068 11.6631Z" fill="#00485E"/>
<path id="Vector_5" d="M18.5106 13.6807L17.2926 13.6982C16.9528 13.7031 16.6806 14.0315 16.6848 14.4317L16.6857 14.5181C16.6898 14.9183 16.9687 15.2388 17.3085 15.2339L18.5265 15.2164C18.8664 15.2115 19.1385 14.8831 19.1343 14.4828L19.1334 14.3965C19.1293 13.9963 18.8504 13.6758 18.5106 13.6807Z" fill="#00485E"/>
<path id="Vector_6" d="M16.3154 19.3863C16.8173 19.3791 17.2204 19.0151 17.2158 18.5734C17.2112 18.1317 16.8007 17.7795 16.2988 17.7867C15.797 17.794 15.3939 18.1579 15.3984 18.5996C15.403 19.0413 15.8136 19.3935 16.3154 19.3863Z" fill="#00485E"/>
<path id="Vector_7" d="M16.1686 32.6863L16.0858 32.6815C15.7499 32.6622 15.4642 32.9672 15.4478 33.3629L15.4023 34.458C15.3859 34.8537 15.6449 35.1901 15.9809 35.2095L16.0637 35.2142C16.3996 35.2336 16.6853 34.9285 16.7017 34.5329L16.7472 33.4377C16.7636 33.0421 16.5046 32.7056 16.1686 32.6863Z" fill="#00485E"/>
<path id="Vector_8" d="M16.0755 35.7982L15.9833 35.8066C15.6436 35.8373 15.3894 36.1867 15.4155 36.5868L15.4688 37.403C15.495 37.8031 15.7916 38.1025 16.1313 38.0717L16.2235 38.0634C16.5633 38.0326 16.8175 37.6833 16.7914 37.2831L16.7381 36.4669C16.7119 36.0668 16.4153 35.7674 16.0755 35.7982Z" fill="#00485E"/>
</g>
</svg>
