<svg width="340" height="340" viewBox="0 0 340 340" fill="none" xmlns="http://www.w3.org/2000/svg">
<path d="M307.152 276.443C305.952 278.409 304.706 280.337 303.408 282.219C286.124 307.272 258.002 323.999 230.907 331.2C219.037 334.361 206.895 335.859 194.81 336.008C115.54 336.948 88.2237 268.047 63.1667 249.813C38.1098 231.579 -0.261961 200.549 6.29363 137.635C11.2705 89.7998 38.5914 44.6486 86.8533 25.0352C92.1691 22.8681 97.7439 21.0114 103.569 19.503C114.405 16.6953 126.114 15.0598 138.689 14.8041C174.811 14.0662 203.868 23.9056 231.927 47.507C238.449 52.9932 244.918 59.1579 253.544 60.0399C259.815 60.6811 265.833 58.4801 259.431 51.9725C251.907 44.3232 261.194 29.9066 280.522 40.5943C312.804 58.4449 325.31 95.4686 330.681 132.925C337.273 178.901 332.018 235.727 307.152 276.443Z" fill="#92E3A9"/>
<path opacity="0.7" d="M307.152 276.443C305.952 278.409 304.706 280.337 303.408 282.219C286.124 307.272 258.002 323.999 230.907 331.2C219.037 334.361 206.895 335.859 194.81 336.008C115.54 336.948 88.2237 268.047 63.1667 249.813C38.1098 231.579 -0.261961 200.549 6.29363 137.635C11.2705 89.7998 38.5914 44.6486 86.8533 25.0352C92.1691 22.8681 97.7439 21.0114 103.569 19.503C114.405 16.6953 126.114 15.0598 138.689 14.8041C174.811 14.0662 203.868 23.9056 231.927 47.507C238.449 52.9932 244.918 59.1579 253.544 60.0399C259.815 60.6811 265.833 58.4801 259.431 51.9725C251.907 44.3232 261.194 29.9066 280.522 40.5943C312.804 58.4449 325.31 95.4686 330.681 132.925C337.273 178.901 332.018 235.727 307.152 276.443Z" fill="white"/>
<path d="M258.678 303.103L233.599 308.436C231.704 308.839 229.84 307.629 229.437 305.734L218.324 253.475C217.92 251.58 219.13 249.716 221.026 249.313L246.104 243.98C248 243.577 249.863 244.787 250.266 246.682L261.381 298.941C261.783 300.836 260.573 302.699 258.678 303.103Z" stroke="#263238" stroke-miterlimit="10" stroke-linecap="round" stroke-linejoin="round"/>
<path d="M238.503 250.462L248.982 248.233L259.576 298.047L230.722 304.183L220.127 254.37L235.345 251.134" stroke="#263238" stroke-miterlimit="10" stroke-linecap="round" stroke-linejoin="round"/>
<path d="M301.217 294.057L276.138 299.39C274.243 299.793 272.38 298.583 271.976 296.688L260.862 244.429C260.459 242.534 261.669 240.67 263.564 240.267L288.643 234.934C290.538 234.531 292.402 235.741 292.805 237.636L303.919 289.895C304.322 291.79 303.112 293.654 301.217 294.057Z" stroke="#263238" stroke-miterlimit="10" stroke-linecap="round" stroke-linejoin="round"/>
<path d="M291.262 291.309L273.26 295.137L262.666 245.324L291.52 239.188L302.114 289L294.201 290.683" stroke="#263238" stroke-miterlimit="10" stroke-linecap="round" stroke-linejoin="round"/>
<path d="M272.47 233.828L269.681 224.537L267.254 227.114C262.654 224.304 257.09 223.335 251.796 224.461C241.941 226.557 234.885 235.379 235.018 245.44C235.028 246.186 235.641 246.783 236.387 246.773C236.477 246.772 236.567 246.762 236.652 246.744C237.269 246.613 237.729 246.06 237.72 245.405C237.605 236.63 243.761 228.934 252.359 227.105C256.862 226.147 261.417 226.87 265.357 229.129L263.03 231.6L272.47 233.828Z" fill="#263238"/>
<path d="M248.884 310.766L251.674 320.057L254.1 317.481C258.701 320.29 264.264 321.259 269.558 320.134C279.413 318.037 286.469 309.215 286.337 299.155C286.327 298.409 285.714 297.811 284.968 297.821C284.877 297.823 284.788 297.833 284.703 297.851C284.085 297.982 283.625 298.534 283.634 299.19C283.75 307.965 277.594 315.661 268.995 317.49C264.492 318.447 259.937 317.724 255.997 315.465L258.325 312.994L248.884 310.766Z" fill="#263238"/>
<path d="M229.734 257.918L223.949 259.148L225.179 264.933L230.964 263.703L229.734 257.918Z" stroke="#263238" stroke-miterlimit="10" stroke-linecap="round" stroke-linejoin="round"/>
<path d="M238.409 256.076L232.624 257.307L233.855 263.092L239.639 261.861L238.409 256.076Z" stroke="#263238" stroke-miterlimit="10" stroke-linecap="round" stroke-linejoin="round"/>
<path d="M247.087 254.231L241.302 255.461L242.533 261.246L248.318 260.016L247.087 254.231Z" stroke="#263238" stroke-miterlimit="10" stroke-linecap="round" stroke-linejoin="round"/>
<path d="M231.686 267.11L225.901 268.34L227.131 274.125L232.916 272.894L231.686 267.11Z" stroke="#263238" stroke-miterlimit="10" stroke-linecap="round" stroke-linejoin="round"/>
<path d="M240.363 265.264L234.578 266.494L235.809 272.279L241.593 271.049L240.363 265.264Z" stroke="#263238" stroke-miterlimit="10" stroke-linecap="round" stroke-linejoin="round"/>
<path d="M249.043 263.416L243.259 264.646L244.489 270.431L250.274 269.201L249.043 263.416Z" stroke="#263238" stroke-miterlimit="10" stroke-linecap="round" stroke-linejoin="round"/>
<path d="M233.639 276.298L227.855 277.528L229.085 283.313L234.87 282.083L233.639 276.298Z" stroke="#263238" stroke-miterlimit="10" stroke-linecap="round" stroke-linejoin="round"/>
<path d="M242.319 274.449L236.534 275.68L237.764 281.465L243.549 280.234L242.319 274.449Z" stroke="#263238" stroke-miterlimit="10" stroke-linecap="round" stroke-linejoin="round"/>
<path d="M250.996 272.605L245.211 273.835L246.442 279.62L252.226 278.39L250.996 272.605Z" stroke="#263238" stroke-miterlimit="10" stroke-linecap="round" stroke-linejoin="round"/>
<path d="M272.442 248.837L266.657 250.067L267.887 255.852L273.672 254.622L272.442 248.837Z" stroke="#263238" stroke-miterlimit="10" stroke-linecap="round" stroke-linejoin="round"/>
<path d="M281.12 246.991L275.335 248.221L276.565 254.006L282.35 252.775L281.12 246.991Z" stroke="#263238" stroke-miterlimit="10" stroke-linecap="round" stroke-linejoin="round"/>
<path d="M289.795 245.149L284.011 246.379L285.241 252.164L291.026 250.934L289.795 245.149Z" stroke="#263238" stroke-miterlimit="10" stroke-linecap="round" stroke-linejoin="round"/>
<path d="M274.395 258.025L268.611 259.255L269.841 265.04L275.626 263.81L274.395 258.025Z" stroke="#263238" stroke-miterlimit="10" stroke-linecap="round" stroke-linejoin="round"/>
<path d="M283.071 256.183L277.286 257.413L278.517 263.198L284.301 261.968L283.071 256.183Z" stroke="#263238" stroke-miterlimit="10" stroke-linecap="round" stroke-linejoin="round"/>
<path d="M291.749 254.338L285.964 255.568L287.195 261.353L292.979 260.123L291.749 254.338Z" stroke="#263238" stroke-miterlimit="10" stroke-linecap="round" stroke-linejoin="round"/>
<path d="M276.348 267.215L270.563 268.445L271.793 274.23L277.578 273L276.348 267.215Z" stroke="#263238" stroke-miterlimit="10" stroke-linecap="round" stroke-linejoin="round"/>
<path d="M285.025 265.371L279.24 266.602L280.471 272.386L286.255 271.156L285.025 265.371Z" stroke="#263238" stroke-miterlimit="10" stroke-linecap="round" stroke-linejoin="round"/>
<path d="M293.705 263.522L287.92 264.752L289.151 270.537L294.936 269.307L293.705 263.522Z" stroke="#263238" stroke-miterlimit="10" stroke-linecap="round" stroke-linejoin="round"/>
<path d="M302.599 146.862L306.679 141.339L304.19 141.058C303.829 137.259 302.018 133.696 299.134 131.174C293.764 126.48 285.772 126.227 280.129 130.57C279.711 130.893 279.632 131.493 279.954 131.912C279.994 131.962 280.037 132.009 280.084 132.05C280.42 132.344 280.928 132.37 281.296 132.087C286.218 128.298 293.19 128.52 297.875 132.615C300.328 134.76 301.851 137.648 302.243 140.839L299.855 140.569L302.599 146.862Z" fill="#263238"/>
<path d="M257.419 154.664L253.339 160.187L255.828 160.468C256.189 164.267 258 167.83 260.884 170.352C266.253 175.046 274.246 175.299 279.889 170.956C280.307 170.633 280.385 170.033 280.063 169.614C280.024 169.564 279.981 169.517 279.934 169.476C279.598 169.182 279.089 169.156 278.721 169.439C273.799 173.228 266.827 173.006 262.142 168.911C259.689 166.766 258.166 163.879 257.774 160.687L260.162 160.957L257.419 154.664Z" fill="#263238"/>
<path d="M253.229 131.327C256.194 127.249 261.004 124.597 266.433 124.597C275.443 124.597 282.746 131.9 282.746 140.911C282.746 149.921 275.443 157.224 266.433 157.224C257.422 157.224 250.119 149.921 250.119 140.911C250.119 139.12 250.407 137.397 250.94 135.785" stroke="#263238" stroke-miterlimit="10" stroke-linecap="round" stroke-linejoin="round"/>
<path d="M275.938 150.42C281.189 145.169 281.189 136.655 275.938 131.404C270.687 126.153 262.173 126.153 256.922 131.404C251.67 136.655 251.67 145.169 256.922 150.42C262.173 155.671 270.687 155.671 275.938 150.42Z" stroke="#263238" stroke-miterlimit="10" stroke-linecap="round" stroke-linejoin="round"/>
<path d="M266.55 152.418V150.127C264.96 150.05 263.768 149.536 262.974 148.587C262.18 147.638 261.751 146.177 261.69 144.201L265.231 143.669C265.246 144.471 265.315 145.119 265.439 145.613C265.562 146.108 265.744 146.462 265.983 146.678C266.222 146.894 266.511 147.002 266.851 147.002C267.282 147.002 267.564 146.856 267.696 146.561C267.827 146.268 267.892 145.96 267.892 145.635C267.892 144.864 267.711 144.212 267.349 143.68C266.985 143.148 266.488 142.612 265.856 142.071L264.212 140.66C263.75 140.243 263.33 139.815 262.951 139.375C262.573 138.935 262.268 138.426 262.037 137.848C261.806 137.27 261.69 136.579 261.69 135.776C261.69 134.311 262.11 133.161 262.951 132.327C263.791 131.494 264.922 131.024 266.342 130.916V128.717H267.522V130.892C268.417 130.939 269.135 131.143 269.675 131.506C270.215 131.869 270.62 132.315 270.89 132.848C271.159 133.381 271.345 133.944 271.446 134.538C271.546 135.132 271.604 135.683 271.619 136.192L268.032 136.633C268.016 136.077 267.982 135.591 267.928 135.174C267.874 134.758 267.766 134.438 267.604 134.214C267.441 133.991 267.183 133.886 266.828 133.901C266.442 133.901 266.157 134.063 265.972 134.387C265.788 134.712 265.694 135.035 265.694 135.36C265.694 136.1 265.883 136.698 266.261 137.153C266.639 137.609 267.052 138.037 267.499 138.438L269.073 139.803C269.598 140.282 270.081 140.791 270.52 141.33C270.961 141.871 271.311 142.473 271.573 143.135C271.836 143.799 271.967 144.563 271.967 145.427C271.967 146.245 271.797 146.994 271.458 147.672C271.118 148.351 270.633 148.902 270 149.327C269.368 149.752 268.611 150.01 267.732 150.102V152.417H266.55V152.418Z" stroke="#263238" stroke-miterlimit="10"/>
<path d="M309.177 164.496C311.226 155.722 305.774 146.949 297 144.9C288.226 142.851 279.453 148.303 277.404 157.076C275.355 165.85 280.807 174.624 289.58 176.673C298.354 178.722 307.128 173.27 309.177 164.496Z" stroke="#263238" stroke-miterlimit="10" stroke-linecap="round" stroke-linejoin="round"/>
<path d="M305.697 165.984C303.664 170.83 298.875 174.233 293.291 174.233C285.865 174.233 279.844 168.213 279.844 160.787C279.844 153.36 285.865 147.34 293.291 147.34C300.717 147.34 306.738 153.36 306.738 160.787" stroke="#263238" stroke-miterlimit="10" stroke-linecap="round" stroke-linejoin="round"/>
<path d="M293.408 172.293V170.001C291.818 169.924 290.627 169.411 289.833 168.462C289.038 167.513 288.61 166.051 288.548 164.076L292.089 163.544C292.105 164.346 292.173 164.994 292.297 165.488C292.42 165.982 292.602 166.337 292.841 166.552C293.08 166.769 293.369 166.877 293.709 166.877C294.14 166.877 294.422 166.731 294.554 166.437C294.685 166.144 294.751 165.835 294.751 165.511C294.751 164.74 294.569 164.088 294.207 163.556C293.844 163.024 293.346 162.488 292.714 161.947L291.07 160.536C290.608 160.119 290.187 159.691 289.81 159.251C289.431 158.811 289.126 158.302 288.895 157.723C288.664 157.145 288.548 156.454 288.548 155.652C288.548 154.187 288.968 153.037 289.81 152.203C290.65 151.37 291.78 150.9 293.2 150.792V148.593H294.381V150.768C295.275 150.815 295.993 151.019 296.534 151.382C297.073 151.744 297.478 152.191 297.748 152.723C298.018 153.256 298.204 153.82 298.304 154.414C298.404 155.008 298.462 155.559 298.477 156.068L294.89 156.509C294.874 155.953 294.84 155.467 294.786 155.05C294.732 154.634 294.624 154.314 294.462 154.09C294.299 153.867 294.041 153.762 293.687 153.777C293.3 153.777 293.015 153.939 292.83 154.263C292.646 154.587 292.553 154.911 292.553 155.236C292.553 155.976 292.742 156.574 293.12 157.029C293.498 157.485 293.91 157.913 294.358 158.314L295.932 159.679C296.456 160.158 296.939 160.667 297.379 161.207C297.819 161.747 298.17 162.349 298.432 163.012C298.695 163.676 298.826 164.439 298.826 165.304C298.826 166.121 298.656 166.87 298.317 167.549C297.977 168.228 297.491 168.779 296.859 169.204C296.226 169.629 295.47 169.886 294.591 169.979V172.294H293.408V172.293Z" stroke="#263238" stroke-miterlimit="10"/>
<path d="M78.8968 57.1079L66.115 48.4115C64.7663 47.4936 64.4166 45.6566 65.3345 44.3078L77.8139 25.9654C78.7318 24.6167 80.5689 24.267 81.9176 25.1849L113.78 46.8632C115.128 47.7811 115.477 49.6182 114.56 50.9669L102.081 69.3093C101.163 70.6581 99.3259 71.0071 97.9772 70.0899L82.2964 59.4205" stroke="#263238" stroke-miterlimit="10" stroke-linecap="round" stroke-linejoin="round"/>
<path d="M76.6438 27.6808L72.1626 34.2676L108.91 59.2679L113.391 52.6812L76.6438 27.6808Z" fill="#263238" stroke="#263238" stroke-miterlimit="10" stroke-linecap="round" stroke-linejoin="round"/>
<path d="M124.311 66.3664C124.245 66.3367 124.179 66.3089 124.115 66.2778C123.098 65.7786 122.99 64.3751 123.927 63.7326C124.833 63.1123 125.677 62.421 126.437 61.6283C127.842 60.1626 128.906 58.4797 129.636 56.5858C130.071 55.4576 130.371 54.2921 130.518 53.0922C130.971 49.3917 130.192 45.9705 128.162 42.8401C127.984 42.5649 127.861 42.2787 127.856 41.9473C127.846 41.2986 128.269 40.7136 128.888 40.5188C129.512 40.3219 130.185 40.5519 130.551 41.0944C131.084 41.8824 131.548 42.7103 131.947 43.5734C133.015 45.888 133.566 48.3216 133.611 50.8696C133.629 51.9031 133.555 52.9312 133.39 53.9526C133.384 53.9891 133.386 54.0277 133.384 54.0649C133.304 54.47 133.223 54.8752 133.143 55.2797C133.128 55.325 133.112 55.3703 133.099 55.4156C132.953 55.9243 132.823 56.439 132.657 56.9416C132.213 58.2822 131.608 59.5491 130.858 60.7456C129.487 62.931 127.727 64.7384 125.586 66.1743C125.339 66.34 125.067 66.4219 124.77 66.4266C124.726 66.4273 124.682 66.4293 124.637 66.4307C124.527 66.409 124.419 66.3881 124.311 66.3664Z" fill="#263238"/>
<path d="M127.988 53.6577C127.26 57.06 125.462 59.7838 122.559 61.769C122.066 62.1059 121.451 62.1011 120.97 61.7684C120.496 61.441 120.271 60.8552 120.409 60.2898C120.496 59.934 120.698 59.6553 121.002 59.4504C121.721 58.9654 122.371 58.3999 122.943 57.7465C123.882 56.6731 124.577 55.4597 124.981 54.0906C125.87 51.078 125.475 48.2385 123.774 45.5958C123.315 44.8822 123.511 44.0029 124.173 43.5883C124.818 43.1852 125.653 43.3685 126.081 44.0117C127.053 45.4741 127.707 47.0663 128.027 48.7945C128.275 50.1378 128.307 51.4858 128.116 52.8393C128.079 53.1011 128.034 53.3622 127.988 53.6577Z" fill="#263238"/>
<path d="M123.045 52.6401C122.603 54.724 121.516 56.3798 119.754 57.5838C119.279 57.9078 118.771 57.9328 118.273 57.6481C117.783 57.3681 117.549 56.923 117.578 56.3589C117.601 55.9043 117.815 55.5452 118.191 55.2895C118.786 54.885 119.293 54.3926 119.654 53.7703C120.693 51.9745 120.688 50.1767 119.608 48.3977C119.396 48.0494 119.284 47.695 119.364 47.2905C119.472 46.7406 119.898 46.3124 120.447 46.1988C120.993 46.0858 121.558 46.3097 121.871 46.7771C122.668 47.9669 123.109 49.2784 123.186 50.7096C123.221 51.3583 123.172 52.0016 123.045 52.6401Z" fill="#263238"/>
<path d="M16.0253 138.996H22.9204L31.6466 167.426H55.9703" stroke="#263238" stroke-width="2" stroke-miterlimit="10" stroke-linecap="round" stroke-linejoin="round"/>
<path d="M25.0489 145.473H61.3833L57.0889 161.328H30.0035" stroke="#263238" stroke-width="2" stroke-miterlimit="10" stroke-linecap="round" stroke-linejoin="round"/>
<path d="M37.3614 145.672L38.9252 160.892" stroke="#263238" stroke-width="2" stroke-miterlimit="10" stroke-linecap="round" stroke-linejoin="round"/>
<path d="M48.8708 145.672L47.3077 160.892" stroke="#263238" stroke-width="2" stroke-miterlimit="10" stroke-linecap="round" stroke-linejoin="round"/>
<path d="M55.4896 174.826C57.5274 174.826 59.1793 173.174 59.1793 171.136C59.1793 169.098 57.5274 167.446 55.4896 167.446C53.4518 167.446 51.7999 169.098 51.7999 171.136C51.7999 173.174 53.4518 174.826 55.4896 174.826Z" stroke="#263238" stroke-width="2" stroke-miterlimit="10" stroke-linecap="round" stroke-linejoin="round"/>
<path d="M33.0303 174.826C35.0681 174.826 36.72 173.174 36.72 171.136C36.72 169.098 35.0681 167.446 33.0303 167.446C30.9925 167.446 29.3406 169.098 29.3406 171.136C29.3406 173.174 30.9925 174.826 33.0303 174.826Z" stroke="#263238" stroke-width="2" stroke-miterlimit="10" stroke-linecap="round" stroke-linejoin="round"/>
<path d="M27.5763 153.972H59.1794" stroke="#263238" stroke-width="2" stroke-miterlimit="10" stroke-linecap="round" stroke-linejoin="round"/>
<path d="M66.313 157.09C73.7898 157.09 79.851 151.028 79.851 143.552C79.851 136.075 73.7898 130.014 66.313 130.014C58.8362 130.014 52.775 136.075 52.775 143.552C52.775 151.028 58.8362 157.09 66.313 157.09Z" fill="#263238"/>
<path d="M62.4483 142.597L64.9875 147.041L73.8753 138.153" stroke="white" stroke-width="3" stroke-miterlimit="10" stroke-linecap="round" stroke-linejoin="round"/>
<path d="M127.808 84.7779C127.808 84.7779 123.104 85.8466 122.891 90.9777C122.677 96.1088 121.608 134.378 123.318 176.495C125.029 218.613 128.877 266.075 129.518 270.565C130.159 275.054 133.794 275.268 135.076 275.909C136.359 276.551 156.028 278.048 167.573 278.048C179.118 278.048 197.932 275.909 200.283 275.268C202.635 274.627 203.704 270.137 204.345 266.93C204.986 263.724 204.773 259.234 204.773 259.234L207.979 189.537C207.979 189.537 209.262 142.074 209.262 126.04C209.262 110.005 209.476 92.6876 208.621 89.2671C207.766 85.8466 203.703 83.4947 203.703 83.4947C203.703 83.4947 201.351 81.9979 197.931 81.3567C194.51 80.7154 190.448 81.5704 190.448 81.5704L142.986 81.7841C142.986 81.7841 142.131 80.7154 139.351 81.1429C136.572 81.5704 131.227 81.9979 129.517 82.8535C127.808 83.7085 127.808 84.7779 127.808 84.7779Z" fill="#757575" stroke="#263238" stroke-miterlimit="10" stroke-linecap="round" stroke-linejoin="round"/>
<path d="M130.16 114.067L131.442 167.729C131.442 167.729 131.442 191.461 132.297 194.24C133.152 197.019 137.215 198.088 139.139 198.516C141.063 198.944 152.608 200.44 169.284 200.227C185.96 200.013 196.222 199.158 199.429 196.379C202.635 193.599 202.422 190.606 202.422 187.827C202.422 185.048 202.849 113.213 202.849 113.213L130.16 114.067Z" fill="#263238" stroke="#263238" stroke-miterlimit="10" stroke-linecap="round" stroke-linejoin="round"/>
<path d="M197.505 133.096H135.718V180.986H197.505V133.096Z" fill="white" stroke="#263238" stroke-miterlimit="10" stroke-linecap="round" stroke-linejoin="round"/>
<path d="M135.077 86.0613L129.726 103.775C129.467 104.511 129.467 105.314 129.726 106.05C130.243 107.513 131.67 108.352 133.221 108.321C142.038 108.15 153.406 108.012 167.567 108.015C180.888 108.018 192.322 107.653 196.746 108.084C198.863 108.29 200.856 107.062 201.631 105.081L201.399 105.757C201.787 104.767 202.065 103.003 201.759 101.985C200.428 97.5471 197.86 86.4002 196.809 85.5249C195.527 84.4562 191.678 83.6006 191.037 83.6006C190.395 83.6006 145.34 83.9239 142.347 84.3514C139.354 84.7789 137.002 83.7095 135.077 86.0613Z" fill="#919191" stroke="#263238" stroke-miterlimit="10" stroke-linecap="round" stroke-linejoin="round"/>
<path d="M184.232 187.317C184.232 187.317 186.011 192.505 186.603 193.839C187.196 195.172 189.271 195.766 190.161 195.766C191.05 195.766 197.127 194.876 198.016 193.987C198.906 193.097 199.054 189.985 198.757 188.502C198.461 187.021 198.313 187.021 196.979 187.021C195.645 187.02 184.232 187.317 184.232 187.317Z" fill="white" stroke="#263238" stroke-miterlimit="10" stroke-linecap="round" stroke-linejoin="round"/>
<path d="M133.393 186.575C133.393 186.575 132.948 193.097 134.727 194.283C136.506 195.468 148.215 196.654 148.067 195.913C147.918 195.171 145.547 187.316 144.361 187.02C143.176 186.723 133.393 186.575 133.393 186.575Z" fill="white" stroke="#263238" stroke-miterlimit="10" stroke-linecap="round" stroke-linejoin="round"/>
<path d="M149.252 187.909C149.252 187.909 151.476 194.579 152.958 195.617C154.44 196.654 155.625 196.802 156.663 196.802C157.701 196.802 174.004 197.099 176.821 197.099C179.637 197.099 182.453 196.061 182.453 195.617C182.453 195.172 179.34 188.502 178.6 187.909C177.858 187.316 176.525 187.316 175.932 187.316C175.339 187.316 151.179 187.168 150.439 187.02C149.697 186.872 149.252 187.02 149.252 187.909Z" fill="white" stroke="#263238" stroke-miterlimit="10" stroke-linecap="round" stroke-linejoin="round"/>
<path d="M161.555 196.209L170.299 187.612" stroke="#263238" stroke-miterlimit="10" stroke-linecap="round" stroke-linejoin="round"/>
<path d="M175.931 189.688L173.412 192.06H177.266L175.931 189.688Z" fill="#263238" stroke="#263238" stroke-miterlimit="10" stroke-linecap="round" stroke-linejoin="round"/>
<path d="M155.033 192.504L157.108 195.023L159.628 192.801L155.033 192.504Z" fill="#263238" stroke="#263238" stroke-miterlimit="10" stroke-linecap="round" stroke-linejoin="round"/>
<path d="M195.793 190.136H189.123V191.315H195.793V190.136Z" fill="#263238"/>
<path d="M142.582 190.136H135.913V191.315H142.582V190.136Z" fill="#263238"/>
<path d="M138.136 203.324C138.136 203.324 137.702 203.259 137.099 203.253C136.127 203.245 134.717 203.39 133.986 204.213C132.8 205.547 133.542 211.052 134.282 212.069C135.534 213.789 148.955 214.885 150.141 214.588C151.327 214.292 152.068 213.996 152.216 212.365C152.364 210.735 152.809 206.585 151.475 205.399C150.142 204.214 138.136 203.324 138.136 203.324Z" stroke="#263238" stroke-miterlimit="10" stroke-linecap="round" stroke-linejoin="round"/>
<path d="M138.854 204.889C138.854 204.889 138.485 204.839 137.974 204.835C137.148 204.828 135.952 204.938 135.33 205.56C134.324 206.566 134.953 210.721 135.582 211.488C136.645 212.787 148.04 213.613 149.046 213.39C150.053 213.166 150.682 212.943 150.808 211.712C150.934 210.482 151.311 207.349 150.179 206.455C149.046 205.56 138.854 204.889 138.854 204.889Z" fill="#263238" stroke="#263238" stroke-miterlimit="10" stroke-linecap="round" stroke-linejoin="round"/>
<path d="M138.136 217.225C138.136 217.225 137.702 217.16 137.099 217.154C136.127 217.145 134.717 217.29 133.986 218.113C132.8 219.447 133.542 224.953 134.282 225.969C135.534 227.69 148.955 228.785 150.141 228.489C151.327 228.192 152.068 227.896 152.216 226.265C152.364 224.635 152.809 220.485 151.475 219.299C150.142 218.114 138.136 217.225 138.136 217.225Z" stroke="#263238" stroke-miterlimit="10" stroke-linecap="round" stroke-linejoin="round"/>
<path d="M138.854 218.79C138.854 218.79 138.485 218.741 137.974 218.737C137.148 218.73 135.952 218.839 135.33 219.461C134.324 220.468 134.953 224.623 135.582 225.39C136.645 226.689 148.04 227.516 149.046 227.292C150.053 227.069 150.682 226.845 150.808 225.614C150.934 224.384 151.311 221.251 150.179 220.357C149.046 219.461 138.854 218.79 138.854 218.79Z" fill="#263238" stroke="#263238" stroke-miterlimit="10" stroke-linecap="round" stroke-linejoin="round"/>
<path d="M139.005 230.738C139.005 230.738 138.571 230.673 137.968 230.667C136.996 230.659 135.587 230.804 134.855 231.627C133.669 232.961 134.411 238.466 135.151 239.483C136.404 241.204 149.825 242.299 151.01 242.002C152.196 241.706 152.937 241.41 153.086 239.779C153.234 238.149 153.678 233.999 152.344 232.813C151.01 231.628 139.005 230.738 139.005 230.738Z" stroke="#263238" stroke-miterlimit="10" stroke-linecap="round" stroke-linejoin="round"/>
<path d="M139.722 232.304C139.722 232.304 139.353 232.254 138.842 232.25C138.017 232.244 136.82 232.353 136.199 232.975C135.192 233.981 135.822 238.136 136.45 238.903C137.514 240.202 148.908 241.028 149.914 240.805C150.921 240.581 151.551 240.358 151.676 239.127C151.802 237.897 152.179 234.764 151.047 233.87C149.914 232.975 139.722 232.304 139.722 232.304Z" fill="#263238" stroke="#263238" stroke-miterlimit="10" stroke-linecap="round" stroke-linejoin="round"/>
<path d="M139.198 243.964C139.198 243.964 138.763 243.899 138.161 243.893C137.189 243.884 135.779 244.03 135.047 244.853C133.862 246.187 134.604 251.692 135.344 252.708C136.596 254.429 150.017 255.524 151.203 255.228C152.389 254.932 153.13 254.635 153.278 253.005C153.426 251.375 153.871 247.224 152.537 246.038C151.204 244.853 139.198 243.964 139.198 243.964Z" stroke="#263238" stroke-miterlimit="10" stroke-linecap="round" stroke-linejoin="round"/>
<path d="M139.915 245.529C139.915 245.529 139.546 245.48 139.035 245.476C138.21 245.469 137.013 245.579 136.391 246.2C135.385 247.207 136.015 251.362 136.643 252.13C137.707 253.428 149.101 254.255 150.107 254.032C151.114 253.808 151.744 253.584 151.869 252.353C151.995 251.123 152.373 247.991 151.24 247.096C150.108 246.201 139.915 245.529 139.915 245.529Z" fill="#263238" stroke="#263238" stroke-miterlimit="10" stroke-linecap="round" stroke-linejoin="round"/>
<path d="M193.681 203.324C193.681 203.324 194.115 203.259 194.718 203.253C195.69 203.245 197.1 203.39 197.832 204.213C199.017 205.547 198.275 211.052 197.535 212.069C196.283 213.789 182.862 214.885 181.676 214.588C180.49 214.292 179.749 213.996 179.601 212.365C179.453 210.735 179.008 206.585 180.342 205.399C181.675 204.214 193.681 203.324 193.681 203.324Z" stroke="#263238" stroke-miterlimit="10" stroke-linecap="round" stroke-linejoin="round"/>
<path d="M192.964 204.889C192.964 204.889 193.333 204.839 193.844 204.835C194.669 204.828 195.866 204.938 196.487 205.56C197.494 206.566 196.864 210.721 196.236 211.488C195.172 212.787 183.778 213.613 182.772 213.39C181.765 213.166 181.136 212.943 181.01 211.712C180.884 210.482 180.507 207.349 181.639 206.455C182.771 205.56 192.964 204.889 192.964 204.889Z" fill="#263238" stroke="#263238" stroke-miterlimit="10" stroke-linecap="round" stroke-linejoin="round"/>
<path d="M193.681 217.225C193.681 217.225 194.115 217.16 194.718 217.154C195.69 217.145 197.1 217.29 197.832 218.113C199.017 219.447 198.275 224.953 197.535 225.969C196.283 227.69 182.862 228.785 181.676 228.489C180.49 228.192 179.749 227.896 179.601 226.265C179.453 224.635 179.008 220.485 180.342 219.299C181.675 218.114 193.681 217.225 193.681 217.225Z" stroke="#263238" stroke-miterlimit="10" stroke-linecap="round" stroke-linejoin="round"/>
<path d="M192.964 218.79C192.964 218.79 193.333 218.741 193.844 218.737C194.669 218.73 195.866 218.839 196.487 219.461C197.494 220.468 196.864 224.623 196.236 225.39C195.172 226.689 183.778 227.516 182.772 227.292C181.765 227.069 181.136 226.845 181.01 225.614C180.884 224.384 180.507 221.251 181.639 220.357C182.771 219.461 192.964 218.79 192.964 218.79Z" fill="#263238" stroke="#263238" stroke-miterlimit="10" stroke-linecap="round" stroke-linejoin="round"/>
<path d="M192.812 230.738C192.812 230.738 193.246 230.673 193.849 230.667C194.821 230.659 196.23 230.804 196.962 231.627C198.148 232.961 197.406 238.466 196.666 239.483C195.413 241.204 181.992 242.299 180.807 242.002C179.621 241.706 178.88 241.41 178.731 239.779C178.583 238.149 178.139 233.999 179.473 232.813C180.807 231.628 192.812 230.738 192.812 230.738Z" stroke="#263238" stroke-miterlimit="10" stroke-linecap="round" stroke-linejoin="round"/>
<path d="M192.095 232.304C192.095 232.304 192.464 232.254 192.976 232.25C193.801 232.244 194.997 232.353 195.619 232.975C196.625 233.981 195.996 238.136 195.367 238.903C194.303 240.202 182.91 241.028 181.903 240.805C180.897 240.581 180.267 240.358 180.141 239.127C180.015 237.897 179.638 234.764 180.77 233.87C181.902 232.975 192.095 232.304 192.095 232.304Z" fill="#263238" stroke="#263238" stroke-miterlimit="10" stroke-linecap="round" stroke-linejoin="round"/>
<path d="M192.619 243.964C192.619 243.964 193.054 243.899 193.656 243.893C194.628 243.884 196.038 244.03 196.77 244.853C197.955 246.187 197.213 251.692 196.473 252.708C195.221 254.429 181.8 255.524 180.614 255.228C179.428 254.932 178.687 254.635 178.539 253.005C178.391 251.375 177.946 247.224 179.28 246.038C180.613 244.853 192.619 243.964 192.619 243.964Z" stroke="#263238" stroke-miterlimit="10" stroke-linecap="round" stroke-linejoin="round"/>
<path d="M191.902 245.529C191.902 245.529 192.271 245.48 192.782 245.476C193.608 245.469 194.804 245.579 195.426 246.2C196.432 247.207 195.802 251.362 195.174 252.13C194.11 253.428 182.716 254.255 181.71 254.032C180.703 253.808 180.074 253.584 179.948 252.353C179.822 251.123 179.445 247.991 180.577 247.096C181.709 246.201 191.902 245.529 191.902 245.529Z" fill="#263238" stroke="#263238" stroke-miterlimit="10" stroke-linecap="round" stroke-linejoin="round"/>
<path d="M161.311 205.197C161.311 205.197 158.507 205.017 157.603 205.378C156.699 205.74 156.337 206.373 156.428 207.006C156.518 207.639 156.517 211.562 156.608 212.975C156.701 214.427 157.554 215.044 158.598 215.146C159.428 215.227 172.798 215.417 174.335 214.874C175.872 214.332 175.692 212.161 175.692 211.438C175.692 210.714 175.872 207.289 175.421 206.385C174.968 205.481 173.521 205.119 172.798 205.209C172.074 205.3 162.849 205.017 161.311 205.197Z" stroke="#263238" stroke-miterlimit="10" stroke-linecap="round" stroke-linejoin="round"/>
<path d="M173.009 218.438C173.009 218.438 160.226 218.131 158.96 218.493C157.694 218.855 156.337 219.488 156.428 220.845C156.518 222.202 156.156 225.91 156.789 226.995C157.422 228.08 157.694 228.441 158.508 228.713C159.322 228.984 172.888 229.074 173.793 228.622C174.697 228.169 175.33 227.627 175.511 226.451C175.692 225.276 175.904 221.06 175.361 219.884C174.818 218.709 173.009 218.438 173.009 218.438Z" stroke="#263238" stroke-miterlimit="10" stroke-linecap="round" stroke-linejoin="round"/>
<path d="M173.43 220.572C173.43 220.572 161.763 220.392 160.135 220.392C158.507 220.392 157.874 220.392 157.783 221.748C157.692 223.105 157.512 227.265 158.235 227.537C158.959 227.808 165.018 227.899 168.455 227.899C171.892 227.899 173.249 227.808 173.791 227.356C174.334 226.905 174.424 224.191 174.424 222.744C174.425 221.296 174.244 220.301 173.43 220.572Z" fill="#263238" stroke="#263238" stroke-miterlimit="10" stroke-linecap="round" stroke-linejoin="round"/>
<path d="M173.43 206.826C173.43 206.826 161.763 206.646 160.135 206.646C158.507 206.646 157.874 206.645 157.783 208.002C157.692 209.359 157.512 213.519 158.235 213.791C158.959 214.062 165.018 214.153 168.455 214.153C171.892 214.153 173.249 214.062 173.791 213.61C174.334 213.158 174.424 210.445 174.424 208.998C174.424 207.551 174.244 206.555 173.43 206.826Z" fill="#263238" stroke="#263238" stroke-miterlimit="10" stroke-linecap="round" stroke-linejoin="round"/>
<path d="M173.13 232.016C173.13 232.016 160.226 231.606 158.96 231.968C157.694 232.329 156.337 232.963 156.428 234.319C156.518 235.676 156.156 239.384 156.789 240.469C157.422 241.554 157.694 241.916 158.508 242.187C159.322 242.458 172.888 242.549 173.793 242.097C174.697 241.645 175.33 241.102 175.511 239.926C175.692 238.75 176.025 234.638 175.482 233.462C174.938 232.287 173.13 232.016 173.13 232.016Z" stroke="#263238" stroke-miterlimit="10" stroke-linecap="round" stroke-linejoin="round"/>
<path d="M173.43 234.049C173.43 234.049 161.763 233.868 160.135 233.868C158.507 233.868 157.874 233.868 157.783 235.225C157.692 236.582 157.512 240.742 158.235 241.014C158.959 241.285 165.018 241.375 168.455 241.375C171.892 241.375 173.249 241.285 173.791 240.833C174.334 240.38 174.424 237.667 174.424 236.221C174.424 234.774 174.244 233.778 173.43 234.049Z" fill="#263238" stroke="#263238" stroke-miterlimit="10" stroke-linecap="round" stroke-linejoin="round"/>
<path d="M172.707 245.444C172.707 245.444 160.226 245.082 158.96 245.444C157.694 245.806 156.337 246.439 156.428 247.796C156.518 249.153 156.156 252.861 156.789 253.946C157.422 255.031 157.694 255.392 158.508 255.664C159.322 255.936 172.888 256.026 173.793 255.574C174.697 255.121 175.33 254.579 175.511 253.403C175.692 252.228 175.602 248.067 175.059 246.892C174.516 245.715 172.707 245.444 172.707 245.444Z" stroke="#263238" stroke-miterlimit="10" stroke-linecap="round" stroke-linejoin="round"/>
<path d="M173.43 247.524C173.43 247.524 161.763 247.344 160.135 247.344C158.507 247.344 157.874 247.344 157.783 248.701C157.692 250.057 157.512 254.217 158.235 254.489C158.959 254.761 165.018 254.851 168.455 254.851C171.892 254.851 173.249 254.76 173.791 254.309C174.334 253.856 174.424 251.143 174.424 249.696C174.425 248.248 174.244 247.253 173.43 247.524Z" fill="#263238" stroke="#263238" stroke-miterlimit="10" stroke-linecap="round" stroke-linejoin="round"/>
<path d="M151.571 258.21C151.571 258.21 140.731 257.089 139.112 256.965C137.492 256.84 136.122 257.962 136.246 259.207C136.371 260.453 136.371 264.69 137.118 265.811C137.865 266.933 140.607 267.306 144.593 267.556C148.581 267.804 150.823 268.178 151.82 267.556C152.817 266.933 153.19 266.434 153.315 264.939C153.439 263.444 153.439 260.952 153.19 259.956C152.942 258.959 151.571 258.21 151.571 258.21Z" fill="#666666" stroke="#263238" stroke-miterlimit="10" stroke-linecap="round" stroke-linejoin="round"/>
<path d="M180.489 258.21C180.489 258.21 191.329 257.089 192.948 256.965C194.568 256.84 195.938 257.962 195.814 259.207C195.689 260.453 195.689 264.69 194.942 265.811C194.195 266.933 191.453 267.306 187.466 267.556C183.479 267.804 181.237 268.178 180.24 267.556C179.243 266.933 178.869 266.434 178.744 264.939C178.62 263.444 178.62 260.952 178.869 259.956C179.118 258.959 180.489 258.21 180.489 258.21Z" fill="#92E3A9" stroke="#263238" stroke-miterlimit="10" stroke-linecap="round" stroke-linejoin="round"/>
<path d="M157.521 259.733C157.521 259.733 156.997 265.334 157.565 266.375C158.134 267.417 158.418 267.891 159.555 267.986C160.691 268.08 170.731 268.364 172.342 267.891C173.952 267.418 174.615 266.66 174.71 265.996C174.805 265.334 174.734 260.698 174.545 259.941C174.355 259.183 173.693 258.33 172.461 258.236C171.23 258.141 162.207 258.04 160.786 258.04C159.365 258.04 157.76 258.774 157.521 259.733Z" fill="#BABABA" stroke="#263238" stroke-miterlimit="10" stroke-linecap="round" stroke-linejoin="round"/>
<path d="M133.24 274.4L135.362 272.033C135.362 272.033 150.871 273.502 167.441 273.094C184.012 272.686 196.337 271.543 196.337 271.543C196.337 271.543 199.112 273.828 200.336 274.318" stroke="#263238" stroke-miterlimit="10" stroke-linecap="round" stroke-linejoin="round"/>
<path d="M180.311 156.353L173.829 152.971C173.267 152.678 172.574 152.893 172.277 153.454C172.02 153.939 172.141 154.539 172.566 154.886L178.355 159.614C178.355 159.614 179.877 162.874 181.072 163.092C182.268 163.309 183.246 163.418 183.246 163.418" stroke="#263238" stroke-miterlimit="10" stroke-linecap="round" stroke-linejoin="round"/>
<path d="M176.838 154.786L177.325 152.448C177.446 151.862 177.07 151.287 176.484 151.166L172.549 150.347C171.963 150.225 171.389 150.601 171.267 151.188L170.563 154.572C170.442 155.158 170.818 155.733 171.404 155.854L174.746 156.549C174.746 156.549 173.577 157.373 174.146 157.871C174.714 158.368 175.708 159.433 176.489 159.859C177.271 160.285 178.356 159.612 178.356 159.612" stroke="#263238" stroke-miterlimit="10" stroke-linecap="round" stroke-linejoin="round"/>
<path d="M177.325 152.448C177.325 152.448 180.11 152.475 180.749 153.043C181.388 153.611 186.714 161.564 186.714 161.564" stroke="#263238" stroke-miterlimit="10" stroke-linecap="round" stroke-linejoin="round"/>
<path d="M175.352 159.079C175.352 159.079 174.216 159.931 174.784 160.429C175.352 160.926 175.707 161.139 176.844 161.423C177.98 161.707 178.122 161.849 178.477 161.707C178.832 161.565 179.258 161.352 179.258 161.352" stroke="#263238" stroke-miterlimit="10" stroke-linecap="round" stroke-linejoin="round"/>
<path d="M177.353 161.624C174.525 164.921 169.442 167.12 163.642 167.12C154.762 167.12 147.563 161.966 147.563 155.608C147.563 149.251 154.762 144.097 163.642 144.097C171.095 144.097 177.363 147.728 179.185 152.653" stroke="#263238" stroke-miterlimit="10" stroke-linecap="round" stroke-linejoin="round"/>
<path d="M166.048 163.732C165.938 163.732 165.826 163.701 165.727 163.636C165.454 163.459 165.376 163.093 165.554 162.821C166.888 160.769 167.593 158.385 167.593 155.927C167.593 153.579 166.946 151.287 165.722 149.299C165.551 149.022 165.637 148.658 165.915 148.487C166.192 148.316 166.555 148.403 166.726 148.68C168.066 150.855 168.773 153.36 168.773 155.927C168.773 158.614 168.002 161.22 166.543 163.463C166.43 163.637 166.241 163.732 166.048 163.732Z" fill="#263238"/>
<path d="M163.056 162.182C162.94 162.182 162.822 162.147 162.719 162.075C162.452 161.889 162.387 161.521 162.573 161.254C163.668 159.688 164.247 157.845 164.247 155.927C164.247 154.133 163.736 152.391 162.769 150.89C162.592 150.616 162.671 150.251 162.945 150.074C163.22 149.898 163.585 149.977 163.76 150.251C164.85 151.942 165.426 153.905 165.426 155.926C165.426 158.088 164.774 160.164 163.541 161.929C163.426 162.094 163.242 162.182 163.056 162.182Z" fill="#263238"/>
<path d="M160.01 160.565C159.881 160.565 159.751 160.523 159.643 160.436C159.389 160.232 159.347 159.862 159.55 159.607C160.392 158.552 160.837 157.279 160.837 155.927C160.837 154.593 160.403 153.335 159.583 152.288C159.382 152.031 159.427 151.661 159.684 151.46C159.941 151.259 160.311 151.303 160.512 151.56C161.496 152.817 162.017 154.328 162.017 155.927C162.017 157.527 161.469 159.095 160.472 160.344C160.355 160.489 160.183 160.565 160.01 160.565Z" fill="#263238"/>
<path d="M156.906 159.444C156.717 159.444 156.531 159.353 156.417 159.185C156.234 158.915 156.305 158.548 156.576 158.366C157.387 157.817 157.872 156.905 157.872 155.926C157.872 155.157 157.577 154.43 157.041 153.878C156.815 153.644 156.82 153.27 157.053 153.044C157.287 152.816 157.66 152.822 157.887 153.056C158.639 153.829 159.052 154.848 159.052 155.927C159.052 157.298 158.373 158.575 157.236 159.344C157.134 159.411 157.019 159.444 156.906 159.444Z" fill="#263238"/>
<path d="M141.097 211.912V207.347C141.045 207.375 140.987 207.404 140.921 207.432C140.854 207.46 140.785 207.49 140.712 207.52C140.639 207.551 140.568 207.58 140.5 207.609C140.432 207.637 140.369 207.665 140.312 207.693V206.816C140.364 206.787 140.437 206.748 140.532 206.699C140.626 206.649 140.727 206.594 140.837 206.532C140.945 206.472 141.046 206.409 141.141 206.344C141.236 206.281 141.306 206.225 141.354 206.179H142.28V211.912H141.097V211.912Z" fill="white"/>
<path d="M163.448 213.363V212.528L164.821 210.418C164.925 210.263 165.023 210.112 165.115 209.966C165.206 209.82 165.282 209.671 165.342 209.52C165.4 209.369 165.429 209.211 165.429 209.045C165.429 208.88 165.397 208.758 165.331 208.677C165.265 208.597 165.175 208.557 165.061 208.557C164.934 208.557 164.835 208.593 164.765 208.664C164.694 208.735 164.646 208.829 164.619 208.946C164.593 209.065 164.581 209.197 164.581 209.343V209.626H163.433V209.322C163.433 208.982 163.488 208.679 163.596 208.412C163.705 208.146 163.877 207.935 164.113 207.782C164.349 207.628 164.658 207.552 165.041 207.552C165.555 207.552 165.943 207.685 166.205 207.951C166.466 208.218 166.598 208.59 166.598 209.066C166.598 209.298 166.56 209.512 166.488 209.71C166.414 209.908 166.318 210.1 166.198 210.287C166.077 210.474 165.949 210.668 165.812 210.871L164.764 212.435H166.442V213.363H163.448V213.363Z" fill="white"/>
<path d="M188.582 212.257C188.181 212.257 187.866 212.181 187.637 212.031C187.408 211.88 187.245 211.668 187.149 211.397C187.052 211.126 187.003 210.813 187.003 210.459V210.254H188.185C188.185 210.258 188.185 210.284 188.185 210.332C188.185 210.379 188.185 210.422 188.185 210.459C188.185 210.647 188.196 210.801 188.22 210.919C188.244 211.036 188.286 211.122 188.348 211.177C188.409 211.232 188.494 211.259 188.603 211.259C188.711 211.259 188.793 211.23 188.847 211.174C188.901 211.118 188.938 211.032 188.957 210.919C188.976 210.806 188.986 210.665 188.986 210.495C188.986 210.211 188.946 209.995 188.869 209.847C188.791 209.698 188.629 209.621 188.384 209.617C188.379 209.617 188.353 209.617 188.306 209.617C188.259 209.617 188.211 209.617 188.164 209.617V208.803C188.197 208.803 188.23 208.803 188.263 208.803C188.296 208.803 188.327 208.803 188.355 208.803C188.606 208.803 188.773 208.735 188.858 208.597C188.943 208.461 188.986 208.248 188.986 207.961C188.986 207.739 188.956 207.569 188.897 207.451C188.838 207.332 188.728 207.274 188.568 207.274C188.412 207.274 188.31 207.339 188.26 207.472C188.211 207.604 188.185 207.773 188.185 207.981C188.185 208.028 188.185 208.076 188.185 208.127C188.185 208.176 188.185 208.227 188.185 208.279H187.004V207.932C187.004 207.587 187.066 207.297 187.192 207.058C187.317 206.819 187.496 206.639 187.73 206.516C187.964 206.394 188.243 206.332 188.569 206.332C188.899 206.332 189.182 206.392 189.418 206.509C189.654 206.627 189.836 206.8 189.963 207.029C190.091 207.258 190.154 207.543 190.154 207.882C190.154 208.217 190.086 208.497 189.95 208.724C189.812 208.951 189.647 209.09 189.454 209.142C189.586 209.189 189.705 209.264 189.812 209.368C189.918 209.472 190.002 209.613 190.062 209.79C190.124 209.966 190.154 210.192 190.154 210.465C190.154 210.815 190.104 211.124 190.002 211.393C189.901 211.662 189.734 211.873 189.503 212.027C189.271 212.18 188.964 212.257 188.582 212.257Z" fill="white"/>
<path d="M142.095 225.778V224.49H140.333V223.619L141.826 220.045H143.199V223.612H143.729V224.49H143.199V225.778H142.095ZM141.232 223.612H142.095V221.227L141.232 223.612Z" fill="white"/>
<path d="M164.963 227.334C164.543 227.334 164.226 227.26 164.011 227.111C163.796 226.962 163.651 226.754 163.576 226.485C163.5 226.215 163.462 225.904 163.462 225.55H164.602C164.602 225.768 164.613 225.944 164.637 226.081C164.66 226.218 164.704 226.315 164.768 226.374C164.832 226.434 164.922 226.461 165.041 226.456C165.163 226.451 165.25 226.402 165.302 226.307C165.354 226.213 165.386 226.077 165.398 225.9C165.41 225.724 165.415 225.51 165.415 225.26C165.415 225.071 165.405 224.904 165.384 224.757C165.362 224.612 165.319 224.495 165.256 224.407C165.192 224.319 165.097 224.276 164.97 224.276C164.851 224.276 164.754 224.319 164.679 224.403C164.604 224.489 164.55 224.62 164.516 224.8H163.497L163.603 221.494H166.279V222.485H164.552L164.489 223.667C164.536 223.601 164.626 223.543 164.758 223.494C164.89 223.444 165.031 223.412 165.183 223.398C165.476 223.366 165.722 223.418 165.923 223.558C166.124 223.696 166.274 223.908 166.376 224.191C166.477 224.474 166.528 224.821 166.528 225.232C166.528 225.538 166.509 225.82 166.472 226.077C166.434 226.335 166.361 226.556 166.253 226.743C166.144 226.93 165.986 227.075 165.779 227.179C165.57 227.282 165.298 227.334 164.963 227.334Z" fill="white"/>
<path d="M188.688 226.1C188.315 226.1 188.012 226.018 187.778 225.856C187.545 225.693 187.374 225.47 187.266 225.186C187.157 224.904 187.103 224.58 187.103 224.217V222.143C187.103 221.77 187.146 221.438 187.233 221.145C187.32 220.852 187.477 220.623 187.704 220.455C187.93 220.287 188.256 220.204 188.681 220.204C189.049 220.204 189.339 220.26 189.552 220.373C189.763 220.487 189.914 220.652 190.004 220.869C190.094 221.086 190.139 221.355 190.139 221.675C190.139 221.694 190.14 221.712 190.142 221.729C190.144 221.745 190.146 221.76 190.146 221.774H189.034C189.034 221.543 189.017 221.372 188.981 221.261C188.946 221.15 188.848 221.095 188.687 221.095C188.579 221.095 188.498 221.127 188.444 221.194C188.389 221.261 188.352 221.376 188.334 221.541C188.315 221.706 188.305 221.938 188.305 222.235V222.745C188.361 222.646 188.454 222.569 188.581 222.515C188.708 222.461 188.852 222.431 189.013 222.426C189.315 222.417 189.557 222.486 189.738 222.631C189.92 222.777 190.051 222.977 190.131 223.23C190.211 223.482 190.252 223.763 190.252 224.075C190.252 224.476 190.204 224.829 190.11 225.133C190.015 225.438 189.855 225.675 189.629 225.845C189.403 226.015 189.089 226.1 188.688 226.1ZM188.702 225.229C188.81 225.229 188.89 225.192 188.94 225.119C188.989 225.046 189.022 224.937 189.039 224.793C189.055 224.65 189.064 224.471 189.064 224.26C189.064 224.071 189.058 223.908 189.046 223.771C189.034 223.634 189.003 223.527 188.951 223.449C188.899 223.371 188.812 223.332 188.689 223.332C188.633 223.332 188.578 223.344 188.527 223.368C188.475 223.391 188.43 223.42 188.392 223.456C188.355 223.491 188.327 223.526 188.308 223.559V224.493C188.308 224.62 188.318 224.741 188.34 224.854C188.361 224.967 188.401 225.058 188.46 225.127C188.517 225.195 188.599 225.229 188.702 225.229Z" fill="white"/>
<path d="M140.616 239.013L141.862 234.178H140.298V233.279H143.015V234.093L141.77 239.012L140.616 239.013Z" fill="white"/>
<path d="M164.999 240.557C164.612 240.557 164.302 240.48 164.072 240.326C163.841 240.173 163.675 239.961 163.576 239.689C163.478 239.418 163.428 239.108 163.428 238.759C163.432 238.617 163.448 238.479 163.474 238.345C163.499 238.21 163.539 238.085 163.594 237.97C163.648 237.855 163.717 237.753 163.799 237.665C163.882 237.578 163.98 237.506 164.093 237.45C163.946 237.341 163.817 237.184 163.703 236.979C163.59 236.774 163.528 236.513 163.519 236.196C163.514 235.876 163.568 235.6 163.678 235.368C163.789 235.137 163.955 234.96 164.177 234.837C164.399 234.715 164.673 234.653 164.998 234.653C165.328 234.653 165.604 234.716 165.823 234.841C166.042 234.966 166.206 235.143 166.315 235.372C166.423 235.6 166.473 235.875 166.463 236.196C166.459 236.517 166.402 236.781 166.294 236.986C166.185 237.191 166.055 237.345 165.905 237.45C166.018 237.506 166.116 237.579 166.198 237.665C166.281 237.753 166.349 237.854 166.403 237.97C166.457 238.085 166.498 238.21 166.527 238.345C166.555 238.48 166.57 238.618 166.57 238.759C166.579 239.108 166.532 239.418 166.432 239.689C166.33 239.961 166.164 240.173 165.932 240.326C165.702 240.48 165.391 240.557 164.999 240.557ZM164.999 239.686C165.126 239.686 165.218 239.64 165.275 239.545C165.331 239.45 165.367 239.338 165.381 239.209C165.395 239.079 165.402 238.96 165.402 238.851C165.407 238.706 165.401 238.564 165.385 238.426C165.368 238.29 165.332 238.177 165.275 238.09C165.218 238.003 165.126 237.96 164.999 237.96C164.877 237.96 164.787 238.003 164.73 238.09C164.674 238.177 164.636 238.288 164.619 238.423C164.603 238.557 164.594 238.7 164.594 238.851C164.594 238.96 164.602 239.08 164.616 239.212C164.63 239.344 164.667 239.456 164.726 239.548C164.785 239.64 164.876 239.686 164.999 239.686ZM164.999 237.025C165.079 237.025 165.145 236.993 165.197 236.929C165.249 236.866 165.288 236.77 165.314 236.643C165.34 236.515 165.353 236.357 165.353 236.168C165.353 235.975 165.323 235.821 165.265 235.708C165.205 235.595 165.117 235.539 164.999 235.539C164.881 235.539 164.79 235.595 164.726 235.708C164.663 235.821 164.631 235.972 164.631 236.161C164.631 236.35 164.644 236.509 164.67 236.639C164.695 236.769 164.737 236.866 164.794 236.929C164.85 236.993 164.918 237.025 164.999 237.025Z" fill="white"/>
<path d="M188.582 239.337C188.214 239.337 187.924 239.28 187.712 239.167C187.499 239.054 187.348 238.887 187.258 238.668C187.169 238.449 187.124 238.179 187.124 237.858C187.124 237.844 187.124 237.829 187.124 237.812C187.124 237.796 187.124 237.78 187.124 237.767H188.229C188.229 237.998 188.249 238.169 188.289 238.279C188.33 238.39 188.43 238.446 188.59 238.446C188.699 238.446 188.779 238.413 188.831 238.346C188.883 238.281 188.918 238.164 188.934 237.996C188.951 237.828 188.959 237.598 188.959 237.306V236.796C188.898 236.895 188.805 236.971 188.679 237.023C188.554 237.075 188.414 237.106 188.258 237.115C187.956 237.119 187.713 237.044 187.529 236.888C187.345 236.732 187.213 236.522 187.133 236.258C187.053 235.993 187.012 235.706 187.012 235.394C187.012 234.993 187.063 234.647 187.164 234.357C187.266 234.067 187.432 233.842 187.663 233.681C187.894 233.52 188.201 233.44 188.583 233.44C188.961 233.44 189.265 233.516 189.497 233.667C189.728 233.818 189.897 234.03 190.003 234.301C190.109 234.572 190.162 234.892 190.162 235.26V237.397C190.162 237.77 190.119 238.102 190.032 238.395C189.944 238.688 189.787 238.918 189.561 239.085C189.333 239.253 189.007 239.337 188.582 239.337ZM188.596 236.208C188.691 236.208 188.766 236.183 188.823 236.13C188.879 236.078 188.924 236.029 188.957 235.982V235.048C188.957 234.916 188.947 234.794 188.928 234.683C188.909 234.573 188.874 234.483 188.822 234.414C188.77 234.345 188.69 234.311 188.581 234.311C188.478 234.311 188.4 234.348 188.348 234.421C188.296 234.494 188.261 234.602 188.245 234.747C188.229 234.891 188.22 235.069 188.22 235.28C188.22 235.464 188.226 235.627 188.238 235.765C188.25 235.905 188.282 236.013 188.333 236.091C188.387 236.17 188.474 236.208 188.596 236.208Z" fill="white"/>
<path d="M140.58 252.535V246.802H143.058V247.658H141.848V249.101H142.902V249.986H141.848V252.535H140.58Z" fill="white"/>
<path d="M165.104 254.092C164.76 254.092 164.472 254.022 164.241 253.883C164.009 253.744 163.835 253.552 163.717 253.306C163.599 253.061 163.541 252.776 163.541 252.45V249.852C163.541 249.516 163.596 249.223 163.706 248.971C163.817 248.718 163.988 248.521 164.22 248.379C164.45 248.238 164.746 248.167 165.104 248.167C165.464 248.167 165.757 248.238 165.986 248.379C166.214 248.521 166.384 248.718 166.496 248.971C166.606 249.223 166.662 249.516 166.662 249.852V252.45C166.662 252.771 166.603 253.055 166.485 253.302C166.367 253.55 166.192 253.743 165.961 253.882C165.73 254.022 165.445 254.092 165.104 254.092ZM165.104 253.037C165.218 253.037 165.299 253 165.349 252.927C165.398 252.854 165.428 252.77 165.441 252.673C165.452 252.576 165.458 252.493 165.458 252.421V249.88C165.458 249.8 165.453 249.709 165.444 249.608C165.435 249.506 165.405 249.416 165.355 249.339C165.306 249.261 165.222 249.221 165.104 249.221C164.986 249.221 164.903 249.261 164.854 249.339C164.804 249.416 164.774 249.506 164.765 249.608C164.755 249.709 164.751 249.8 164.751 249.88V252.421C164.751 252.493 164.758 252.576 164.773 252.673C164.787 252.77 164.819 252.854 164.868 252.927C164.918 253 164.996 253.037 165.104 253.037Z" fill="white"/>
<path d="M184.608 252.495V251.406H185.698V252.495H184.608Z" fill="white"/>
<path d="M186.511 252.496L186.731 250.592H186.342L186.363 249.877H186.83L186.929 249.056H186.37L186.384 248.32H187.057L187.234 246.763H187.984L187.8 248.32H188.352L188.529 246.763H189.272L189.088 248.32H189.463L189.442 249.056H188.961L188.869 249.877H189.428L189.407 250.592H188.77L188.537 252.496H187.801L188.027 250.592H187.475L187.249 252.496H186.511ZM187.567 249.877H188.126L188.225 249.056H187.673L187.567 249.877Z" fill="white"/>
<path d="M190.993 249.311L190.32 248.908L190.83 248.186L190.073 247.896L190.327 247.209L191.014 247.592L190.922 246.764H191.785L191.693 247.592L192.387 247.209L192.642 247.903L191.877 248.193L192.394 248.908L191.708 249.311L191.354 248.561L190.993 249.311Z" fill="white"/>
<path d="M339 43.0539L317.16 10.0791C317.16 10.0791 317.16 10.0791 308.587 14.1564C300.015 18.2337 288.458 20.25 272.548 24.9834C256.637 29.7168 249.019 29.0059 243.683 33.2679C238.349 37.5298 223.809 63.0075 222.391 65.3782C220.973 67.749 223.664 73.15 223.664 73.15C223.664 73.15 245.175 87.3826 245.48 87.7039C245.786 88.0252 251.134 91.7136 253.638 91.9841C256.142 92.2547 261.71 91.2414 261.71 91.2414C261.71 91.2414 263.77 92.5476 265.224 93.0014C266.677 93.4553 270.359 92.605 270.359 92.605C270.359 92.605 276.467 95.1611 279.14 92.8215C281.812 90.4819 285.885 78.0302 285.885 78.0302C285.885 78.0302 298.613 75.1014 308.451 70.6365C318.289 66.1716 323.126 60.5035 329.521 55.6402C332.974 53.0151 336.492 51.1172 339 49.9254V43.0539Z" fill="white" stroke="#263238" stroke-miterlimit="10" stroke-linecap="round" stroke-linejoin="round"/>
<path d="M264.611 86.8883C266.972 83.4752 270.515 77.9234 271.765 73.7061" stroke="#263238" stroke-miterlimit="10" stroke-linecap="round" stroke-linejoin="round"/>
<path d="M262.369 90.0025C262.369 90.0025 262.731 89.5284 263.318 88.7188" stroke="#263238" stroke-miterlimit="10" stroke-linecap="round" stroke-linejoin="round"/>
<path d="M272.388 90.8762C272.388 90.8762 273.919 88.1943 277.744 81.4899C281.571 74.7855 280.888 72.7807 280.169 72.2402" stroke="#263238" stroke-miterlimit="10" stroke-linecap="round" stroke-linejoin="round"/>
<path d="M245.207 61.2637C246.147 61.9177 247.167 62.5157 248.271 63.025" stroke="#263238" stroke-miterlimit="10" stroke-linecap="round" stroke-linejoin="round"/>
<path d="M236.458 50.5576C236.458 50.5576 238.533 55.5372 243.098 59.5983" stroke="#263238" stroke-miterlimit="10" stroke-linecap="round" stroke-linejoin="round"/>
<path d="M243.661 42.6797C243.661 42.6797 248.512 53.782 253.275 55.7821" stroke="#263238" stroke-miterlimit="10" stroke-linecap="round" stroke-linejoin="round"/>
<path d="M281.842 72.2812C281.842 72.2812 286.059 75.2094 285.884 78.0292" stroke="#263238" stroke-miterlimit="10" stroke-linecap="round" stroke-linejoin="round"/>
<path d="M228.989 65.5791C230.537 65.8916 232.561 66.5173 234.466 67.7666" stroke="#263238" stroke-miterlimit="10" stroke-linecap="round" stroke-linejoin="round"/>
<path d="M226.369 65.2666C226.369 65.2666 226.983 65.2666 227.953 65.4026" stroke="#263238" stroke-miterlimit="10" stroke-linecap="round" stroke-linejoin="round"/>
<path d="M253.78 111.333L190.503 129.718C188.742 130.23 186.899 129.217 186.388 127.456L175.059 88.4665C174.547 86.7052 175.56 84.8627 177.321 84.3513L240.598 65.9656C242.359 65.4543 244.202 66.4668 244.713 68.2275L256.042 107.217C256.554 108.979 255.541 110.821 253.78 111.333Z" fill="#009589" fill-opacity="0.5" stroke="#263238" stroke-miterlimit="10" stroke-linecap="round" stroke-linejoin="round"/>
<path d="M193.699 107.092L188.905 108.485C187.529 108.884 186.09 108.093 185.69 106.717L184.253 101.771C183.853 100.395 184.644 98.9557 186.02 98.5559L190.814 97.1633C192.19 96.7635 193.629 97.5549 194.029 98.9307L195.466 103.877C195.866 105.253 195.074 106.692 193.699 107.092Z" fill="white" stroke="#263238" stroke-miterlimit="10" stroke-linecap="round" stroke-linejoin="round"/>
<path d="M189.73 108.078L186.934 98.4551" stroke="#263238" stroke-miterlimit="10" stroke-linecap="round" stroke-linejoin="round"/>
<path d="M192.765 107.197L190.591 99.7146L193.971 98.7324" stroke="#263238" stroke-miterlimit="10" stroke-linecap="round" stroke-linejoin="round"/>
<path d="M184.394 101.872L187.562 100.951" stroke="#263238" stroke-miterlimit="10" stroke-linecap="round" stroke-linejoin="round"/>
<path d="M185.008 103.985L188.175 103.064" stroke="#263238" stroke-miterlimit="10" stroke-linecap="round" stroke-linejoin="round"/>
<path d="M185.64 106.161L188.808 105.24" stroke="#263238" stroke-miterlimit="10" stroke-linecap="round" stroke-linejoin="round"/>
<path d="M191.521 102.019L194.688 101.099" stroke="#263238" stroke-miterlimit="10" stroke-linecap="round" stroke-linejoin="round"/>
<path d="M192.173 104.263L195.077 103.419" stroke="#263238" stroke-miterlimit="10" stroke-linecap="round" stroke-linejoin="round"/>
<path d="M189.268 117.414C189.055 116.681 189.011 116.097 189.137 115.664C189.264 115.23 189.56 114.946 190.027 114.81C190.496 114.674 190.899 114.755 191.237 115.052C191.576 115.349 191.852 115.865 192.066 116.601C192.279 117.334 192.322 117.917 192.196 118.35C192.069 118.782 191.772 119.067 191.303 119.203C190.836 119.339 190.433 119.257 190.094 118.958C189.756 118.661 189.481 118.146 189.268 117.414ZM190.234 115.519C190.041 115.575 189.935 115.734 189.914 115.997C189.894 116.258 189.96 116.649 190.111 117.169C190.157 117.33 190.204 117.476 190.25 117.606L190.773 115.765C190.769 115.76 190.766 115.755 190.762 115.75C190.604 115.54 190.428 115.463 190.234 115.519ZM190.572 118.262C190.73 118.473 190.905 118.55 191.097 118.494C191.292 118.437 191.4 118.278 191.42 118.016C191.44 117.754 191.375 117.364 191.225 116.845C191.167 116.649 191.11 116.475 191.051 116.324L190.52 118.188C190.538 118.216 190.556 118.24 190.572 118.262Z" fill="white" stroke="#263238" stroke-width="0.5" stroke-miterlimit="10"/>
<path d="M193.348 117.719L194.284 117.447L193.486 114.7L192.677 115.168L192.458 114.414L193.273 113.95L194.082 113.715L195.098 117.211L196.034 116.939L196.248 117.676L193.563 118.457L193.348 117.719Z" fill="white" stroke="#263238" stroke-width="0.5" stroke-miterlimit="10"/>
<path d="M196.26 115.381C196.047 114.648 196.004 114.064 196.13 113.631C196.256 113.197 196.552 112.913 197.02 112.777C197.488 112.641 197.892 112.721 198.23 113.018C198.569 113.315 198.845 113.832 199.059 114.567C199.272 115.301 199.315 115.884 199.189 116.317C199.062 116.749 198.765 117.033 198.296 117.169C197.829 117.305 197.426 117.224 197.087 116.925C196.749 116.628 196.473 116.113 196.26 115.381ZM197.226 113.486C197.033 113.543 196.926 113.702 196.907 113.964C196.887 114.226 196.952 114.617 197.103 115.137C197.15 115.298 197.196 115.443 197.242 115.573L197.765 113.733C197.762 113.727 197.758 113.723 197.754 113.717C197.597 113.507 197.421 113.43 197.226 113.486ZM197.565 116.229C197.723 116.44 197.898 116.517 198.09 116.461C198.285 116.404 198.393 116.245 198.412 115.983C198.433 115.721 198.368 115.331 198.217 114.813C198.159 114.616 198.102 114.442 198.044 114.291L197.512 116.156C197.53 116.183 197.548 116.208 197.565 116.229Z" fill="white" stroke="#263238" stroke-width="0.5" stroke-miterlimit="10"/>
<path d="M200.341 115.687L201.277 115.415L200.479 112.667L199.671 113.136L199.451 112.382L200.267 111.917L201.075 111.683L202.091 115.179L203.026 114.907L203.241 115.644L200.555 116.425L200.341 115.687Z" fill="white" stroke="#263238" stroke-width="0.5" stroke-miterlimit="10"/>
<path d="M203.253 113.35C203.04 112.617 202.997 112.033 203.123 111.599C203.249 111.166 203.546 110.882 204.012 110.746C204.481 110.61 204.885 110.69 205.223 110.987C205.562 111.284 205.838 111.801 206.052 112.536C206.265 113.269 206.308 113.852 206.182 114.285C206.055 114.717 205.757 115.002 205.289 115.138C204.822 115.274 204.419 115.192 204.08 114.894C203.741 114.596 203.466 114.082 203.253 113.35ZM204.219 111.455C204.026 111.511 203.92 111.67 203.899 111.933C203.879 112.195 203.945 112.585 204.096 113.106C204.142 113.267 204.189 113.412 204.235 113.542L204.758 111.702C204.754 111.697 204.751 111.692 204.747 111.687C204.589 111.476 204.413 111.398 204.219 111.455ZM204.558 114.198C204.715 114.408 204.89 114.485 205.083 114.43C205.278 114.373 205.385 114.214 205.406 113.952C205.426 113.69 205.361 113.3 205.21 112.782C205.153 112.585 205.095 112.411 205.037 112.26L204.505 114.124C204.524 114.151 204.541 114.176 204.558 114.198Z" fill="white" stroke="#263238" stroke-width="0.5" stroke-miterlimit="10"/>
<path d="M207.333 113.656L208.269 113.384L207.471 110.636L206.663 111.105L206.444 110.351L207.259 109.886L208.067 109.651L209.083 113.148L210.019 112.876L210.234 113.613L207.548 114.394L207.333 113.656Z" fill="white" stroke="#263238" stroke-width="0.5" stroke-miterlimit="10"/>
<path d="M210.246 111.319C210.033 110.585 209.99 110.002 210.115 109.568C210.242 109.134 210.538 108.85 211.005 108.714C211.474 108.578 211.878 108.659 212.216 108.956C212.554 109.254 212.831 109.77 213.045 110.505C213.258 111.238 213.301 111.821 213.175 112.254C213.048 112.686 212.751 112.971 212.282 113.107C211.815 113.243 211.412 113.161 211.073 112.863C210.734 112.564 210.458 112.05 210.246 111.319ZM211.211 109.423C211.018 109.479 210.911 109.638 210.892 109.9C210.872 110.163 210.937 110.554 211.088 111.073C211.135 111.234 211.181 111.379 211.227 111.509L211.75 109.669C211.747 109.663 211.743 109.659 211.739 109.653C211.582 109.444 211.406 109.366 211.211 109.423ZM211.55 112.166C211.708 112.376 211.883 112.454 212.076 112.397C212.27 112.341 212.378 112.182 212.398 111.919C212.418 111.657 212.354 111.267 212.203 110.749C212.145 110.552 212.088 110.378 212.03 110.228L211.498 112.092C211.516 112.119 211.533 112.144 211.55 112.166Z" fill="white" stroke="#263238" stroke-width="0.5" stroke-miterlimit="10"/>
<path d="M214.326 111.624L215.262 111.352L214.464 108.605L213.655 109.074L213.436 108.32L214.251 107.855L215.06 107.62L216.076 111.116L217.011 110.844L217.226 111.582L214.54 112.362L214.326 111.624Z" fill="white" stroke="#263238" stroke-width="0.5" stroke-miterlimit="10"/>
<path d="M217.239 109.286C217.026 108.553 216.982 107.969 217.108 107.536C217.235 107.102 217.531 106.818 217.998 106.682C218.466 106.546 218.87 106.627 219.208 106.924C219.547 107.221 219.823 107.737 220.036 108.473C220.249 109.206 220.293 109.789 220.166 110.222C220.04 110.654 219.742 110.939 219.273 111.075C218.807 111.211 218.403 111.129 218.065 110.831C217.727 110.533 217.451 110.018 217.239 109.286ZM218.204 107.391C218.011 107.447 217.905 107.606 217.885 107.868C217.864 108.13 217.93 108.521 218.081 109.041C218.127 109.202 218.174 109.347 218.22 109.477L218.743 107.637C218.74 107.631 218.736 107.626 218.732 107.621C218.575 107.411 218.399 107.335 218.204 107.391ZM218.543 110.134C218.7 110.344 218.876 110.421 219.068 110.365C219.263 110.308 219.371 110.149 219.391 109.887C219.411 109.625 219.346 109.235 219.195 108.717C219.139 108.52 219.08 108.346 219.022 108.195L218.491 110.059C218.509 110.088 218.527 110.112 218.543 110.134Z" fill="white" stroke="#263238" stroke-width="0.5" stroke-miterlimit="10"/>
<path d="M221.319 109.592L222.255 109.32L221.456 106.573L220.649 107.041L220.43 106.287L221.245 105.823L222.053 105.588L223.069 109.084L224.005 108.812L224.22 109.55L221.534 110.33L221.319 109.592Z" fill="white" stroke="#263238" stroke-width="0.5" stroke-miterlimit="10"/>
<path d="M224.231 107.254C224.018 106.521 223.975 105.937 224.1 105.504C224.227 105.07 224.523 104.786 224.99 104.65C225.459 104.514 225.862 104.595 226.201 104.891C226.539 105.189 226.815 105.705 227.029 106.44C227.242 107.174 227.286 107.757 227.159 108.19C227.033 108.622 226.735 108.907 226.266 109.042C225.8 109.178 225.396 109.097 225.058 108.798C224.719 108.501 224.443 107.986 224.231 107.254ZM225.196 105.359C225.003 105.415 224.897 105.574 224.877 105.836C224.857 106.098 224.922 106.489 225.073 107.009C225.12 107.17 225.166 107.314 225.212 107.445L225.735 105.604C225.732 105.599 225.728 105.594 225.724 105.589C225.568 105.379 225.391 105.303 225.196 105.359ZM225.535 108.102C225.693 108.313 225.868 108.39 226.061 108.334C226.255 108.277 226.363 108.118 226.383 107.855C226.404 107.593 226.339 107.203 226.188 106.685C226.13 106.488 226.073 106.315 226.015 106.164L225.483 108.028C225.501 108.056 225.519 108.08 225.535 108.102Z" fill="white" stroke="#263238" stroke-width="0.5" stroke-miterlimit="10"/>
<path d="M228.311 107.561L229.246 107.289L228.448 104.541L227.64 105.01L227.421 104.256L228.236 103.791L229.044 103.557L230.06 107.053L230.996 106.781L231.21 107.518L228.525 108.299L228.311 107.561Z" fill="white" stroke="#263238" stroke-width="0.5" stroke-miterlimit="10"/>
<path d="M231.224 105.223C231.01 104.49 230.967 103.906 231.093 103.472C231.219 103.039 231.516 102.755 231.982 102.619C232.451 102.483 232.855 102.563 233.193 102.86C233.531 103.158 233.808 103.674 234.021 104.409C234.234 105.142 234.277 105.725 234.151 106.158C234.024 106.591 233.727 106.875 233.258 107.011C232.791 107.147 232.388 107.065 232.049 106.767C231.712 106.469 231.437 105.955 231.224 105.223ZM232.189 103.328C231.997 103.384 231.89 103.543 231.87 103.805C231.85 104.068 231.915 104.459 232.066 104.978C232.113 105.139 232.159 105.284 232.205 105.414L232.728 103.574C232.724 103.568 232.721 103.564 232.717 103.558C232.56 103.349 232.384 103.271 232.189 103.328ZM232.528 106.071C232.685 106.281 232.86 106.359 233.053 106.302C233.248 106.246 233.356 106.087 233.376 105.824C233.396 105.562 233.331 105.172 233.18 104.654C233.124 104.457 233.065 104.283 233.007 104.132L232.476 105.997C232.494 106.024 232.511 106.049 232.528 106.071Z" fill="white" stroke="#263238" stroke-width="0.5" stroke-miterlimit="10"/>
<path d="M235.304 105.528L236.241 105.256L235.442 102.509L234.635 102.977L234.416 102.223L235.231 101.758L236.039 101.523L237.055 105.02L237.991 104.748L238.206 105.485L235.52 106.266L235.304 105.528Z" fill="white" stroke="#263238" stroke-width="0.5" stroke-miterlimit="10"/>
<path d="M238.216 103.192C238.003 102.458 237.96 101.875 238.086 101.441C238.212 101.008 238.508 100.723 238.976 100.587C239.444 100.452 239.848 100.532 240.186 100.829C240.525 101.127 240.801 101.643 241.015 102.378C241.228 103.111 241.271 103.694 241.145 104.126C241.018 104.559 240.721 104.843 240.252 104.979C239.785 105.115 239.382 105.033 239.043 104.735C238.704 104.438 238.429 103.923 238.216 103.192ZM239.182 101.297C238.989 101.353 238.882 101.512 238.863 101.774C238.842 102.036 238.908 102.427 239.059 102.947C239.106 103.108 239.152 103.252 239.198 103.383L239.721 101.543C239.718 101.537 239.714 101.532 239.71 101.527C239.553 101.317 239.377 101.24 239.182 101.297ZM239.521 104.04C239.678 104.25 239.854 104.327 240.046 104.271C240.241 104.214 240.349 104.055 240.369 103.793C240.389 103.53 240.324 103.141 240.174 102.623C240.116 102.426 240.059 102.252 240 102.101L239.469 103.965C239.486 103.993 239.504 104.018 239.521 104.04Z" fill="white" stroke="#263238" stroke-width="0.5" stroke-miterlimit="10"/>
<path d="M242.297 103.496L243.232 103.224L242.434 100.477L241.626 100.945L241.407 100.191L242.222 99.7259L243.03 99.4912L244.046 102.987L244.982 102.716L245.197 103.453L242.511 104.233L242.297 103.496Z" fill="white" stroke="#263238" stroke-width="0.5" stroke-miterlimit="10"/>
<path d="M245.793 102.481L246.729 102.209L245.931 99.4614L245.123 99.9301L244.904 99.1759L245.719 98.7113L246.527 98.4766L247.543 101.973L248.479 101.701L248.693 102.438L246.008 103.218L245.793 102.481Z" fill="white" stroke="#263238" stroke-width="0.5" stroke-miterlimit="10"/>
<path d="M231.523 77.5665L227.19 78.8253C225.991 79.1736 224.737 78.4844 224.389 77.2858C224.041 76.0873 224.73 74.8332 225.928 74.4849L230.261 73.2261C231.46 72.8778 232.714 73.567 233.062 74.7656C233.411 75.9642 232.721 77.2182 231.523 77.5665Z" stroke="#263238" stroke-miterlimit="10" stroke-linecap="round" stroke-linejoin="round"/>
<path d="M237.723 75.7648L233.39 77.0235C232.192 77.3719 230.938 76.6826 230.589 75.4841C230.241 74.2855 230.93 73.0315 232.129 72.6831L236.462 71.4244C237.66 71.076 238.914 71.7653 239.263 72.9638C239.612 74.1631 238.922 75.4164 237.723 75.7648Z" stroke="#263238" stroke-miterlimit="10" stroke-linecap="round" stroke-linejoin="round"/>
<path d="M259.069 46.4346C259.069 46.4346 253.365 58.6441 249.281 62.532C245.196 66.4193 228.493 77.3809 224.3 81.9587C219.257 87.4632 224.205 93.4337 227.76 95.3222C231.316 97.2107 234.026 96.8914 243.943 91.2178C253.86 85.5443 257.072 75.0575 267.289 72.8646C277.507 70.6717 289.901 70.7698 299.203 63.9234C308.506 57.0769 312.272 54.0494 312.159 53.4028" fill="white"/>
<path d="M259.069 46.4346C259.069 46.4346 253.365 58.6441 249.281 62.532C245.196 66.4193 228.493 77.3809 224.3 81.9587C219.257 87.4632 224.205 93.4337 227.76 95.3222C231.316 97.2107 234.026 96.8914 243.943 91.2178C253.86 85.5443 257.072 75.0575 267.289 72.8646C277.507 70.6717 289.901 70.7698 299.203 63.9234C308.506 57.0769 312.272 54.0494 312.159 53.4028" stroke="#263238" stroke-miterlimit="10" stroke-linecap="round" stroke-linejoin="round"/>
<path d="M234.685 93.9053C238.588 90.7539 239.13 89.2517 238.427 88.5131C237.723 87.7744 231.575 79.54 231.575 79.54C231.575 79.54 225.446 82.2754 223.666 84.2525C221.885 86.2296 222.795 90.2933 226.408 93.0523C230.02 95.8113 232.775 95.302 233.507 94.8874" stroke="#263238" stroke-miterlimit="10" stroke-linecap="round" stroke-linejoin="round"/>
<path d="M329.01 1L313.995 9.97167L339 52.1562V1H329.01Z" fill="#263238" stroke="#263238" stroke-miterlimit="10" stroke-linecap="round" stroke-linejoin="round"/>
<path d="M124.149 223.852C120.033 223.494 114.307 228.504 114.307 228.504L67.2452 229.219C67.2452 229.219 67.9608 223.493 65.8133 222.062C63.6657 220.631 62.2345 223.315 59.5506 225.283C56.8666 227.251 46.3088 234.23 46.3088 234.23C46.3088 234.23 30.0254 244.788 26.6251 247.293C23.2249 249.799 14.6361 264.83 14.6361 264.83C14.6361 264.83 8.90973 275.387 7.29924 280.934C5.68875 286.481 4.07826 291.671 4.07826 291.671L1 295.061V339H20.3306L38.4349 325.491C38.4349 325.491 43.2664 323.881 47.3823 322.091C51.4981 320.302 60.624 315.47 69.9291 310.281C79.2343 305.092 88.5394 298.471 88.5394 298.471C88.5394 298.471 98.918 287.376 103.392 282.903C107.865 278.429 112.16 269.303 113.591 264.292C115.023 259.282 117.17 245.324 117.17 245.324C117.17 245.324 118.065 243.714 120.391 240.314C122.717 236.913 125.938 234.051 127.548 229.935C129.159 225.82 128.264 224.209 124.149 223.852Z" fill="white" stroke="#263238" stroke-miterlimit="10" stroke-linecap="round" stroke-linejoin="round"/>
<path d="M116.61 226.747C115.235 227.693 114.307 228.504 114.307 228.504L67.2445 229.22C67.2445 229.22 67.3013 228.767 67.3344 228.084C65.887 232.317 62.4306 241.428 59.117 242.659C54.7799 244.27 51.9296 248.731 51.9296 248.731L46.6707 252.968C46.6707 252.968 49.8233 253.564 51.682 253.688C53.5408 253.812 56.1429 255.299 60.7281 256.166C65.3134 257.033 83.158 264.965 83.158 264.965C83.158 264.965 88.1146 268.682 89.2299 273.763C90.3453 278.844 88.4866 282.933 88.4866 282.933L110.401 272.272C111.845 269.317 112.98 266.43 113.591 264.292C113.947 263.048 114.346 261.251 114.746 259.254L114.386 256.29C114.386 256.29 111.907 244.765 112.155 239.561C112.334 235.811 115.086 229.808 116.61 226.747Z" fill="#263238" stroke="#263238" stroke-miterlimit="10" stroke-linecap="round" stroke-linejoin="round"/>
<path d="M107.622 278.457C107.622 278.457 115.749 265.652 117.103 261.957C118.458 258.264 117.595 254.446 117.103 251.491C116.61 248.536 117.718 244.226 116.241 242.872C114.763 241.517 110.454 241.517 108.73 244.842C107.006 248.166 107.622 251.368 108.114 254.446C108.607 257.524 108.853 259.125 108.853 259.125C108.853 259.125 105.528 262.696 105.528 263.065" fill="white"/>
<path d="M107.622 278.457C107.622 278.457 115.749 265.652 117.103 261.957C118.458 258.264 117.595 254.446 117.103 251.491C116.61 248.536 117.718 244.226 116.241 242.872C114.763 241.517 110.454 241.517 108.73 244.842C107.006 248.166 107.622 251.368 108.114 254.446C108.607 257.524 108.853 259.125 108.853 259.125C108.853 259.125 105.528 262.696 105.528 263.065" stroke="#263238" stroke-miterlimit="10" stroke-linecap="round" stroke-linejoin="round"/>
<path d="M89.2744 297.05C89.2744 297.05 103.312 285.229 105.159 282.028C107.006 278.826 110.207 272.793 110.33 269.098C110.454 265.404 107.991 260.972 107.498 258.879C107.006 256.785 103.682 256.662 101.588 259.125C99.4947 261.588 100.357 266.39 100.48 267.621C100.603 268.852 100.726 270.084 100.726 270.084C100.726 270.084 98.0174 272.67 97.2788 274.27C96.5402 275.871 95.8009 277.471 95.8009 277.471C95.8009 277.471 91.8609 279.811 90.2599 280.919C88.6589 282.027 87.0585 284.613 87.0585 284.613" fill="white"/>
<path d="M89.2744 297.05C89.2744 297.05 103.312 285.229 105.159 282.028C107.006 278.826 110.207 272.793 110.33 269.098C110.454 265.404 107.991 260.972 107.498 258.879C107.006 256.785 103.682 256.662 101.588 259.125C99.4947 261.588 100.357 266.39 100.48 267.621C100.603 268.852 100.726 270.084 100.726 270.084C100.726 270.084 98.0174 272.67 97.2788 274.27C96.5402 275.871 95.8009 277.471 95.8009 277.471C95.8009 277.471 91.8609 279.811 90.2599 280.919C88.6589 282.027 87.0585 284.613 87.0585 284.613" stroke="#263238" stroke-miterlimit="10" stroke-linecap="round" stroke-linejoin="round"/>
<path d="M101.711 271.192C101.711 271.192 103.066 274.394 106.39 274.886" stroke="#263238" stroke-miterlimit="10" stroke-linecap="round" stroke-linejoin="round"/>
<path d="M96.4167 278.334C96.4167 278.334 95.0619 282.643 100.727 284.121" stroke="#263238" stroke-miterlimit="10" stroke-linecap="round" stroke-linejoin="round"/>
<path d="M109.714 259.74C109.714 259.74 109.468 263.557 114.886 262.818" stroke="#263238" stroke-miterlimit="10" stroke-linecap="round" stroke-linejoin="round"/>
<path d="M85.2115 269.222C85.2115 269.222 87.305 272.3 87.5512 276.609" stroke="#263238" stroke-miterlimit="10" stroke-linecap="round" stroke-linejoin="round"/>
<path d="M56.6448 243.855C56.6448 243.855 51.9656 248.412 51.1038 249.396C50.2421 250.381 46.6714 252.967 46.6714 252.967C46.6714 252.967 45.5635 256.045 44.4549 257.893" stroke="#263238" stroke-miterlimit="10" stroke-linecap="round" stroke-linejoin="round"/>
<path d="M53.8127 261.342C53.8127 261.342 53.0741 271.808 46.7944 279.196" stroke="#263238" stroke-miterlimit="10" stroke-linecap="round" stroke-linejoin="round"/>
<path d="M68.241 265.175C68.241 265.175 63.8316 271.973 68.6082 281.894C73.3849 291.815 75.2227 298.062 75.2227 298.062" stroke="#263238" stroke-miterlimit="10" stroke-linecap="round" stroke-linejoin="round"/>
<path d="M94.1709 175.145L53.0259 250.63C51.0015 254.345 53.0841 258.965 57.2081 259.909L90.266 267.469C93.138 268.125 96.0864 266.731 97.4013 264.095L137.244 184.251C138.464 181.805 136.943 178.88 134.239 178.475L98.3009 173.092C96.6296 172.841 94.9798 173.661 94.1709 175.145Z" fill="white" stroke="#263238" stroke-miterlimit="10" stroke-linecap="round" stroke-linejoin="round"/>
<path d="M93.1164 180.602L56.573 247.853L99.2601 257.615L133.558 187.984L93.1164 180.602Z" fill="#009589" fill-opacity="0.5" stroke="#263238" stroke-miterlimit="10" stroke-linecap="round" stroke-linejoin="round"/>
<path d="M138.296 182.765L138.297 182.763L138.289 182.751C138.268 182.711 138.243 182.673 138.221 182.634L137.548 181.483C137.77 182.369 137.696 183.342 137.244 184.25L97.4014 264.094C96.0859 266.73 93.1381 268.123 90.2662 267.466L57.2082 259.907C55.0721 259.419 53.4907 257.94 52.7372 256.115L52.6993 256.104C52.6993 256.104 52.951 259.058 56.0928 261.321C56.0928 261.321 56.5054 261.675 57.3225 261.745C57.6296 261.869 57.9461 261.977 58.2816 262.054L91.3396 269.615C94.2116 270.271 97.1593 268.877 98.4749 266.241L138.317 186.397C138.924 185.182 138.852 183.849 138.296 182.765Z" fill="#919191" stroke="#263238" stroke-miterlimit="10" stroke-linecap="round" stroke-linejoin="round"/>
<path d="M119.005 206.881C118.944 206.97 118.885 207.062 118.821 207.151C117.817 208.553 115.892 208.755 115.333 207.506C114.797 206.308 114.147 205.195 113.336 204.199C111.822 202.343 109.903 200.958 107.587 200.041C105.979 199.404 104.248 199.023 102.394 198.915C97.7808 198.646 93.1759 199.872 88.5866 202.589C88.1578 202.842 87.7316 203.019 87.2839 203.037C86.4079 203.073 85.7613 202.521 85.7031 201.687C85.645 200.846 86.1759 199.927 87.0282 199.406C88.1828 198.702 89.3644 198.077 90.5705 197.527C93.6122 196.139 96.6668 195.291 99.7322 194.975C102.508 194.688 105.13 194.867 107.603 195.495C111.178 196.405 114.104 198.163 116.393 200.748C117.542 202.046 118.456 203.519 119.16 205.148C119.314 205.505 119.334 205.902 119.214 206.341C119.206 206.374 119.203 206.406 119.199 206.438C119.133 206.586 119.069 206.733 119.005 206.881Z" fill="#263238"/>
<path d="M94.5972 221.197C94.399 221.081 94.1778 220.991 94.0074 220.846C93.3127 220.256 93.2701 219.136 93.8863 218.155C94.5052 217.17 95.6233 216.549 96.6257 216.634C97.8168 216.734 98.4763 217.8 98.0941 219.008C97.6795 220.316 96.4106 221.29 95.1471 221.27C95.1207 221.269 95.0923 221.277 95.0646 221.28C94.909 221.253 94.7528 221.225 94.5972 221.197Z" fill="#263238"/>
<path d="M103.055 202.389C107.44 203.246 110.519 205.579 112.244 209.444C112.536 210.1 112.329 210.936 111.724 211.602C111.128 212.259 110.267 212.588 109.55 212.424C109.099 212.32 108.79 212.057 108.613 211.652C108.176 210.652 107.597 209.76 106.863 208.986C105.739 207.802 104.356 206.952 102.7 206.457C99.8737 205.613 96.832 205.819 93.5799 207.085C92.637 207.453 91.7205 207.916 90.8263 208.455C90.3346 208.751 89.8442 208.875 89.3633 208.802C88.6355 208.691 88.1769 208.125 88.1978 207.374C88.2188 206.622 88.7132 205.838 89.462 205.382C90.5652 204.711 91.6982 204.138 92.8602 203.667C95.4366 202.622 97.9771 202.114 100.483 202.149C101.364 202.162 102.219 202.247 103.055 202.389Z" fill="#263238"/>
<path d="M105.676 214.816C105.271 215.643 104.675 216.181 103.848 216.371C103.024 216.561 102.424 216.32 102.118 215.673C101.786 214.972 101.36 214.357 100.762 213.879C98.8808 212.373 95.9223 212.41 93.262 213.997C92.3144 214.563 91.3627 214.478 90.8899 213.894C90.2359 213.085 90.6978 211.665 91.8558 210.965C93.8106 209.783 95.8161 209.097 97.8446 209.021C101.515 208.884 104.105 210.269 105.587 213.175C105.766 213.528 105.894 213.902 105.797 214.368C105.762 214.53 105.709 214.693 105.676 214.816Z" fill="#263238"/>
</svg>
