<svg width="457" height="377" viewBox="0 0 457 377" fill="none" xmlns="http://www.w3.org/2000/svg">
<path d="M406.208 359.152C383.486 341.889 344.625 299.052 395.8 231.806C459.084 148.648 383.296 114.531 310.65 118.092C252.206 120.957 186.432 47.4833 120.819 60.6153C33.7308 78.0453 90.2778 153.041 31.2298 193.446C-19.1292 227.903 2.49177 332.897 68.0318 359.152H406.208Z" fill="#006E7C"/>
<path d="M447.218 206.655C446.867 194.324 435.38 189.54 427.713 198.468C423.314 203.589 419.121 210.935 418.337 220.76C416.581 242.745 435.816 236.375 443.003 224.603C446.069 219.582 447.395 212.888 447.218 206.655Z" fill="#EBEBEB"/>
<path d="M235.56 56.2606C223.439 53.9666 216.31 64.1656 223.392 73.5646C227.454 78.9566 233.734 84.6236 243.164 87.4896C264.266 93.9046 262.154 73.7526 252.192 64.2156C247.942 60.1466 241.687 57.4196 235.56 56.2606Z" fill="#EBEBEB"/>
<path d="M35.2228 169.244C40.0728 157.901 31.6478 148.744 20.9448 153.635C14.8048 156.441 7.9188 161.354 3.0888 169.945C-7.7192 189.17 12.4138 191.448 23.8738 183.773C28.7608 180.499 32.7708 174.977 35.2228 169.244Z" fill="#EBEBEB"/>
<path d="M228.377 376.191C343.119 376.191 436.137 370.068 436.137 362.514C436.137 354.96 343.119 348.837 228.377 348.837C113.634 348.837 20.6167 354.96 20.6167 362.514C20.6167 370.068 113.634 376.191 228.377 376.191Z" fill="#EBEBEB"/>
<path d="M430.538 250.307C417.817 263.023 432.006 264.101 422.673 273.704C414.165 282.457 401.611 273.937 402.447 295.316C402.63 299.992 399.226 303.462 394.452 305.24C386.595 308.163 378.909 305.459 374.175 300.085C373.79 299.652 373.424 299.198 373.081 298.727C369.488 293.824 368.178 287.179 370.84 280.593C373 275.249 376.825 269.992 383.604 267.897C399.508 262.981 390.68 241.917 404.123 240.992C420.335 239.876 420.916 233.93 432.422 225.915C444.619 217.416 447.778 233.075 430.538 250.307Z" fill="#009589"/>
<path d="M424.835 243.359C424.48 243.725 394.985 274.135 374.174 300.084C373.789 299.651 373.423 299.197 373.08 298.726C393.947 272.762 423.258 242.538 423.615 242.172C423.943 241.835 424.481 241.828 424.818 242.155C425.156 242.483 425.163 243.022 424.835 243.359Z" fill="#48BB86"/>
<path d="M433.804 292.756C413.875 304.488 431.189 310.399 416.48 319.347C403.071 327.503 390.188 312.855 384.344 339.736C383.065 345.616 377.711 348.839 371.196 349.514C360.475 350.622 351.778 344.781 347.615 336.567C347.275 335.904 346.966 335.221 346.691 334.524C343.798 327.264 344.306 318.571 349.741 311.23C354.15 305.274 360.605 299.962 369.718 299.537C391.098 298.54 386.893 269.476 403.924 272.655C424.463 276.486 427.101 269.273 444.005 263C461.922 256.35 460.813 276.858 433.804 292.756Z" fill="#009589"/>
<path d="M428.942 282.271C428.382 282.613 381.874 310.968 347.614 336.567C347.274 335.904 346.965 335.221 346.69 334.524C381.026 308.925 427.243 280.742 427.806 280.401C428.322 280.087 428.995 280.252 429.309 280.768C429.623 281.284 429.459 281.957 428.942 282.271Z" fill="#48BB86"/>
<path d="M45.135 105.04C51.973 121.675 38.465 117.203 43.376 129.661C47.854 141.017 62.721 137.993 53.712 157.398C51.741 161.643 53.545 166.157 57.266 169.636C63.389 175.361 71.524 175.828 77.964 172.693C78.486 172.442 78.999 172.163 79.497 171.861C84.702 168.721 88.472 163.095 88.553 155.991C88.619 150.228 87.115 143.902 81.667 139.357C68.885 128.692 85.149 112.656 73.1 106.623C58.57 99.3459 60.325 93.6349 52.797 81.8049C44.817 69.2639 35.867 82.4949 45.135 105.04Z" fill="#009589"/>
<path d="M53.075 100.827C53.262 101.302 68.76 140.729 77.963 172.694C78.485 172.443 78.998 172.164 79.496 171.862C70.246 139.862 54.846 100.678 54.658 100.202C54.486 99.7645 53.991 99.5505 53.554 99.7225C53.117 99.8945 52.902 100.389 53.075 100.827Z" fill="#3EB687"/>
<path d="M25.6629 148.494C40.0839 166.572 21.7999 165.906 32.3419 179.52C41.9509 191.929 59.2179 182.852 55.0709 210.046C54.1639 215.995 58.0129 220.918 63.8569 223.877C73.4739 228.743 83.6839 226.396 90.5069 220.211C91.0609 219.713 91.5939 219.185 92.0999 218.633C97.3969 212.886 100.028 204.585 97.5749 195.787C95.5849 188.649 91.4539 181.381 83.0949 177.728C63.4829 169.157 77.7959 143.515 60.7529 140.398C40.2009 136.637 40.3139 128.957 26.7679 117.058C12.4099 104.443 6.11793 123.994 25.6629 148.494Z" fill="#009589"/>
<path d="M33.95 140.437C34.351 140.956 67.656 184.058 90.507 220.209C91.061 219.711 91.594 219.183 92.1 218.631C69.178 182.453 36.083 139.616 35.679 139.096C35.309 138.618 34.622 138.532 34.144 138.902C33.667 139.272 33.58 139.96 33.95 140.437Z" fill="#3FB687"/>
<path d="M122.931 132.756C128.741 128.778 143.291 138.591 150.899 150.506L144.149 131.598C141.706 129.479 137.43 126.506 130.746 124.138C120.353 120.454 109.935 114.684 115.756 110.698C121.21 106.963 134.368 115.384 142.254 126.288L133.586 102.006C131.974 100.766 129.519 99.2592 126.012 98.0162C119.462 95.6942 112.897 92.0582 116.565 89.5462C119.748 87.3662 127.095 91.7562 132.111 97.8742L129.302 90.0042C128.017 87.7182 126.19 84.4502 123.31 81.4712C116.637 74.5672 111.591 66.8002 116.738 65.6752C121.889 64.5492 130.319 78.0782 131.646 90.3012L133.092 94.3512C131.97 85.4602 135.166 74.6962 139.623 74.3152C144.052 73.9362 141.274 80.9082 137.675 86.8532C134.935 91.3782 134.179 94.9692 133.976 96.8272L140.804 115.955C139.066 101.871 144.129 84.8862 151.182 84.2832C158.21 83.6822 153.802 94.7452 148.091 104.177C143.775 111.305 142.559 116.975 142.227 119.941L150.415 142.879C148.963 128.962 153.942 112.07 160.885 112.015C166.238 111.973 164.599 119.531 158.205 130.201C153.86 137.452 152.47 143.964 152.026 147.392L155.883 158.196C155.237 158.653 154.565 158.892 153.897 158.905L152.362 154.606C150.194 152.509 145.679 148.946 137.92 146.196C127.528 142.512 117.111 136.742 122.931 132.756Z" fill="#3DB587"/>
<path d="M71.8129 293.003C65.8529 296.752 69.0729 314.004 76.9819 325.722L62.3149 312.012C61.3419 308.928 60.3139 303.822 60.7969 296.748C61.5479 285.747 60.3949 273.894 54.4239 277.65C48.8289 281.17 51.3249 296.591 58.1959 308.161L39.3609 290.555C38.8639 288.582 38.4569 285.731 38.7109 282.019C39.1849 275.086 38.4569 267.616 34.6949 269.983C31.4289 272.037 32.5369 280.524 36.1569 287.559L30.0519 281.853C28.4649 279.765 26.1929 276.79 24.6039 272.962C20.9209 264.094 15.8009 256.377 12.7219 260.652C9.64086 264.931 18.7039 278.045 29.3919 284.121L32.5329 287.057C24.8209 282.493 13.6739 281.147 11.5519 285.085C9.44386 288.999 16.9449 289.221 23.8309 288.282C29.0729 287.567 32.6679 288.3 34.4529 288.852L49.2909 302.724C37.0579 295.531 19.4599 293.424 16.1029 299.656C12.7579 305.866 24.6609 306.219 35.5859 304.728C43.8429 303.601 49.5279 304.74 52.3819 305.614L70.1739 322.245C57.9799 315.38 40.5019 313.234 37.6909 319.583C35.5239 324.478 43.1109 325.979 55.4429 324.354C63.8239 323.249 70.3509 324.563 73.6739 325.518L82.0549 333.352C82.7309 332.941 83.2179 332.419 83.4949 331.812L80.1599 328.695C79.0979 325.872 77.6229 320.312 78.1839 312.1C78.9369 301.099 77.7839 289.247 71.8129 293.003Z" fill="#48BB86"/>
<path d="M372.596 138.417H54.502V358.145H372.596V138.417Z" fill="#009589"/>
<path d="M372.586 138.425V152.511L213.55 293.471L54.5029 152.511V138.425L213.539 279.868L372.586 138.425Z" fill="white" fill-opacity="0.85"/>
<path d="M182.904 252.13L63.715 358.145H54.502V352.544L176.053 244.432L182.904 252.13Z" fill="white" fill-opacity="0.85"/>
<path d="M372.596 353.287V358.145H362.549L243.359 252.13L250.211 244.432L372.596 353.287Z" fill="white" fill-opacity="0.85"/>
<path d="M54.4929 138.415L213.54 279.868L372.587 138.415H54.4929Z" fill="#009589"/>
<path d="M284.837 118.626L288.896 127.311L280.315 127.444L277.005 119.541L284.837 118.626Z" fill="#F9AF8B"/>
<path d="M286.194 126.768C286.194 126.768 287.956 124.401 289.356 124.502C290.756 124.603 301.553 133.188 305.252 133.896C308.951 134.605 308.608 138.373 307.06 138.373C302.602 138.373 278 138.414 278 138.414C278 138.414 277.256 129.613 278.198 126.989C279.139 124.365 283.302 127.389 286.194 126.768Z" fill="#48BB86"/>
<path d="M292.163 132.758C292.032 132.797 291.886 132.785 291.758 132.712C291.509 132.57 291.423 132.254 291.564 132.006C291.611 131.923 292.741 129.961 294.262 129.195C296.285 128.173 297.862 129.317 297.929 129.366C298.159 129.536 298.207 129.861 298.036 130.091C297.866 130.321 297.541 130.369 297.311 130.198C297.268 130.167 296.17 129.396 294.729 130.121C293.49 130.745 292.475 132.503 292.465 132.52C292.395 132.639 292.285 132.721 292.163 132.758Z" fill="white"/>
<path d="M290.618 131.299C290.488 131.338 290.341 131.326 290.213 131.253C289.964 131.111 289.878 130.795 290.019 130.546C290.066 130.463 291.196 128.501 292.717 127.735C294.741 126.713 296.317 127.856 296.384 127.906C296.614 128.076 296.662 128.401 296.491 128.631C296.321 128.861 295.996 128.909 295.766 128.737C295.723 128.706 294.624 127.935 293.184 128.66C291.94 129.287 290.931 131.041 290.921 131.059C290.851 131.179 290.741 131.262 290.618 131.299Z" fill="white"/>
<path d="M294.256 133.942C294.125 133.981 293.979 133.969 293.851 133.896C293.602 133.754 293.516 133.438 293.657 133.189C293.704 133.106 294.834 131.144 296.355 130.377C298.379 129.354 299.955 130.499 300.022 130.548C300.252 130.718 300.299 131.043 300.129 131.273C299.959 131.502 299.634 131.551 299.404 131.38C299.361 131.349 298.262 130.578 296.822 131.303C295.578 131.93 294.569 133.684 294.559 133.702C294.489 133.823 294.379 133.905 294.256 133.942Z" fill="white"/>
<path d="M287.282 121.457L283.481 122.697L281.368 122.823L277.736 123.036C272.937 119.241 259.992 107.819 257.47 101.085C257.47 101.085 240.814 139.818 217.785 139.818C216.291 139.818 220.239 120.544 223.993 116.536C223.993 116.536 245.219 76.9774 258.98 81.1764C265.142 83.0564 271.375 92.0274 287.282 121.457Z" fill="#48BB86"/>
<path d="M283.48 122.697L281.367 122.823C267.241 112.127 260.697 103.069 257.684 97.267C257.58 97.065 257.411 97 257.297 97.003C257.199 97.006 257.128 97.06 257.082 97.175C250.318 113.098 242.201 122.654 236.581 127.87C230.457 133.552 225.978 135.425 225.792 135.504L225.533 134.871L225.274 134.241C225.318 134.222 229.762 132.354 235.719 126.808C241.221 121.688 249.177 112.298 255.827 96.639C256.081 96.036 256.612 95.663 257.245 95.638C257.926 95.611 258.565 96.003 258.894 96.636C261.933 102.488 268.662 111.733 283.48 122.697Z" fill="#48BB86"/>
<path d="M273.927 120.445C274.531 121.575 275.57 123.172 276.563 123.944C276.563 123.944 284.697 123.568 288.653 121.581L286.878 117.446C286.878 117.446 280.402 119.809 273.927 120.445Z" fill="#48BB86"/>
<path d="M284.573 64.9194C273.006 69.6304 263.761 71.9994 255.893 72.9744C255.893 72.9744 255.888 72.9714 255.877 72.9714C255.776 72.9744 253.924 73.1244 253.212 73.0964C251.093 73.0234 248.223 72.5424 245.316 71.1854C243.246 70.2184 240.288 67.7194 237.194 64.7404C233.362 61.0434 229.321 56.6084 226.527 53.4384C224.353 50.9764 222.931 49.2784 222.931 49.2784C224.86 46.4084 229.132 43.7974 232.85 42.4014C232.85 42.4014 240.608 55.3204 252.362 61.6644C253.002 62.0124 253.654 62.3354 254.317 62.6344C256.995 62.2004 264.241 61.8704 267.382 61.6464C275.897 61.0404 282.849 59.5644 282.849 59.5644L284.573 64.9194Z" fill="#F9AF8B"/>
<path d="M282.556 59.1381C282.556 59.1381 284.167 55.0701 286.358 53.9081C288.549 52.7471 294.786 48.6591 296.117 49.8821C297.448 51.1051 297.173 56.9801 291.582 61.8901C288.021 65.0181 284.433 64.8851 284.433 64.8851L282.556 59.1381Z" fill="#F9AF8B"/>
<path d="M296.516 53.6189L287.311 62.2189C286.965 62.5439 286.34 62.6379 285.913 62.4309L280.271 59.7039C280.096 59.6179 279.981 59.4959 279.932 59.3569L279.919 59.3119L279.642 58.3689L281.138 57.8019L295.621 52.3009L296.406 52.0049L296.7 53.0009L296.723 53.0699C296.727 53.0779 296.729 53.0849 296.726 53.0949C296.76 53.2689 296.69 53.4589 296.516 53.6189Z" fill="#001030"/>
<path d="M295.622 52.3001L281.139 57.8011L289.33 50.1471C289.675 49.8251 290.301 49.7291 290.725 49.9341L295.622 52.3001Z" fill="#1F2232"/>
<path d="M285.633 61.475L279.989 58.746C279.564 58.54 279.498 58.112 279.843 57.79L289.049 49.19C289.394 48.868 290.019 48.773 290.444 48.979L296.088 51.708C296.513 51.914 296.579 52.342 296.233 52.664L287.028 61.264C286.682 61.586 286.058 61.68 285.633 61.475Z" fill="#006E7C"/>
<path d="M286.317 59.9343L281.944 57.8203C281.518 57.6143 281.453 57.1864 281.798 56.8644L288.957 50.1764C289.302 49.8544 289.927 49.7594 290.352 49.9654L294.725 52.0804C295.15 52.2864 295.216 52.7144 294.871 53.0364L287.712 59.7244C287.367 60.0454 286.743 60.1393 286.317 59.9343Z" fill="#006E7C"/>
<path d="M296.731 53.0923L296.727 53.0943C296.73 53.0853 296.729 53.0773 296.724 53.0693L296.731 53.0923Z" fill="#1F2232"/>
<path d="M286.201 51.8497C286.201 51.8497 287.512 52.0547 287.646 53.1817C287.779 54.3097 286.56 53.8607 285.775 53.6127C284.991 53.3647 284.284 53.6137 284.176 53.7407C283.834 54.1447 283.893 51.5157 286.201 51.8497Z" fill="#F9AF8B"/>
<path d="M292.063 57.9725C292.063 57.9725 294.121 54.5905 295.698 52.7435C296.749 51.5125 297.285 53.2975 296.566 54.5425C295.846 55.7875 294.428 58.3225 292.063 57.9725Z" fill="#F9AF8B"/>
<path d="M196.2 118.938L191.64 89.5414L191.37 87.7993L191.401 86.4863L192.417 44.8413L203.971 40.9363L204.59 40.7253L207.185 39.8463L209.242 39.1523L221.441 40.8313L223.427 41.1043L224.126 41.2003L232.854 42.4013C232.935 70.0093 230.285 75.9743 235.386 98.4323C237.954 106.903 228.532 136.903 196.2 118.938Z" fill="#48BB86"/>
<path d="M202.695 111.418L202.697 111.417C211.832 108.866 218.497 102.561 222.479 97.7207C226.786 92.4857 228.974 87.7787 228.996 87.7317C229.101 87.5027 229.001 87.2317 228.772 87.1267C228.543 87.0217 228.272 87.1217 228.167 87.3497C228.146 87.3957 225.996 92.0137 221.758 97.1597C217.861 101.892 211.349 108.053 202.451 110.538C202.208 110.606 202.066 110.857 202.134 111.1C202.202 111.342 202.453 111.484 202.695 111.418Z" fill="#48BB86"/>
<path d="M213.08 111.908C221.017 109.729 227.69 103.034 227.993 102.727C228.17 102.547 228.168 102.258 227.988 102.081C227.809 101.904 227.52 101.907 227.343 102.086C227.265 102.165 219.411 110.04 210.92 111.453C210.667 111.493 210.503 111.73 210.545 111.978C210.586 112.227 210.821 112.395 211.07 112.353C211.747 112.24 212.418 112.09 213.08 111.908Z" fill="#48BB86"/>
<path d="M207.463 53.1856C215.395 50.9866 222.051 44.2746 222.353 43.9666C222.529 43.7866 222.527 43.4976 222.347 43.3206C222.167 43.1446 221.878 43.1476 221.702 43.3266C221.624 43.4056 213.79 51.3006 205.302 52.7346C205.05 52.7746 204.886 53.0126 204.928 53.2606C204.97 53.5096 205.205 53.6766 205.454 53.6346C206.13 53.5206 206.801 53.3686 207.463 53.1856Z" fill="#48BB86"/>
<path d="M277.065 195.022L280.259 202.132L273.709 204.949L269.899 197.605L277.065 195.022Z" fill="#F9AF8B"/>
<path d="M278.829 201.982C278.829 201.982 279.499 199.108 280.823 198.642C282.147 198.176 295.474 201.734 299.148 200.906C302.823 200.079 303.252 202.862 303.186 204.409C303.12 205.956 275.924 215.712 275.924 215.712C275.924 215.712 271.771 208.161 271.586 205.378C271.401 202.597 276.425 203.706 278.829 201.982Z" fill="#48BB86"/>
<path d="M286.692 205.09C286.588 205.178 286.449 205.225 286.302 205.21C286.017 205.179 285.812 204.924 285.842 204.64C285.852 204.545 286.104 202.295 287.192 200.985C288.638 199.24 290.541 199.659 290.622 199.677C290.901 199.741 291.074 200.02 291.009 200.299C290.945 200.578 290.666 200.751 290.387 200.686C290.335 200.675 289.02 200.407 287.989 201.647C287.102 202.714 286.874 204.73 286.872 204.751C286.858 204.888 286.79 205.007 286.692 205.09Z" fill="white"/>
<path d="M284.694 204.369C284.59 204.457 284.451 204.504 284.304 204.488C284.02 204.457 283.814 204.202 283.844 203.917C283.854 203.822 284.106 201.572 285.194 200.262C286.642 198.516 288.543 198.935 288.624 198.954C288.903 199.018 289.076 199.297 289.011 199.576C288.947 199.855 288.668 200.029 288.389 199.963C288.337 199.952 287.022 199.684 285.991 200.924C285.101 201.996 284.876 204.007 284.874 204.027C284.86 204.167 284.792 204.286 284.694 204.369Z" fill="white"/>
<path d="M289.085 205.34C288.981 205.428 288.842 205.475 288.695 205.46C288.41 205.429 288.204 205.174 288.235 204.89C288.245 204.795 288.497 202.545 289.585 201.235C291.032 199.489 292.934 199.909 293.015 199.927C293.294 199.991 293.467 200.27 293.402 200.549C293.338 200.827 293.059 201.001 292.78 200.936C292.728 200.925 291.412 200.657 290.382 201.897C289.492 202.969 289.267 204.98 289.265 205C289.251 205.137 289.183 205.257 289.085 205.34Z" fill="white"/>
<path d="M278.714 196.4C278.035 197.171 275.938 198.341 273.654 199.364C273.24 199.552 272.814 199.732 272.394 199.907C271.653 200.212 270.916 200.49 270.224 200.728C270.224 200.728 254.686 172.089 248.723 151.321C248.723 151.321 196.129 144.826 194.307 126.406C194.244 125.79 194.242 125.16 194.299 124.514C194.455 122.758 195.063 120.904 196.199 118.941C197.399 116.874 215.399 118.889 225.125 121.618C225.125 121.618 251.491 131.889 261.238 142.47C266.172 147.824 278.714 196.4 278.714 196.4Z" fill="#48BB86"/>
<path d="M273.654 199.365C273.24 199.553 272.814 199.733 272.394 199.908C264.536 186.902 253.625 156.518 251.193 149.225C251.029 148.732 250.607 148.363 250.089 148.265C224.536 143.461 209.813 136.759 201.961 131.982C198.501 129.877 196.031 127.958 194.308 126.406C194.245 125.79 194.243 125.16 194.3 124.514C195.972 126.147 198.671 128.399 202.826 130.91C210.578 135.597 225.113 142.181 250.344 146.926C251.347 147.114 252.168 147.831 252.49 148.794C254.92 156.092 265.875 186.613 273.654 199.365Z" fill="black"/>
<path d="M267.418 197.726L269.899 201.694C269.899 201.694 276.078 200.626 280.259 196.4L278.714 192.855C278.714 192.855 271.198 196.56 267.418 197.726Z" fill="black"/>
<path d="M183.71 129.812C183.71 129.812 187.289 134.665 186.994 137.177C186.699 139.689 183.458 144.42 180.867 144.649C178.276 144.877 183.844 138.568 182.53 138.772C180.94 139.018 170.205 147.826 167.94 147.826C165.674 147.826 170.605 143.732 172.526 142.698C172.526 142.698 167.447 144.969 166.265 146.151C165.083 147.333 164.225 144.798 170.134 141.203C170.134 141.203 164.713 144.28 164.344 144.329C163.138 144.49 166.578 140.457 169.54 138.998C169.54 138.998 165.195 141.114 164.753 141.123C164.142 141.136 165.453 139.714 168.678 137.927C171.579 136.319 176.333 128.936 176.333 128.936L183.71 129.812Z" fill="#F9AF8B"/>
<path d="M192.416 44.8418C192.416 44.8418 180.369 67.9808 177.626 92.1828L176.334 128.934C176.334 128.934 177.572 131.553 183.711 129.812L189.649 93.0658L194.199 76.2528C194.199 76.2528 196.266 55.5618 192.416 44.8418Z" fill="#F9AF8B"/>
<path d="M229.417 19.8229C228.137 27.0619 221.231 31.8939 213.992 30.6139C206.753 29.3339 201.921 22.4279 203.201 15.1889C204.481 7.9499 211.387 3.1179 218.626 4.3979C225.865 5.6779 230.696 12.5839 229.417 19.8229Z" fill="#006E7C"/>
<path d="M229.618 17.4348C229.618 17.4348 233.511 17.0668 233.659 13.3768C233.784 10.2368 229.831 11.5878 230.571 9.2478C231.311 6.9068 232.4 4.8528 229.406 3.7058C226.787 2.7028 226.413 4.5528 223.329 1.2268C219.685 -2.7022 215.15 4.1018 211.356 3.6598C205.76 3.0078 204.508 6.0158 203.52 8.4248C202.532 10.8338 204.354 12.9678 204.354 12.9678L229.618 17.4348Z" fill="#006E7C"/>
<path d="M226.566 23.1015C226.566 23.1015 229.132 20.6995 230.271 23.2625C231.41 25.8245 228.032 32.2005 224.544 29.8815L226.566 23.1015Z" fill="#FC8664"/>
<path d="M225.739 27.9377C225.879 27.9627 226.023 27.8927 226.088 27.7587C227.043 25.7747 229.355 25.3107 229.378 25.3067C229.554 25.2727 229.669 25.1037 229.636 24.9277C229.603 24.7517 229.433 24.6367 229.258 24.6697C229.15 24.6897 226.603 25.1937 225.504 27.4787C225.427 27.6397 225.494 27.8337 225.656 27.9117C225.682 27.9237 225.71 27.9327 225.739 27.9377Z" fill="#FD664D"/>
<path d="M228.107 27.2729C228.166 27.2839 228.229 27.2779 228.289 27.2529C228.454 27.1839 228.532 26.9939 228.463 26.8289C228.451 26.8009 228.172 26.1499 227.435 25.6499C227.288 25.5489 227.085 25.5879 226.984 25.7369C226.884 25.8849 226.922 26.0869 227.071 26.1879C227.641 26.5739 227.862 27.0749 227.864 27.0799C227.909 27.1839 228.003 27.2539 228.107 27.2729Z" fill="#FD664D"/>
<path d="M209.269 33.0957L208.08 39.8197C208.08 39.8197 210.321 43.2717 212.991 43.9847C215.658 44.6997 217.875 41.7727 217.875 41.7727L219.018 35.3067L209.269 33.0957Z" fill="#F9AF8B"/>
<path d="M209.269 33.0957L208.742 36.0787C210.205 38.4197 213.347 39.4957 218.254 39.6347L219.019 35.3067L209.269 33.0957Z" fill="#FC8664"/>
<path d="M205.233 14.574C204.896 17.209 204.567 20.521 204.604 23.222C204.613 23.896 204.646 24.534 204.705 25.111C205.244 30.316 207.281 39.438 217.816 37.651C222.468 36.863 225.358 32.346 227.139 27.549C228.347 24.291 229.041 20.905 229.427 18.466C229.818 15.976 228.864 13.468 226.921 11.863C221.658 7.51295 215.268 7.65895 210.929 8.50195C207.916 9.08595 205.621 11.536 205.233 14.574Z" fill="#F9AF8B"/>
<path d="M221.43 23.0989C221.303 23.8169 221.57 24.4639 222.026 24.5449C222.482 24.6259 222.955 24.1089 223.082 23.3919C223.209 22.6739 222.942 22.0269 222.485 21.9459C222.029 21.8649 221.557 22.3809 221.43 23.0989Z" fill="#006E7C"/>
<path d="M211.754 21.3887C211.627 22.1067 211.894 22.7537 212.351 22.8347C212.807 22.9157 213.28 22.3987 213.407 21.6807C213.534 20.9627 213.267 20.3157 212.811 20.2347C212.354 20.1547 211.881 20.6707 211.754 21.3887Z" fill="#006E7C"/>
<path d="M225.649 19.7283C225.649 19.7283 222.45 17.7613 219.599 18.4373L219.603 19.7063C219.603 19.7063 222.584 19.5733 225.208 21.1163C225.483 20.5803 225.77 20.3503 225.649 19.7283Z" fill="#006E7C"/>
<path d="M209.91 16.9472C209.91 16.9472 213.59 16.1962 216.036 17.8082L215.598 18.9982C215.598 18.9982 212.843 17.8512 209.85 18.4022C209.774 17.8042 209.584 17.4902 209.91 16.9472Z" fill="#006E7C"/>
<path d="M215.948 27.404C215.409 27.309 214.912 27.005 214.835 26.956C214.684 26.86 214.639 26.66 214.734 26.509C214.829 26.357 215.03 26.312 215.181 26.407C215.449 26.575 216.109 26.881 216.441 26.755C216.505 26.73 216.596 26.676 216.651 26.485C216.964 25.39 217.319 21.597 217.323 21.559C217.339 21.381 217.498 21.25 217.676 21.266C217.855 21.282 217.986 21.44 217.969 21.619C217.954 21.778 217.604 25.511 217.275 26.663C217.151 27.097 216.879 27.282 216.673 27.361C216.446 27.447 216.193 27.447 215.948 27.404Z" fill="#FC8664"/>
<path d="M219.621 30.0686C219.128 31.3356 217.833 33.5996 214.91 33.0826C211.98 32.5646 211.549 30.2106 211.535 28.6396L219.621 30.0686Z" fill="white"/>
<path d="M214.655 34.7571C213.828 34.6111 213.201 34.0681 213.175 34.0451C213.04 33.9271 213.027 33.7221 213.145 33.5871C213.263 33.4521 213.468 33.4391 213.603 33.5571C213.608 33.5611 214.124 34.0041 214.768 34.1181C215.359 34.2221 215.985 33.9831 215.991 33.9811C216.157 33.9151 216.346 33.9961 216.412 34.1631C216.478 34.3291 216.397 34.5181 216.23 34.5841C216.198 34.5971 215.435 34.8951 214.655 34.7571Z" fill="#FC8664"/>
<path d="M226.518 25.2904C226.992 24.0154 227.531 22.3574 227.512 21.4554C227.474 19.8584 226.357 18.7254 227.045 17.3134C227.735 15.8954 226.445 14.0194 225.333 13.5494C224.224 13.0764 221.418 13.1744 218.979 11.4404C216.651 9.7834 212.081 9.8664 211.073 11.3694C209.853 13.1904 211.005 13.5864 208.251 15.3014C207.154 15.9854 207.887 18.3944 207.793 19.8604C207.748 20.5344 207.702 20.8594 207.55 21.5654L207.477 21.9244L204.632 21.4214C204.713 19.1364 204.968 16.6464 205.233 14.5724C205.622 11.5344 207.918 9.0864 210.929 8.5014C215.269 7.6584 221.657 7.5104 226.922 11.8624C228.863 13.4684 229.818 15.9744 229.426 18.4644C229.122 20.3984 228.621 22.9294 227.823 25.5214L226.518 25.2904Z" fill="#006E7C"/>
<path d="M205.674 22.8733C205.814 22.1313 205.893 21.3773 205.893 20.6213C205.892 19.5883 205.762 18.6273 204.811 18.0283C204.045 17.5463 203.166 17.3843 202.374 18.2033C200.425 20.2193 200.886 27.6473 204.958 26.6653L205.674 22.8733Z" fill="#F9AF8B"/>
<path d="M204.593 24.4618C204.461 24.4098 204.374 24.2758 204.388 24.1278C204.604 21.9368 202.871 20.3378 202.853 20.3218C202.721 20.2018 202.71 19.9968 202.83 19.8638C202.95 19.7308 203.155 19.7208 203.288 19.8398C203.369 19.9128 205.283 21.6678 205.034 24.1908C205.016 24.3688 204.858 24.4988 204.679 24.4818C204.649 24.4788 204.62 24.4718 204.593 24.4618Z" fill="#FC8664"/>
<path d="M202.916 22.6605C202.86 22.6385 202.809 22.6005 202.771 22.5485C202.666 22.4035 202.699 22.2005 202.843 22.0955C202.867 22.0785 203.445 21.6665 204.334 21.6235C204.512 21.6145 204.665 21.7525 204.674 21.9315C204.683 22.1105 204.545 22.2625 204.366 22.2715C203.678 22.3055 203.228 22.6175 203.224 22.6205C203.131 22.6885 203.015 22.6995 202.916 22.6605Z" fill="#FC8664"/>
<path d="M355.927 176.582C355.927 176.582 351.546 184.893 346.387 191.477C344.865 193.419 343.277 195.21 341.711 196.593C339.175 198.837 336.701 200.01 334.687 199.015C327.215 195.325 310.558 165.956 310.558 165.956L314.66 161.189C314.66 161.189 322.074 169.576 327.495 174.596C332.495 179.225 336.34 182.685 336.34 182.685C337.032 181.653 337.77 180.522 338.536 179.325C339.351 178.055 340.197 176.71 341.058 175.327C347.301 165.285 354.819 154.301 354.819 154.301L355.927 176.582Z" fill="#F9AF8B"/>
<path d="M315.748 164.072C315.748 164.072 317.439 161.296 316.785 158.81C316.131 156.324 315.496 150.704 312.78 150.856C311.788 150.912 313.237 153.26 312.572 155.434C312.572 155.434 309.664 154.033 307.717 152.595C306.004 151.33 302.458 149.275 300.809 148.335C300.357 148.078 299.835 148.572 300.097 149.015C300.52 149.731 301.554 150.802 303.946 152.298C303.946 152.298 298.005 148.971 297.01 149.702C296.015 150.433 303.52 154.458 303.52 154.458C303.52 154.458 297.459 152.009 296.964 152.905C296.662 153.451 302.605 156.943 302.605 156.943C302.605 156.943 296.701 155.12 297.798 156.503C298.117 156.906 309.332 161.981 311.669 167.874C311.667 167.874 314.935 166.084 315.748 164.072Z" fill="#F9AF8B"/>
<path d="M346.388 191.476C344.866 193.418 343.278 195.209 341.712 196.592L338.537 179.323C339.352 178.053 340.198 176.708 341.059 175.325L346.388 191.476Z" fill="#FC8664"/>
<path d="M355.046 153.525L339.256 176.299L344.281 196.592L356.671 176.826C356.671 176.826 358.991 163.601 355.046 153.525Z" fill="#48BB86"/>
<path d="M363.15 348.397V355.586L369.862 355.481L370.3 347.862L363.15 348.397Z" fill="#F9AF8B"/>
<path d="M380.19 243.348C380.144 244.201 379.912 248.305 379.56 254.026C378.615 269.743 376.845 297.672 375.807 303.946C374.741 310.383 375.223 331.494 375.566 342.544C375.622 344.423 374.889 346.13 373.666 347.383C373.212 347.846 372.684 348.246 372.109 348.573C371.108 349.127 369.959 349.445 368.736 349.445H363.62C359.765 349.445 356.669 346.322 356.79 342.545C357.077 333.202 357.429 316.16 356.762 302.994C356.123 290.464 357.049 268.292 357.763 254.472H357.772C358.059 248.952 358.31 244.775 358.411 243.068L380.19 243.348Z" fill="#48BB86"/>
<path d="M358.412 243.066L380.191 243.347C380.145 244.2 379.913 248.304 379.561 254.025C372.166 254.915 364.464 255.287 357.773 254.47C358.059 248.949 358.31 244.773 358.412 243.066Z" fill="#48BB86"/>
<path d="M373.582 322.836C373.772 329.903 373.97 337.209 373.841 343.099C373.804 344.752 373.746 346.166 373.668 347.379C373.214 347.848 372.686 348.25 372.105 348.57C372.229 347.163 372.327 345.364 372.378 343.068C372.505 337.212 372.307 329.924 372.117 322.874C371.883 314.259 371.663 306.12 372.142 302.656C373.187 295.075 375.524 253.977 376.137 243.006L377.602 243.07C376.989 254.034 374.645 295.216 373.592 302.847C373.131 306.197 373.35 314.281 373.582 322.836Z" fill="#48BB86"/>
<path d="M364.87 355.318C364.87 355.318 363.48 353.403 362.341 353.459C361.202 353.515 352.275 360.16 349.256 360.66C346.238 361.16 346.772 363.341 347.299 364.46C347.825 365.58 371.286 364.559 371.286 364.559C371.286 364.559 372.083 357.741 371.364 355.635C370.646 353.528 367.21 355.863 364.87 355.318Z" fill="black"/>
<path d="M359.914 359.982C360.02 360.015 360.139 360.008 360.244 359.952C360.448 359.843 360.524 359.593 360.414 359.393C360.377 359.326 359.494 357.744 358.272 357.108C356.647 356.259 355.344 357.142 355.29 357.18C355.1 357.312 355.056 357.569 355.19 357.755C355.324 357.941 355.587 357.985 355.777 357.853C355.812 357.829 356.719 357.234 357.877 357.837C358.873 358.356 359.666 359.772 359.674 359.787C359.727 359.884 359.814 359.951 359.914 359.982Z" fill="white"/>
<path d="M361.195 358.848C361.3 358.881 361.419 358.874 361.525 358.818C361.729 358.71 361.806 358.459 361.695 358.259C361.658 358.192 360.775 356.61 359.553 355.973C357.926 355.124 356.625 356.007 356.57 356.045C356.38 356.177 356.336 356.434 356.47 356.62C356.604 356.806 356.867 356.85 357.057 356.718C357.093 356.694 357.999 356.099 359.157 356.702C360.157 357.223 360.945 358.637 360.953 358.652C361.008 358.749 361.095 358.816 361.195 358.848Z" fill="white"/>
<path d="M358.191 360.889C358.297 360.923 358.416 360.915 358.521 360.86C358.726 360.751 358.802 360.501 358.691 360.301C358.654 360.234 357.771 358.652 356.549 358.015C354.922 357.165 353.621 358.049 353.566 358.087C353.376 358.219 353.332 358.476 353.466 358.662C353.6 358.848 353.864 358.892 354.053 358.76C354.089 358.736 354.996 358.142 356.153 358.744C357.153 359.265 357.942 360.679 357.949 360.694C358.004 360.789 358.092 360.857 358.191 360.889Z" fill="white"/>
<path d="M395.839 348.397L396.562 355.575L402.551 355.481L402.989 347.862L395.839 348.397Z" fill="#F9AF8B"/>
<path d="M408.169 302.992C407.502 316.157 407.854 333.2 408.141 342.543C408.252 346.32 405.166 349.443 401.311 349.443H396.195C395.064 349.443 393.989 349.171 393.053 348.698C392.488 348.407 391.959 348.044 391.505 347.608C390.133 346.346 389.299 344.539 389.364 342.542C389.707 331.492 390.189 310.382 389.123 303.944C388.067 297.561 386.25 268.779 385.314 253.225C385.008 248.031 384.795 244.318 384.739 243.401L406.555 243.682C406.62 244.79 406.722 246.497 406.842 248.658C407.548 261.099 408.91 288.492 408.169 302.992Z" fill="#48BB86"/>
<path d="M406.844 248.66C402.739 249.759 394.592 251.774 385.316 253.227C385.01 248.033 384.797 244.32 384.741 243.403L406.557 243.684C406.621 244.792 406.723 246.499 406.844 248.66Z" fill="#48BB86"/>
<path d="M392.775 343.068C392.826 345.434 392.929 347.271 393.056 348.695C392.487 348.408 391.965 348.044 391.503 347.614C391.415 346.351 391.349 344.86 391.31 343.1C391.183 337.21 391.381 329.904 391.571 322.837C391.803 314.282 392.02 306.198 391.559 302.849C390.507 295.215 388.162 254.012 387.552 243.062L389.015 242.997C389.628 253.954 391.965 295.073 393.012 302.657C393.491 306.121 393.268 314.26 393.036 322.875C392.846 329.924 392.648 337.211 392.775 343.068Z" fill="black"/>
<path d="M398.897 354.472C398.897 354.472 401.951 353.673 402.796 353.69C403.641 353.706 409.298 359.904 411.202 360.269C414.656 360.931 414.661 366.216 412.559 366.478C406.479 367.237 396.078 364.721 396.078 364.721C396.078 364.721 395.12 357.94 395.536 355.812C395.952 353.684 397.198 355.097 398.897 354.472Z" fill="black"/>
<path d="M403.931 360.259C403.822 360.282 403.705 360.264 403.605 360.199C403.412 360.072 403.361 359.816 403.49 359.626C403.533 359.563 404.566 358.071 405.845 357.552C407.546 356.859 408.756 357.86 408.807 357.903C408.983 358.052 409.002 358.312 408.85 358.485C408.698 358.657 408.432 358.677 408.256 358.527C408.223 358.5 407.379 357.823 406.167 358.314C405.125 358.737 404.198 360.073 404.189 360.087C404.127 360.178 404.033 360.237 403.931 360.259Z" fill="white"/>
<path d="M402.767 359.01C402.659 359.033 402.541 359.015 402.441 358.95C402.248 358.823 402.196 358.567 402.326 358.377C402.369 358.314 403.402 356.822 404.681 356.302C406.383 355.609 407.592 356.609 407.643 356.653C407.819 356.802 407.838 357.062 407.686 357.235C407.534 357.408 407.268 357.427 407.092 357.277C407.059 357.25 406.214 356.573 405.003 357.064C403.957 357.489 403.034 358.823 403.025 358.837C402.963 358.928 402.869 358.988 402.767 359.01Z" fill="white"/>
<path d="M405.557 361.323C405.449 361.346 405.331 361.328 405.231 361.263C405.038 361.136 404.986 360.88 405.116 360.69C405.159 360.627 406.192 359.135 407.471 358.615C409.173 357.922 410.382 358.923 410.433 358.966C410.609 359.115 410.628 359.376 410.476 359.548C410.324 359.72 410.058 359.74 409.882 359.59C409.849 359.563 409.004 358.886 407.794 359.378C406.748 359.803 405.825 361.137 405.816 361.151C405.753 361.242 405.66 361.301 405.557 361.323Z" fill="white"/>
<path d="M411.508 245.553C391.804 250.411 372.123 250.425 352.463 245.553C352.36 238.356 352.256 209.58 352.823 185.962C352.833 185.498 352.845 185.036 352.857 184.575C352.861 184.347 352.869 184.119 352.875 183.894V183.857C352.883 183.562 352.889 183.272 352.899 182.981C353.319 167.405 354.054 154.685 355.31 152.986C355.312 152.984 355.312 152.984 355.312 152.984C358.246 149.034 372.99 142.727 377.069 139.911C377.409 140.447 379.416 143.426 382.046 143.646C384.933 143.896 387.499 140.568 387.499 140.568V139.938C391.596 142.752 404.954 148.59 407.884 152.528C411.088 156.844 411.643 233.291 411.508 245.553Z" fill="#48BB86"/>
<path d="M358.83 174.873C357.138 177.114 354.667 182.191 353.559 184.537C353.408 184.859 353.282 185.13 353.187 185.335C353.062 185.604 352.992 185.76 352.986 185.772C352.95 185.852 352.894 185.916 352.825 185.961C352.835 185.497 352.847 185.035 352.859 184.574C352.863 184.346 352.871 184.118 352.877 183.893V183.856C353.104 183.378 353.373 182.816 353.673 182.2C354.933 179.624 356.733 176.15 358.096 174.342C358.245 174.143 358.532 174.102 358.735 174.248C358.937 174.396 358.977 174.676 358.83 174.873Z" fill="#48BB86"/>
<path d="M396.559 157.49C396.554 157.49 396.549 157.49 396.544 157.49C388.714 157.246 382.673 154.054 378.984 151.42C374.988 148.567 372.869 145.807 372.781 145.691C372.63 145.493 372.672 145.213 372.874 145.066C373.077 144.918 373.362 144.959 373.513 145.157C373.597 145.267 382.045 156.143 396.573 156.596C396.825 156.604 397.023 156.81 397.015 157.057C397.007 157.299 396.804 157.49 396.559 157.49Z" fill="#48BB86"/>
<path d="M370.182 230.537C369.943 230.537 369.743 230.356 369.727 230.119C369.71 229.872 369.901 229.66 370.153 229.643C382.999 228.818 390.661 222.44 394.827 217.235C399.356 211.576 400.859 206.034 400.874 205.979C400.938 205.74 401.186 205.596 401.43 205.659C401.674 205.721 401.821 205.965 401.758 206.204C401.697 206.436 400.204 211.955 395.569 217.759C391.287 223.12 383.412 229.689 370.213 230.536C370.202 230.537 370.192 230.537 370.182 230.537Z" fill="#48BB86"/>
<path d="M377.079 222.546C376.878 222.546 376.694 222.415 376.639 222.215C376.573 221.977 376.717 221.731 376.961 221.667C388.124 218.71 390.278 209.577 390.299 209.485C390.352 209.244 390.597 209.09 390.842 209.143C391.088 209.195 391.244 209.433 391.191 209.674C391.169 209.774 390.628 212.157 388.63 214.946C386.791 217.512 383.315 220.911 377.199 222.531C377.159 222.54 377.118 222.546 377.079 222.546Z" fill="#48BB86"/>
<path d="M425.967 244.762C425.686 248.676 423.288 251.583 423.276 254.159C423.264 256.738 420.226 255.051 421.633 249.96C423.037 244.872 420.954 239.946 419.841 239.991C418.728 240.039 420.195 245.728 419.025 247.618C417.855 249.506 416.971 245.539 415.946 243.085C414.881 240.537 415.477 235.252 416.442 231.53C417.407 227.81 412.672 204.205 413.292 197.554L411.583 188.925L410.584 183.891L410.397 178.637L419.524 175.094C419.868 176.781 420.22 178.529 420.569 180.288C420.723 181.063 420.874 181.841 421.023 182.616C422.244 188.908 423.34 195.102 423.787 199.075C425.02 210.065 422.996 232.482 422.996 232.482C422.996 232.482 426.231 241.092 425.967 244.762Z" fill="#F9AF8B"/>
<path d="M421.022 182.616C418.964 184.92 415.674 187.853 411.582 188.925L410.583 183.891L410.396 178.637L419.523 175.094C419.867 176.781 420.219 178.529 420.568 180.288C420.722 181.063 420.873 181.841 421.022 182.616Z" fill="#FC8664"/>
<path d="M423.557 177.634C423.557 177.634 422.469 178.899 420.568 180.288C418.268 181.978 414.775 183.856 410.594 183.892C410.09 169.33 409.346 157.025 408.264 153.413C410.19 155.741 419.438 167.209 423.557 177.634Z" fill="#48BB86"/>
<path d="M404.33 173.411C406.021 175.651 408.492 180.728 409.601 183.075C409.752 183.397 409.877 183.667 409.973 183.873C410.099 184.141 410.169 184.298 410.174 184.309C410.249 184.477 410.416 184.575 410.592 184.575H410.601C410.597 184.347 410.59 184.119 410.583 183.893C410.718 183.893 410.852 183.893 410.982 183.888C410.92 183.756 410.772 183.434 410.56 182.98C410.293 182.41 409.923 181.628 409.487 180.738C408.228 178.16 406.427 174.687 405.065 172.88C404.914 172.681 404.629 172.638 404.426 172.786C404.223 172.932 404.182 173.214 404.33 173.411Z" fill="#009589"/>
<path d="M396.08 116.523C396.08 124.411 391.123 129.847 383.072 129.847C375.021 129.847 369.41 124.003 369.41 116.115C369.41 108.227 374.177 102.251 382.228 102.251C391.884 102.251 396.08 108.636 396.08 116.523Z" fill="black"/>
<path d="M394.271 119.92C394.271 119.92 396.508 116.998 398.171 119.414C399.834 121.83 397.483 128.967 393.411 127.225L394.271 119.92Z" fill="#FC8664"/>
<path d="M394.3 125.019C394.45 125.019 394.588 124.921 394.631 124.773C395.262 122.57 397.592 121.677 397.615 121.668C397.792 121.602 397.882 121.407 397.814 121.233C397.747 121.059 397.548 120.971 397.371 121.037C397.262 121.077 394.695 122.053 393.968 124.591C393.917 124.77 394.023 124.956 394.206 125.007C394.238 125.015 394.269 125.019 394.3 125.019Z" fill="#FD664D"/>
<path d="M396.651 123.908C396.715 123.908 396.779 123.891 396.837 123.854C396.997 123.753 397.043 123.545 396.94 123.388C396.923 123.362 396.511 122.746 395.648 122.368C395.475 122.292 395.271 122.368 395.194 122.538C395.116 122.708 395.194 122.907 395.367 122.983C396.034 123.275 396.358 123.748 396.361 123.753C396.428 123.854 396.538 123.908 396.651 123.908Z" fill="#FD664D"/>
<path d="M371.219 119.92C371.219 119.92 368.982 116.998 367.319 119.414C365.656 121.83 368.007 128.967 372.079 127.225L371.219 119.92Z" fill="#FC8664"/>
<path d="M371.19 125.019C371.04 125.019 370.901 124.921 370.859 124.773C370.228 122.57 367.898 121.677 367.875 121.668C367.698 121.602 367.608 121.407 367.676 121.233C367.743 121.059 367.942 120.971 368.119 121.037C368.228 121.077 370.795 122.053 371.522 124.591C371.573 124.77 371.467 124.956 371.284 125.007C371.252 125.015 371.221 125.019 371.19 125.019Z" fill="#FD664D"/>
<path d="M368.838 123.908C368.774 123.908 368.71 123.891 368.652 123.854C368.492 123.753 368.446 123.545 368.549 123.388C368.566 123.362 368.978 122.746 369.841 122.368C370.014 122.292 370.218 122.368 370.296 122.538C370.374 122.708 370.296 122.907 370.122 122.983C369.455 123.275 369.131 123.748 369.128 123.753C369.062 123.854 368.951 123.908 368.838 123.908Z" fill="#FD664D"/>
<path d="M377.239 133.278V140.375C377.239 140.375 379.399 143.989 382.321 144.235C385.239 144.484 387.833 141.123 387.833 141.123V133.777L377.239 133.278Z" fill="#F9AF8B"/>
<path d="M377.239 133.278V136.427C379.199 138.558 382.681 139.091 387.833 138.345V133.777L377.239 133.278Z" fill="#FC8664"/>
<path d="M395.467 119.694C395.358 121.198 395.176 122.785 394.879 124.366C393.908 129.598 391.72 134.742 387.006 136.393C376.333 140.127 372.518 131.158 370.993 125.93C370.826 125.351 370.675 124.704 370.542 124.014C370.299 122.768 370.111 121.378 369.964 119.978C369.79 118.28 369.674 116.562 369.602 115.051C369.445 111.869 371.39 108.949 374.429 107.803C378.805 106.155 385.454 104.852 391.755 108.352C394.083 109.641 395.543 112.036 395.594 114.655C395.621 116.08 395.601 117.819 395.467 119.694Z" fill="#F9AF8B"/>
<path d="M394.144 119.979C393.785 120.622 391.785 126.667 391.228 127.515C389.966 124.796 383.878 126.772 383.878 126.772C383.495 126.893 383.099 126.956 382.699 126.956C382.313 126.956 381.926 126.896 381.554 126.782L381.523 126.772C381.523 126.772 375.363 124.88 374.149 127.73C373.585 126.886 371.848 120.954 371.523 119.98H369.964C370.111 121.38 370.299 122.77 370.542 124.016C370.675 124.706 370.826 125.352 370.993 125.932C372.518 131.16 376.333 140.13 387.006 136.395C391.72 134.744 393.908 129.599 394.879 124.368C395.176 122.787 395.358 121.199 395.467 119.696L394.144 119.979ZM388.405 131.035V131.038C388.402 131.038 388.402 131.038 388.402 131.038C387.93 131.48 387.448 131.852 386.97 132.103C384.266 133.536 383.972 133.319 382.905 133.366C381.818 133.416 380.321 133.101 378.799 132.271C378.327 132.01 377.62 131.507 376.847 130.814C376.847 130.814 375.75 127.14 382.717 128.061C389.7 126.885 388.521 130.318 388.405 131.035Z" fill="black"/>
<path d="M387.322 120.846C387.322 121.604 387.72 122.218 388.212 122.218C388.704 122.218 389.102 121.604 389.102 120.846C389.102 120.088 388.704 119.474 388.212 119.474C387.721 119.474 387.322 120.088 387.322 120.846Z" fill="black"/>
<path d="M376.83 120.818C376.83 121.576 377.228 122.19 377.72 122.19C378.212 122.19 378.61 121.576 378.61 120.818C378.61 120.06 378.212 119.446 377.72 119.446C377.229 119.446 376.83 120.06 376.83 120.818Z" fill="black"/>
<path d="M391.743 116.972C391.743 116.972 388.333 115.652 385.707 116.763L385.97 118.194C385.97 118.194 389.824 117.875 391.766 118.646C391.939 118.095 391.964 117.538 391.743 116.972Z" fill="black"/>
<path d="M374.782 116.972C374.782 116.972 378.192 115.652 380.818 116.763L380.555 118.194C380.555 118.194 376.701 117.875 374.759 118.646C374.586 118.095 374.561 117.538 374.782 116.972Z" fill="black"/>
<path d="M382.625 126.155C382.044 126.155 381.469 125.934 381.379 125.898C381.203 125.827 381.119 125.631 381.191 125.458C381.262 125.286 381.464 125.203 381.639 125.273C381.95 125.397 382.696 125.59 383.019 125.401C383.081 125.364 383.166 125.292 383.188 125.087C383.312 123.91 382.983 119.963 382.98 119.924C382.964 119.738 383.105 119.576 383.295 119.56C383.485 119.544 383.651 119.683 383.666 119.868C383.68 120.033 384.004 123.917 383.873 125.156C383.824 125.622 383.574 125.861 383.373 125.979C383.153 126.109 382.889 126.155 382.625 126.155Z" fill="#FC8664"/>
<path d="M387.322 128.626C387.041 130.012 386.106 132.563 382.957 132.563C379.8 132.563 378.915 130.232 378.611 128.626H387.322Z" fill="white"/>
<path d="M369.965 119.98H371.525C371.353 118.446 371.106 115.744 372.392 115.357C376.456 114.134 371.19 111.321 373.024 109.918C374.858 108.512 379.424 109.114 382.599 109.014C385.793 108.913 390.928 108.957 392.174 109.24C393.423 109.52 392.738 111.552 392.281 113.126C391.82 114.697 393.812 116.437 394.146 118.066C394.242 118.533 394.222 119.228 394.145 119.98H395.445C395.599 117.998 395.622 116.153 395.594 114.657C395.542 112.037 394.083 109.643 391.757 108.352C385.456 104.852 378.807 106.157 374.43 107.806C371.391 108.949 369.447 111.872 369.602 115.051C369.675 116.562 369.789 118.281 369.965 119.98Z" fill="black"/>
<path d="M141.29 292.686H62.1248C63.4328 284.744 69.7328 278.974 77.0748 278.997L101.707 279.069L126.339 278.997C133.682 278.975 139.981 284.744 141.29 292.686Z" fill="white"/>
<path d="M72.6658 291.549H68.3518V365.359H72.6658V291.549Z" fill="white"/>
<path d="M135.064 291.549H130.75V365.359H135.064V291.549Z" fill="white"/>
<path d="M130.749 312.23H72.6648V316.39H130.749V312.23Z" fill="#DCEDF9"/>
<path d="M82.3257 193.327C82.3257 193.327 69.1047 210.959 67.3447 226.336C66.1027 237.197 82.3257 253.426 82.3257 253.426L87.9137 250.645L82.3437 238.084C80.3617 231.967 77.9207 229.549 79.7237 223.376L83.7577 214.677L82.3257 193.327Z" fill="#006E7C"/>
<path d="M123.989 193.062C123.989 193.062 137.039 211.863 138.119 227.303C139.051 240.615 123.076 253.427 123.076 253.427L118.462 251.13L124.851 238.44C126.833 232.323 127.775 228.634 125.073 221.978L121.643 214.678L123.989 193.062Z" fill="#006E7C"/>
<path d="M85.0186 233.483L76.2546 261.362C76.2546 261.362 114.198 266.201 125.801 263.07L119.907 232.706L123.988 193.061C118.309 190.668 112.289 189.139 106.143 188.695C97.1696 188.047 91.5016 189.527 82.3256 193.327L85.0186 233.483Z" fill="#006E7C"/>
<path d="M94.5036 201.733C102.875 200.751 110.663 195.003 111.017 194.739C111.224 194.585 111.266 194.292 111.112 194.085C110.958 193.878 110.665 193.836 110.458 193.99C110.366 194.058 101.202 200.819 92.3875 200.939C92.1255 200.94 91.9235 201.155 91.9265 201.413C91.9295 201.671 92.1415 201.878 92.3995 201.874C93.1025 201.863 93.8056 201.815 94.5036 201.733Z" fill="#006E7C"/>
<path d="M101.249 351.099L101.933 357.255L108.48 357.404L109.029 352.296L101.249 351.099Z" fill="#F9AF8B"/>
<path d="M100.222 253.502C100.222 253.502 83.2686 252.571 77.5256 257.269C71.7836 261.967 72.9376 275.449 78.7876 279.13C84.6376 282.811 94.6096 290.044 94.6096 290.044L100.953 353.104L109.335 353.389C109.335 353.389 117.058 290.044 113.142 277.776C109.227 265.509 100.222 253.502 100.222 253.502Z" fill="#ECECEC"/>
<path d="M110.107 350.262C110.563 351.735 110.346 353.162 109.891 354.581L100.247 354.367C99.9075 352.962 99.8565 351.552 100.06 350.137L110.107 350.262Z" fill="#006E7C"/>
<path d="M124.213 253.025H79.7227L75.6117 228.982C75.2557 226.9 76.8597 224.998 78.9717 224.998H124.964C127.077 224.998 128.68 226.899 128.325 228.982L124.213 253.025Z" fill="white"/>
<path d="M120.636 258.253H83.3437C81.3437 258.253 79.7227 256.632 79.7227 254.632V253.025H124.257V254.632C124.258 256.632 122.636 258.253 120.636 258.253Z" fill="#DCEDF9"/>
<path d="M105.932 240.003C105.932 242.137 104.202 243.867 102.068 243.867C99.9336 243.867 98.2036 242.137 98.2036 240.003C98.2036 237.869 99.9336 236.139 102.068 236.139C104.202 236.139 105.932 237.869 105.932 240.003Z" fill="#DCEDF9"/>
<path d="M73.4407 333.786L71.9897 339.878L77.8647 341.039L80.2577 335.599L73.4407 333.786Z" fill="#F9AF8B"/>
<path d="M108.835 252.458C108.835 252.458 97.4807 248.543 90.8247 256.765C84.1687 264.987 73.0227 334.394 73.0227 334.394L80.6637 337.547L105.226 275.906C105.226 275.906 125.228 287.32 127.651 271.094C129.568 258.254 108.835 252.458 108.835 252.458Z" fill="#ECECEC"/>
<path d="M82.3947 334.366C82.3667 335.958 81.6927 337.288 80.7897 338.533L71.3987 335.213C71.5187 333.725 71.9227 332.325 72.5797 331.003L82.3947 334.366Z" fill="#006E7C"/>
<path d="M76.4727 338.875C76.4727 338.875 72.9117 337.068 71.8637 336.862C70.8157 336.656 62.1587 342.797 59.7067 342.737C55.2587 342.628 53.8347 349.159 56.3627 350.048C63.6747 352.619 77.2067 352.301 77.2067 352.301C77.2067 352.301 80.2117 344.177 80.2687 341.435C80.3247 338.692 78.4047 340.104 76.4727 338.875Z" fill="#006E7C"/>
<path d="M68.6957 344.679C68.8237 344.737 68.9737 344.746 69.1147 344.692C69.3877 344.587 69.5197 344.284 69.4107 344.015C69.3737 343.925 68.4977 341.804 67.0567 340.819C65.1407 339.506 63.3757 340.418 63.3017 340.457C63.0447 340.594 62.9507 340.911 63.0917 341.165C63.2327 341.419 63.5567 341.514 63.8147 341.377C63.8627 341.353 65.0877 340.743 66.4537 341.675C67.6277 342.478 68.4157 344.378 68.4227 344.397C68.4757 344.526 68.5757 344.624 68.6957 344.679Z" fill="white"/>
<path d="M70.4708 343.447C70.5988 343.505 70.7488 343.514 70.8898 343.46C71.1628 343.355 71.2948 343.052 71.1858 342.783C71.1488 342.693 70.2728 340.572 68.8318 339.586C66.9138 338.272 65.1508 339.185 65.0768 339.224C64.8198 339.361 64.7258 339.678 64.8668 339.931C65.0078 340.185 65.3318 340.28 65.5898 340.143C65.6378 340.119 66.8638 339.509 68.2278 340.441C69.4068 341.247 70.1888 343.144 70.1968 343.163C70.2508 343.295 70.3508 343.393 70.4708 343.447Z" fill="white"/>
<path d="M66.4007 345.557C66.5287 345.615 66.6787 345.624 66.8197 345.57C67.0927 345.465 67.2247 345.162 67.1157 344.893C67.0787 344.803 66.2027 342.682 64.7617 341.696C62.8437 340.382 61.0807 341.295 61.0067 341.334C60.7497 341.471 60.6557 341.788 60.7967 342.042C60.9377 342.296 61.2617 342.391 61.5197 342.254C61.5677 342.23 62.7937 341.62 64.1587 342.552C65.3377 343.358 66.1207 345.255 66.1277 345.274C66.1797 345.404 66.2807 345.502 66.4007 345.557Z" fill="white"/>
<path d="M104.458 356.996C104.458 356.996 108.102 355.89 109.121 355.87C110.14 355.85 117.251 363.056 119.564 363.406C123.76 364.042 124.013 370.412 121.491 370.827C114.197 372.028 101.54 369.483 101.54 369.483C101.54 369.483 100.066 361.354 100.468 358.769C100.871 356.184 102.44 357.83 104.458 356.996Z" fill="#006E7C"/>
<path d="M110.8 363.737C110.67 363.77 110.527 363.754 110.404 363.68C110.165 363.536 110.091 363.229 110.239 362.995C110.288 362.917 111.464 361.07 112.98 360.384C114.997 359.469 116.504 360.618 116.567 360.667C116.786 360.838 116.822 361.152 116.647 361.366C116.472 361.581 116.152 361.617 115.933 361.445C115.892 361.414 114.843 360.638 113.405 361.287C112.169 361.846 111.114 363.5 111.103 363.517C111.032 363.631 110.921 363.706 110.8 363.737Z" fill="white"/>
<path d="M109.337 362.286C109.207 362.319 109.065 362.303 108.942 362.229C108.703 362.085 108.629 361.778 108.777 361.544C108.826 361.466 110.002 359.618 111.518 358.932C113.537 358.016 115.042 359.166 115.105 359.216C115.324 359.387 115.36 359.7 115.184 359.915C115.009 360.13 114.689 360.166 114.47 359.994C114.429 359.963 113.379 359.187 111.942 359.836C110.701 360.398 109.651 362.049 109.641 362.066C109.569 362.179 109.459 362.255 109.337 362.286Z" fill="white"/>
<path d="M112.81 364.943C112.68 364.976 112.538 364.96 112.415 364.886C112.176 364.742 112.102 364.435 112.25 364.201C112.299 364.123 113.475 362.276 114.991 361.589C117.01 360.673 118.515 361.823 118.578 361.873C118.797 362.044 118.833 362.358 118.657 362.572C118.482 362.787 118.162 362.823 117.943 362.651C117.902 362.62 116.852 361.844 115.415 362.493C114.174 363.055 113.124 364.706 113.114 364.723C113.042 364.836 112.932 364.911 112.81 364.943Z" fill="white"/>
<path d="M114.356 153.562C114.356 153.562 119.752 161.919 119.16 170.624C118.569 179.329 119.955 189.378 112.166 188.936C104.377 188.494 90.4828 192.059 86.0668 185.279C81.6508 178.5 114.356 153.562 114.356 153.562Z" fill="black"/>
<path d="M116.356 168.93C116.356 168.93 117.756 181.548 111.769 185.022C105.782 188.496 101.448 184.617 101.448 184.617C101.448 184.617 114.069 167.03 116.356 168.93Z" fill="#630404"/>
<path d="M91.4848 168.87C91.4848 168.87 89.3348 166.003 87.7358 168.374C86.1368 170.744 88.3968 177.745 92.3108 176.036L91.4848 168.87Z" fill="#FC8664"/>
<path d="M91.4568 173.873C91.3128 173.873 91.1798 173.777 91.1388 173.631C90.5318 171.47 88.2928 170.593 88.2708 170.585C88.1008 170.52 88.0148 170.329 88.0788 170.159C88.1438 169.988 88.3348 169.902 88.5048 169.967C88.6098 170.007 91.0768 170.964 91.7758 173.453C91.8248 173.629 91.7228 173.812 91.5468 173.861C91.5168 173.869 91.4868 173.873 91.4568 173.873Z" fill="#FD664D"/>
<path d="M89.1968 172.784C89.1358 172.784 89.0728 172.767 89.0178 172.731C88.8638 172.632 88.8198 172.427 88.9188 172.274C88.9358 172.248 89.3318 171.644 90.1598 171.273C90.3258 171.198 90.5218 171.273 90.5968 171.44C90.6718 171.607 90.5968 171.802 90.4298 171.877C89.7888 172.164 89.4778 172.628 89.4748 172.632C89.4118 172.731 89.3058 172.784 89.1968 172.784Z" fill="#FD664D"/>
<path d="M113.641 168.87C113.641 168.87 115.791 166.003 117.39 168.374C118.989 170.744 116.729 177.745 112.815 176.036L113.641 168.87Z" fill="#FC8664"/>
<path d="M113.669 173.873C113.814 173.873 113.946 173.777 113.987 173.631C114.594 171.47 116.833 170.593 116.855 170.585C117.025 170.52 117.111 170.329 117.046 170.159C116.981 169.988 116.791 169.902 116.62 169.967C116.515 170.007 114.048 170.964 113.349 173.453C113.3 173.629 113.402 173.812 113.578 173.861C113.609 173.869 113.639 173.873 113.669 173.873Z" fill="#FD664D"/>
<path d="M115.929 172.784C115.99 172.784 116.052 172.767 116.108 172.731C116.262 172.632 116.306 172.427 116.207 172.274C116.19 172.248 115.794 171.644 114.965 171.273C114.799 171.198 114.603 171.273 114.528 171.44C114.453 171.607 114.528 171.802 114.695 171.877C115.336 172.164 115.647 172.628 115.65 172.632C115.714 172.731 115.821 172.784 115.929 172.784Z" fill="#FD664D"/>
<path d="M107.855 181.976V188.938C107.855 188.938 105.779 192.484 102.971 192.725C100.166 192.97 97.6729 189.672 97.6729 189.672V182.465L107.855 181.976Z" fill="#F9AF8B"/>
<path d="M107.855 181.976V185.065C105.971 187.156 102.626 187.897 97.6739 187.166L97.6729 182.466L107.855 181.976Z" fill="#FC8664"/>
<path d="M115.196 164.094C115.067 166.8 114.809 170.183 114.293 172.889C114.164 173.564 114.018 174.199 113.856 174.768C112.391 179.898 108.726 188.696 98.4658 185.031C93.9348 183.414 91.8338 178.366 90.8978 173.233C90.2628 169.747 90.1668 166.224 90.2128 163.707C90.2618 161.137 91.6648 158.789 93.9008 157.522C99.9568 154.089 106.347 155.369 110.554 156.986C113.476 158.108 115.345 160.975 115.196 164.094Z" fill="#F9AF8B"/>
<path d="M98.0447 169.946C98.0447 170.689 97.6617 171.292 97.1887 171.292C96.7167 171.292 96.3337 170.689 96.3337 169.946C96.3337 169.203 96.7167 168.6 97.1887 168.6C97.6617 168.601 98.0447 169.203 98.0447 169.946Z" fill="black"/>
<path d="M108.61 169.946C108.61 170.689 108.227 171.292 107.755 171.292C107.283 171.292 106.899 170.689 106.899 169.946C106.899 169.203 107.282 168.6 107.755 168.6C108.227 168.601 108.61 169.203 108.61 169.946Z" fill="black"/>
<path d="M95.4947 165.468C96.2057 165.267 97.6407 164.924 99.1547 164.92C99.5537 164.919 99.8587 165.273 99.7877 165.665L99.7857 165.675C99.7297 165.988 99.4497 166.21 99.1317 166.195C98.1017 166.147 95.3977 166.292 94.1207 166.809C94.0947 166.587 94.2257 166.344 94.4117 166.128C94.6927 165.801 95.0787 165.585 95.4947 165.468Z" fill="black"/>
<path d="M109.318 165.495C108.607 165.294 107.172 164.951 105.658 164.947C105.26 164.946 104.955 165.3 105.025 165.692L105.027 165.702C105.083 166.015 105.363 166.237 105.681 166.222C106.711 166.174 109.415 166.319 110.692 166.836C110.718 166.614 110.587 166.371 110.401 166.155C110.12 165.828 109.733 165.612 109.318 165.495Z" fill="black"/>
<path d="M102.678 175.419C102.425 175.419 102.171 175.374 101.959 175.247C101.766 175.131 101.525 174.897 101.478 174.439C101.352 173.223 101.663 169.413 101.677 169.251C101.692 169.069 101.851 168.933 102.034 168.948C102.216 168.963 102.352 169.123 102.337 169.305C102.334 169.344 102.018 173.216 102.137 174.37C102.158 174.571 102.24 174.642 102.299 174.678C102.609 174.864 103.327 174.674 103.626 174.553C103.795 174.483 103.988 174.565 104.057 174.734C104.126 174.903 104.045 175.096 103.876 175.165C103.79 175.202 103.236 175.419 102.678 175.419Z" fill="#FC8664"/>
<path d="M98.4778 177.508C98.7278 178.766 99.5588 181.081 102.359 181.081C105.166 181.081 105.953 178.966 106.223 177.508H98.4778Z" fill="white"/>
<path d="M102.319 183.011C101.511 183.011 100.798 182.576 100.768 182.557C100.613 182.461 100.565 182.257 100.661 182.102C100.757 181.947 100.96 181.899 101.116 181.994C101.122 181.997 101.704 182.348 102.32 182.348C102.987 182.348 103.584 181.996 103.59 181.992C103.747 181.898 103.95 181.948 104.044 182.104C104.138 182.26 104.088 182.463 103.932 182.557C103.9 182.576 103.175 183.011 102.319 183.011Z" fill="#FC8664"/>
<path d="M116.527 163.556C116.421 163.858 116.126 164.05 115.731 164.166C115.76 164.896 115.683 165.773 115.611 166.614C115.203 171.394 113.997 172.234 113.724 171.052C113.544 170.267 113.555 165.765 113.642 164.297C112.697 164.235 111.89 164.078 111.89 164.078L110.781 159.437L110.393 164.021C108.73 164.6 104.849 163.673 104.849 163.673L103.547 159.098L102.742 163.5C100.247 164.715 97.1298 163.906 97.1298 163.906L96.4138 159.158L94.7598 163.906C94.7598 163.906 89.4378 165.815 89.3798 163.906C89.3438 162.795 90.1578 159.666 90.8458 157.242C91.5958 154.599 93.3318 152.366 95.6798 151.106C102.281 147.562 109.262 149.447 111.657 150.878C116.736 153.908 116.527 163.556 116.527 163.556Z" fill="black"/>
<path d="M92.3117 153.917C92.3117 153.917 87.9307 159.128 86.4887 168.435C85.0477 177.742 83.0517 184.618 88.6597 187.691C94.7297 191.017 94.2037 184.196 94.1167 182.342C94.0297 180.488 88.8667 175.421 92.3117 161.148C93.4247 156.539 92.3117 153.917 92.3117 153.917Z" fill="black"/>
<path d="M91.2876 173.148C91.2876 173.148 91.2876 173.153 91.2876 173.159C91.2896 173.228 91.2946 173.598 91.3206 174.177C91.3336 174.536 91.3556 174.973 91.3896 175.47C91.5956 178.606 92.2056 184.021 93.9976 185.899C94.7046 186.642 96.0686 187.014 97.6746 187.165V184.701C95.9826 183.898 94.6636 182.579 93.6406 180.956C93.0086 179.588 91.9196 177.446 91.4096 174.077L91.2876 173.148Z" fill="#630404"/>
<path d="M115.275 176.195C115.275 176.623 114.928 176.97 114.5 176.97C114.072 176.97 113.725 176.623 113.725 176.195C113.725 175.767 114.072 175.42 114.5 175.42C114.928 175.42 115.275 175.767 115.275 176.195Z" fill="white"/>
<path d="M348.759 109.461H329.751C328.292 109.461 327.109 108.278 327.109 106.819V87.8109C327.109 86.3519 328.292 85.1689 329.751 85.1689H348.759C350.218 85.1689 351.401 86.3519 351.401 87.8109V106.819C351.401 108.279 350.218 109.461 348.759 109.461Z" fill="#006E7C"/>
<path d="M347.527 97.3159C347.527 99.3169 346.816 101.152 345.633 102.583C344.116 104.418 341.822 105.588 339.256 105.588C336.689 105.588 334.396 104.419 332.879 102.584C331.696 101.153 330.985 99.3179 330.985 97.3169C330.985 92.7489 334.688 89.0459 339.256 89.0459C343.823 89.0439 347.527 92.7469 347.527 97.3159Z" fill="#48BB86"/>
<path d="M345.633 102.582C344.116 104.417 341.822 105.587 339.256 105.587C336.689 105.587 334.396 104.418 332.879 102.583L332.99 102.363C333.169 102.009 333.417 101.699 333.714 101.449C334.012 101.198 334.359 101.007 334.738 100.892C336.085 100.481 337.335 100.065 338.036 98.8617C337.183 98.4607 336.614 97.6587 336.376 97.0917C335.44 97.2917 334.767 95.5597 335.268 95.1007C335.458 94.9267 335.651 94.8787 335.82 94.8877C335.975 93.1257 337.453 91.5527 339.255 91.5527C341.057 91.5527 342.536 93.1267 342.69 94.8877C342.859 94.8777 343.052 94.9267 343.242 95.1007C343.743 95.5597 343.07 97.2907 342.134 97.0917C341.93 97.7237 341.228 98.4857 340.595 98.7517C341.296 99.9547 342.424 100.48 343.771 100.891C344.151 101.006 344.498 101.197 344.796 101.448C345.094 101.698 345.341 102.008 345.52 102.362L345.633 102.582Z" fill="white"/>
<path d="M33.1349 238.632H14.1269C12.6679 238.632 11.4849 237.449 11.4849 235.99V216.982C11.4849 215.523 12.6679 214.34 14.1269 214.34H33.1349C34.5939 214.34 35.7769 215.523 35.7769 216.982V235.99C35.7769 237.449 34.5939 238.632 33.1349 238.632Z" fill="#48BB86"/>
<path d="M23.995 218.432C20.893 218.225 18.313 220.682 18.313 223.737C18.313 224.726 18.584 225.654 19.057 226.449C19.761 227.634 20.486 228.807 21.155 230.013L23.674 234.553L27.516 227.621C27.741 227.216 27.985 226.822 28.22 226.423C28.706 225.6 28.973 224.635 28.947 223.607C28.883 220.883 26.712 218.611 23.995 218.432ZM23.63 225.345C22.391 225.345 21.385 224.341 21.385 223.1C21.385 221.859 22.391 220.855 23.63 220.855C24.871 220.855 25.875 221.859 25.875 223.1C25.875 224.341 24.871 225.345 23.63 225.345Z" fill="white"/>
<path d="M432.275 117.462C435.265 117.462 437.698 119.894 437.698 122.885C437.698 125.875 435.265 128.308 432.275 128.308C429.285 128.308 426.852 125.875 426.852 122.885C426.852 119.894 429.285 117.462 432.275 117.462ZM432.275 126.606C434.327 126.606 435.996 124.937 435.996 122.885C435.996 120.833 434.327 119.164 432.275 119.164C430.223 119.164 428.554 120.833 428.554 122.885C428.553 124.937 430.223 126.606 432.275 126.606Z" fill="#48BB86"/>
<path d="M412.754 98.4375C415.744 98.4375 418.177 100.871 418.177 103.861C418.177 106.851 415.744 109.283 412.754 109.283C409.764 109.283 407.332 106.851 407.332 103.861C407.331 100.871 409.764 98.4375 412.754 98.4375ZM412.754 107.581C414.806 107.581 416.475 105.913 416.475 103.861C416.475 101.809 414.806 100.139 412.754 100.139C410.702 100.139 409.033 101.809 409.033 103.861C409.032 105.913 410.702 107.581 412.754 107.581Z" fill="#009589"/>
<path d="M406.054 80.8174C406.524 80.8174 406.905 81.1984 406.905 81.6684V85.4194C406.905 85.8894 406.524 86.2704 406.054 86.2704C405.584 86.2704 405.203 85.8894 405.203 85.4194V81.6684C405.203 81.1984 405.584 80.8174 406.054 80.8174Z" fill="#48BB86"/>
<path d="M406.054 74.2529C406.524 74.2529 406.905 74.6339 406.905 75.1039V78.8549C406.905 79.3249 406.524 79.7059 406.054 79.7059C405.584 79.7059 405.203 79.3249 405.203 78.8549V75.1039C405.203 74.6339 405.584 74.2529 406.054 74.2529Z" fill="#48BB86"/>
<path d="M400.789 79.4111H404.159C404.629 79.4111 405.01 79.7921 405.01 80.2621C405.01 80.7321 404.629 81.1131 404.159 81.1131H400.789C400.319 81.1131 399.938 80.7321 399.938 80.2621C399.938 79.7911 400.319 79.4111 400.789 79.4111Z" fill="#48BB86"/>
<path d="M407.95 79.4111H411.32C411.79 79.4111 412.171 79.7921 412.171 80.2621C412.171 80.7321 411.79 81.1131 411.32 81.1131H407.95C407.48 81.1131 407.099 80.7321 407.099 80.2621C407.099 79.7911 407.48 79.4111 407.95 79.4111Z" fill="#48BB86"/>
<path d="M435.996 101.836C436.466 101.836 436.846 102.217 436.846 102.687V106.438C436.846 106.908 436.465 107.289 435.996 107.289C435.526 107.289 435.145 106.908 435.145 106.438V102.687C435.145 102.217 435.526 101.836 435.996 101.836Z" fill="#009589"/>
<path d="M435.996 95.2715C436.466 95.2715 436.846 95.6525 436.846 96.1225V99.8735C436.846 100.343 436.465 100.724 435.996 100.724C435.526 100.724 435.145 100.343 435.145 99.8735V96.1225C435.145 95.6515 435.526 95.2715 435.996 95.2715Z" fill="#009589"/>
<path d="M430.731 100.429H434.101C434.571 100.429 434.952 100.81 434.952 101.28C434.952 101.75 434.571 102.131 434.101 102.131H430.731C430.261 102.131 429.88 101.75 429.88 101.28C429.88 100.81 430.261 100.429 430.731 100.429Z" fill="#009589"/>
<path d="M437.892 100.429H441.262C441.732 100.429 442.113 100.81 442.113 101.28C442.113 101.75 441.732 102.131 441.262 102.131H437.892C437.422 102.131 437.041 101.75 437.041 101.28C437.041 100.81 437.422 100.429 437.892 100.429Z" fill="#009589"/>
<path d="M96.4638 48.2207C99.4538 48.2207 101.887 50.6537 101.887 53.6437C101.887 56.6337 99.4538 59.0667 96.4638 59.0667C93.4738 59.0667 91.0408 56.6337 91.0408 53.6437C91.0418 50.6527 93.4738 48.2207 96.4638 48.2207ZM96.4638 49.9217C94.4118 49.9217 92.7428 51.5917 92.7428 53.6427C92.7428 55.6947 94.4118 57.3637 96.4638 57.3637C98.5158 57.3637 100.186 55.6947 100.186 53.6427C100.186 51.5907 98.5158 49.9217 96.4638 49.9217Z" fill="#009589"/>
<path d="M76.7148 30.3086C79.7048 30.3086 82.1377 32.7416 82.1377 35.7316C82.1377 38.7216 79.7048 41.1546 76.7148 41.1546C73.7248 41.1546 71.2917 38.7216 71.2917 35.7316C71.2927 32.7406 73.7248 30.3086 76.7148 30.3086ZM76.7148 32.0096C74.6628 32.0096 72.9938 33.6786 72.9938 35.7306C72.9938 37.7826 74.6628 39.4516 76.7148 39.4516C78.7668 39.4516 80.4358 37.7816 80.4358 35.7306C80.4368 33.6786 78.7678 32.0096 76.7148 32.0096Z" fill="#48BB86"/>
<path d="M69.5618 61.3041C69.5618 61.7741 69.9428 62.1551 70.4128 62.1551H74.1638C74.6338 62.1551 75.0148 61.7741 75.0148 61.3041C75.0148 60.8341 74.6338 60.4531 74.1638 60.4531H70.4128C69.9428 60.4531 69.5618 60.8341 69.5618 61.3041Z" fill="#009589"/>
<path d="M62.9978 61.3041C62.9978 61.7741 63.3788 62.1551 63.8488 62.1551H67.5998C68.0698 62.1551 68.4508 61.7741 68.4508 61.3041C68.4508 60.8341 68.0698 60.4531 67.5998 60.4531H63.8488C63.3778 60.4531 62.9978 60.8341 62.9978 61.3041Z" fill="#009589"/>
<path d="M68.1548 56.0385V59.4085C68.1548 59.8785 68.5358 60.2595 69.0058 60.2595C69.4758 60.2595 69.8568 59.8785 69.8568 59.4085V56.0385C69.8568 55.5685 69.4758 55.1885 69.0058 55.1885C68.5358 55.1885 68.1548 55.5695 68.1548 56.0385Z" fill="#009589"/>
<path d="M68.1548 63.1996V66.5696C68.1548 67.0396 68.5358 67.4206 69.0058 67.4206C69.4758 67.4206 69.8568 67.0396 69.8568 66.5696V63.1996C69.8568 62.7296 69.4758 62.3496 69.0058 62.3496C68.5358 62.3496 68.1548 62.7296 68.1548 63.1996Z" fill="#009589"/>
<path d="M109.283 32.0092C109.283 32.4792 109.664 32.8602 110.134 32.8602H113.885C114.355 32.8602 114.736 32.4792 114.736 32.0092C114.736 31.5392 114.355 31.1582 113.885 31.1582H110.134C109.664 31.1582 109.283 31.5392 109.283 32.0092Z" fill="#48BB86"/>
<path d="M102.719 32.0092C102.719 32.4792 103.1 32.8602 103.57 32.8602H107.321C107.791 32.8602 108.172 32.4792 108.172 32.0092C108.172 31.5392 107.791 31.1582 107.321 31.1582H103.57C103.1 31.1582 102.719 31.5392 102.719 32.0092Z" fill="#48BB86"/>
<path d="M107.877 26.7446V30.1146C107.877 30.5846 108.258 30.9656 108.727 30.9656C109.196 30.9656 109.578 30.5846 109.578 30.1146V26.7446C109.578 26.2746 109.197 25.8936 108.727 25.8936C108.257 25.8936 107.877 26.2746 107.877 26.7446Z" fill="#48BB86"/>
<path d="M107.877 33.9057V37.2757C107.877 37.7457 108.258 38.1267 108.727 38.1267C109.196 38.1267 109.578 37.7457 109.578 37.2757V33.9057C109.578 33.4357 109.197 33.0547 108.727 33.0547C108.257 33.0547 107.877 33.4357 107.877 33.9057Z" fill="#48BB86"/>
<path d="M335.393 58.1871C335.507 58.2141 335.629 58.2151 335.751 58.1861C337.039 57.8691 337.784 57.7411 337.792 57.7401C338.182 57.6741 338.44 57.3231 338.37 56.9571C338.299 56.5911 337.926 56.3481 337.536 56.4141C337.504 56.4201 336.735 56.5511 335.387 56.8831C335.004 56.9771 334.774 57.3451 334.875 57.7051C334.944 57.9511 335.148 58.1291 335.393 58.1871Z" fill="#48BB86"/>
<path d="M293.715 89.0547C293.046 90.1987 292.403 91.3847 291.801 92.5807C291.652 92.8767 291.302 93.0237 290.977 92.9467C290.933 92.9357 290.889 92.9217 290.846 92.9027C290.488 92.7437 290.334 92.3427 290.504 92.0057C291.117 90.7857 291.775 89.5747 292.457 88.4067C292.647 88.0807 293.082 87.9607 293.431 88.1397C293.778 88.3187 293.905 88.7277 293.715 89.0547Z" fill="#48BB86"/>
<path d="M290.116 96.2076C289.599 97.4166 289.106 98.6656 288.654 99.9226C288.533 100.258 288.158 100.446 287.799 100.36C287.781 100.356 287.763 100.351 287.744 100.345C287.369 100.226 287.167 99.8426 287.294 99.4906C287.755 98.2106 288.257 96.9366 288.784 95.7056C288.932 95.3606 289.35 95.1936 289.718 95.3316C290.085 95.4706 290.263 95.8626 290.116 96.2076Z" fill="#48BB86"/>
<path d="M284.032 115.936C283.685 115.854 283.451 115.539 283.498 115.198C283.681 113.858 283.897 112.517 284.14 111.213C284.208 110.847 284.58 110.602 284.971 110.666C285.366 110.733 285.622 111.079 285.554 111.445C285.315 112.729 285.102 114.049 284.921 115.37C284.871 115.739 284.511 116 284.118 115.952C284.089 115.948 284.06 115.943 284.032 115.936Z" fill="#48BB86"/>
<path d="M286.913 102.878C287.295 102.978 287.518 103.35 287.411 103.708C287.235 104.299 287.066 104.898 286.907 105.487C286.723 106.167 286.546 106.862 286.381 107.553C286.294 107.916 285.91 108.144 285.523 108.062C285.516 108.061 285.51 108.059 285.504 108.058C285.128 107.969 284.895 107.614 284.981 107.257C285.149 106.554 285.329 105.847 285.516 105.156C285.677 104.556 285.85 103.947 286.029 103.345C286.134 102.992 286.52 102.784 286.896 102.873C286.902 102.876 286.908 102.877 286.913 102.878Z" fill="#48BB86"/>
<path d="M295.855 85.6458C295.685 85.8988 295.365 86.0088 295.072 85.9388C295.001 85.9218 294.931 85.8938 294.865 85.8548C294.53 85.6558 294.43 85.2398 294.642 84.9258C295.407 83.7898 296.219 82.6638 297.056 81.5798C297.289 81.2788 297.737 81.2118 298.058 81.4298C298.378 81.6478 298.45 82.0688 298.218 82.3708C297.398 83.4318 296.604 84.5338 295.855 85.6458Z" fill="#48BB86"/>
<path d="M331.724 59.3326C330.415 59.7526 329.087 60.2236 327.776 60.7316C327.628 60.7886 327.471 60.7967 327.327 60.7627C327.114 60.7117 326.93 60.5716 326.839 60.3666C326.688 60.0226 326.862 59.6286 327.228 59.4876C328.566 58.9686 329.923 58.4886 331.26 58.0596C331.635 57.9396 332.043 58.1276 332.171 58.4796C332.299 58.8286 332.099 59.2116 331.724 59.3326Z" fill="#48BB86"/>
<path d="M320.178 64.1797C320.011 64.2667 319.823 64.2847 319.652 64.2447C319.467 64.2007 319.302 64.0887 319.202 63.9197C319.009 63.5947 319.133 63.1847 319.479 63.0027C320.727 62.3487 322.012 61.7217 323.298 61.1377C323.655 60.9757 324.083 61.1157 324.256 61.4507C324.429 61.7857 324.279 62.1887 323.922 62.3507C322.661 62.9227 321.402 63.5387 320.178 64.1797Z" fill="#48BB86"/>
<path d="M306.571 73.4813C306.386 73.6443 306.133 73.6973 305.904 73.6423C305.776 73.6113 305.654 73.5473 305.557 73.4493C305.286 73.1783 305.301 72.7514 305.59 72.4974C306.631 71.5824 307.719 70.6843 308.823 69.8283C309.129 69.5913 309.581 69.6313 309.833 69.9183C310.085 70.2053 310.042 70.6303 309.737 70.8663C308.655 71.7063 307.59 72.5853 306.571 73.4813Z" fill="#48BB86"/>
<path d="M313.07 68.4439C312.891 68.5669 312.671 68.5999 312.471 68.5519C312.314 68.5149 312.17 68.4279 312.067 68.2949C311.834 67.9939 311.905 67.5729 312.225 67.3539C313.376 66.5679 314.573 65.8019 315.783 65.0769C316.117 64.8759 316.561 64.9689 316.774 65.2819C316.987 65.5949 316.889 66.0119 316.555 66.2119C315.37 66.9229 314.198 67.6729 313.07 68.4439Z" fill="#48BB86"/>
<path d="M300.798 79.2436C300.615 79.4506 300.329 79.5297 300.069 79.4677C299.969 79.4437 299.873 79.3997 299.788 79.3337C299.483 79.0967 299.44 78.6717 299.693 78.3857C300.604 77.3517 301.562 76.3316 302.541 75.3546C302.812 75.0836 303.266 75.0706 303.555 75.3256C303.844 75.5806 303.858 76.0067 303.586 76.2777C302.628 77.2337 301.69 78.2316 300.798 79.2436Z" fill="#48BB86"/>
<path d="M336.107 53.6283L334.656 42.4023L372.691 47.8563L336.107 53.6283Z" fill="#006E7C"/>
<path d="M372.691 47.8555L337.555 56.4865L337.462 56.5105L335.697 58.5335L336.107 53.6285L372.691 47.8555Z" fill="#48BB86"/>
<path d="M335.697 58.5337L338.854 58.4947L337.462 56.5107L335.697 58.5337Z" fill="#48BB86"/>
<path d="M341.883 55.4234L337.461 56.5104L344.653 66.7505L372.691 47.8564L341.883 55.4234Z" fill="#006E7C"/>
</svg>
