<svg width="32" height="32" viewBox="0 0 32 32" fill="none" xmlns="http://www.w3.org/2000/svg">
<g id="Group 49">
<circle id="Ellipse 7" cx="16" cy="16" r="16" fill="#006E7C" fill-opacity="0.5"/>
<path id="Vector" d="M22.2128 12.9776C22.2192 13.1072 22.2216 13.2384 22.2216 13.368C22.2216 17.36 19.184 21.9616 13.6296 21.9616C11.9232 21.9616 10.3368 21.4616 9 20.604C9.7907 20.6996 10.5925 20.6385 11.3596 20.4241C12.1266 20.2097 12.8439 19.8462 13.4704 19.3544C12.8403 19.3425 12.2297 19.134 11.724 18.758C11.2182 18.3821 10.8426 17.8575 10.6496 17.2576C11.1024 17.3423 11.5685 17.3245 12.0136 17.2056C11.3301 17.067 10.7155 16.6964 10.274 16.1565C9.83255 15.6166 9.59132 14.9406 9.5912 14.2432V14.2056C10.0106 14.4389 10.4796 14.5686 10.9592 14.584C10.3191 14.1573 9.86598 13.5023 9.69233 12.7529C9.51869 12.0034 9.6376 11.216 10.0248 10.5512C10.783 11.4844 11.7291 12.2476 12.8015 12.7913C13.8739 13.335 15.0487 13.6471 16.2496 13.7072C16.1976 13.4813 16.1716 13.2502 16.172 13.0184C16.172 12.622 16.2501 12.2294 16.4018 11.8631C16.5536 11.4969 16.776 11.1641 17.0564 10.8838C17.3367 10.6035 17.6696 10.3812 18.0359 10.2295C18.4022 10.0779 18.7948 9.9999 19.1912 10C19.6044 9.99933 20.0133 10.0836 20.3925 10.2475C20.7718 10.4114 21.1134 10.6514 21.396 10.9528C22.0721 10.819 22.7205 10.5712 23.3136 10.22C23.088 10.9194 22.6161 11.513 21.9856 11.8904C22.5842 11.8194 23.1688 11.6593 23.72 11.4152C23.3151 12.022 22.8046 12.5511 22.2128 12.9776Z" fill="white"/>
</g>
</svg>
