<svg width="300" height="300" viewBox="0 0 300 300" fill="none" xmlns="http://www.w3.org/2000/svg">
<path opacity="0.7" d="M269.652 244.11C269.43 244.506 269.214 244.908 268.986 245.31C268.758 245.712 268.488 246.174 268.23 246.6C267.972 247.026 267.756 247.368 267.516 247.746C267.276 248.124 266.916 248.67 266.61 249.126C266.388 249.456 266.166 249.78 265.932 250.11C265.632 250.536 265.332 250.956 265.02 251.37C264.708 251.784 264.504 252.054 264.24 252.39C263.676 253.122 263.09 253.842 262.482 254.55C262.182 254.904 261.882 255.246 261.564 255.594C261.264 255.924 260.964 256.254 260.652 256.584L260.61 256.638C260.31 256.956 260.01 257.238 259.704 257.58C259.398 257.922 258.966 258.324 258.588 258.684C258.066 259.2 257.526 259.698 256.986 260.19L256.944 260.226C256.764 260.394 256.59 260.544 256.416 260.7C255.816 261.246 255.174 261.774 254.538 262.296C254.202 262.578 253.86 262.842 253.524 263.118L252.216 264.12L251.532 264.624C251.412 264.702 251.298 264.786 251.184 264.87C250.644 265.26 250.092 265.644 249.534 266.022L248.334 266.802L247.842 267.12C247.386 267.414 246.912 267.72 246.444 267.99C245.976 268.26 245.508 268.554 245.028 268.824C244.842 268.932 244.656 269.04 244.47 269.136C244.098 269.358 243.72 269.562 243.342 269.766C242.082 270.456 240.792 271.11 239.484 271.734C239.04 271.95 238.596 272.16 238.146 272.334C237.486 272.638 236.82 272.932 236.148 273.216C235.596 273.456 235.038 273.684 234.474 273.906L234.126 274.044C233.586 274.266 233.046 274.47 232.5 274.68C232.068 274.836 231.636 274.998 231.198 275.148C230.76 275.298 230.4 275.436 229.998 275.574L228.798 275.976L228.636 276.03C228.036 276.222 227.466 276.408 226.884 276.588L226.722 276.636L224.922 277.17L224.592 277.266L222.864 277.74C222.264 277.908 221.622 278.064 220.998 278.22L220.872 278.25H220.818C220.188 278.412 219.552 278.556 218.922 278.706H218.862L217.02 279.114L216.63 279.198C216.03 279.324 215.4 279.45 214.782 279.564C214.164 279.678 213.402 279.828 212.706 279.948C211.92 280.086 211.128 280.212 210.306 280.338C209.706 280.434 209.106 280.524 208.506 280.608H208.458C207.108 280.8 205.758 280.974 204.39 281.13L203.982 281.172L202.182 281.358H201.93L199.878 281.538C199.158 281.598 198.438 281.652 197.712 281.7H197.652C196.974 281.748 196.302 281.79 195.624 281.82C194.034 281.916 192.426 281.976 190.824 282.012C190.158 282.012 189.486 282.048 188.814 282.048C188.142 282.048 187.32 282.048 186.57 282.048H184.338H183.186L181.386 282C180.756 282 180.12 281.964 179.484 281.934C178.446 281.898 177.396 281.85 176.346 281.79L175.428 281.736L174.066 281.652L173.064 281.58H172.914L171.894 281.502C171.468 281.472 171.036 281.436 170.61 281.394C168.096 281.184 165.57 280.926 163.05 280.614C162.174 280.512 161.292 280.392 160.41 280.272C159.654 280.17 158.898 280.068 158.136 279.948C157.374 279.828 156.702 279.744 155.982 279.63C155.172 279.504 154.362 279.372 153.582 279.234L151.932 278.952L150.438 278.688L149.286 278.472C148.686 278.364 148.128 278.256 147.546 278.136L147.072 278.04L145.032 277.632L144.348 277.482C143.862 277.386 143.382 277.278 142.902 277.17L141.576 276.882L138.114 276.078C136.272 275.634 134.436 275.16 132.6 274.668C131.568 274.398 130.536 274.11 129.51 273.822C128.712 273.594 127.926 273.372 127.14 273.138L124.95 272.484L124.626 272.388L122.58 271.8L122.316 271.722L120.318 271.074L119.832 270.912C119.232 270.726 118.686 270.534 118.116 270.312C116.58 269.79 115.062 269.256 113.544 268.704L111.186 267.828C110.49 267.564 109.794 267.3 109.098 267.024C104.868 265.386 100.734 263.616 96.7079 261.744L95.5079 261.198C92.1839 259.622 88.9419 257.974 85.7819 256.254L85.0199 255.834C84.6899 255.654 84.3479 255.468 84.0179 255.276C79.6179 252.816 75.4179 250.216 71.4179 247.476L69.7919 246.342C69.1919 245.922 68.5919 245.502 68.0339 245.076C67.4759 244.65 66.8759 244.224 66.3059 243.792C64.6019 242.504 62.9499 241.19 61.3499 239.85L59.7659 238.5C58.9079 237.75 58.0679 236.994 57.2459 236.244C56.8259 235.848 56.3999 235.458 55.9919 235.044C54.9879 234.096 54.0159 233.132 53.0759 232.152C52.8719 231.942 52.6679 231.738 52.4759 231.522C51.7999 230.806 51.1379 230.088 50.4899 229.368L50.4179 229.29C50.0159 228.828 49.6139 228.372 49.2179 227.91C49.0079 227.67 48.7979 227.424 48.6179 227.178L48.0179 226.446L47.5019 225.798C46.8359 224.97 46.1999 224.142 45.5879 223.302C45.4439 223.104 45.2999 222.912 45.1619 222.702C44.8019 222.204 44.4479 221.7 44.0999 221.196C9.80389 170.958 25.0199 95.4781 56.3999 56.2861C73.9859 34.3621 90.1859 33.9181 121.734 31.2001C343.026 12.0001 239.538 100.248 249.336 141.276C258.408 179.298 287.754 210.738 269.652 244.11Z" fill="#009589"/>
<path d="M254.628 262.2L254.538 262.278C254.196 262.56 253.86 262.824 253.518 263.1C253.176 263.376 252.654 263.772 252.21 264.102L251.526 264.606L251.184 264.852C250.64 265.252 250.088 265.636 249.528 266.004L248.358 266.784L247.866 267.102C247.404 267.396 246.936 267.702 246.462 267.972C245.988 268.242 245.526 268.536 245.052 268.806C244.866 268.914 244.68 269.022 244.494 269.118C244.122 269.34 243.744 269.544 243.36 269.748C242.1 270.436 240.814 271.092 239.502 271.716C239.058 271.932 238.614 272.142 238.164 272.316C237.512 272.62 236.846 272.914 236.166 273.198C235.614 273.438 235.056 273.666 234.492 273.888L234.15 274.026C233.61 274.248 233.064 274.452 232.518 274.662C232.086 274.818 231.654 274.98 231.216 275.13C230.778 275.28 230.418 275.418 230.016 275.556L228.816 275.958L228.648 276.012C228.048 276.204 227.484 276.39 226.896 276.57L226.74 276.618L224.94 277.152L224.604 277.248L222.882 277.722C222.282 277.89 221.64 278.046 221.016 278.202L220.89 278.232H220.836C220.206 278.394 219.57 278.538 218.934 278.688H218.88L217.032 279.096L216.648 279.18C216.048 279.306 215.448 279.432 214.794 279.546C214.14 279.66 213.42 279.81 212.724 279.93C211.932 280.068 211.14 280.194 210.324 280.32L208.524 280.59H208.47C207.126 280.782 205.776 280.956 204.408 281.112L203.994 281.154L202.194 281.34H201.942L199.89 281.52H199.86C199.146 281.58 198.42 281.634 197.7 281.682H197.634C196.962 281.73 196.29 281.772 195.612 281.802C194.016 281.898 192.414 281.958 190.812 281.994L188.796 282.03C188.052 282.03 187.302 282.03 186.552 282.03H184.32H183.168L181.368 281.982C180.732 281.982 180.096 281.946 179.46 281.916C178.42 281.88 177.376 281.832 176.328 281.772L175.41 281.718L174.042 281.634L173.046 281.562H172.896L171.87 281.484C171.444 281.454 171.012 281.418 170.586 281.376C168.07 281.164 165.55 280.904 163.026 280.596C162.15 280.494 161.274 280.374 160.392 280.254C159.636 280.152 158.874 280.05 158.112 279.93C157.35 279.81 156.678 279.726 155.964 279.612C155.154 279.486 154.344 279.354 153.564 279.216L151.908 278.934L150.414 278.67L149.268 278.454C148.668 278.346 148.104 278.238 147.528 278.118L147.048 278.022L145.014 277.614L144.33 277.464C143.844 277.368 143.358 277.26 142.878 277.152L141.552 276.864L138.096 276.06C136.254 275.616 134.412 275.142 132.576 274.65C131.544 274.38 130.518 274.092 129.486 273.804C128.694 273.576 127.902 273.354 127.116 273.12L124.926 272.466L124.602 272.37C123.918 272.154 123.228 271.944 122.544 271.722L122.28 271.644L120.282 270.996L119.796 270.834C119.196 270.648 118.644 270.456 118.074 270.234C116.542 269.71 115.02 269.174 113.508 268.626L111.144 267.75C110.454 267.486 109.758 267.222 109.062 266.946C105.168 265.44 101.346 263.814 97.626 262.104L254.628 262.2Z" fill="#009589"/>
<path opacity="0.7" d="M269.652 244.11C269.43 244.506 269.214 244.908 268.986 245.31C268.758 245.712 268.488 246.174 268.23 246.6C267.972 247.026 267.756 247.368 267.516 247.746C267.276 248.124 266.916 248.67 266.61 249.126C266.388 249.456 266.166 249.78 265.932 250.11C265.632 250.536 265.332 250.956 265.02 251.37C264.708 251.784 264.504 252.054 264.24 252.39C263.676 253.122 263.09 253.842 262.482 254.55C262.182 254.904 261.882 255.246 261.564 255.594C261.264 255.924 260.964 256.254 260.652 256.584L260.61 256.638C260.31 256.956 260.01 257.238 259.704 257.58C259.398 257.922 258.966 258.324 258.588 258.684C258.066 259.2 257.526 259.698 256.986 260.19L256.944 260.226C256.764 260.394 256.59 260.544 256.416 260.7C255.816 261.246 255.174 261.774 254.538 262.296C254.202 262.578 253.86 262.842 253.524 263.118L252.216 264.12L251.532 264.624C251.412 264.702 251.298 264.786 251.184 264.87C250.644 265.26 250.092 265.644 249.534 266.022L248.334 266.802L247.842 267.12C247.386 267.414 246.912 267.72 246.444 267.99C245.976 268.26 245.508 268.554 245.028 268.824C244.842 268.932 244.656 269.04 244.47 269.136C244.098 269.358 243.72 269.562 243.342 269.766C242.082 270.456 240.792 271.11 239.484 271.734C239.04 271.95 238.596 272.16 238.146 272.334C237.486 272.638 236.82 272.932 236.148 273.216C235.596 273.456 235.038 273.684 234.474 273.906L234.126 274.044C233.586 274.266 233.046 274.47 232.5 274.68C232.068 274.836 231.636 274.998 231.198 275.148C230.76 275.298 230.4 275.436 229.998 275.574L228.798 275.976L228.636 276.03C228.036 276.222 227.466 276.408 226.884 276.588L226.722 276.636L224.922 277.17L224.592 277.266L222.864 277.74C222.264 277.908 221.622 278.064 220.998 278.22L220.872 278.25H220.818C220.188 278.412 219.552 278.556 218.922 278.706H218.862L217.02 279.114L216.63 279.198C216.03 279.324 215.4 279.45 214.782 279.564C214.164 279.678 213.402 279.828 212.706 279.948C211.92 280.086 211.128 280.212 210.306 280.338C209.706 280.434 209.106 280.524 208.506 280.608H208.458C207.108 280.8 205.758 280.974 204.39 281.13L203.982 281.172L202.182 281.358H201.93L199.878 281.538C199.158 281.598 198.438 281.652 197.712 281.7H197.652C196.974 281.748 196.302 281.79 195.624 281.82C194.034 281.916 192.426 281.976 190.824 282.012C190.158 282.012 189.486 282.048 188.814 282.048C188.142 282.048 187.32 282.048 186.57 282.048H184.338H183.186L181.386 282C180.756 282 180.12 281.964 179.484 281.934C178.446 281.898 177.396 281.85 176.346 281.79L175.428 281.736L174.066 281.652L173.064 281.58H172.914L171.894 281.502C171.468 281.472 171.036 281.436 170.61 281.394C168.096 281.184 165.57 280.926 163.05 280.614C162.174 280.512 161.292 280.392 160.41 280.272C159.654 280.17 158.898 280.068 158.136 279.948C157.374 279.828 156.702 279.744 155.982 279.63C155.172 279.504 154.362 279.372 153.582 279.234L151.932 278.952L150.438 278.688L149.286 278.472C148.686 278.364 148.128 278.256 147.546 278.136L147.072 278.04L145.032 277.632L144.348 277.482C143.862 277.386 143.382 277.278 142.902 277.17L141.576 276.882L138.114 276.078C136.272 275.634 134.436 275.16 132.6 274.668C131.568 274.398 130.536 274.11 129.51 273.822C128.712 273.594 127.926 273.372 127.14 273.138L124.95 272.484L124.626 272.388L122.58 271.8L122.316 271.722L120.318 271.074L119.832 270.912C119.232 270.726 118.686 270.534 118.116 270.312C116.58 269.79 115.062 269.256 113.544 268.704L111.186 267.828C110.49 267.564 109.794 267.3 109.098 267.024C104.868 265.386 100.734 263.616 96.7079 261.744L95.5079 261.198C92.1839 259.622 88.9419 257.974 85.7819 256.254L85.0199 255.834C84.6899 255.654 84.3479 255.468 84.0179 255.276C79.6179 252.816 75.4179 250.216 71.4179 247.476L69.7919 246.342C69.1919 245.922 68.5919 245.502 68.0339 245.076C67.4759 244.65 66.8759 244.224 66.3059 243.792C64.6019 242.504 62.9499 241.19 61.3499 239.85L59.7659 238.5C58.9079 237.75 58.0679 236.994 57.2459 236.244C56.8259 235.848 56.3999 235.458 55.9919 235.044C54.9879 234.096 54.0159 233.132 53.0759 232.152C52.8719 231.942 52.6679 231.738 52.4759 231.522C51.7999 230.806 51.1379 230.088 50.4899 229.368L50.4179 229.29C50.0159 228.828 49.6139 228.372 49.2179 227.91C49.0079 227.67 48.7979 227.424 48.6179 227.178L48.0179 226.446L47.5019 225.798C46.8359 224.97 46.1999 224.142 45.5879 223.302C45.4439 223.104 45.2999 222.912 45.1619 222.702C44.8019 222.204 44.4479 221.7 44.0999 221.196C9.80389 170.958 25.0199 95.4781 56.3999 56.2861C73.9859 34.3621 90.1859 33.9181 121.734 31.2001C343.026 12.0001 239.538 100.248 249.336 141.276C258.408 179.298 287.754 210.738 269.652 244.11Z" fill="#009589"/>
<path d="M254.628 262.2L254.538 262.278C254.196 262.56 253.86 262.824 253.518 263.1C253.176 263.376 252.654 263.772 252.21 264.102L251.526 264.606L251.184 264.852C250.64 265.252 250.088 265.636 249.528 266.004L248.358 266.784L247.866 267.102C247.404 267.396 246.936 267.702 246.462 267.972C245.988 268.242 245.526 268.536 245.052 268.806C244.866 268.914 244.68 269.022 244.494 269.118C244.122 269.34 243.744 269.544 243.36 269.748C242.1 270.436 240.814 271.092 239.502 271.716C239.058 271.932 238.614 272.142 238.164 272.316C237.512 272.62 236.846 272.914 236.166 273.198C235.614 273.438 235.056 273.666 234.492 273.888L234.15 274.026C233.61 274.248 233.064 274.452 232.518 274.662C232.086 274.818 231.654 274.98 231.216 275.13C230.778 275.28 230.418 275.418 230.016 275.556L228.816 275.958L228.648 276.012C228.048 276.204 227.484 276.39 226.896 276.57L226.74 276.618L224.94 277.152L224.604 277.248L222.882 277.722C222.282 277.89 221.64 278.046 221.016 278.202L220.89 278.232H220.836C220.206 278.394 219.57 278.538 218.934 278.688H218.88L217.032 279.096L216.648 279.18C216.048 279.306 215.448 279.432 214.794 279.546C214.14 279.66 213.42 279.81 212.724 279.93C211.932 280.068 211.14 280.194 210.324 280.32L208.524 280.59H208.47C207.126 280.782 205.776 280.956 204.408 281.112L203.994 281.154L202.194 281.34H201.942L199.89 281.52H199.86C199.146 281.58 198.42 281.634 197.7 281.682H197.634C196.962 281.73 196.29 281.772 195.612 281.802C194.016 281.898 192.414 281.958 190.812 281.994L188.796 282.03C188.052 282.03 187.302 282.03 186.552 282.03H184.32H183.168L181.368 281.982C180.732 281.982 180.096 281.946 179.46 281.916C178.42 281.88 177.376 281.832 176.328 281.772L175.41 281.718L174.042 281.634L173.046 281.562H172.896L171.87 281.484C171.444 281.454 171.012 281.418 170.586 281.376C168.07 281.164 165.55 280.904 163.026 280.596C162.15 280.494 161.274 280.374 160.392 280.254C159.636 280.152 158.874 280.05 158.112 279.93C157.35 279.81 156.678 279.726 155.964 279.612C155.154 279.486 154.344 279.354 153.564 279.216L151.908 278.934L150.414 278.67L149.268 278.454C148.668 278.346 148.104 278.238 147.528 278.118L147.048 278.022L145.014 277.614L144.33 277.464C143.844 277.368 143.358 277.26 142.878 277.152L141.552 276.864L138.096 276.06C136.254 275.616 134.412 275.142 132.576 274.65C131.544 274.38 130.518 274.092 129.486 273.804C128.694 273.576 127.902 273.354 127.116 273.12L124.926 272.466L124.602 272.37C123.918 272.154 123.228 271.944 122.544 271.722L122.28 271.644L120.282 270.996L119.796 270.834C119.196 270.648 118.644 270.456 118.074 270.234C116.542 269.71 115.02 269.174 113.508 268.626L111.144 267.75C110.454 267.486 109.758 267.222 109.062 266.946C105.168 265.44 101.346 263.814 97.626 262.104L254.628 262.2Z" fill="#999999"/>
<path d="M66.3662 243.828H269.622" stroke="black" stroke-miterlimit="10"/>
<path d="M66.3662 262.086H269.622" stroke="black" stroke-miterlimit="10"/>
<path d="M225.678 121.752H207.288V140.142H225.678V121.752Z" stroke="#263238" stroke-linecap="round" stroke-linejoin="round"/>
<path d="M248.922 121.752H230.532V140.142H248.922V121.752Z" stroke="#263238" stroke-linecap="round" stroke-linejoin="round"/>
<path d="M223.806 123.63H209.166V138.27H223.806V123.63Z" fill="white" stroke="#263238" stroke-miterlimit="10"/>
<path d="M216.486 123.63V138.27" stroke="#263238" stroke-miterlimit="10"/>
<path d="M239.724 138.27C243.767 138.27 247.044 134.993 247.044 130.95C247.044 126.907 243.767 123.63 239.724 123.63C235.682 123.63 232.404 126.907 232.404 130.95C232.404 134.993 235.682 138.27 239.724 138.27Z" fill="white" stroke="#263238" stroke-miterlimit="10"/>
<path d="M200.652 18.4741H106.626V165.234H200.652V18.4741Z" fill="white" stroke="white" stroke-miterlimit="10"/>
<path d="M174.33 142.386H134.826C132.09 142.384 129.467 141.296 127.533 139.361C125.599 137.426 124.512 134.802 124.512 132.066C124.512 126.372 129.132 121.752 137.112 121.752H176.616C180.042 121.752 184.662 126.372 184.662 132.066C184.662 133.422 184.395 134.765 183.876 136.018C183.356 137.271 182.595 138.409 181.635 139.368C180.676 140.326 179.537 141.086 178.283 141.604C177.03 142.122 175.686 142.388 174.33 142.386Z" fill="#182B2B" stroke="white" stroke-miterlimit="10"/>
<path d="M181.649 133.529C182.37 129.104 179.368 124.932 174.943 124.21C170.518 123.489 166.346 126.491 165.624 130.916C164.903 135.341 167.905 139.513 172.33 140.235C176.755 140.956 180.927 137.954 181.649 133.529Z" fill="white"/>
<path d="M131.256 131.4C131.256 130.626 131.634 130.134 132.408 130.134C133.182 130.134 133.566 130.626 133.566 131.4V134.004C133.589 134.167 133.576 134.332 133.528 134.489C133.479 134.646 133.397 134.79 133.286 134.911C133.175 135.032 133.039 135.127 132.887 135.189C132.735 135.251 132.572 135.279 132.408 135.27C131.634 135.27 131.256 134.766 131.256 134.004V131.4ZM131.808 134.034C131.808 134.49 132.006 134.76 132.408 134.76C132.81 134.76 133.008 134.49 133.008 134.034V131.4C133.008 130.944 132.822 130.674 132.408 130.674C131.994 130.674 131.808 130.944 131.808 131.4V134.034Z" fill="white"/>
<path d="M134.598 135.222H134.094V130.2H134.802L136.002 133.842V130.2H136.494V135.24H135.894L134.61 131.166L134.598 135.222Z" fill="white"/>
<path d="M174.33 62.2082H134.826C132.091 62.2082 129.467 61.1216 127.533 59.1873C125.599 57.2531 124.512 54.6297 124.512 51.8942C124.512 46.1942 129.132 41.5742 137.112 41.5742H176.616C180.042 41.5742 184.662 46.1942 184.662 51.8942C184.661 53.25 184.393 54.5923 183.874 55.8444C183.354 57.0966 182.593 58.2341 181.633 59.1919C180.674 60.1497 179.535 60.9091 178.282 61.4267C177.029 61.9442 175.686 62.2098 174.33 62.2082Z" fill="white" stroke="white" stroke-miterlimit="10"/>
<path d="M154.578 62.2082H134.826C132.091 62.2082 129.467 61.1216 127.533 59.1873C125.599 57.2531 124.512 54.6297 124.512 51.8942C124.512 46.1942 129.132 41.5742 137.112 41.5742H154.59L154.578 62.2082Z" fill="#263238"/>
<path d="M154.428 62.2081C160.124 62.2081 164.742 57.5903 164.742 51.8941C164.742 46.1978 160.124 41.5801 154.428 41.5801C148.732 41.5801 144.114 46.1978 144.114 51.8941C144.114 57.5903 148.732 62.2081 154.428 62.2081Z" fill="white" stroke="#263238" stroke-miterlimit="10"/>
<path d="M131.256 50.9999C131.256 50.2259 131.634 49.7339 132.408 49.7339C133.182 49.7339 133.566 50.2259 133.566 50.9999V53.6039C133.589 53.7663 133.576 53.9319 133.528 54.0887C133.479 54.2455 133.397 54.3896 133.286 54.5106C133.175 54.6317 133.039 54.7267 132.887 54.7889C132.735 54.851 132.572 54.8786 132.408 54.8699C131.634 54.8699 131.256 54.3659 131.256 53.6039V50.9999ZM131.808 53.6339C131.808 54.0899 132.006 54.3599 132.408 54.3599C132.81 54.3599 133.008 54.0899 133.008 53.6339V50.9579C133.008 50.5019 132.822 50.2319 132.408 50.2319C131.994 50.2319 131.808 50.5019 131.808 50.9579V53.6339Z" fill="white"/>
<path d="M134.598 54.8103H134.094V49.8003H134.802L136.002 53.4423V49.8003H136.494V54.8403H135.894L134.61 50.7663L134.598 54.8103Z" fill="white"/>
<path d="M172.674 50.9999C172.674 50.2259 173.052 49.7339 173.826 49.7339C174.6 49.7339 174.984 50.2259 174.984 50.9999V53.6039C175.007 53.7663 174.994 53.9319 174.946 54.0887C174.897 54.2455 174.815 54.3896 174.704 54.5106C174.593 54.6317 174.457 54.7267 174.305 54.7889C174.153 54.851 173.99 54.8786 173.826 54.8699C173.052 54.8699 172.674 54.3659 172.674 53.6039V50.9999ZM173.226 53.6339C173.226 54.0899 173.418 54.3599 173.826 54.3599C174.234 54.3599 174.426 54.0899 174.426 53.6339V50.9579C174.426 50.5019 174.24 50.2319 173.826 50.2319C173.412 50.2319 173.226 50.5019 173.226 50.9579V53.6339Z" fill="white"/>
<path d="M177.234 52.1163V52.6263H176.076V54.8103H175.518V49.8003H177.516V50.3103H176.076V52.1463L177.234 52.1163Z" fill="white"/>
<path d="M179.682 52.1163V52.6263H178.524V54.8103H177.966V49.8003H179.964V50.3103H178.524V52.1463L179.682 52.1163Z" fill="white"/>
<path d="M174.33 102.912H134.826C132.091 102.912 129.467 101.826 127.533 99.8914C125.599 97.9572 124.512 95.3338 124.512 92.5983C124.512 89.8623 125.599 87.2383 127.533 85.3031C129.467 83.3679 132.09 82.2799 134.826 82.2783H174.33C177.067 82.2783 179.692 83.3656 181.628 85.301C183.563 87.2364 184.65 89.8613 184.65 92.5983C184.649 95.3343 183.561 97.9577 181.625 99.8918C179.69 101.826 177.066 102.912 174.33 102.912Z" fill="#999999" stroke="#263238" stroke-linecap="round" stroke-linejoin="round"/>
<path d="M134.43 100.59C138.913 100.59 142.548 96.9555 142.548 92.472C142.548 87.9886 138.913 84.354 134.43 84.354C129.947 84.354 126.312 87.9886 126.312 92.472C126.312 96.9555 129.947 100.59 134.43 100.59Z" fill="white"/>
<path d="M172.728 91.4642C172.728 90.6962 173.106 90.1982 173.874 90.1982C174.039 90.1874 174.204 90.2136 174.357 90.2749C174.51 90.3363 174.647 90.4311 174.759 90.5526C174.871 90.674 174.954 90.819 175.002 90.9767C175.05 91.1345 175.063 91.301 175.038 91.4642V94.0682C175.061 94.2311 175.048 94.3972 175 94.5545C174.951 94.7117 174.868 94.8562 174.756 94.9774C174.645 95.0986 174.508 95.1934 174.355 95.2552C174.203 95.3169 174.038 95.3439 173.874 95.3342C173.106 95.3342 172.728 94.8302 172.728 94.0682V91.4642ZM173.28 94.0982C173.28 94.5602 173.472 94.8242 173.88 94.8242C174.288 94.8242 174.48 94.5602 174.48 94.0982V91.4342C174.48 90.9842 174.294 90.7082 173.88 90.7082C173.466 90.7082 173.28 90.9842 173.28 91.4342V94.0982Z" fill="white"/>
<path d="M177.288 92.5921V93.1081H176.13V95.2861H175.572V90.2461H177.6V90.7621H176.16V92.5621L177.288 92.5921Z" fill="white"/>
<path d="M179.736 92.5921V93.1081H178.578V95.2861H178.02V90.2461H180V90.7621H178.56V92.5621L179.736 92.5921Z" fill="white"/>
<path d="M221.268 278.196H221.214C220.584 278.352 219.948 278.502 219.312 278.646H219.258C218.658 278.79 218.058 278.928 217.416 279.06L217.026 279.138L215.178 279.51C214.488 279.642 213.798 279.768 213.102 279.888C212.316 280.026 211.518 280.158 210.702 280.284C210.102 280.38 209.502 280.464 208.902 280.554H208.854C207.504 280.746 206.154 280.92 204.786 281.07L204.378 281.118L202.578 281.304H202.326L200.274 281.484L198.108 281.652H198.042C197.37 281.7 196.698 281.736 196.02 281.772C194.424 281.862 192.822 281.922 191.22 281.964C190.554 281.964 189.882 281.994 189.204 282C188.526 282.006 187.71 282 186.96 282C186.21 282 185.466 282 184.722 282H183.93H183.6L181.8 281.958C181.164 281.958 180.534 281.922 179.898 281.892C178.86 281.856 177.81 281.802 176.76 281.742L175.842 281.688C175.386 281.688 174.936 281.64 174.48 281.61C174.144 281.61 173.814 281.556 173.478 281.538H173.328C172.518 279.558 171.762 277.836 171.126 276.618C169.542 273.588 163.38 265.356 163.38 265.356C163.38 265.356 157.05 265.428 148.812 257.718C140.574 250.008 130.938 239.634 131.082 231.612C131.19 225.864 130.128 222.228 129.624 218.922C129.406 217.644 129.327 216.347 129.39 215.052C129.504 213.33 129.948 211.452 129.93 209.448C129.93 206.046 129.528 202.482 131.046 200.682C133.446 197.814 140.604 200.394 142.038 206.232C143.472 212.07 144.156 224.328 146.556 224.232C148.956 224.136 149.058 215.136 152.262 205.74L153.786 195.54L154.386 175.866L154.428 171.942C154.428 171.942 152.688 162.06 155.508 156.972C155.508 156.972 158.358 152.094 161.682 156.252C164.682 160.014 164.598 161.25 166.776 174.852C168.954 188.454 166.986 196.584 169.266 196.812C171.546 197.04 172.176 195.102 172.164 191.724C172.152 188.346 172.248 181.968 177.348 182.028C182.448 182.088 185.694 184.032 185.448 188.784C185.202 193.536 185.184 197.34 185.982 197.622C185.982 197.622 185.076 192.366 186.198 189.27C186.69 187.914 187.602 186.3 191.838 187.95C196.074 189.6 196.5 192.438 196.962 195.528C197.424 198.618 198.054 201.204 198.054 201.204C198.054 201.204 203.208 200.928 205.092 204.42C206.976 207.912 208.842 217.866 209.502 221.406C211.242 230.676 208.794 240.852 207.378 245.598C206.821 247.426 206.938 249.393 207.708 251.142C209.652 255.522 216.078 267.3 221.268 278.196Z" fill="white"/>
<path opacity="0.5" d="M165.528 257.7C165.216 254.358 159.528 259.392 146.154 247.668C131.31 234.66 135.114 212.364 132.492 213.468C129.87 214.572 129.636 218.94 129.636 218.94C130.14 222.246 131.202 225.882 131.094 231.63C130.95 239.652 140.586 250.032 148.824 257.736C157.062 265.44 163.392 265.374 163.392 265.374C163.392 265.374 169.554 273.606 171.138 276.636C171.774 277.836 172.53 279.576 173.34 281.556H173.49C173.826 281.556 174.156 281.604 174.492 281.628C174.948 281.628 175.398 281.688 175.854 281.706L176.772 281.76C177.822 281.82 178.872 281.874 179.91 281.91C178.5 278.538 177.318 275.838 176.676 274.644C174.12 269.892 165.918 261.864 165.528 257.7Z" fill="#009589"/>
<path opacity="0.5" d="M177.546 202.956C177.395 203.445 177.348 203.96 177.408 204.468C177.592 206.696 178.145 208.878 179.046 210.924C179.084 211.012 179.152 211.083 179.239 211.124C179.325 211.166 179.423 211.174 179.516 211.149C179.608 211.123 179.688 211.065 179.74 210.985C179.793 210.905 179.815 210.809 179.802 210.714C179.294 207.677 179.001 204.607 178.926 201.528C178.926 201 177.726 202.482 177.546 202.956Z" fill="#009589"/>
<path opacity="0.5" d="M192.462 209.01C192.071 207.003 191.788 204.976 191.616 202.938C191.616 202.842 191.568 202.818 191.496 202.848C190.977 203.281 190.566 203.83 190.296 204.45C190.176 204.948 190.164 205.465 190.26 205.968C190.41 207.125 190.679 208.263 191.064 209.364C191.09 209.451 191.133 209.531 191.191 209.6C191.248 209.67 191.319 209.728 191.399 209.769C191.479 209.811 191.566 209.837 191.656 209.845C191.746 209.852 191.836 209.842 191.922 209.814C192.012 209.8 192.098 209.767 192.175 209.719C192.251 209.67 192.317 209.606 192.368 209.53C192.419 209.455 192.453 209.369 192.469 209.28C192.486 209.19 192.483 209.099 192.462 209.01Z" fill="#009589"/>
<path opacity="0.5" d="M154.452 171.954L154.41 175.872L153.81 195.54L152.286 205.74C149.712 213.288 149.142 220.566 147.774 223.194L147.744 223.494C147.684 224.094 147.744 224.94 148.308 225.042C148.728 225.12 149.106 224.688 149.382 224.298C154.488 217.008 158.412 204.39 156.126 188.766C155.646 185.46 156.126 178.11 158.412 175.734C157.452 168.462 156.15 164.67 155.148 157.806C152.892 163.068 154.452 171.954 154.452 171.954Z" fill="#009589"/>
<path opacity="0.5" d="M160.572 204.042C160.402 204.833 160.402 205.651 160.572 206.442C161.041 209.415 161.957 212.3 163.29 214.998C163.377 215.17 163.523 215.305 163.702 215.377C163.88 215.449 164.079 215.453 164.261 215.389C164.443 215.325 164.595 215.197 164.689 215.029C164.783 214.861 164.813 214.664 164.772 214.476C163.755 210.25 163.023 205.96 162.582 201.636C162.492 200.826 160.8 203.274 160.572 204.042Z" fill="#009589"/>
<path opacity="0.5" d="M166.434 178.464C166.418 177.938 166.24 177.43 165.926 177.008C165.612 176.587 165.175 176.272 164.676 176.106C163.476 175.656 161.544 175.608 161.772 176.592C162.476 176.72 163.157 176.951 163.794 177.276C165.756 178.716 164.556 180.036 164.556 180.036C165.486 180.522 166.38 179.508 166.434 178.464Z" fill="#009589"/>
<path opacity="0.5" d="M200.916 205.446C200.886 205.05 200.034 206.244 199.92 206.646C199.833 207.041 199.833 207.451 199.92 207.846C200.03 208.736 200.231 209.613 200.52 210.462C200.568 210.588 200.661 210.691 200.781 210.753C200.901 210.814 201.039 210.83 201.169 210.795C201.299 210.761 201.412 210.68 201.486 210.568C201.56 210.455 201.59 210.319 201.57 210.186C201.266 208.619 201.047 207.037 200.916 205.446Z" fill="#009589"/>
<path d="M173.34 281.562C172.488 279.462 171.804 277.92 171.138 276.642C169.554 273.612 163.392 265.374 163.392 265.374C163.392 265.374 157.068 265.452 148.824 257.742C140.58 250.032 130.95 239.658 131.094 231.636C131.238 223.614 129.114 219.696 129.402 215.076C129.51 213.354 129.96 211.476 129.936 209.472C129.936 206.064 129.54 202.506 131.052 200.706C133.452 197.838 140.61 200.418 142.044 206.256C143.478 212.094 144.168 224.352 146.568 224.256C148.968 224.16 149.07 215.16 152.274 205.764L153.798 195.564L154.398 175.896L154.44 171.978C154.44 171.978 152.7 162.09 155.52 156.978C155.52 156.978 158.37 152.1 161.694 156.258C164.694 160.02 164.61 161.256 166.788 174.858C168.966 188.46 166.998 196.596 169.278 196.83C171.558 197.064 172.188 195.114 172.17 191.736C172.152 188.358 172.26 181.98 177.366 182.046C182.472 182.112 185.7 184.05 185.466 188.796C185.232 193.542 185.196 197.352 185.994 197.64C185.994 197.64 185.088 192.378 186.204 189.282C186.696 187.926 187.614 186.312 191.85 187.956C196.086 189.6 196.512 192.45 196.968 195.54C197.424 198.63 198.066 201.216 198.066 201.216C198.066 201.216 203.22 200.94 205.104 204.432C206.988 207.924 208.854 217.884 209.52 221.424C211.248 230.688 208.806 240.864 207.384 245.61C206.832 247.439 206.951 249.405 207.72 251.154C209.64 255.54 216.072 267.318 221.256 278.214" stroke="#263238" stroke-miterlimit="10" stroke-linecap="round"/>
<path d="M131.142 207.528C131.752 206.858 132.507 206.337 133.35 206.004C136.188 204.726 137.166 204.522 136.806 201.462" stroke="#263238" stroke-linecap="round" stroke-linejoin="round"/>
<path d="M135.336 210.792C135.744 210.6 136.17 210.42 136.626 210.258" stroke="#263238" stroke-linecap="round" stroke-linejoin="round"/>
<path d="M130.68 214.35C131.723 213.108 132.984 212.067 134.4 211.278" stroke="#263238" stroke-linecap="round" stroke-linejoin="round"/>
<path d="M156.114 158.4C156.113 158.59 156.151 158.778 156.224 158.953C156.298 159.128 156.406 159.286 156.542 159.418C156.678 159.55 156.839 159.654 157.017 159.722C157.194 159.79 157.383 159.822 157.572 159.816C159.036 159.852 162.882 160.656 162.426 158.916" stroke="#263238" stroke-linecap="round" stroke-linejoin="round"/>
<path d="M161.166 175.02C162.575 174.776 164.019 174.813 165.414 175.128" stroke="#263238" stroke-linecap="round" stroke-linejoin="round"/>
<path d="M158.4 175.74C158.4 175.74 158.814 175.572 159.492 175.38" stroke="#263238" stroke-linecap="round" stroke-linejoin="round"/>
<path d="M197.334 197.634C197.538 199.236 198.642 203.064 198.642 203.064" stroke="#263238" stroke-linecap="round" stroke-linejoin="round"/>
<path d="M168.552 224.268C171.588 231.93 173.952 239.268 177.588 247.224" stroke="#263238" stroke-linecap="round" stroke-linejoin="round"/>
<path d="M165.474 217.008C166.074 218.334 166.674 219.648 167.196 220.944" stroke="#263238" stroke-linecap="round" stroke-linejoin="round"/>
<path d="M201.84 219.894L201.984 227.37" stroke="#263238" stroke-linecap="round" stroke-linejoin="round"/>
<path d="M201.774 216.342L201.81 218.328" stroke="#263238" stroke-linecap="round" stroke-linejoin="round"/>
<path d="M177.906 199.332C177.84 201.198 177.792 202.65 177.744 204.174C177.684 205.974 178.944 208.374 179.634 210.078C180.834 213.078 181.404 216.762 182.214 219.894" stroke="#263238" stroke-linecap="round" stroke-linejoin="round"/>
<path d="M182.706 222.816L184.398 229.926" stroke="#263238" stroke-linecap="round" stroke-linejoin="round"/>
<path d="M192.564 202.53L192.204 205.83C192.067 207.208 192.327 208.597 192.954 209.832L193.458 217.164" stroke="#263238" stroke-linecap="round" stroke-linejoin="round"/>
<path d="M131.574 235.152C133.915 240.718 137.961 245.399 143.13 248.52" stroke="#263238" stroke-linecap="round" stroke-linejoin="round"/>
<path d="M156.564 256.734L161.04 258.696C161.694 261.168 160.326 262.644 167.196 270.618" stroke="#263238" stroke-linecap="round" stroke-linejoin="round"/>
<path d="M228.672 41.9339V33.8579" stroke="#263238" stroke-linecap="round" stroke-linejoin="round"/>
<path d="M228.672 62.8197C232.715 62.8197 235.992 59.5424 235.992 55.4997C235.992 51.457 232.715 48.1797 228.672 48.1797C224.629 48.1797 221.352 51.457 221.352 55.4997C221.352 59.5424 224.629 62.8197 228.672 62.8197Z" fill="white"/>
<path d="M210.894 58.4998C210.851 56.1373 211.279 53.7898 212.153 51.5945C213.027 49.3992 214.33 47.4001 215.985 45.714C217.64 44.0279 219.615 42.6886 221.794 41.7743C223.973 40.86 226.312 40.3892 228.675 40.3892C231.038 40.3892 233.377 40.86 235.556 41.7743C237.735 42.6886 239.71 44.0279 241.365 45.714C243.021 47.4001 244.323 49.3992 245.198 51.5945C246.072 53.7898 246.5 56.1373 246.456 58.4998H210.894Z" fill="#009589" stroke="#263238" stroke-linecap="round" stroke-linejoin="round"/>
<path d="M231.966 41.0278C231.422 40.9241 230.874 40.848 230.322 40.7998C225.913 41.2123 221.817 43.2553 218.835 46.5291C215.853 49.8028 214.2 54.0716 214.2 58.4998H217.494C217.494 54.358 218.94 50.3461 221.582 47.1564C224.224 43.9667 227.897 41.7992 231.966 41.0278Z" fill="#263238" stroke="#263238" stroke-linecap="round" stroke-linejoin="round"/>
<path d="M228.108 77.4719V70.2539" stroke="#263238" stroke-miterlimit="10"/>
<path d="M228.108 82.1159V79.7939" stroke="#263238" stroke-miterlimit="10"/>
<path d="M239.946 72.5757L234.798 67.4277" stroke="#263238" stroke-miterlimit="10"/>
<path d="M243.222 75.8519L241.188 73.8179" stroke="#263238" stroke-miterlimit="10"/>
<path d="M239.946 60.7378H237.624" stroke="#263238" stroke-miterlimit="10"/>
<path d="M249.492 60.7378H242.208" stroke="#263238" stroke-miterlimit="10"/>
<path d="M214.188 60.7378H206.73" stroke="#263238" stroke-miterlimit="10"/>
<path d="M218.34 60.7378H216.264" stroke="#263238" stroke-miterlimit="10"/>
<path d="M215.028 73.8179L212.988 75.8519" stroke="#263238" stroke-miterlimit="10"/>
<path d="M221.28 67.5601L216.264 72.5761" stroke="#263238" stroke-miterlimit="10"/>
<path d="M72.2042 218.298C71.6281 216.075 71.5077 213.759 71.8502 211.488C71.0325 212.935 70.2974 214.428 69.6482 215.958C68.5802 218.442 66.4262 219.438 65.7662 218.214C65.3582 217.458 65.5622 216.528 65.7662 215.688L67.5122 208.902C66.2282 206.838 65.3402 214.218 62.2202 218.046C61.9407 218.371 61.5646 218.598 61.1469 218.694C60.7291 218.79 60.2916 218.75 59.8982 218.58C58.2482 217.752 59.2982 215.58 60.0182 214.062C61.2662 211.53 61.6022 209.16 60.4202 206.598C59.0402 209.79 56.4842 211.866 53.6462 213.888C52.8362 214.488 51.8462 215.016 50.8622 214.56C50.402 214.324 50.0373 213.937 49.8295 213.464C49.6218 212.991 49.5839 212.46 49.7222 211.962C50.1842 210.012 51.9302 209.07 53.3222 207.87C54.4682 206.892 55.4882 205.422 55.0802 203.97C52.9363 207.129 49.7085 209.391 46.0082 210.33C45.6973 210.407 45.3696 210.38 45.0758 210.252C44.782 210.124 44.5385 209.903 44.3828 209.623C44.2271 209.343 44.1679 209.02 44.2145 208.703C44.261 208.386 44.4106 208.093 44.6402 207.87L48.7682 203.838C45.3756 205.056 41.8734 205.944 38.3102 206.49C37.9645 206.549 37.6091 206.48 37.3109 206.295C37.0126 206.111 36.7919 205.824 36.6902 205.488C36.4922 204.744 37.0982 204.288 37.6502 203.91C43.4702 200.18 50.4898 198.801 57.2882 200.052C66.3962 201.768 76.4882 208.584 74.2382 218.256C74.1809 218.479 74.052 218.678 73.8712 218.821C73.6904 218.964 73.4678 219.044 73.2372 219.049C73.0066 219.054 72.7808 218.983 72.5942 218.847C72.4077 218.712 72.2707 218.519 72.2042 218.298Z" fill="#009589"/>
<path opacity="0.1" d="M72.2042 218.298C71.6281 216.075 71.5077 213.759 71.8502 211.488C71.0325 212.935 70.2974 214.428 69.6482 215.958C68.5802 218.442 66.4262 219.438 65.7662 218.214C65.3582 217.458 65.5622 216.528 65.7662 215.688L67.5122 208.902C66.2282 206.838 65.3402 214.218 62.2202 218.046C61.9407 218.371 61.5646 218.598 61.1469 218.694C60.7291 218.79 60.2916 218.75 59.8982 218.58C58.2482 217.752 59.2982 215.58 60.0182 214.062C61.2662 211.53 61.6022 209.16 60.4202 206.598C59.0402 209.79 56.4842 211.866 53.6462 213.888C52.8362 214.488 51.8462 215.016 50.8622 214.56C50.402 214.324 50.0373 213.937 49.8295 213.464C49.6218 212.991 49.5839 212.46 49.7222 211.962C50.1842 210.012 51.9302 209.07 53.3222 207.87C54.4682 206.892 55.4882 205.422 55.0802 203.97C52.9363 207.129 49.7085 209.391 46.0082 210.33C45.6973 210.407 45.3696 210.38 45.0758 210.252C44.782 210.124 44.5385 209.903 44.3828 209.623C44.2271 209.343 44.1679 209.02 44.2145 208.703C44.261 208.386 44.4106 208.093 44.6402 207.87L48.7682 203.838C45.3756 205.056 41.8734 205.944 38.3102 206.49C37.9645 206.549 37.6091 206.48 37.3109 206.295C37.0126 206.111 36.7919 205.824 36.6902 205.488C36.4922 204.744 37.0982 204.288 37.6502 203.91C43.4702 200.18 50.4898 198.801 57.2882 200.052C66.3962 201.768 76.4882 208.584 74.2382 218.256C74.1809 218.479 74.052 218.678 73.8712 218.821C73.6904 218.964 73.4678 219.044 73.2372 219.049C73.0066 219.054 72.7808 218.983 72.5942 218.847C72.4077 218.712 72.2707 218.519 72.2042 218.298Z" fill="black"/>
<path d="M47.4722 201.564C59.0222 200.364 68.1242 205.02 73.4522 211.248C73.6142 211.44 73.7762 211.632 73.9322 211.848C77.8742 216.648 80.6822 222.168 82.9862 227.964" stroke="#263238" stroke-linecap="round" stroke-linejoin="round"/>
<path d="M39.7021 203.202C41.2776 202.709 42.8803 202.309 44.5021 202.002" stroke="#263238" stroke-linecap="round" stroke-linejoin="round"/>
<path d="M80.8383 194.292C80.9095 193.979 80.8635 193.652 80.7092 193.371C80.5549 193.09 80.3029 192.876 80.001 192.769C79.6991 192.661 79.3684 192.669 79.0715 192.789C78.7746 192.909 78.5322 193.135 78.3903 193.422C77.9076 194.389 77.5719 195.422 77.3943 196.488C78.3386 194.456 78.731 192.211 78.5319 189.979C78.3329 187.747 77.5494 185.607 76.2603 183.774C76.1096 183.564 75.9003 183.404 75.6586 183.313C75.417 183.222 75.1538 183.205 74.9023 183.263C74.6508 183.321 74.4222 183.453 74.2453 183.641C74.0685 183.829 73.9512 184.065 73.9083 184.32C73.5521 186.61 73.6582 188.948 74.2203 191.196C73.5603 186.629 72.0827 182.219 69.8583 178.176C69.4203 177.384 68.8563 176.526 67.8903 176.466C67.4318 176.456 66.9845 176.608 66.6261 176.894C66.2676 177.18 66.0207 177.583 65.9283 178.032C65.5323 179.7 66.5283 181.086 67.3863 182.4C68.1003 183.48 68.7903 184.722 68.5863 186C65.6375 182.146 62.2508 178.649 58.4943 175.578C57.4863 174.762 56.2143 173.916 54.9603 174.66C54.5875 174.901 54.2933 175.246 54.1142 175.652C53.9351 176.058 53.8788 176.508 53.9523 176.946C54.2103 178.794 55.7523 179.85 57.1563 180.81C55.6472 179.289 53.7857 178.164 51.7371 177.536C49.6886 176.908 47.5166 176.796 45.4143 177.21C45.1471 177.267 44.9046 177.407 44.7208 177.609C44.537 177.811 44.421 178.065 44.3893 178.337C44.3575 178.608 44.4115 178.883 44.5437 179.122C44.6759 179.361 44.8796 179.552 45.1263 179.67L49.5783 181.8C48.4451 181.663 47.2958 181.756 46.1997 182.075C45.1036 182.393 44.0833 182.931 43.2003 183.654C43.0003 183.824 42.8566 184.051 42.7881 184.305C42.7197 184.559 42.7296 184.827 42.8166 185.075C42.9036 185.323 43.0636 185.539 43.2756 185.695C43.4875 185.85 43.7416 185.938 44.0043 185.946L50.6043 186.204L47.3823 189.204C47.1833 189.385 47.0454 189.624 46.9877 189.887C46.9299 190.15 46.955 190.424 47.0597 190.672C47.1643 190.92 47.3432 191.13 47.5718 191.272C47.8005 191.414 48.0675 191.482 48.3363 191.466L58.5363 190.938C57.0771 190.827 55.6221 191.201 54.3963 192C54.1851 192.147 54.022 192.352 53.9272 192.592C53.8323 192.831 53.8101 193.092 53.8633 193.344C53.9164 193.596 54.0426 193.826 54.2259 194.006C54.4093 194.187 54.6418 194.309 54.8943 194.358C58.1895 195.034 61.5757 195.146 64.9083 194.688C63.4549 195.099 62.1012 195.804 60.9303 196.758C60.7545 196.907 60.6213 197.099 60.5443 197.316C60.4672 197.533 60.4492 197.767 60.4919 197.993C60.5345 198.219 60.6365 198.43 60.7873 198.604C60.9381 198.778 61.1324 198.909 61.3503 198.984C64.9503 200.226 68.7663 201.852 72.2523 202.92C71.2863 203.052 69.6483 202.662 68.1303 202.464C67.8546 202.426 67.574 202.477 67.3296 202.611C67.0853 202.744 66.8901 202.952 66.7727 203.204C66.6553 203.457 66.6218 203.74 66.6771 204.013C66.7325 204.285 66.8738 204.533 67.0803 204.72C70.8963 208.2 75.4323 212.94 78.8643 208.17C80.2083 206.304 79.5243 201.612 79.8663 199.314C80.1183 197.638 80.4423 195.964 80.8383 194.292Z" fill="#009589"/>
<path opacity="0.1" d="M80.8383 194.292C80.9095 193.979 80.8635 193.652 80.7092 193.371C80.5549 193.09 80.3029 192.876 80.001 192.769C79.6991 192.661 79.3684 192.669 79.0715 192.789C78.7746 192.909 78.5322 193.135 78.3903 193.422C77.9076 194.389 77.5719 195.422 77.3943 196.488C78.3386 194.456 78.731 192.211 78.5319 189.979C78.3329 187.747 77.5494 185.607 76.2603 183.774C76.1096 183.564 75.9003 183.404 75.6586 183.313C75.417 183.222 75.1538 183.205 74.9023 183.263C74.6508 183.321 74.4222 183.453 74.2453 183.641C74.0685 183.829 73.9512 184.065 73.9083 184.32C73.5521 186.61 73.6582 188.948 74.2203 191.196C73.5603 186.629 72.0827 182.219 69.8583 178.176C69.4203 177.384 68.8563 176.526 67.8903 176.466C67.4318 176.456 66.9845 176.608 66.6261 176.894C66.2676 177.18 66.0207 177.583 65.9283 178.032C65.5323 179.7 66.5283 181.086 67.3863 182.4C68.1003 183.48 68.7903 184.722 68.5863 186C65.6375 182.146 62.2508 178.649 58.4943 175.578C57.4863 174.762 56.2143 173.916 54.9603 174.66C54.5875 174.901 54.2933 175.246 54.1142 175.652C53.9351 176.058 53.8788 176.508 53.9523 176.946C54.2103 178.794 55.7523 179.85 57.1563 180.81C55.6472 179.289 53.7857 178.164 51.7371 177.536C49.6886 176.908 47.5166 176.796 45.4143 177.21C45.1471 177.267 44.9046 177.407 44.7208 177.609C44.537 177.811 44.421 178.065 44.3893 178.337C44.3575 178.608 44.4115 178.883 44.5437 179.122C44.6759 179.361 44.8796 179.552 45.1263 179.67L49.5783 181.8C48.4451 181.663 47.2958 181.756 46.1997 182.075C45.1036 182.393 44.0833 182.931 43.2003 183.654C43.0003 183.824 42.8566 184.051 42.7881 184.305C42.7197 184.559 42.7296 184.827 42.8166 185.075C42.9036 185.323 43.0636 185.539 43.2756 185.695C43.4875 185.85 43.7416 185.938 44.0043 185.946L50.6043 186.204L47.3823 189.204C47.1833 189.385 47.0454 189.624 46.9877 189.887C46.9299 190.15 46.955 190.424 47.0597 190.672C47.1643 190.92 47.3432 191.13 47.5718 191.272C47.8005 191.414 48.0675 191.482 48.3363 191.466L58.5363 190.938C57.0771 190.827 55.6221 191.201 54.3963 192C54.1851 192.147 54.022 192.352 53.9272 192.592C53.8323 192.831 53.8101 193.092 53.8633 193.344C53.9164 193.596 54.0426 193.826 54.2259 194.006C54.4093 194.187 54.6418 194.309 54.8943 194.358C58.1895 195.034 61.5757 195.146 64.9083 194.688C63.4549 195.099 62.1012 195.804 60.9303 196.758C60.7545 196.907 60.6213 197.099 60.5443 197.316C60.4672 197.533 60.4492 197.767 60.4919 197.993C60.5345 198.219 60.6365 198.43 60.7873 198.604C60.9381 198.778 61.1324 198.909 61.3503 198.984C64.9503 200.226 68.7663 201.852 72.2523 202.92C71.2863 203.052 69.6483 202.662 68.1303 202.464C67.8546 202.426 67.574 202.477 67.3296 202.611C67.0853 202.744 66.8901 202.952 66.7727 203.204C66.6553 203.457 66.6218 203.74 66.6771 204.013C66.7325 204.285 66.8738 204.533 67.0803 204.72C70.8963 208.2 75.4323 212.94 78.8643 208.17C80.2083 206.304 79.5243 201.612 79.8663 199.314C80.1183 197.638 80.4423 195.964 80.8383 194.292Z" fill="white"/>
<path d="M76.3862 203.1C77.2373 204.877 77.9631 206.712 78.5582 208.59C80.301 214.132 80.9131 219.967 80.3582 225.75" stroke="#263238" stroke-linecap="round" stroke-linejoin="round"/>
<path d="M53.5322 181.908C62.0593 185.295 69.2863 191.31 74.1662 199.08" stroke="#263238" stroke-linecap="round" stroke-linejoin="round"/>
<path d="M88.3501 219.636C91.7881 218.07 94.6021 214.656 95.9281 210.336C95.0101 215.328 96.4801 218.046 97.8121 218.592C99.1441 219.138 100.8 218.4 101.538 217.2C101.884 216.563 102.096 215.861 102.161 215.139C102.226 214.417 102.143 213.689 101.916 213C101.214 210.51 99.7681 206.67 99.7681 206.67C101.091 208.126 102.792 209.185 104.682 209.73C105.578 210.031 106.554 209.993 107.424 209.622C110.04 208.422 109.428 204.9 107.484 203.316C105.805 202.026 103.783 201.258 101.67 201.108C101.112 200.508 104.916 199.446 106.764 199.338C111.144 199.08 113.238 193.134 106.518 193.338C105.006 193.386 101.346 193.44 101.346 193.44C105.294 193.212 108.888 189.048 108.66 186.24C108.51 184.41 106.26 183.318 104.538 183.894C102.534 184.56 100.986 185.604 99.3661 185.796C102.9 184.794 106.266 174.534 102.93 173.07C100.026 171.804 98.6701 178.47 98.0401 181.53C97.8241 180.024 97.8421 176.46 95.2621 171.636C94.5073 170.215 93.3112 169.078 91.8541 168.396C90.0541 167.568 88.8541 169.86 88.9861 171.6C89.0954 172.671 89.4618 173.7 90.0541 174.6C93.6691 180.31 95.4701 186.98 95.2201 193.734C94.6261 207.9 90.6001 216.834 88.3501 219.636Z" fill="#009589"/>
<path opacity="0.1" d="M88.3501 219.636C91.7881 218.07 94.6021 214.656 95.9281 210.336C95.0101 215.328 96.4801 218.046 97.8121 218.592C99.1441 219.138 100.8 218.4 101.538 217.2C101.884 216.563 102.096 215.861 102.161 215.139C102.226 214.417 102.143 213.689 101.916 213C101.214 210.51 99.7681 206.67 99.7681 206.67C101.091 208.126 102.792 209.185 104.682 209.73C105.578 210.031 106.554 209.993 107.424 209.622C110.04 208.422 109.428 204.9 107.484 203.316C105.805 202.026 103.783 201.258 101.67 201.108C101.112 200.508 104.916 199.446 106.764 199.338C111.144 199.08 113.238 193.134 106.518 193.338C105.006 193.386 101.346 193.44 101.346 193.44C105.294 193.212 108.888 189.048 108.66 186.24C108.51 184.41 106.26 183.318 104.538 183.894C102.534 184.56 100.986 185.604 99.3661 185.796C102.9 184.794 106.266 174.534 102.93 173.07C100.026 171.804 98.6701 178.47 98.0401 181.53C97.8241 180.024 97.8421 176.46 95.2621 171.636C94.5073 170.215 93.3112 169.078 91.8541 168.396C90.0541 167.568 88.8541 169.86 88.9861 171.6C89.0954 172.671 89.4618 173.7 90.0541 174.6C93.6691 180.31 95.4701 186.98 95.2201 193.734C94.6261 207.9 90.6001 216.834 88.3501 219.636Z" fill="white"/>
<path d="M92.3523 174.258C95.6583 180.174 96.9183 186.858 96.6123 193.62C95.8983 209.148 87.7743 221.712 80.5083 229.992" stroke="#263238" stroke-linecap="round" stroke-linejoin="round"/>
<path d="M77.6101 166.98C77.8077 164.986 78.3604 163.043 79.2421 161.244C79.6201 160.47 80.1421 159.648 81.1561 159.672C81.5434 159.695 81.9139 159.838 82.2153 160.083C82.5166 160.327 82.7338 160.66 82.8361 161.034C83.3041 162.612 82.3921 163.974 81.5221 165.198C81.2281 164.274 82.4881 163.038 83.4481 163.188C84.4081 163.338 84.7261 164.466 84.4261 165.306C84.0435 166.112 83.4348 166.79 82.6741 167.256C83.0101 166.692 84.4141 166.614 85.0741 166.8C85.3868 166.901 85.659 167.099 85.8512 167.366C86.0433 167.632 86.1452 167.953 86.1421 168.282C86.0821 170.082 83.1421 170.592 82.9321 172.374C83.7863 171.701 84.7591 171.194 85.8001 170.88C86.1903 170.755 86.6125 170.774 86.9894 170.935C87.3663 171.096 87.6725 171.388 87.8521 171.756C87.9715 172.29 87.8836 172.85 87.6061 173.322C86.8373 174.937 85.563 176.258 83.9761 177.084C84.6841 176.712 85.4401 176.262 86.2021 175.8C86.6121 175.547 87.0912 175.429 87.5717 175.463C88.0523 175.497 88.51 175.682 88.8801 175.99C89.2502 176.299 89.514 176.715 89.6342 177.182C89.7544 177.649 89.725 178.141 89.5501 178.59V178.632C89.2245 179.381 88.7463 180.054 88.1461 180.607C87.5459 181.161 86.8368 181.584 86.0641 181.848C87.095 180.986 88.2828 180.332 89.5621 179.922C90.2961 179.664 91.0961 179.664 91.8301 179.922C94.0561 180.78 93.8161 183.438 92.5081 184.884C91.4581 186.048 89.9281 186.618 88.4521 187.152C89.1541 186.252 91.9141 186.666 92.7601 187.434C93.1632 187.84 93.4418 188.353 93.563 188.912C93.6842 189.471 93.6429 190.053 93.4441 190.59C93.0205 191.662 92.235 192.551 91.2241 193.104C90.2172 193.647 89.1499 194.07 88.0441 194.364C89.1301 193.83 90.9241 193.674 91.8901 194.4C92.3702 194.768 92.7415 195.259 92.9644 195.821C93.1874 196.383 93.2536 196.995 93.1561 197.592C92.8681 199.248 91.4161 200.394 90.2821 201.636C88.7521 203.304 86.2261 209.214 86.2021 209.436C84.5761 207.066 82.7461 204.282 80.3941 202.626C77.8201 200.826 75.2401 198.63 74.5021 195.492C74.4251 195.191 74.4368 194.873 74.5358 194.579C74.6347 194.284 74.8168 194.024 75.0601 193.83C76.0081 193.116 77.1661 194.016 77.9161 194.844C78.1081 192.96 75.1141 192.312 75.0961 190.47C75.1044 190.169 75.1879 189.876 75.3388 189.616C75.4897 189.356 75.7033 189.138 75.9601 188.982C76.7299 188.571 77.5965 188.376 78.4681 188.418C78.769 188.377 79.0754 188.416 79.3561 188.532C79.4945 188.592 79.6054 188.702 79.6665 188.839C79.7277 188.977 79.7347 189.133 79.6861 189.276C79.5541 189.552 79.0501 189.534 79.0141 189.234C78.9121 188.484 77.4301 186.978 76.8781 186.456C76.3261 185.934 75.8161 185.208 76.0021 184.47C76.1166 184.142 76.3284 183.856 76.6092 183.652C76.8901 183.447 77.2266 183.333 77.5741 183.324C78.2701 183.276 80.1121 184.122 80.7661 184.356C80.6881 184.488 79.4461 184.002 79.3681 184.128C78.4201 183.648 77.8561 182.7 76.9681 182.118C76.1951 181.68 75.5386 181.063 75.0541 180.318C74.8207 179.939 74.7094 179.498 74.7351 179.053C74.7609 178.609 74.9225 178.183 75.1981 177.834C75.7981 177.186 78.1981 177.576 78.4981 178.434C77.4301 177.672 76.0981 176.634 75.0241 175.854C74.4095 175.473 73.8738 174.979 73.4461 174.396C73.2379 174.1 73.1174 173.752 73.0982 173.391C73.0791 173.031 73.1623 172.672 73.3381 172.356C73.5091 172.107 73.7543 171.919 74.0387 171.817C74.3232 171.716 74.6323 171.707 74.9221 171.792C75.5221 171.978 76.7881 172.32 76.7761 172.92C75.9176 171.639 74.9283 170.45 73.8241 169.374C73.6918 169.25 73.5993 169.09 73.5584 168.914C73.5175 168.737 73.53 168.553 73.5944 168.383C73.6587 168.214 73.772 168.068 73.9198 167.963C74.0675 167.859 74.2431 167.8 74.4241 167.796C74.8421 167.774 75.2579 167.869 75.6241 168.072C74.0221 167.052 72.7561 165.606 71.4241 164.238C71.2916 164.108 71.2013 163.941 71.1649 163.759C71.1285 163.577 71.1478 163.389 71.2201 163.218C71.4541 162.732 71.9761 162.798 72.4201 162.912C74.5845 163.597 76.4279 165.042 77.6101 166.98Z" fill="#009589"/>
<g opacity="0.1">
<path d="M77.6101 166.98C77.8077 164.986 78.3604 163.043 79.2421 161.244C79.6201 160.47 80.1421 159.648 81.1561 159.672C81.5434 159.695 81.9139 159.838 82.2153 160.083C82.5166 160.327 82.7338 160.66 82.8361 161.034C83.3041 162.612 82.3921 163.974 81.5221 165.198C81.2281 164.274 82.4881 163.038 83.4481 163.188C84.4081 163.338 84.7261 164.466 84.4261 165.306C84.0435 166.112 83.4348 166.79 82.6741 167.256C83.0101 166.692 84.4141 166.614 85.0741 166.8C85.3868 166.901 85.659 167.099 85.8512 167.366C86.0433 167.632 86.1452 167.953 86.1421 168.282C86.0821 170.082 83.1421 170.592 82.9321 172.374C83.7863 171.701 84.7591 171.194 85.8001 170.88C86.1903 170.755 86.6125 170.774 86.9894 170.935C87.3663 171.096 87.6725 171.388 87.8521 171.756C87.9715 172.29 87.8836 172.85 87.6061 173.322C86.8373 174.937 85.563 176.258 83.9761 177.084C84.6841 176.712 85.4401 176.262 86.2021 175.8C86.6121 175.547 87.0912 175.429 87.5717 175.463C88.0523 175.497 88.51 175.682 88.8801 175.99C89.2502 176.299 89.514 176.715 89.6342 177.182C89.7544 177.649 89.725 178.141 89.5501 178.59V178.632C89.2245 179.381 88.7463 180.054 88.1461 180.607C87.5459 181.161 86.8368 181.584 86.0641 181.848C87.095 180.986 88.2828 180.332 89.5621 179.922C90.2961 179.664 91.0961 179.664 91.8301 179.922C94.0561 180.78 93.8161 183.438 92.5081 184.884C91.4581 186.048 89.9281 186.618 88.4521 187.152C89.1541 186.252 91.9141 186.666 92.7601 187.434C93.1632 187.84 93.4418 188.353 93.563 188.912C93.6842 189.471 93.6429 190.053 93.4441 190.59C93.0205 191.662 92.235 192.551 91.2241 193.104C90.2172 193.647 89.1499 194.07 88.0441 194.364C89.1301 193.83 90.9241 193.674 91.8901 194.4C92.3702 194.768 92.7415 195.259 92.9644 195.821C93.1874 196.383 93.2536 196.995 93.1561 197.592C92.8681 199.248 91.4161 200.394 90.2821 201.636C88.7521 203.304 86.2261 209.214 86.2021 209.436C84.5761 207.066 82.7461 204.282 80.3941 202.626C77.8201 200.826 75.2401 198.63 74.5021 195.492C74.4251 195.191 74.4368 194.873 74.5358 194.579C74.6347 194.284 74.8168 194.024 75.0601 193.83C76.0081 193.116 77.1661 194.016 77.9161 194.844C78.1081 192.96 75.1141 192.312 75.0961 190.47C75.1044 190.169 75.1879 189.876 75.3388 189.616C75.4897 189.356 75.7033 189.138 75.9601 188.982C76.7299 188.571 77.5965 188.376 78.4681 188.418C78.769 188.377 79.0754 188.416 79.3561 188.532C79.4945 188.592 79.6054 188.702 79.6665 188.839C79.7277 188.977 79.7347 189.133 79.6861 189.276C79.5541 189.552 79.0501 189.534 79.0141 189.234C78.9121 188.484 77.4301 186.978 76.8781 186.456C76.3261 185.934 75.8161 185.208 76.0021 184.47C76.1166 184.142 76.3284 183.856 76.6092 183.652C76.8901 183.447 77.2266 183.333 77.5741 183.324C78.2701 183.276 80.1121 184.122 80.7661 184.356C80.6881 184.488 79.4461 184.002 79.3681 184.128C78.4201 183.648 77.8561 182.7 76.9681 182.118C76.1951 181.68 75.5386 181.063 75.0541 180.318C74.8207 179.939 74.7094 179.498 74.7351 179.053C74.7609 178.609 74.9225 178.183 75.1981 177.834C75.7981 177.186 78.1981 177.576 78.4981 178.434C77.4301 177.672 76.0981 176.634 75.0241 175.854C74.4095 175.473 73.8738 174.979 73.4461 174.396C73.2379 174.1 73.1174 173.752 73.0982 173.391C73.0791 173.031 73.1623 172.672 73.3381 172.356C73.5091 172.107 73.7543 171.919 74.0387 171.817C74.3232 171.716 74.6323 171.707 74.9221 171.792C75.5221 171.978 76.7881 172.32 76.7761 172.92C75.9176 171.639 74.9283 170.45 73.8241 169.374C73.6918 169.25 73.5993 169.09 73.5584 168.914C73.5175 168.737 73.53 168.553 73.5944 168.383C73.6587 168.214 73.772 168.068 73.9198 167.963C74.0675 167.859 74.2431 167.8 74.4241 167.796C74.8421 167.774 75.2579 167.869 75.6241 168.072C74.0221 167.052 72.7561 165.606 71.4241 164.238C71.2916 164.108 71.2013 163.941 71.1649 163.759C71.1285 163.577 71.1478 163.389 71.2201 163.218C71.4541 162.732 71.9761 162.798 72.4201 162.912C74.5845 163.597 76.4279 165.042 77.6101 166.98Z" fill="black"/>
</g>
<path d="M82.9324 181.71C89.9284 207.51 84.6544 223.668 79.2544 233.622" stroke="#263238" stroke-linecap="round" stroke-linejoin="round"/>
<path d="M79.6021 171.276C80.2321 173.016 80.8021 174.714 81.3481 176.376" stroke="#263238" stroke-linecap="round" stroke-linejoin="round"/>
<path d="M63.834 224.16L68.286 253.932H94.956V253.926L99.408 224.16H63.834Z" fill="white" stroke="black" stroke-miterlimit="10"/>
<path d="M68.334 254.028L69.612 261.678H71.598L72.366 259.14H90.918L91.692 261.678H93.678L94.956 253.932H94.518H72.948L68.334 254.028Z" stroke="black" stroke-miterlimit="10"/>
<path d="M94.5181 253.932H94.9561V253.926L94.5181 253.932Z" stroke="black" stroke-miterlimit="10"/>
<path d="M72.6001 253.932H72.9481L72.8641 253.926L72.6001 253.932Z" stroke="black" stroke-miterlimit="10"/>
</svg>
