<svg width="32" height="32" viewBox="0 0 32 32" fill="none" xmlns="http://www.w3.org/2000/svg">
<g id="entypo-social:youtube-with-circle" clip-path="url(#clip0_334_1091)">
<path id="Vector" d="M18.5649 15.7324L14.9713 14.0556C14.6577 13.91 14.4001 14.0732 14.4001 14.4204V17.5788C14.4001 17.9261 14.6577 18.0892 14.9713 17.9436L18.5633 16.2668C18.8785 16.1196 18.8785 15.8796 18.5649 15.7324ZM16.0001 0.639648C7.51694 0.639648 0.640137 7.51645 0.640137 15.9996C0.640137 24.4828 7.51694 31.3596 16.0001 31.3596C24.4833 31.3596 31.3601 24.4828 31.3601 15.9996C31.3601 7.51645 24.4833 0.639648 16.0001 0.639648ZM16.0001 22.2396C8.13774 22.2396 8.00014 21.5308 8.00014 15.9996C8.00014 10.4684 8.13774 9.75965 16.0001 9.75965C23.8625 9.75965 24.0001 10.4684 24.0001 15.9996C24.0001 21.5308 23.8625 22.2396 16.0001 22.2396Z" fill="#006E7C" fill-opacity="0.5"/>
</g>
<defs>
<clipPath id="clip0_334_1091">
<rect width="32" height="32" fill="white"/>
</clipPath>
</defs>
</svg>
